G04 #@! TF.GenerationSoftware,KiCad,Pcbnew,(5.1.10-1-10_14)*
G04 #@! TF.CreationDate,2021-10-18T21:07:58+02:00*
G04 #@! TF.ProjectId,roodialino,726f6f64-6961-46c6-996e-6f2e6b696361,1.0*
G04 #@! TF.SameCoordinates,Original*
G04 #@! TF.FileFunction,Paste,Top*
G04 #@! TF.FilePolarity,Positive*
%FSLAX46Y46*%
G04 Gerber Fmt 4.6, Leading zero omitted, Abs format (unit mm)*
G04 Created by KiCad (PCBNEW (5.1.10-1-10_14)) date 2021-10-18 21:07:58*
%MOMM*%
%LPD*%
G01*
G04 APERTURE LIST*
%ADD10R,0.800000X0.900000*%
%ADD11R,0.900000X0.800000*%
%ADD12R,1.700000X1.000000*%
%ADD13R,1.600000X0.550000*%
%ADD14R,0.550000X1.600000*%
%ADD15R,1.400000X1.200000*%
G04 APERTURE END LIST*
G36*
G01*
X146428000Y-112557000D02*
X145928000Y-112557000D01*
G75*
G02*
X145703000Y-112332000I0J225000D01*
G01*
X145703000Y-111882000D01*
G75*
G02*
X145928000Y-111657000I225000J0D01*
G01*
X146428000Y-111657000D01*
G75*
G02*
X146653000Y-111882000I0J-225000D01*
G01*
X146653000Y-112332000D01*
G75*
G02*
X146428000Y-112557000I-225000J0D01*
G01*
G37*
G36*
G01*
X146428000Y-111007000D02*
X145928000Y-111007000D01*
G75*
G02*
X145703000Y-110782000I0J225000D01*
G01*
X145703000Y-110332000D01*
G75*
G02*
X145928000Y-110107000I225000J0D01*
G01*
X146428000Y-110107000D01*
G75*
G02*
X146653000Y-110332000I0J-225000D01*
G01*
X146653000Y-110782000D01*
G75*
G02*
X146428000Y-111007000I-225000J0D01*
G01*
G37*
G36*
G01*
X155914001Y-102968000D02*
X153713999Y-102968000D01*
G75*
G02*
X153464000Y-102718001I0J249999D01*
G01*
X153464000Y-102067999D01*
G75*
G02*
X153713999Y-101818000I249999J0D01*
G01*
X155914001Y-101818000D01*
G75*
G02*
X156164000Y-102067999I0J-249999D01*
G01*
X156164000Y-102718001D01*
G75*
G02*
X155914001Y-102968000I-249999J0D01*
G01*
G37*
G36*
G01*
X155914001Y-100018000D02*
X153713999Y-100018000D01*
G75*
G02*
X153464000Y-99768001I0J249999D01*
G01*
X153464000Y-99117999D01*
G75*
G02*
X153713999Y-98868000I249999J0D01*
G01*
X155914001Y-98868000D01*
G75*
G02*
X156164000Y-99117999I0J-249999D01*
G01*
X156164000Y-99768001D01*
G75*
G02*
X155914001Y-100018000I-249999J0D01*
G01*
G37*
G36*
G01*
X138562000Y-100201000D02*
X139062000Y-100201000D01*
G75*
G02*
X139287000Y-100426000I0J-225000D01*
G01*
X139287000Y-100876000D01*
G75*
G02*
X139062000Y-101101000I-225000J0D01*
G01*
X138562000Y-101101000D01*
G75*
G02*
X138337000Y-100876000I0J225000D01*
G01*
X138337000Y-100426000D01*
G75*
G02*
X138562000Y-100201000I225000J0D01*
G01*
G37*
G36*
G01*
X138562000Y-101751000D02*
X139062000Y-101751000D01*
G75*
G02*
X139287000Y-101976000I0J-225000D01*
G01*
X139287000Y-102426000D01*
G75*
G02*
X139062000Y-102651000I-225000J0D01*
G01*
X138562000Y-102651000D01*
G75*
G02*
X138337000Y-102426000I0J225000D01*
G01*
X138337000Y-101976000D01*
G75*
G02*
X138562000Y-101751000I225000J0D01*
G01*
G37*
G36*
G01*
X131900000Y-110740000D02*
X131900000Y-110400000D01*
G75*
G02*
X132040000Y-110260000I140000J0D01*
G01*
X132320000Y-110260000D01*
G75*
G02*
X132460000Y-110400000I0J-140000D01*
G01*
X132460000Y-110740000D01*
G75*
G02*
X132320000Y-110880000I-140000J0D01*
G01*
X132040000Y-110880000D01*
G75*
G02*
X131900000Y-110740000I0J140000D01*
G01*
G37*
G36*
G01*
X130940000Y-110740000D02*
X130940000Y-110400000D01*
G75*
G02*
X131080000Y-110260000I140000J0D01*
G01*
X131360000Y-110260000D01*
G75*
G02*
X131500000Y-110400000I0J-140000D01*
G01*
X131500000Y-110740000D01*
G75*
G02*
X131360000Y-110880000I-140000J0D01*
G01*
X131080000Y-110880000D01*
G75*
G02*
X130940000Y-110740000I0J140000D01*
G01*
G37*
G36*
G01*
X130940000Y-112518000D02*
X130940000Y-112178000D01*
G75*
G02*
X131080000Y-112038000I140000J0D01*
G01*
X131360000Y-112038000D01*
G75*
G02*
X131500000Y-112178000I0J-140000D01*
G01*
X131500000Y-112518000D01*
G75*
G02*
X131360000Y-112658000I-140000J0D01*
G01*
X131080000Y-112658000D01*
G75*
G02*
X130940000Y-112518000I0J140000D01*
G01*
G37*
G36*
G01*
X131900000Y-112518000D02*
X131900000Y-112178000D01*
G75*
G02*
X132040000Y-112038000I140000J0D01*
G01*
X132320000Y-112038000D01*
G75*
G02*
X132460000Y-112178000I0J-140000D01*
G01*
X132460000Y-112518000D01*
G75*
G02*
X132320000Y-112658000I-140000J0D01*
G01*
X132040000Y-112658000D01*
G75*
G02*
X131900000Y-112518000I0J140000D01*
G01*
G37*
G36*
G01*
X158882000Y-100989000D02*
X159382000Y-100989000D01*
G75*
G02*
X159607000Y-101214000I0J-225000D01*
G01*
X159607000Y-101664000D01*
G75*
G02*
X159382000Y-101889000I-225000J0D01*
G01*
X158882000Y-101889000D01*
G75*
G02*
X158657000Y-101664000I0J225000D01*
G01*
X158657000Y-101214000D01*
G75*
G02*
X158882000Y-100989000I225000J0D01*
G01*
G37*
G36*
G01*
X158882000Y-99439000D02*
X159382000Y-99439000D01*
G75*
G02*
X159607000Y-99664000I0J-225000D01*
G01*
X159607000Y-100114000D01*
G75*
G02*
X159382000Y-100339000I-225000J0D01*
G01*
X158882000Y-100339000D01*
G75*
G02*
X158657000Y-100114000I0J225000D01*
G01*
X158657000Y-99664000D01*
G75*
G02*
X158882000Y-99439000I225000J0D01*
G01*
G37*
G36*
G01*
X147024001Y-100018000D02*
X144823999Y-100018000D01*
G75*
G02*
X144574000Y-99768001I0J249999D01*
G01*
X144574000Y-99117999D01*
G75*
G02*
X144823999Y-98868000I249999J0D01*
G01*
X147024001Y-98868000D01*
G75*
G02*
X147274000Y-99117999I0J-249999D01*
G01*
X147274000Y-99768001D01*
G75*
G02*
X147024001Y-100018000I-249999J0D01*
G01*
G37*
G36*
G01*
X147024001Y-102968000D02*
X144823999Y-102968000D01*
G75*
G02*
X144574000Y-102718001I0J249999D01*
G01*
X144574000Y-102067999D01*
G75*
G02*
X144823999Y-101818000I249999J0D01*
G01*
X147024001Y-101818000D01*
G75*
G02*
X147274000Y-102067999I0J-249999D01*
G01*
X147274000Y-102718001D01*
G75*
G02*
X147024001Y-102968000I-249999J0D01*
G01*
G37*
G36*
G01*
X141610000Y-101751000D02*
X142110000Y-101751000D01*
G75*
G02*
X142335000Y-101976000I0J-225000D01*
G01*
X142335000Y-102426000D01*
G75*
G02*
X142110000Y-102651000I-225000J0D01*
G01*
X141610000Y-102651000D01*
G75*
G02*
X141385000Y-102426000I0J225000D01*
G01*
X141385000Y-101976000D01*
G75*
G02*
X141610000Y-101751000I225000J0D01*
G01*
G37*
G36*
G01*
X141610000Y-100201000D02*
X142110000Y-100201000D01*
G75*
G02*
X142335000Y-100426000I0J-225000D01*
G01*
X142335000Y-100876000D01*
G75*
G02*
X142110000Y-101101000I-225000J0D01*
G01*
X141610000Y-101101000D01*
G75*
G02*
X141385000Y-100876000I0J225000D01*
G01*
X141385000Y-100426000D01*
G75*
G02*
X141610000Y-100201000I225000J0D01*
G01*
G37*
G36*
G01*
X122306000Y-102995000D02*
X122806000Y-102995000D01*
G75*
G02*
X123031000Y-103220000I0J-225000D01*
G01*
X123031000Y-103670000D01*
G75*
G02*
X122806000Y-103895000I-225000J0D01*
G01*
X122306000Y-103895000D01*
G75*
G02*
X122081000Y-103670000I0J225000D01*
G01*
X122081000Y-103220000D01*
G75*
G02*
X122306000Y-102995000I225000J0D01*
G01*
G37*
G36*
G01*
X122306000Y-104545000D02*
X122806000Y-104545000D01*
G75*
G02*
X123031000Y-104770000I0J-225000D01*
G01*
X123031000Y-105220000D01*
G75*
G02*
X122806000Y-105445000I-225000J0D01*
G01*
X122306000Y-105445000D01*
G75*
G02*
X122081000Y-105220000I0J225000D01*
G01*
X122081000Y-104770000D01*
G75*
G02*
X122306000Y-104545000I225000J0D01*
G01*
G37*
G36*
G01*
X161463000Y-100152000D02*
X161463000Y-99652000D01*
G75*
G02*
X161688000Y-99427000I225000J0D01*
G01*
X162138000Y-99427000D01*
G75*
G02*
X162363000Y-99652000I0J-225000D01*
G01*
X162363000Y-100152000D01*
G75*
G02*
X162138000Y-100377000I-225000J0D01*
G01*
X161688000Y-100377000D01*
G75*
G02*
X161463000Y-100152000I0J225000D01*
G01*
G37*
G36*
G01*
X163013000Y-100152000D02*
X163013000Y-99652000D01*
G75*
G02*
X163238000Y-99427000I225000J0D01*
G01*
X163688000Y-99427000D01*
G75*
G02*
X163913000Y-99652000I0J-225000D01*
G01*
X163913000Y-100152000D01*
G75*
G02*
X163688000Y-100377000I-225000J0D01*
G01*
X163238000Y-100377000D01*
G75*
G02*
X163013000Y-100152000I0J225000D01*
G01*
G37*
G36*
G01*
X122306000Y-99973000D02*
X122806000Y-99973000D01*
G75*
G02*
X123031000Y-100198000I0J-225000D01*
G01*
X123031000Y-100648000D01*
G75*
G02*
X122806000Y-100873000I-225000J0D01*
G01*
X122306000Y-100873000D01*
G75*
G02*
X122081000Y-100648000I0J225000D01*
G01*
X122081000Y-100198000D01*
G75*
G02*
X122306000Y-99973000I225000J0D01*
G01*
G37*
G36*
G01*
X122306000Y-98423000D02*
X122806000Y-98423000D01*
G75*
G02*
X123031000Y-98648000I0J-225000D01*
G01*
X123031000Y-99098000D01*
G75*
G02*
X122806000Y-99323000I-225000J0D01*
G01*
X122306000Y-99323000D01*
G75*
G02*
X122081000Y-99098000I0J225000D01*
G01*
X122081000Y-98648000D01*
G75*
G02*
X122306000Y-98423000I225000J0D01*
G01*
G37*
G36*
G01*
X150892001Y-102968000D02*
X149591999Y-102968000D01*
G75*
G02*
X149342000Y-102718001I0J249999D01*
G01*
X149342000Y-102067999D01*
G75*
G02*
X149591999Y-101818000I249999J0D01*
G01*
X150892001Y-101818000D01*
G75*
G02*
X151142000Y-102067999I0J-249999D01*
G01*
X151142000Y-102718001D01*
G75*
G02*
X150892001Y-102968000I-249999J0D01*
G01*
G37*
G36*
G01*
X150892001Y-100018000D02*
X149591999Y-100018000D01*
G75*
G02*
X149342000Y-99768001I0J249999D01*
G01*
X149342000Y-99117999D01*
G75*
G02*
X149591999Y-98868000I249999J0D01*
G01*
X150892001Y-98868000D01*
G75*
G02*
X151142000Y-99117999I0J-249999D01*
G01*
X151142000Y-99768001D01*
G75*
G02*
X150892001Y-100018000I-249999J0D01*
G01*
G37*
G36*
G01*
X158706000Y-112091750D02*
X158706000Y-112604250D01*
G75*
G02*
X158487250Y-112823000I-218750J0D01*
G01*
X158049750Y-112823000D01*
G75*
G02*
X157831000Y-112604250I0J218750D01*
G01*
X157831000Y-112091750D01*
G75*
G02*
X158049750Y-111873000I218750J0D01*
G01*
X158487250Y-111873000D01*
G75*
G02*
X158706000Y-112091750I0J-218750D01*
G01*
G37*
G36*
G01*
X157131000Y-112091750D02*
X157131000Y-112604250D01*
G75*
G02*
X156912250Y-112823000I-218750J0D01*
G01*
X156474750Y-112823000D01*
G75*
G02*
X156256000Y-112604250I0J218750D01*
G01*
X156256000Y-112091750D01*
G75*
G02*
X156474750Y-111873000I218750J0D01*
G01*
X156912250Y-111873000D01*
G75*
G02*
X157131000Y-112091750I0J-218750D01*
G01*
G37*
G36*
G01*
X157131000Y-114123750D02*
X157131000Y-114636250D01*
G75*
G02*
X156912250Y-114855000I-218750J0D01*
G01*
X156474750Y-114855000D01*
G75*
G02*
X156256000Y-114636250I0J218750D01*
G01*
X156256000Y-114123750D01*
G75*
G02*
X156474750Y-113905000I218750J0D01*
G01*
X156912250Y-113905000D01*
G75*
G02*
X157131000Y-114123750I0J-218750D01*
G01*
G37*
G36*
G01*
X158706000Y-114123750D02*
X158706000Y-114636250D01*
G75*
G02*
X158487250Y-114855000I-218750J0D01*
G01*
X158049750Y-114855000D01*
G75*
G02*
X157831000Y-114636250I0J218750D01*
G01*
X157831000Y-114123750D01*
G75*
G02*
X158049750Y-113905000I218750J0D01*
G01*
X158487250Y-113905000D01*
G75*
G02*
X158706000Y-114123750I0J-218750D01*
G01*
G37*
G36*
G01*
X158706000Y-117324150D02*
X158706000Y-117836650D01*
G75*
G02*
X158487250Y-118055400I-218750J0D01*
G01*
X158049750Y-118055400D01*
G75*
G02*
X157831000Y-117836650I0J218750D01*
G01*
X157831000Y-117324150D01*
G75*
G02*
X158049750Y-117105400I218750J0D01*
G01*
X158487250Y-117105400D01*
G75*
G02*
X158706000Y-117324150I0J-218750D01*
G01*
G37*
G36*
G01*
X157131000Y-117324150D02*
X157131000Y-117836650D01*
G75*
G02*
X156912250Y-118055400I-218750J0D01*
G01*
X156474750Y-118055400D01*
G75*
G02*
X156256000Y-117836650I0J218750D01*
G01*
X156256000Y-117324150D01*
G75*
G02*
X156474750Y-117105400I218750J0D01*
G01*
X156912250Y-117105400D01*
G75*
G02*
X157131000Y-117324150I0J-218750D01*
G01*
G37*
G36*
G01*
X161780800Y-117225750D02*
X161780800Y-118138250D01*
G75*
G02*
X161537050Y-118382000I-243750J0D01*
G01*
X161049550Y-118382000D01*
G75*
G02*
X160805800Y-118138250I0J243750D01*
G01*
X160805800Y-117225750D01*
G75*
G02*
X161049550Y-116982000I243750J0D01*
G01*
X161537050Y-116982000D01*
G75*
G02*
X161780800Y-117225750I0J-243750D01*
G01*
G37*
G36*
G01*
X163655800Y-117225750D02*
X163655800Y-118138250D01*
G75*
G02*
X163412050Y-118382000I-243750J0D01*
G01*
X162924550Y-118382000D01*
G75*
G02*
X162680800Y-118138250I0J243750D01*
G01*
X162680800Y-117225750D01*
G75*
G02*
X162924550Y-116982000I243750J0D01*
G01*
X163412050Y-116982000D01*
G75*
G02*
X163655800Y-117225750I0J-243750D01*
G01*
G37*
G36*
G01*
X168357100Y-117225750D02*
X168357100Y-118138250D01*
G75*
G02*
X168113350Y-118382000I-243750J0D01*
G01*
X167625850Y-118382000D01*
G75*
G02*
X167382100Y-118138250I0J243750D01*
G01*
X167382100Y-117225750D01*
G75*
G02*
X167625850Y-116982000I243750J0D01*
G01*
X168113350Y-116982000D01*
G75*
G02*
X168357100Y-117225750I0J-243750D01*
G01*
G37*
G36*
G01*
X166482100Y-117225750D02*
X166482100Y-118138250D01*
G75*
G02*
X166238350Y-118382000I-243750J0D01*
G01*
X165750850Y-118382000D01*
G75*
G02*
X165507100Y-118138250I0J243750D01*
G01*
X165507100Y-117225750D01*
G75*
G02*
X165750850Y-116982000I243750J0D01*
G01*
X166238350Y-116982000D01*
G75*
G02*
X166482100Y-117225750I0J-243750D01*
G01*
G37*
D10*
X167514000Y-99664000D03*
X168464000Y-101664000D03*
X166564000Y-101664000D03*
D11*
X125874000Y-107080000D03*
X125874000Y-108980000D03*
X127874000Y-108030000D03*
X129684000Y-107080000D03*
X129684000Y-108980000D03*
X131684000Y-108030000D03*
G36*
G01*
X151921000Y-111135999D02*
X151921000Y-112036001D01*
G75*
G02*
X151671001Y-112286000I-249999J0D01*
G01*
X151145999Y-112286000D01*
G75*
G02*
X150896000Y-112036001I0J249999D01*
G01*
X150896000Y-111135999D01*
G75*
G02*
X151145999Y-110886000I249999J0D01*
G01*
X151671001Y-110886000D01*
G75*
G02*
X151921000Y-111135999I0J-249999D01*
G01*
G37*
G36*
G01*
X150096000Y-111135999D02*
X150096000Y-112036001D01*
G75*
G02*
X149846001Y-112286000I-249999J0D01*
G01*
X149320999Y-112286000D01*
G75*
G02*
X149071000Y-112036001I0J249999D01*
G01*
X149071000Y-111135999D01*
G75*
G02*
X149320999Y-110886000I249999J0D01*
G01*
X149846001Y-110886000D01*
G75*
G02*
X150096000Y-111135999I0J-249999D01*
G01*
G37*
G36*
G01*
X142476000Y-116723999D02*
X142476000Y-117624001D01*
G75*
G02*
X142226001Y-117874000I-249999J0D01*
G01*
X141700999Y-117874000D01*
G75*
G02*
X141451000Y-117624001I0J249999D01*
G01*
X141451000Y-116723999D01*
G75*
G02*
X141700999Y-116474000I249999J0D01*
G01*
X142226001Y-116474000D01*
G75*
G02*
X142476000Y-116723999I0J-249999D01*
G01*
G37*
G36*
G01*
X144301000Y-116723999D02*
X144301000Y-117624001D01*
G75*
G02*
X144051001Y-117874000I-249999J0D01*
G01*
X143525999Y-117874000D01*
G75*
G02*
X143276000Y-117624001I0J249999D01*
G01*
X143276000Y-116723999D01*
G75*
G02*
X143525999Y-116474000I249999J0D01*
G01*
X144051001Y-116474000D01*
G75*
G02*
X144301000Y-116723999I0J-249999D01*
G01*
G37*
G36*
G01*
X153953000Y-113421999D02*
X153953000Y-114322001D01*
G75*
G02*
X153703001Y-114572000I-249999J0D01*
G01*
X153177999Y-114572000D01*
G75*
G02*
X152928000Y-114322001I0J249999D01*
G01*
X152928000Y-113421999D01*
G75*
G02*
X153177999Y-113172000I249999J0D01*
G01*
X153703001Y-113172000D01*
G75*
G02*
X153953000Y-113421999I0J-249999D01*
G01*
G37*
G36*
G01*
X152128000Y-113421999D02*
X152128000Y-114322001D01*
G75*
G02*
X151878001Y-114572000I-249999J0D01*
G01*
X151352999Y-114572000D01*
G75*
G02*
X151103000Y-114322001I0J249999D01*
G01*
X151103000Y-113421999D01*
G75*
G02*
X151352999Y-113172000I249999J0D01*
G01*
X151878001Y-113172000D01*
G75*
G02*
X152128000Y-113421999I0J-249999D01*
G01*
G37*
G36*
G01*
X139221000Y-116723999D02*
X139221000Y-117624001D01*
G75*
G02*
X138971001Y-117874000I-249999J0D01*
G01*
X138445999Y-117874000D01*
G75*
G02*
X138196000Y-117624001I0J249999D01*
G01*
X138196000Y-116723999D01*
G75*
G02*
X138445999Y-116474000I249999J0D01*
G01*
X138971001Y-116474000D01*
G75*
G02*
X139221000Y-116723999I0J-249999D01*
G01*
G37*
G36*
G01*
X137396000Y-116723999D02*
X137396000Y-117624001D01*
G75*
G02*
X137146001Y-117874000I-249999J0D01*
G01*
X136620999Y-117874000D01*
G75*
G02*
X136371000Y-117624001I0J249999D01*
G01*
X136371000Y-116723999D01*
G75*
G02*
X136620999Y-116474000I249999J0D01*
G01*
X137146001Y-116474000D01*
G75*
G02*
X137396000Y-116723999I0J-249999D01*
G01*
G37*
G36*
G01*
X137556000Y-119275000D02*
X137556000Y-119645000D01*
G75*
G02*
X137421000Y-119780000I-135000J0D01*
G01*
X137151000Y-119780000D01*
G75*
G02*
X137016000Y-119645000I0J135000D01*
G01*
X137016000Y-119275000D01*
G75*
G02*
X137151000Y-119140000I135000J0D01*
G01*
X137421000Y-119140000D01*
G75*
G02*
X137556000Y-119275000I0J-135000D01*
G01*
G37*
G36*
G01*
X138576000Y-119275000D02*
X138576000Y-119645000D01*
G75*
G02*
X138441000Y-119780000I-135000J0D01*
G01*
X138171000Y-119780000D01*
G75*
G02*
X138036000Y-119645000I0J135000D01*
G01*
X138036000Y-119275000D01*
G75*
G02*
X138171000Y-119140000I135000J0D01*
G01*
X138441000Y-119140000D01*
G75*
G02*
X138576000Y-119275000I0J-135000D01*
G01*
G37*
G36*
G01*
X148064000Y-113421999D02*
X148064000Y-114322001D01*
G75*
G02*
X147814001Y-114572000I-249999J0D01*
G01*
X147288999Y-114572000D01*
G75*
G02*
X147039000Y-114322001I0J249999D01*
G01*
X147039000Y-113421999D01*
G75*
G02*
X147288999Y-113172000I249999J0D01*
G01*
X147814001Y-113172000D01*
G75*
G02*
X148064000Y-113421999I0J-249999D01*
G01*
G37*
G36*
G01*
X149889000Y-113421999D02*
X149889000Y-114322001D01*
G75*
G02*
X149639001Y-114572000I-249999J0D01*
G01*
X149113999Y-114572000D01*
G75*
G02*
X148864000Y-114322001I0J249999D01*
G01*
X148864000Y-113421999D01*
G75*
G02*
X149113999Y-113172000I249999J0D01*
G01*
X149639001Y-113172000D01*
G75*
G02*
X149889000Y-113421999I0J-249999D01*
G01*
G37*
G36*
G01*
X142096000Y-119645000D02*
X142096000Y-119275000D01*
G75*
G02*
X142231000Y-119140000I135000J0D01*
G01*
X142501000Y-119140000D01*
G75*
G02*
X142636000Y-119275000I0J-135000D01*
G01*
X142636000Y-119645000D01*
G75*
G02*
X142501000Y-119780000I-135000J0D01*
G01*
X142231000Y-119780000D01*
G75*
G02*
X142096000Y-119645000I0J135000D01*
G01*
G37*
G36*
G01*
X143116000Y-119645000D02*
X143116000Y-119275000D01*
G75*
G02*
X143251000Y-119140000I135000J0D01*
G01*
X143521000Y-119140000D01*
G75*
G02*
X143656000Y-119275000I0J-135000D01*
G01*
X143656000Y-119645000D01*
G75*
G02*
X143521000Y-119780000I-135000J0D01*
G01*
X143251000Y-119780000D01*
G75*
G02*
X143116000Y-119645000I0J135000D01*
G01*
G37*
G36*
G01*
X122371000Y-107508000D02*
X122741000Y-107508000D01*
G75*
G02*
X122876000Y-107643000I0J-135000D01*
G01*
X122876000Y-107913000D01*
G75*
G02*
X122741000Y-108048000I-135000J0D01*
G01*
X122371000Y-108048000D01*
G75*
G02*
X122236000Y-107913000I0J135000D01*
G01*
X122236000Y-107643000D01*
G75*
G02*
X122371000Y-107508000I135000J0D01*
G01*
G37*
G36*
G01*
X122371000Y-106488000D02*
X122741000Y-106488000D01*
G75*
G02*
X122876000Y-106623000I0J-135000D01*
G01*
X122876000Y-106893000D01*
G75*
G02*
X122741000Y-107028000I-135000J0D01*
G01*
X122371000Y-107028000D01*
G75*
G02*
X122236000Y-106893000I0J135000D01*
G01*
X122236000Y-106623000D01*
G75*
G02*
X122371000Y-106488000I135000J0D01*
G01*
G37*
G36*
G01*
X120933000Y-104277999D02*
X120933000Y-105178001D01*
G75*
G02*
X120683001Y-105428000I-249999J0D01*
G01*
X120157999Y-105428000D01*
G75*
G02*
X119908000Y-105178001I0J249999D01*
G01*
X119908000Y-104277999D01*
G75*
G02*
X120157999Y-104028000I249999J0D01*
G01*
X120683001Y-104028000D01*
G75*
G02*
X120933000Y-104277999I0J-249999D01*
G01*
G37*
G36*
G01*
X119108000Y-104277999D02*
X119108000Y-105178001D01*
G75*
G02*
X118858001Y-105428000I-249999J0D01*
G01*
X118332999Y-105428000D01*
G75*
G02*
X118083000Y-105178001I0J249999D01*
G01*
X118083000Y-104277999D01*
G75*
G02*
X118332999Y-104028000I249999J0D01*
G01*
X118858001Y-104028000D01*
G75*
G02*
X119108000Y-104277999I0J-249999D01*
G01*
G37*
G36*
G01*
X161908000Y-102119000D02*
X161908000Y-101749000D01*
G75*
G02*
X162043000Y-101614000I135000J0D01*
G01*
X162313000Y-101614000D01*
G75*
G02*
X162448000Y-101749000I0J-135000D01*
G01*
X162448000Y-102119000D01*
G75*
G02*
X162313000Y-102254000I-135000J0D01*
G01*
X162043000Y-102254000D01*
G75*
G02*
X161908000Y-102119000I0J135000D01*
G01*
G37*
G36*
G01*
X162928000Y-102119000D02*
X162928000Y-101749000D01*
G75*
G02*
X163063000Y-101614000I135000J0D01*
G01*
X163333000Y-101614000D01*
G75*
G02*
X163468000Y-101749000I0J-135000D01*
G01*
X163468000Y-102119000D01*
G75*
G02*
X163333000Y-102254000I-135000J0D01*
G01*
X163063000Y-102254000D01*
G75*
G02*
X162928000Y-102119000I0J135000D01*
G01*
G37*
G36*
G01*
X122741000Y-109568000D02*
X122371000Y-109568000D01*
G75*
G02*
X122236000Y-109433000I0J135000D01*
G01*
X122236000Y-109163000D01*
G75*
G02*
X122371000Y-109028000I135000J0D01*
G01*
X122741000Y-109028000D01*
G75*
G02*
X122876000Y-109163000I0J-135000D01*
G01*
X122876000Y-109433000D01*
G75*
G02*
X122741000Y-109568000I-135000J0D01*
G01*
G37*
G36*
G01*
X122741000Y-110588000D02*
X122371000Y-110588000D01*
G75*
G02*
X122236000Y-110453000I0J135000D01*
G01*
X122236000Y-110183000D01*
G75*
G02*
X122371000Y-110048000I135000J0D01*
G01*
X122741000Y-110048000D01*
G75*
G02*
X122876000Y-110183000I0J-135000D01*
G01*
X122876000Y-110453000D01*
G75*
G02*
X122741000Y-110588000I-135000J0D01*
G01*
G37*
G36*
G01*
X133409000Y-102206000D02*
X133039000Y-102206000D01*
G75*
G02*
X132904000Y-102071000I0J135000D01*
G01*
X132904000Y-101801000D01*
G75*
G02*
X133039000Y-101666000I135000J0D01*
G01*
X133409000Y-101666000D01*
G75*
G02*
X133544000Y-101801000I0J-135000D01*
G01*
X133544000Y-102071000D01*
G75*
G02*
X133409000Y-102206000I-135000J0D01*
G01*
G37*
G36*
G01*
X133409000Y-101186000D02*
X133039000Y-101186000D01*
G75*
G02*
X132904000Y-101051000I0J135000D01*
G01*
X132904000Y-100781000D01*
G75*
G02*
X133039000Y-100646000I135000J0D01*
G01*
X133409000Y-100646000D01*
G75*
G02*
X133544000Y-100781000I0J-135000D01*
G01*
X133544000Y-101051000D01*
G75*
G02*
X133409000Y-101186000I-135000J0D01*
G01*
G37*
G36*
G01*
X123895000Y-106488000D02*
X124265000Y-106488000D01*
G75*
G02*
X124400000Y-106623000I0J-135000D01*
G01*
X124400000Y-106893000D01*
G75*
G02*
X124265000Y-107028000I-135000J0D01*
G01*
X123895000Y-107028000D01*
G75*
G02*
X123760000Y-106893000I0J135000D01*
G01*
X123760000Y-106623000D01*
G75*
G02*
X123895000Y-106488000I135000J0D01*
G01*
G37*
G36*
G01*
X123895000Y-107508000D02*
X124265000Y-107508000D01*
G75*
G02*
X124400000Y-107643000I0J-135000D01*
G01*
X124400000Y-107913000D01*
G75*
G02*
X124265000Y-108048000I-135000J0D01*
G01*
X123895000Y-108048000D01*
G75*
G02*
X123760000Y-107913000I0J135000D01*
G01*
X123760000Y-107643000D01*
G75*
G02*
X123895000Y-107508000I135000J0D01*
G01*
G37*
G36*
G01*
X132139000Y-104488000D02*
X131769000Y-104488000D01*
G75*
G02*
X131634000Y-104353000I0J135000D01*
G01*
X131634000Y-104083000D01*
G75*
G02*
X131769000Y-103948000I135000J0D01*
G01*
X132139000Y-103948000D01*
G75*
G02*
X132274000Y-104083000I0J-135000D01*
G01*
X132274000Y-104353000D01*
G75*
G02*
X132139000Y-104488000I-135000J0D01*
G01*
G37*
G36*
G01*
X132139000Y-105508000D02*
X131769000Y-105508000D01*
G75*
G02*
X131634000Y-105373000I0J135000D01*
G01*
X131634000Y-105103000D01*
G75*
G02*
X131769000Y-104968000I135000J0D01*
G01*
X132139000Y-104968000D01*
G75*
G02*
X132274000Y-105103000I0J-135000D01*
G01*
X132274000Y-105373000D01*
G75*
G02*
X132139000Y-105508000I-135000J0D01*
G01*
G37*
D12*
X167362000Y-108914000D03*
X161062000Y-108914000D03*
X167362000Y-105114000D03*
X161062000Y-105114000D03*
D13*
X134562000Y-107008000D03*
X134562000Y-107808000D03*
X134562000Y-108608000D03*
X134562000Y-109408000D03*
X134562000Y-110208000D03*
X134562000Y-111008000D03*
X134562000Y-111808000D03*
X134562000Y-112608000D03*
D14*
X136012000Y-114058000D03*
X136812000Y-114058000D03*
X137612000Y-114058000D03*
X138412000Y-114058000D03*
X139212000Y-114058000D03*
X140012000Y-114058000D03*
X140812000Y-114058000D03*
X141612000Y-114058000D03*
D13*
X143062000Y-112608000D03*
X143062000Y-111808000D03*
X143062000Y-111008000D03*
X143062000Y-110208000D03*
X143062000Y-109408000D03*
X143062000Y-108608000D03*
X143062000Y-107808000D03*
X143062000Y-107008000D03*
D14*
X141612000Y-105558000D03*
X140812000Y-105558000D03*
X140012000Y-105558000D03*
X139212000Y-105558000D03*
X138412000Y-105558000D03*
X137612000Y-105558000D03*
X136812000Y-105558000D03*
X136012000Y-105558000D03*
G36*
G01*
X130207000Y-98334000D02*
X130407000Y-98334000D01*
G75*
G02*
X130507000Y-98434000I0J-100000D01*
G01*
X130507000Y-99709000D01*
G75*
G02*
X130407000Y-99809000I-100000J0D01*
G01*
X130207000Y-99809000D01*
G75*
G02*
X130107000Y-99709000I0J100000D01*
G01*
X130107000Y-98434000D01*
G75*
G02*
X130207000Y-98334000I100000J0D01*
G01*
G37*
G36*
G01*
X129557000Y-98334000D02*
X129757000Y-98334000D01*
G75*
G02*
X129857000Y-98434000I0J-100000D01*
G01*
X129857000Y-99709000D01*
G75*
G02*
X129757000Y-99809000I-100000J0D01*
G01*
X129557000Y-99809000D01*
G75*
G02*
X129457000Y-99709000I0J100000D01*
G01*
X129457000Y-98434000D01*
G75*
G02*
X129557000Y-98334000I100000J0D01*
G01*
G37*
G36*
G01*
X128907000Y-98334000D02*
X129107000Y-98334000D01*
G75*
G02*
X129207000Y-98434000I0J-100000D01*
G01*
X129207000Y-99709000D01*
G75*
G02*
X129107000Y-99809000I-100000J0D01*
G01*
X128907000Y-99809000D01*
G75*
G02*
X128807000Y-99709000I0J100000D01*
G01*
X128807000Y-98434000D01*
G75*
G02*
X128907000Y-98334000I100000J0D01*
G01*
G37*
G36*
G01*
X128257000Y-98334000D02*
X128457000Y-98334000D01*
G75*
G02*
X128557000Y-98434000I0J-100000D01*
G01*
X128557000Y-99709000D01*
G75*
G02*
X128457000Y-99809000I-100000J0D01*
G01*
X128257000Y-99809000D01*
G75*
G02*
X128157000Y-99709000I0J100000D01*
G01*
X128157000Y-98434000D01*
G75*
G02*
X128257000Y-98334000I100000J0D01*
G01*
G37*
G36*
G01*
X127607000Y-98334000D02*
X127807000Y-98334000D01*
G75*
G02*
X127907000Y-98434000I0J-100000D01*
G01*
X127907000Y-99709000D01*
G75*
G02*
X127807000Y-99809000I-100000J0D01*
G01*
X127607000Y-99809000D01*
G75*
G02*
X127507000Y-99709000I0J100000D01*
G01*
X127507000Y-98434000D01*
G75*
G02*
X127607000Y-98334000I100000J0D01*
G01*
G37*
G36*
G01*
X126957000Y-98334000D02*
X127157000Y-98334000D01*
G75*
G02*
X127257000Y-98434000I0J-100000D01*
G01*
X127257000Y-99709000D01*
G75*
G02*
X127157000Y-99809000I-100000J0D01*
G01*
X126957000Y-99809000D01*
G75*
G02*
X126857000Y-99709000I0J100000D01*
G01*
X126857000Y-98434000D01*
G75*
G02*
X126957000Y-98334000I100000J0D01*
G01*
G37*
G36*
G01*
X126307000Y-98334000D02*
X126507000Y-98334000D01*
G75*
G02*
X126607000Y-98434000I0J-100000D01*
G01*
X126607000Y-99709000D01*
G75*
G02*
X126507000Y-99809000I-100000J0D01*
G01*
X126307000Y-99809000D01*
G75*
G02*
X126207000Y-99709000I0J100000D01*
G01*
X126207000Y-98434000D01*
G75*
G02*
X126307000Y-98334000I100000J0D01*
G01*
G37*
G36*
G01*
X125657000Y-98334000D02*
X125857000Y-98334000D01*
G75*
G02*
X125957000Y-98434000I0J-100000D01*
G01*
X125957000Y-99709000D01*
G75*
G02*
X125857000Y-99809000I-100000J0D01*
G01*
X125657000Y-99809000D01*
G75*
G02*
X125557000Y-99709000I0J100000D01*
G01*
X125557000Y-98434000D01*
G75*
G02*
X125657000Y-98334000I100000J0D01*
G01*
G37*
G36*
G01*
X125007000Y-98334000D02*
X125207000Y-98334000D01*
G75*
G02*
X125307000Y-98434000I0J-100000D01*
G01*
X125307000Y-99709000D01*
G75*
G02*
X125207000Y-99809000I-100000J0D01*
G01*
X125007000Y-99809000D01*
G75*
G02*
X124907000Y-99709000I0J100000D01*
G01*
X124907000Y-98434000D01*
G75*
G02*
X125007000Y-98334000I100000J0D01*
G01*
G37*
G36*
G01*
X124357000Y-98334000D02*
X124557000Y-98334000D01*
G75*
G02*
X124657000Y-98434000I0J-100000D01*
G01*
X124657000Y-99709000D01*
G75*
G02*
X124557000Y-99809000I-100000J0D01*
G01*
X124357000Y-99809000D01*
G75*
G02*
X124257000Y-99709000I0J100000D01*
G01*
X124257000Y-98434000D01*
G75*
G02*
X124357000Y-98334000I100000J0D01*
G01*
G37*
G36*
G01*
X124357000Y-104059000D02*
X124557000Y-104059000D01*
G75*
G02*
X124657000Y-104159000I0J-100000D01*
G01*
X124657000Y-105434000D01*
G75*
G02*
X124557000Y-105534000I-100000J0D01*
G01*
X124357000Y-105534000D01*
G75*
G02*
X124257000Y-105434000I0J100000D01*
G01*
X124257000Y-104159000D01*
G75*
G02*
X124357000Y-104059000I100000J0D01*
G01*
G37*
G36*
G01*
X125007000Y-104059000D02*
X125207000Y-104059000D01*
G75*
G02*
X125307000Y-104159000I0J-100000D01*
G01*
X125307000Y-105434000D01*
G75*
G02*
X125207000Y-105534000I-100000J0D01*
G01*
X125007000Y-105534000D01*
G75*
G02*
X124907000Y-105434000I0J100000D01*
G01*
X124907000Y-104159000D01*
G75*
G02*
X125007000Y-104059000I100000J0D01*
G01*
G37*
G36*
G01*
X125657000Y-104059000D02*
X125857000Y-104059000D01*
G75*
G02*
X125957000Y-104159000I0J-100000D01*
G01*
X125957000Y-105434000D01*
G75*
G02*
X125857000Y-105534000I-100000J0D01*
G01*
X125657000Y-105534000D01*
G75*
G02*
X125557000Y-105434000I0J100000D01*
G01*
X125557000Y-104159000D01*
G75*
G02*
X125657000Y-104059000I100000J0D01*
G01*
G37*
G36*
G01*
X126307000Y-104059000D02*
X126507000Y-104059000D01*
G75*
G02*
X126607000Y-104159000I0J-100000D01*
G01*
X126607000Y-105434000D01*
G75*
G02*
X126507000Y-105534000I-100000J0D01*
G01*
X126307000Y-105534000D01*
G75*
G02*
X126207000Y-105434000I0J100000D01*
G01*
X126207000Y-104159000D01*
G75*
G02*
X126307000Y-104059000I100000J0D01*
G01*
G37*
G36*
G01*
X126957000Y-104059000D02*
X127157000Y-104059000D01*
G75*
G02*
X127257000Y-104159000I0J-100000D01*
G01*
X127257000Y-105434000D01*
G75*
G02*
X127157000Y-105534000I-100000J0D01*
G01*
X126957000Y-105534000D01*
G75*
G02*
X126857000Y-105434000I0J100000D01*
G01*
X126857000Y-104159000D01*
G75*
G02*
X126957000Y-104059000I100000J0D01*
G01*
G37*
G36*
G01*
X127607000Y-104059000D02*
X127807000Y-104059000D01*
G75*
G02*
X127907000Y-104159000I0J-100000D01*
G01*
X127907000Y-105434000D01*
G75*
G02*
X127807000Y-105534000I-100000J0D01*
G01*
X127607000Y-105534000D01*
G75*
G02*
X127507000Y-105434000I0J100000D01*
G01*
X127507000Y-104159000D01*
G75*
G02*
X127607000Y-104059000I100000J0D01*
G01*
G37*
G36*
G01*
X128257000Y-104059000D02*
X128457000Y-104059000D01*
G75*
G02*
X128557000Y-104159000I0J-100000D01*
G01*
X128557000Y-105434000D01*
G75*
G02*
X128457000Y-105534000I-100000J0D01*
G01*
X128257000Y-105534000D01*
G75*
G02*
X128157000Y-105434000I0J100000D01*
G01*
X128157000Y-104159000D01*
G75*
G02*
X128257000Y-104059000I100000J0D01*
G01*
G37*
G36*
G01*
X128907000Y-104059000D02*
X129107000Y-104059000D01*
G75*
G02*
X129207000Y-104159000I0J-100000D01*
G01*
X129207000Y-105434000D01*
G75*
G02*
X129107000Y-105534000I-100000J0D01*
G01*
X128907000Y-105534000D01*
G75*
G02*
X128807000Y-105434000I0J100000D01*
G01*
X128807000Y-104159000D01*
G75*
G02*
X128907000Y-104059000I100000J0D01*
G01*
G37*
G36*
G01*
X129557000Y-104059000D02*
X129757000Y-104059000D01*
G75*
G02*
X129857000Y-104159000I0J-100000D01*
G01*
X129857000Y-105434000D01*
G75*
G02*
X129757000Y-105534000I-100000J0D01*
G01*
X129557000Y-105534000D01*
G75*
G02*
X129457000Y-105434000I0J100000D01*
G01*
X129457000Y-104159000D01*
G75*
G02*
X129557000Y-104059000I100000J0D01*
G01*
G37*
G36*
G01*
X130207000Y-104059000D02*
X130407000Y-104059000D01*
G75*
G02*
X130507000Y-104159000I0J-100000D01*
G01*
X130507000Y-105434000D01*
G75*
G02*
X130407000Y-105534000I-100000J0D01*
G01*
X130207000Y-105534000D01*
G75*
G02*
X130107000Y-105434000I0J100000D01*
G01*
X130107000Y-104159000D01*
G75*
G02*
X130207000Y-104059000I100000J0D01*
G01*
G37*
D15*
X134070000Y-117086000D03*
X131870000Y-117086000D03*
X131870000Y-118786000D03*
X134070000Y-118786000D03*
G36*
G01*
X135949000Y-102206000D02*
X135579000Y-102206000D01*
G75*
G02*
X135444000Y-102071000I0J135000D01*
G01*
X135444000Y-101801000D01*
G75*
G02*
X135579000Y-101666000I135000J0D01*
G01*
X135949000Y-101666000D01*
G75*
G02*
X136084000Y-101801000I0J-135000D01*
G01*
X136084000Y-102071000D01*
G75*
G02*
X135949000Y-102206000I-135000J0D01*
G01*
G37*
G36*
G01*
X135949000Y-101186000D02*
X135579000Y-101186000D01*
G75*
G02*
X135444000Y-101051000I0J135000D01*
G01*
X135444000Y-100781000D01*
G75*
G02*
X135579000Y-100646000I135000J0D01*
G01*
X135949000Y-100646000D01*
G75*
G02*
X136084000Y-100781000I0J-135000D01*
G01*
X136084000Y-101051000D01*
G75*
G02*
X135949000Y-101186000I-135000J0D01*
G01*
G37*
G36*
G01*
X158017000Y-106309999D02*
X158017000Y-107210001D01*
G75*
G02*
X157767001Y-107460000I-249999J0D01*
G01*
X157241999Y-107460000D01*
G75*
G02*
X156992000Y-107210001I0J249999D01*
G01*
X156992000Y-106309999D01*
G75*
G02*
X157241999Y-106060000I249999J0D01*
G01*
X157767001Y-106060000D01*
G75*
G02*
X158017000Y-106309999I0J-249999D01*
G01*
G37*
G36*
G01*
X156192000Y-106309999D02*
X156192000Y-107210001D01*
G75*
G02*
X155942001Y-107460000I-249999J0D01*
G01*
X155416999Y-107460000D01*
G75*
G02*
X155167000Y-107210001I0J249999D01*
G01*
X155167000Y-106309999D01*
G75*
G02*
X155416999Y-106060000I249999J0D01*
G01*
X155942001Y-106060000D01*
G75*
G02*
X156192000Y-106309999I0J-249999D01*
G01*
G37*
M02*
