G04 #@! TF.GenerationSoftware,KiCad,Pcbnew,(5.1.10-1-10_14)*
G04 #@! TF.CreationDate,2021-10-25T20:57:49+02:00*
G04 #@! TF.ProjectId,roodialino,726f6f64-6961-46c6-996e-6f2e6b696361,1.0*
G04 #@! TF.SameCoordinates,Original*
G04 #@! TF.FileFunction,Legend,Top*
G04 #@! TF.FilePolarity,Positive*
%FSLAX46Y46*%
G04 Gerber Fmt 4.6, Leading zero omitted, Abs format (unit mm)*
G04 Created by KiCad (PCBNEW (5.1.10-1-10_14)) date 2021-10-25 20:57:49*
%MOMM*%
%LPD*%
G01*
G04 APERTURE LIST*
%ADD10C,0.150000*%
%ADD11C,0.200000*%
%ADD12C,0.120000*%
%ADD13C,0.100000*%
%ADD14C,1.448000*%
%ADD15C,1.902000*%
%ADD16C,2.802000*%
%ADD17O,1.802000X1.802000*%
G04 APERTURE END LIST*
D10*
X156972000Y-103632000D02*
X154940000Y-105664000D01*
X170180000Y-103632000D02*
X156972000Y-103632000D01*
X154940000Y-116332000D02*
X154940000Y-105664000D01*
X154940000Y-120396000D02*
X154940000Y-118872000D01*
X121875504Y-99542514D02*
X121075504Y-99542514D01*
X121075504Y-99275847D02*
X121075504Y-98818704D01*
X121875504Y-99047276D02*
X121075504Y-99047276D01*
X121075504Y-98628228D02*
X121875504Y-98094895D01*
X121075504Y-98094895D02*
X121875504Y-98628228D01*
X121850104Y-114039552D02*
X121050104Y-114039552D01*
X121850104Y-113201457D02*
X121469152Y-113468123D01*
X121850104Y-113658600D02*
X121050104Y-113658600D01*
X121050104Y-113353838D01*
X121088200Y-113277647D01*
X121126295Y-113239552D01*
X121202485Y-113201457D01*
X121316771Y-113201457D01*
X121392961Y-113239552D01*
X121431057Y-113277647D01*
X121469152Y-113353838D01*
X121469152Y-113658600D01*
X121050104Y-112934790D02*
X121850104Y-112401457D01*
X121050104Y-112401457D02*
X121850104Y-112934790D01*
X171429995Y-98039180D02*
X171429995Y-97039180D01*
X172477614Y-97943942D02*
X172429995Y-97991561D01*
X172287138Y-98039180D01*
X172191900Y-98039180D01*
X172049042Y-97991561D01*
X171953804Y-97896323D01*
X171906185Y-97801085D01*
X171858566Y-97610609D01*
X171858566Y-97467752D01*
X171906185Y-97277276D01*
X171953804Y-97182038D01*
X172049042Y-97086800D01*
X172191900Y-97039180D01*
X172287138Y-97039180D01*
X172429995Y-97086800D01*
X172477614Y-97134419D01*
X172858566Y-97991561D02*
X173001423Y-98039180D01*
X173239519Y-98039180D01*
X173334757Y-97991561D01*
X173382376Y-97943942D01*
X173429995Y-97848704D01*
X173429995Y-97753466D01*
X173382376Y-97658228D01*
X173334757Y-97610609D01*
X173239519Y-97562990D01*
X173049042Y-97515371D01*
X172953804Y-97467752D01*
X172906185Y-97420133D01*
X172858566Y-97324895D01*
X172858566Y-97229657D01*
X172906185Y-97134419D01*
X172953804Y-97086800D01*
X173049042Y-97039180D01*
X173287138Y-97039180D01*
X173429995Y-97086800D01*
X173858566Y-98039180D02*
X173858566Y-97039180D01*
X174239519Y-97039180D01*
X174334757Y-97086800D01*
X174382376Y-97134419D01*
X174429995Y-97229657D01*
X174429995Y-97372514D01*
X174382376Y-97467752D01*
X174334757Y-97515371D01*
X174239519Y-97562990D01*
X173858566Y-97562990D01*
D11*
X168569333Y-106671333D02*
X168569333Y-105738000D01*
X168569333Y-106004666D02*
X168636000Y-105871333D01*
X168702666Y-105804666D01*
X168836000Y-105738000D01*
X168969333Y-105738000D01*
X169636000Y-106671333D02*
X169502666Y-106604666D01*
X169436000Y-106538000D01*
X169369333Y-106404666D01*
X169369333Y-106004666D01*
X169436000Y-105871333D01*
X169502666Y-105804666D01*
X169636000Y-105738000D01*
X169836000Y-105738000D01*
X169969333Y-105804666D01*
X170036000Y-105871333D01*
X170102666Y-106004666D01*
X170102666Y-106404666D01*
X170036000Y-106538000D01*
X169969333Y-106604666D01*
X169836000Y-106671333D01*
X169636000Y-106671333D01*
X170902666Y-106671333D02*
X170769333Y-106604666D01*
X170702666Y-106538000D01*
X170636000Y-106404666D01*
X170636000Y-106004666D01*
X170702666Y-105871333D01*
X170769333Y-105804666D01*
X170902666Y-105738000D01*
X171102666Y-105738000D01*
X171236000Y-105804666D01*
X171302666Y-105871333D01*
X171369333Y-106004666D01*
X171369333Y-106404666D01*
X171302666Y-106538000D01*
X171236000Y-106604666D01*
X171102666Y-106671333D01*
X170902666Y-106671333D01*
X172769333Y-106538000D02*
X172702666Y-106604666D01*
X172502666Y-106671333D01*
X172369333Y-106671333D01*
X172169333Y-106604666D01*
X172036000Y-106471333D01*
X171969333Y-106338000D01*
X171902666Y-106071333D01*
X171902666Y-105871333D01*
X171969333Y-105604666D01*
X172036000Y-105471333D01*
X172169333Y-105338000D01*
X172369333Y-105271333D01*
X172502666Y-105271333D01*
X172702666Y-105338000D01*
X172769333Y-105404666D01*
X173569333Y-106671333D02*
X173436000Y-106604666D01*
X173369333Y-106538000D01*
X173302666Y-106404666D01*
X173302666Y-106004666D01*
X173369333Y-105871333D01*
X173436000Y-105804666D01*
X173569333Y-105738000D01*
X173769333Y-105738000D01*
X173902666Y-105804666D01*
X173969333Y-105871333D01*
X174036000Y-106004666D01*
X174036000Y-106404666D01*
X173969333Y-106538000D01*
X173902666Y-106604666D01*
X173769333Y-106671333D01*
X173569333Y-106671333D01*
X174636000Y-105738000D02*
X174636000Y-106671333D01*
X174636000Y-105871333D02*
X174702666Y-105804666D01*
X174836000Y-105738000D01*
X175036000Y-105738000D01*
X175169333Y-105804666D01*
X175236000Y-105938000D01*
X175236000Y-106671333D01*
X175702666Y-105738000D02*
X176236000Y-105738000D01*
X175902666Y-105271333D02*
X175902666Y-106471333D01*
X175969333Y-106604666D01*
X176102666Y-106671333D01*
X176236000Y-106671333D01*
X176702666Y-106671333D02*
X176702666Y-105738000D01*
X176702666Y-106004666D02*
X176769333Y-105871333D01*
X176836000Y-105804666D01*
X176969333Y-105738000D01*
X177102666Y-105738000D01*
X177769333Y-106671333D02*
X177636000Y-106604666D01*
X177569333Y-106538000D01*
X177502666Y-106404666D01*
X177502666Y-106004666D01*
X177569333Y-105871333D01*
X177636000Y-105804666D01*
X177769333Y-105738000D01*
X177969333Y-105738000D01*
X178102666Y-105804666D01*
X178169333Y-105871333D01*
X178236000Y-106004666D01*
X178236000Y-106404666D01*
X178169333Y-106538000D01*
X178102666Y-106604666D01*
X177969333Y-106671333D01*
X177769333Y-106671333D01*
X179036000Y-106671333D02*
X178902666Y-106604666D01*
X178836000Y-106471333D01*
X178836000Y-105271333D01*
X169669333Y-108971333D02*
X169669333Y-107571333D01*
X171136000Y-108971333D02*
X170669333Y-108304666D01*
X170336000Y-108971333D02*
X170336000Y-107571333D01*
X170869333Y-107571333D01*
X171002666Y-107638000D01*
X171069333Y-107704666D01*
X171136000Y-107838000D01*
X171136000Y-108038000D01*
X171069333Y-108171333D01*
X171002666Y-108238000D01*
X170869333Y-108304666D01*
X170336000Y-108304666D01*
X173602666Y-108971333D02*
X173136000Y-108304666D01*
X172802666Y-108971333D02*
X172802666Y-107571333D01*
X173336000Y-107571333D01*
X173469333Y-107638000D01*
X173536000Y-107704666D01*
X173602666Y-107838000D01*
X173602666Y-108038000D01*
X173536000Y-108171333D01*
X173469333Y-108238000D01*
X173336000Y-108304666D01*
X172802666Y-108304666D01*
X174736000Y-108904666D02*
X174602666Y-108971333D01*
X174336000Y-108971333D01*
X174202666Y-108904666D01*
X174136000Y-108771333D01*
X174136000Y-108238000D01*
X174202666Y-108104666D01*
X174336000Y-108038000D01*
X174602666Y-108038000D01*
X174736000Y-108104666D01*
X174802666Y-108238000D01*
X174802666Y-108371333D01*
X174136000Y-108504666D01*
X175602666Y-108971333D02*
X175469333Y-108904666D01*
X175402666Y-108771333D01*
X175402666Y-107571333D01*
X176736000Y-108971333D02*
X176736000Y-108238000D01*
X176669333Y-108104666D01*
X176536000Y-108038000D01*
X176269333Y-108038000D01*
X176136000Y-108104666D01*
X176736000Y-108904666D02*
X176602666Y-108971333D01*
X176269333Y-108971333D01*
X176136000Y-108904666D01*
X176069333Y-108771333D01*
X176069333Y-108638000D01*
X176136000Y-108504666D01*
X176269333Y-108438000D01*
X176602666Y-108438000D01*
X176736000Y-108371333D01*
X177269333Y-108038000D02*
X177602666Y-108971333D01*
X177936000Y-108038000D02*
X177602666Y-108971333D01*
X177469333Y-109304666D01*
X177402666Y-109371333D01*
X177269333Y-109438000D01*
D10*
X156773714Y-120166380D02*
X156440380Y-119690190D01*
X156202285Y-120166380D02*
X156202285Y-119166380D01*
X156583238Y-119166380D01*
X156678476Y-119214000D01*
X156726095Y-119261619D01*
X156773714Y-119356857D01*
X156773714Y-119499714D01*
X156726095Y-119594952D01*
X156678476Y-119642571D01*
X156583238Y-119690190D01*
X156202285Y-119690190D01*
X157583238Y-120118761D02*
X157488000Y-120166380D01*
X157297523Y-120166380D01*
X157202285Y-120118761D01*
X157154666Y-120023523D01*
X157154666Y-119642571D01*
X157202285Y-119547333D01*
X157297523Y-119499714D01*
X157488000Y-119499714D01*
X157583238Y-119547333D01*
X157630857Y-119642571D01*
X157630857Y-119737809D01*
X157154666Y-119833047D01*
X158202285Y-120166380D02*
X158107047Y-120118761D01*
X158059428Y-120023523D01*
X158059428Y-119166380D01*
X159011809Y-120166380D02*
X159011809Y-119642571D01*
X158964190Y-119547333D01*
X158868952Y-119499714D01*
X158678476Y-119499714D01*
X158583238Y-119547333D01*
X159011809Y-120118761D02*
X158916571Y-120166380D01*
X158678476Y-120166380D01*
X158583238Y-120118761D01*
X158535619Y-120023523D01*
X158535619Y-119928285D01*
X158583238Y-119833047D01*
X158678476Y-119785428D01*
X158916571Y-119785428D01*
X159011809Y-119737809D01*
X159392761Y-119499714D02*
X159630857Y-120166380D01*
X159868952Y-119499714D02*
X159630857Y-120166380D01*
X159535619Y-120404476D01*
X159488000Y-120452095D01*
X159392761Y-120499714D01*
X161275333Y-119166380D02*
X161608666Y-120166380D01*
X161942000Y-119166380D01*
X162418190Y-120166380D02*
X162322952Y-120118761D01*
X162275333Y-120071142D01*
X162227714Y-119975904D01*
X162227714Y-119690190D01*
X162275333Y-119594952D01*
X162322952Y-119547333D01*
X162418190Y-119499714D01*
X162561047Y-119499714D01*
X162656285Y-119547333D01*
X162703904Y-119594952D01*
X162751523Y-119690190D01*
X162751523Y-119975904D01*
X162703904Y-120071142D01*
X162656285Y-120118761D01*
X162561047Y-120166380D01*
X162418190Y-120166380D01*
X163322952Y-120166380D02*
X163227714Y-120118761D01*
X163180095Y-120023523D01*
X163180095Y-119166380D01*
X163703904Y-119785428D02*
X164465809Y-119785428D01*
X165847333Y-119166380D02*
X166180666Y-120166380D01*
X166514000Y-119166380D01*
X166990190Y-120166380D02*
X166894952Y-120118761D01*
X166847333Y-120071142D01*
X166799714Y-119975904D01*
X166799714Y-119690190D01*
X166847333Y-119594952D01*
X166894952Y-119547333D01*
X166990190Y-119499714D01*
X167133047Y-119499714D01*
X167228285Y-119547333D01*
X167275904Y-119594952D01*
X167323523Y-119690190D01*
X167323523Y-119975904D01*
X167275904Y-120071142D01*
X167228285Y-120118761D01*
X167133047Y-120166380D01*
X166990190Y-120166380D01*
X167894952Y-120166380D02*
X167799714Y-120118761D01*
X167752095Y-120023523D01*
X167752095Y-119166380D01*
X168275904Y-119785428D02*
X169037809Y-119785428D01*
X168656857Y-120166380D02*
X168656857Y-119404476D01*
X159658071Y-111800380D02*
X159848547Y-111800380D01*
X159943785Y-111848000D01*
X160039023Y-111943238D01*
X160086642Y-112133714D01*
X160086642Y-112467047D01*
X160039023Y-112657523D01*
X159943785Y-112752761D01*
X159848547Y-112800380D01*
X159658071Y-112800380D01*
X159562833Y-112752761D01*
X159467595Y-112657523D01*
X159419976Y-112467047D01*
X159419976Y-112133714D01*
X159467595Y-111943238D01*
X159562833Y-111848000D01*
X159658071Y-111800380D01*
X160515214Y-112133714D02*
X160515214Y-112800380D01*
X160515214Y-112228952D02*
X160562833Y-112181333D01*
X160658071Y-112133714D01*
X160800928Y-112133714D01*
X160896166Y-112181333D01*
X160943785Y-112276571D01*
X160943785Y-112800380D01*
X161419976Y-112419428D02*
X162181880Y-112419428D01*
X163229500Y-112705142D02*
X163181880Y-112752761D01*
X163039023Y-112800380D01*
X162943785Y-112800380D01*
X162800928Y-112752761D01*
X162705690Y-112657523D01*
X162658071Y-112562285D01*
X162610452Y-112371809D01*
X162610452Y-112228952D01*
X162658071Y-112038476D01*
X162705690Y-111943238D01*
X162800928Y-111848000D01*
X162943785Y-111800380D01*
X163039023Y-111800380D01*
X163181880Y-111848000D01*
X163229500Y-111895619D01*
X163800928Y-112800380D02*
X163705690Y-112752761D01*
X163658071Y-112705142D01*
X163610452Y-112609904D01*
X163610452Y-112324190D01*
X163658071Y-112228952D01*
X163705690Y-112181333D01*
X163800928Y-112133714D01*
X163943785Y-112133714D01*
X164039023Y-112181333D01*
X164086642Y-112228952D01*
X164134261Y-112324190D01*
X164134261Y-112609904D01*
X164086642Y-112705142D01*
X164039023Y-112752761D01*
X163943785Y-112800380D01*
X163800928Y-112800380D01*
X164991404Y-112800380D02*
X164991404Y-111800380D01*
X164991404Y-112752761D02*
X164896166Y-112800380D01*
X164705690Y-112800380D01*
X164610452Y-112752761D01*
X164562833Y-112705142D01*
X164515214Y-112609904D01*
X164515214Y-112324190D01*
X164562833Y-112228952D01*
X164610452Y-112181333D01*
X164705690Y-112133714D01*
X164896166Y-112133714D01*
X164991404Y-112181333D01*
X165848547Y-112752761D02*
X165753309Y-112800380D01*
X165562833Y-112800380D01*
X165467595Y-112752761D01*
X165419976Y-112657523D01*
X165419976Y-112276571D01*
X165467595Y-112181333D01*
X165562833Y-112133714D01*
X165753309Y-112133714D01*
X165848547Y-112181333D01*
X165896166Y-112276571D01*
X165896166Y-112371809D01*
X165419976Y-112467047D01*
X166277119Y-112752761D02*
X166372357Y-112800380D01*
X166562833Y-112800380D01*
X166658071Y-112752761D01*
X166705690Y-112657523D01*
X166705690Y-112609904D01*
X166658071Y-112514666D01*
X166562833Y-112467047D01*
X166419976Y-112467047D01*
X166324738Y-112419428D01*
X166277119Y-112324190D01*
X166277119Y-112276571D01*
X166324738Y-112181333D01*
X166419976Y-112133714D01*
X166562833Y-112133714D01*
X166658071Y-112181333D01*
X159658071Y-113832380D02*
X159848547Y-113832380D01*
X159943785Y-113880000D01*
X160039023Y-113975238D01*
X160086642Y-114165714D01*
X160086642Y-114499047D01*
X160039023Y-114689523D01*
X159943785Y-114784761D01*
X159848547Y-114832380D01*
X159658071Y-114832380D01*
X159562833Y-114784761D01*
X159467595Y-114689523D01*
X159419976Y-114499047D01*
X159419976Y-114165714D01*
X159467595Y-113975238D01*
X159562833Y-113880000D01*
X159658071Y-113832380D01*
X160372357Y-114165714D02*
X160753309Y-114165714D01*
X160515214Y-114832380D02*
X160515214Y-113975238D01*
X160562833Y-113880000D01*
X160658071Y-113832380D01*
X160753309Y-113832380D01*
X160943785Y-114165714D02*
X161324738Y-114165714D01*
X161086642Y-114832380D02*
X161086642Y-113975238D01*
X161134261Y-113880000D01*
X161229500Y-113832380D01*
X161324738Y-113832380D01*
X161658071Y-114451428D02*
X162419976Y-114451428D01*
X163467595Y-114737142D02*
X163419976Y-114784761D01*
X163277119Y-114832380D01*
X163181880Y-114832380D01*
X163039023Y-114784761D01*
X162943785Y-114689523D01*
X162896166Y-114594285D01*
X162848547Y-114403809D01*
X162848547Y-114260952D01*
X162896166Y-114070476D01*
X162943785Y-113975238D01*
X163039023Y-113880000D01*
X163181880Y-113832380D01*
X163277119Y-113832380D01*
X163419976Y-113880000D01*
X163467595Y-113927619D01*
X164039023Y-114832380D02*
X163943785Y-114784761D01*
X163896166Y-114737142D01*
X163848547Y-114641904D01*
X163848547Y-114356190D01*
X163896166Y-114260952D01*
X163943785Y-114213333D01*
X164039023Y-114165714D01*
X164181880Y-114165714D01*
X164277119Y-114213333D01*
X164324738Y-114260952D01*
X164372357Y-114356190D01*
X164372357Y-114641904D01*
X164324738Y-114737142D01*
X164277119Y-114784761D01*
X164181880Y-114832380D01*
X164039023Y-114832380D01*
X165229500Y-114832380D02*
X165229500Y-113832380D01*
X165229500Y-114784761D02*
X165134261Y-114832380D01*
X164943785Y-114832380D01*
X164848547Y-114784761D01*
X164800928Y-114737142D01*
X164753309Y-114641904D01*
X164753309Y-114356190D01*
X164800928Y-114260952D01*
X164848547Y-114213333D01*
X164943785Y-114165714D01*
X165134261Y-114165714D01*
X165229500Y-114213333D01*
X166086642Y-114784761D02*
X165991404Y-114832380D01*
X165800928Y-114832380D01*
X165705690Y-114784761D01*
X165658071Y-114689523D01*
X165658071Y-114308571D01*
X165705690Y-114213333D01*
X165800928Y-114165714D01*
X165991404Y-114165714D01*
X166086642Y-114213333D01*
X166134261Y-114308571D01*
X166134261Y-114403809D01*
X165658071Y-114499047D01*
X166515214Y-114784761D02*
X166610452Y-114832380D01*
X166800928Y-114832380D01*
X166896166Y-114784761D01*
X166943785Y-114689523D01*
X166943785Y-114641904D01*
X166896166Y-114546666D01*
X166800928Y-114499047D01*
X166658071Y-114499047D01*
X166562833Y-114451428D01*
X166515214Y-114356190D01*
X166515214Y-114308571D01*
X166562833Y-114213333D01*
X166658071Y-114165714D01*
X166800928Y-114165714D01*
X166896166Y-114213333D01*
D12*
X149276000Y-116124000D02*
X153186000Y-116124000D01*
X153186000Y-116124000D02*
X153186000Y-114254000D01*
X153186000Y-114254000D02*
X149276000Y-114254000D01*
X150775641Y-110491000D02*
X150468359Y-110491000D01*
X150775641Y-111251000D02*
X150468359Y-111251000D01*
X131096000Y-119633000D02*
X135096000Y-119633000D01*
X131096000Y-116333000D02*
X131096000Y-119633000D01*
X152842600Y-106502200D02*
G75*
G03*
X152842600Y-106502200I-2500000J0D01*
G01*
X147782600Y-104957200D02*
X147782600Y-108047200D01*
X153332600Y-106501738D02*
G75*
G02*
X147782600Y-108047030I-2990000J-462D01*
G01*
X153332600Y-106502662D02*
G75*
G03*
X147782600Y-104957370I-2990000J462D01*
G01*
X146688000Y-111472580D02*
X146688000Y-111191420D01*
X145668000Y-111472580D02*
X145668000Y-111191420D01*
X131592164Y-110210000D02*
X131807836Y-110210000D01*
X131592164Y-110930000D02*
X131807836Y-110930000D01*
X131592164Y-112708000D02*
X131807836Y-112708000D01*
X131592164Y-111988000D02*
X131807836Y-111988000D01*
X151152000Y-101629252D02*
X151152000Y-100206748D01*
X149332000Y-101629252D02*
X149332000Y-100206748D01*
X158966000Y-111613000D02*
X156681000Y-111613000D01*
X158966000Y-113083000D02*
X158966000Y-111613000D01*
X156681000Y-113083000D02*
X158966000Y-113083000D01*
X156681000Y-115115000D02*
X158966000Y-115115000D01*
X158966000Y-115115000D02*
X158966000Y-113645000D01*
X158966000Y-113645000D02*
X156681000Y-113645000D01*
X158966000Y-116845400D02*
X156681000Y-116845400D01*
X158966000Y-118315400D02*
X158966000Y-116845400D01*
X156681000Y-118315400D02*
X158966000Y-118315400D01*
X128271000Y-112031000D02*
X128271000Y-112031000D01*
X128271000Y-112161000D02*
X128271000Y-112031000D01*
X128271000Y-112161000D02*
X128271000Y-112161000D01*
X128271000Y-112031000D02*
X128271000Y-112161000D01*
X125731000Y-112031000D02*
X125731000Y-112031000D01*
X125731000Y-112161000D02*
X125731000Y-112031000D01*
X125731000Y-112161000D02*
X125731000Y-112161000D01*
X125731000Y-112031000D02*
X125731000Y-112161000D01*
X129561000Y-112161000D02*
X129961000Y-112161000D01*
X129561000Y-113281000D02*
X129561000Y-112161000D01*
X129961000Y-113281000D02*
X129561000Y-113281000D01*
X129961000Y-112161000D02*
X129961000Y-113281000D01*
X124441000Y-112161000D02*
X129561000Y-112161000D01*
X129561000Y-112161000D02*
X129561000Y-118321000D01*
X124441000Y-112161000D02*
X124441000Y-118321000D01*
X129561000Y-118321000D02*
G75*
G02*
X124441000Y-118321000I-2560000J0D01*
G01*
X170415000Y-112161000D02*
X170415000Y-118321000D01*
X175535000Y-112161000D02*
X175535000Y-118321000D01*
X170415000Y-112161000D02*
X175535000Y-112161000D01*
X175935000Y-112161000D02*
X175935000Y-113281000D01*
X175935000Y-113281000D02*
X175535000Y-113281000D01*
X175535000Y-113281000D02*
X175535000Y-112161000D01*
X175535000Y-112161000D02*
X175935000Y-112161000D01*
X171705000Y-112031000D02*
X171705000Y-112161000D01*
X171705000Y-112161000D02*
X171705000Y-112161000D01*
X171705000Y-112161000D02*
X171705000Y-112031000D01*
X171705000Y-112031000D02*
X171705000Y-112031000D01*
X174245000Y-112031000D02*
X174245000Y-112161000D01*
X174245000Y-112161000D02*
X174245000Y-112161000D01*
X174245000Y-112161000D02*
X174245000Y-112031000D01*
X174245000Y-112031000D02*
X174245000Y-112031000D01*
X175535000Y-118321000D02*
G75*
G02*
X170415000Y-118321000I-2560000J0D01*
G01*
X171264000Y-103518000D02*
X171264000Y-102188000D01*
X172594000Y-103518000D02*
X171264000Y-103518000D01*
X171264000Y-100918000D02*
X171264000Y-98318000D01*
X173864000Y-100918000D02*
X171264000Y-100918000D01*
X173864000Y-103518000D02*
X173864000Y-100918000D01*
X171264000Y-98318000D02*
X179004000Y-98318000D01*
X173864000Y-103518000D02*
X179004000Y-103518000D01*
X179004000Y-103518000D02*
X179004000Y-98318000D01*
X118177000Y-106340600D02*
X119507000Y-106340600D01*
X118177000Y-107670600D02*
X118177000Y-106340600D01*
X118177000Y-108940600D02*
X120837000Y-108940600D01*
X120837000Y-108940600D02*
X120837000Y-114080600D01*
X118177000Y-108940600D02*
X118177000Y-114080600D01*
X118177000Y-114080600D02*
X120837000Y-114080600D01*
X120838000Y-103264000D02*
X119508000Y-103264000D01*
X120838000Y-101934000D02*
X120838000Y-103264000D01*
X120838000Y-100664000D02*
X118178000Y-100664000D01*
X118178000Y-100664000D02*
X118178000Y-98064000D01*
X120838000Y-100664000D02*
X120838000Y-98064000D01*
X120838000Y-98064000D02*
X118178000Y-98064000D01*
X169094000Y-99904000D02*
X168164000Y-99904000D01*
X165934000Y-99904000D02*
X166864000Y-99904000D01*
X165934000Y-99904000D02*
X165934000Y-102064000D01*
X169094000Y-99904000D02*
X169094000Y-101364000D01*
X127634000Y-109610000D02*
X126174000Y-109610000D01*
X127634000Y-106450000D02*
X125474000Y-106450000D01*
X127634000Y-106450000D02*
X127634000Y-107380000D01*
X127634000Y-109610000D02*
X127634000Y-108680000D01*
X131444000Y-109610000D02*
X129984000Y-109610000D01*
X131444000Y-106450000D02*
X129284000Y-106450000D01*
X131444000Y-106450000D02*
X131444000Y-107380000D01*
X131444000Y-109610000D02*
X131444000Y-108680000D01*
X137463264Y-116460600D02*
X137009136Y-116460600D01*
X137463264Y-117930600D02*
X137009136Y-117930600D01*
X137186641Y-119840000D02*
X136879359Y-119840000D01*
X137186641Y-119080000D02*
X136879359Y-119080000D01*
X143737359Y-119840000D02*
X144044641Y-119840000D01*
X143737359Y-119080000D02*
X144044641Y-119080000D01*
X123925359Y-97105200D02*
X124232641Y-97105200D01*
X123925359Y-97865200D02*
X124232641Y-97865200D01*
X122176000Y-109961641D02*
X122176000Y-109654359D01*
X122936000Y-109961641D02*
X122936000Y-109654359D01*
X133604000Y-101579641D02*
X133604000Y-101272359D01*
X132844000Y-101579641D02*
X132844000Y-101272359D01*
X123700000Y-107114359D02*
X123700000Y-107421641D01*
X124460000Y-107114359D02*
X124460000Y-107421641D01*
X131574000Y-104881641D02*
X131574000Y-104574359D01*
X132334000Y-104881641D02*
X132334000Y-104574359D01*
X165462000Y-109764000D02*
X162962000Y-109764000D01*
X166962000Y-108014000D02*
X166962000Y-106014000D01*
X165462000Y-104264000D02*
X162962000Y-104264000D01*
X161462000Y-108014000D02*
X161462000Y-106014000D01*
X165912000Y-109314000D02*
X165462000Y-109764000D01*
X162512000Y-109314000D02*
X162962000Y-109764000D01*
X162512000Y-104714000D02*
X162962000Y-104264000D01*
X165912000Y-104714000D02*
X165462000Y-104264000D01*
D10*
X135187000Y-106408000D02*
X133762000Y-106408000D01*
X142437000Y-106183000D02*
X142112000Y-106183000D01*
X142437000Y-113433000D02*
X142112000Y-113433000D01*
X135187000Y-113433000D02*
X135512000Y-113433000D01*
X135187000Y-106183000D02*
X135512000Y-106183000D01*
X135187000Y-113433000D02*
X135187000Y-113108000D01*
X142437000Y-113433000D02*
X142437000Y-113108000D01*
X142437000Y-106183000D02*
X142437000Y-106508000D01*
X135187000Y-106183000D02*
X135187000Y-106408000D01*
D12*
X130767000Y-101934000D02*
X130767000Y-98334000D01*
X130767000Y-101934000D02*
X130767000Y-104134000D01*
X123997000Y-101934000D02*
X123997000Y-99734000D01*
X123997000Y-101934000D02*
X123997000Y-104134000D01*
X182306000Y-113678000D02*
X180976000Y-113678000D01*
X182306000Y-112348000D02*
X182306000Y-113678000D01*
X182306000Y-111078000D02*
X179646000Y-111078000D01*
X179646000Y-111078000D02*
X179646000Y-98318000D01*
X182306000Y-111078000D02*
X182306000Y-98318000D01*
X182306000Y-98318000D02*
X179646000Y-98318000D01*
X136144000Y-101579641D02*
X136144000Y-101272359D01*
X135384000Y-101579641D02*
X135384000Y-101272359D01*
X153003000Y-103334000D02*
X153503000Y-103334000D01*
X153253000Y-103584000D02*
X153253000Y-103084000D01*
X156008563Y-102844000D02*
X157073000Y-101779563D01*
X153617437Y-102844000D02*
X152553000Y-101779563D01*
X153617437Y-102844000D02*
X153753000Y-102844000D01*
X156008563Y-102844000D02*
X155873000Y-102844000D01*
X157073000Y-101779563D02*
X157073000Y-98324000D01*
X152553000Y-101779563D02*
X152553000Y-98324000D01*
X152553000Y-98324000D02*
X153753000Y-98324000D01*
X157073000Y-98324000D02*
X155873000Y-98324000D01*
X148183000Y-98302000D02*
X146983000Y-98302000D01*
X143663000Y-98302000D02*
X144863000Y-98302000D01*
X143663000Y-101757563D02*
X143663000Y-98302000D01*
X148183000Y-101757563D02*
X148183000Y-98302000D01*
X147118563Y-102822000D02*
X146983000Y-102822000D01*
X144727437Y-102822000D02*
X144863000Y-102822000D01*
X144727437Y-102822000D02*
X143663000Y-101757563D01*
X147118563Y-102822000D02*
X148183000Y-101757563D01*
X144363000Y-103562000D02*
X144363000Y-103062000D01*
X144113000Y-103312000D02*
X144613000Y-103312000D01*
X152893000Y-120156000D02*
X152893000Y-118956000D01*
X152893000Y-120156000D02*
X152433000Y-120156000D01*
X152813000Y-116496000D02*
X149733000Y-116496000D01*
X147233000Y-120156000D02*
X147013000Y-120156000D01*
X147233000Y-120156000D02*
G75*
G03*
X152433000Y-120156000I2600000J1100000D01*
G01*
X156745641Y-107140000D02*
X156438359Y-107140000D01*
X156745641Y-106380000D02*
X156438359Y-106380000D01*
X144019241Y-117601000D02*
X143711959Y-117601000D01*
X144019241Y-116841000D02*
X143711959Y-116841000D01*
X153062641Y-112857000D02*
X152755359Y-112857000D01*
X153062641Y-113617000D02*
X152755359Y-113617000D01*
X148998641Y-113617000D02*
X148691359Y-113617000D01*
X148998641Y-112857000D02*
X148691359Y-112857000D01*
X139172000Y-101318164D02*
X139172000Y-101533836D01*
X138452000Y-101318164D02*
X138452000Y-101533836D01*
X159492000Y-100556164D02*
X159492000Y-100771836D01*
X158772000Y-100556164D02*
X158772000Y-100771836D01*
X141500000Y-101318164D02*
X141500000Y-101533836D01*
X142220000Y-101318164D02*
X142220000Y-101533836D01*
X122916000Y-104997364D02*
X122916000Y-105213036D01*
X122196000Y-104997364D02*
X122196000Y-105213036D01*
X122196000Y-99540164D02*
X122196000Y-99755836D01*
X122916000Y-99540164D02*
X122916000Y-99755836D01*
X161430800Y-118417000D02*
X163715800Y-118417000D01*
X163715800Y-118417000D02*
X163715800Y-116947000D01*
X163715800Y-116947000D02*
X161430800Y-116947000D01*
X168417100Y-116947000D02*
X166132100Y-116947000D01*
X168417100Y-118417000D02*
X168417100Y-116947000D01*
X166132100Y-118417000D02*
X168417100Y-118417000D01*
X119745258Y-105250500D02*
X119270742Y-105250500D01*
X119745258Y-104205500D02*
X119270742Y-104205500D01*
X155294600Y-117397559D02*
X155294600Y-117704841D01*
X154534600Y-117397559D02*
X154534600Y-117704841D01*
D13*
X148042285Y-115498514D02*
X148070857Y-115527085D01*
X148099428Y-115612800D01*
X148099428Y-115669942D01*
X148070857Y-115755657D01*
X148013714Y-115812800D01*
X147956571Y-115841371D01*
X147842285Y-115869942D01*
X147756571Y-115869942D01*
X147642285Y-115841371D01*
X147585142Y-115812800D01*
X147528000Y-115755657D01*
X147499428Y-115669942D01*
X147499428Y-115612800D01*
X147528000Y-115527085D01*
X147556571Y-115498514D01*
X148099428Y-114927085D02*
X148099428Y-115269942D01*
X148099428Y-115098514D02*
X147499428Y-115098514D01*
X147585142Y-115155657D01*
X147642285Y-115212800D01*
X147670857Y-115269942D01*
X148099428Y-114355657D02*
X148099428Y-114698514D01*
X148099428Y-114527085D02*
X147499428Y-114527085D01*
X147585142Y-114584228D01*
X147642285Y-114641371D01*
X147670857Y-114698514D01*
X152392028Y-110996400D02*
X152106314Y-111196400D01*
X152392028Y-111339257D02*
X151792028Y-111339257D01*
X151792028Y-111110685D01*
X151820600Y-111053542D01*
X151849171Y-111024971D01*
X151906314Y-110996400D01*
X151992028Y-110996400D01*
X152049171Y-111024971D01*
X152077742Y-111053542D01*
X152106314Y-111110685D01*
X152106314Y-111339257D01*
X151792028Y-110796400D02*
X151792028Y-110424971D01*
X152020600Y-110624971D01*
X152020600Y-110539257D01*
X152049171Y-110482114D01*
X152077742Y-110453542D01*
X152134885Y-110424971D01*
X152277742Y-110424971D01*
X152334885Y-110453542D01*
X152363457Y-110482114D01*
X152392028Y-110539257D01*
X152392028Y-110710685D01*
X152363457Y-110767828D01*
X152334885Y-110796400D01*
X135672514Y-119360914D02*
X135958228Y-119360914D01*
X135358228Y-119560914D02*
X135672514Y-119360914D01*
X135358228Y-119160914D01*
X135958228Y-118646628D02*
X135958228Y-118989485D01*
X135958228Y-118818057D02*
X135358228Y-118818057D01*
X135443942Y-118875200D01*
X135501085Y-118932342D01*
X135529657Y-118989485D01*
X149900742Y-105075628D02*
X149900742Y-104475628D01*
X150043600Y-104475628D01*
X150129314Y-104504200D01*
X150186457Y-104561342D01*
X150215028Y-104618485D01*
X150243600Y-104732771D01*
X150243600Y-104818485D01*
X150215028Y-104932771D01*
X150186457Y-104989914D01*
X150129314Y-105047057D01*
X150043600Y-105075628D01*
X149900742Y-105075628D01*
X150443600Y-104475628D02*
X150843600Y-104475628D01*
X150586457Y-105075628D01*
X147534285Y-111352000D02*
X147562857Y-111380571D01*
X147591428Y-111466285D01*
X147591428Y-111523428D01*
X147562857Y-111609142D01*
X147505714Y-111666285D01*
X147448571Y-111694857D01*
X147334285Y-111723428D01*
X147248571Y-111723428D01*
X147134285Y-111694857D01*
X147077142Y-111666285D01*
X147020000Y-111609142D01*
X146991428Y-111523428D01*
X146991428Y-111466285D01*
X147020000Y-111380571D01*
X147048571Y-111352000D01*
X147591428Y-110780571D02*
X147591428Y-111123428D01*
X147591428Y-110952000D02*
X146991428Y-110952000D01*
X147077142Y-111009142D01*
X147134285Y-111066285D01*
X147162857Y-111123428D01*
X133310285Y-110717000D02*
X133338857Y-110745571D01*
X133367428Y-110831285D01*
X133367428Y-110888428D01*
X133338857Y-110974142D01*
X133281714Y-111031285D01*
X133224571Y-111059857D01*
X133110285Y-111088428D01*
X133024571Y-111088428D01*
X132910285Y-111059857D01*
X132853142Y-111031285D01*
X132796000Y-110974142D01*
X132767428Y-110888428D01*
X132767428Y-110831285D01*
X132796000Y-110745571D01*
X132824571Y-110717000D01*
X132967428Y-110202714D02*
X133367428Y-110202714D01*
X132738857Y-110345571D02*
X133167428Y-110488428D01*
X133167428Y-110117000D01*
X133310285Y-112495000D02*
X133338857Y-112523571D01*
X133367428Y-112609285D01*
X133367428Y-112666428D01*
X133338857Y-112752142D01*
X133281714Y-112809285D01*
X133224571Y-112837857D01*
X133110285Y-112866428D01*
X133024571Y-112866428D01*
X132910285Y-112837857D01*
X132853142Y-112809285D01*
X132796000Y-112752142D01*
X132767428Y-112666428D01*
X132767428Y-112609285D01*
X132796000Y-112523571D01*
X132824571Y-112495000D01*
X132767428Y-111952142D02*
X132767428Y-112237857D01*
X133053142Y-112266428D01*
X133024571Y-112237857D01*
X132996000Y-112180714D01*
X132996000Y-112037857D01*
X133024571Y-111980714D01*
X133053142Y-111952142D01*
X133110285Y-111923571D01*
X133253142Y-111923571D01*
X133310285Y-111952142D01*
X133338857Y-111980714D01*
X133367428Y-112037857D01*
X133367428Y-112180714D01*
X133338857Y-112237857D01*
X133310285Y-112266428D01*
X152106285Y-101018000D02*
X152134857Y-101046571D01*
X152163428Y-101132285D01*
X152163428Y-101189428D01*
X152134857Y-101275142D01*
X152077714Y-101332285D01*
X152020571Y-101360857D01*
X151906285Y-101389428D01*
X151820571Y-101389428D01*
X151706285Y-101360857D01*
X151649142Y-101332285D01*
X151592000Y-101275142D01*
X151563428Y-101189428D01*
X151563428Y-101132285D01*
X151592000Y-101046571D01*
X151620571Y-101018000D01*
X151563428Y-100818000D02*
X151563428Y-100418000D01*
X152163428Y-100675142D01*
X127272428Y-114568857D02*
X126672428Y-114568857D01*
X126672428Y-114426000D01*
X126701000Y-114340285D01*
X126758142Y-114283142D01*
X126815285Y-114254571D01*
X126929571Y-114226000D01*
X127015285Y-114226000D01*
X127129571Y-114254571D01*
X127186714Y-114283142D01*
X127243857Y-114340285D01*
X127272428Y-114426000D01*
X127272428Y-114568857D01*
X126672428Y-113711714D02*
X126672428Y-113826000D01*
X126701000Y-113883142D01*
X126729571Y-113911714D01*
X126815285Y-113968857D01*
X126929571Y-113997428D01*
X127158142Y-113997428D01*
X127215285Y-113968857D01*
X127243857Y-113940285D01*
X127272428Y-113883142D01*
X127272428Y-113768857D01*
X127243857Y-113711714D01*
X127215285Y-113683142D01*
X127158142Y-113654571D01*
X127015285Y-113654571D01*
X126958142Y-113683142D01*
X126929571Y-113711714D01*
X126901000Y-113768857D01*
X126901000Y-113883142D01*
X126929571Y-113940285D01*
X126958142Y-113968857D01*
X127015285Y-113997428D01*
X173373428Y-114568857D02*
X172773428Y-114568857D01*
X172773428Y-114426000D01*
X172802000Y-114340285D01*
X172859142Y-114283142D01*
X172916285Y-114254571D01*
X173030571Y-114226000D01*
X173116285Y-114226000D01*
X173230571Y-114254571D01*
X173287714Y-114283142D01*
X173344857Y-114340285D01*
X173373428Y-114426000D01*
X173373428Y-114568857D01*
X173030571Y-113883142D02*
X173002000Y-113940285D01*
X172973428Y-113968857D01*
X172916285Y-113997428D01*
X172887714Y-113997428D01*
X172830571Y-113968857D01*
X172802000Y-113940285D01*
X172773428Y-113883142D01*
X172773428Y-113768857D01*
X172802000Y-113711714D01*
X172830571Y-113683142D01*
X172887714Y-113654571D01*
X172916285Y-113654571D01*
X172973428Y-113683142D01*
X173002000Y-113711714D01*
X173030571Y-113768857D01*
X173030571Y-113883142D01*
X173059142Y-113940285D01*
X173087714Y-113968857D01*
X173144857Y-113997428D01*
X173259142Y-113997428D01*
X173316285Y-113968857D01*
X173344857Y-113940285D01*
X173373428Y-113883142D01*
X173373428Y-113768857D01*
X173344857Y-113711714D01*
X173316285Y-113683142D01*
X173259142Y-113654571D01*
X173144857Y-113654571D01*
X173087714Y-113683142D01*
X173059142Y-113711714D01*
X173030571Y-113768857D01*
X168857571Y-99244142D02*
X168829000Y-99301285D01*
X168771857Y-99358428D01*
X168686142Y-99444142D01*
X168657571Y-99501285D01*
X168657571Y-99558428D01*
X168800428Y-99529857D02*
X168771857Y-99587000D01*
X168714714Y-99644142D01*
X168600428Y-99672714D01*
X168400428Y-99672714D01*
X168286142Y-99644142D01*
X168229000Y-99587000D01*
X168200428Y-99529857D01*
X168200428Y-99415571D01*
X168229000Y-99358428D01*
X168286142Y-99301285D01*
X168400428Y-99272714D01*
X168600428Y-99272714D01*
X168714714Y-99301285D01*
X168771857Y-99358428D01*
X168800428Y-99415571D01*
X168800428Y-99529857D01*
X168800428Y-98701285D02*
X168800428Y-99044142D01*
X168800428Y-98872714D02*
X168200428Y-98872714D01*
X168286142Y-98929857D01*
X168343285Y-98987000D01*
X168371857Y-99044142D01*
X128471571Y-106991142D02*
X128443000Y-107048285D01*
X128385857Y-107105428D01*
X128300142Y-107191142D01*
X128271571Y-107248285D01*
X128271571Y-107305428D01*
X128414428Y-107276857D02*
X128385857Y-107334000D01*
X128328714Y-107391142D01*
X128214428Y-107419714D01*
X128014428Y-107419714D01*
X127900142Y-107391142D01*
X127843000Y-107334000D01*
X127814428Y-107276857D01*
X127814428Y-107162571D01*
X127843000Y-107105428D01*
X127900142Y-107048285D01*
X128014428Y-107019714D01*
X128214428Y-107019714D01*
X128328714Y-107048285D01*
X128385857Y-107105428D01*
X128414428Y-107162571D01*
X128414428Y-107276857D01*
X127871571Y-106791142D02*
X127843000Y-106762571D01*
X127814428Y-106705428D01*
X127814428Y-106562571D01*
X127843000Y-106505428D01*
X127871571Y-106476857D01*
X127928714Y-106448285D01*
X127985857Y-106448285D01*
X128071571Y-106476857D01*
X128414428Y-106819714D01*
X128414428Y-106448285D01*
X132281571Y-106991142D02*
X132253000Y-107048285D01*
X132195857Y-107105428D01*
X132110142Y-107191142D01*
X132081571Y-107248285D01*
X132081571Y-107305428D01*
X132224428Y-107276857D02*
X132195857Y-107334000D01*
X132138714Y-107391142D01*
X132024428Y-107419714D01*
X131824428Y-107419714D01*
X131710142Y-107391142D01*
X131653000Y-107334000D01*
X131624428Y-107276857D01*
X131624428Y-107162571D01*
X131653000Y-107105428D01*
X131710142Y-107048285D01*
X131824428Y-107019714D01*
X132024428Y-107019714D01*
X132138714Y-107048285D01*
X132195857Y-107105428D01*
X132224428Y-107162571D01*
X132224428Y-107276857D01*
X131624428Y-106819714D02*
X131624428Y-106448285D01*
X131853000Y-106648285D01*
X131853000Y-106562571D01*
X131881571Y-106505428D01*
X131910142Y-106476857D01*
X131967285Y-106448285D01*
X132110142Y-106448285D01*
X132167285Y-106476857D01*
X132195857Y-106505428D01*
X132224428Y-106562571D01*
X132224428Y-106734000D01*
X132195857Y-106791142D01*
X132167285Y-106819714D01*
X139665628Y-117342600D02*
X139379914Y-117542600D01*
X139665628Y-117685457D02*
X139065628Y-117685457D01*
X139065628Y-117456885D01*
X139094200Y-117399742D01*
X139122771Y-117371171D01*
X139179914Y-117342600D01*
X139265628Y-117342600D01*
X139322771Y-117371171D01*
X139351342Y-117399742D01*
X139379914Y-117456885D01*
X139379914Y-117685457D01*
X139065628Y-117142600D02*
X139065628Y-116742600D01*
X139665628Y-116999742D01*
X138700428Y-119607000D02*
X138414714Y-119807000D01*
X138700428Y-119949857D02*
X138100428Y-119949857D01*
X138100428Y-119721285D01*
X138129000Y-119664142D01*
X138157571Y-119635571D01*
X138214714Y-119607000D01*
X138300428Y-119607000D01*
X138357571Y-119635571D01*
X138386142Y-119664142D01*
X138414714Y-119721285D01*
X138414714Y-119949857D01*
X138357571Y-119264142D02*
X138329000Y-119321285D01*
X138300428Y-119349857D01*
X138243285Y-119378428D01*
X138214714Y-119378428D01*
X138157571Y-119349857D01*
X138129000Y-119321285D01*
X138100428Y-119264142D01*
X138100428Y-119149857D01*
X138129000Y-119092714D01*
X138157571Y-119064142D01*
X138214714Y-119035571D01*
X138243285Y-119035571D01*
X138300428Y-119064142D01*
X138329000Y-119092714D01*
X138357571Y-119149857D01*
X138357571Y-119264142D01*
X138386142Y-119321285D01*
X138414714Y-119349857D01*
X138471857Y-119378428D01*
X138586142Y-119378428D01*
X138643285Y-119349857D01*
X138671857Y-119321285D01*
X138700428Y-119264142D01*
X138700428Y-119149857D01*
X138671857Y-119092714D01*
X138643285Y-119064142D01*
X138586142Y-119035571D01*
X138471857Y-119035571D01*
X138414714Y-119064142D01*
X138386142Y-119092714D01*
X138357571Y-119149857D01*
X145558428Y-119607000D02*
X145272714Y-119807000D01*
X145558428Y-119949857D02*
X144958428Y-119949857D01*
X144958428Y-119721285D01*
X144987000Y-119664142D01*
X145015571Y-119635571D01*
X145072714Y-119607000D01*
X145158428Y-119607000D01*
X145215571Y-119635571D01*
X145244142Y-119664142D01*
X145272714Y-119721285D01*
X145272714Y-119949857D01*
X145558428Y-119321285D02*
X145558428Y-119207000D01*
X145529857Y-119149857D01*
X145501285Y-119121285D01*
X145415571Y-119064142D01*
X145301285Y-119035571D01*
X145072714Y-119035571D01*
X145015571Y-119064142D01*
X144987000Y-119092714D01*
X144958428Y-119149857D01*
X144958428Y-119264142D01*
X144987000Y-119321285D01*
X145015571Y-119349857D01*
X145072714Y-119378428D01*
X145215571Y-119378428D01*
X145272714Y-119349857D01*
X145301285Y-119321285D01*
X145329857Y-119264142D01*
X145329857Y-119149857D01*
X145301285Y-119092714D01*
X145272714Y-119064142D01*
X145215571Y-119035571D01*
X124655228Y-96575514D02*
X124369514Y-96775514D01*
X124655228Y-96918371D02*
X124055228Y-96918371D01*
X124055228Y-96689800D01*
X124083800Y-96632657D01*
X124112371Y-96604085D01*
X124169514Y-96575514D01*
X124255228Y-96575514D01*
X124312371Y-96604085D01*
X124340942Y-96632657D01*
X124369514Y-96689800D01*
X124369514Y-96918371D01*
X124655228Y-96004085D02*
X124655228Y-96346942D01*
X124655228Y-96175514D02*
X124055228Y-96175514D01*
X124140942Y-96232657D01*
X124198085Y-96289800D01*
X124226657Y-96346942D01*
X124055228Y-95632657D02*
X124055228Y-95575514D01*
X124083800Y-95518371D01*
X124112371Y-95489800D01*
X124169514Y-95461228D01*
X124283800Y-95432657D01*
X124426657Y-95432657D01*
X124540942Y-95461228D01*
X124598085Y-95489800D01*
X124626657Y-95518371D01*
X124655228Y-95575514D01*
X124655228Y-95632657D01*
X124626657Y-95689800D01*
X124598085Y-95718371D01*
X124540942Y-95746942D01*
X124426657Y-95775514D01*
X124283800Y-95775514D01*
X124169514Y-95746942D01*
X124112371Y-95718371D01*
X124083800Y-95689800D01*
X124055228Y-95632657D01*
X125239428Y-107700714D02*
X124953714Y-107900714D01*
X125239428Y-108043571D02*
X124639428Y-108043571D01*
X124639428Y-107815000D01*
X124668000Y-107757857D01*
X124696571Y-107729285D01*
X124753714Y-107700714D01*
X124839428Y-107700714D01*
X124896571Y-107729285D01*
X124925142Y-107757857D01*
X124953714Y-107815000D01*
X124953714Y-108043571D01*
X125239428Y-107129285D02*
X125239428Y-107472142D01*
X125239428Y-107300714D02*
X124639428Y-107300714D01*
X124725142Y-107357857D01*
X124782285Y-107415000D01*
X124810857Y-107472142D01*
X124639428Y-106929285D02*
X124639428Y-106557857D01*
X124868000Y-106757857D01*
X124868000Y-106672142D01*
X124896571Y-106615000D01*
X124925142Y-106586428D01*
X124982285Y-106557857D01*
X125125142Y-106557857D01*
X125182285Y-106586428D01*
X125210857Y-106615000D01*
X125239428Y-106672142D01*
X125239428Y-106843571D01*
X125210857Y-106900714D01*
X125182285Y-106929285D01*
X134510428Y-101731714D02*
X134224714Y-101931714D01*
X134510428Y-102074571D02*
X133910428Y-102074571D01*
X133910428Y-101846000D01*
X133939000Y-101788857D01*
X133967571Y-101760285D01*
X134024714Y-101731714D01*
X134110428Y-101731714D01*
X134167571Y-101760285D01*
X134196142Y-101788857D01*
X134224714Y-101846000D01*
X134224714Y-102074571D01*
X134510428Y-101160285D02*
X134510428Y-101503142D01*
X134510428Y-101331714D02*
X133910428Y-101331714D01*
X133996142Y-101388857D01*
X134053285Y-101446000D01*
X134081857Y-101503142D01*
X134110428Y-100646000D02*
X134510428Y-100646000D01*
X133881857Y-100788857D02*
X134310428Y-100931714D01*
X134310428Y-100560285D01*
X123715428Y-110113714D02*
X123429714Y-110313714D01*
X123715428Y-110456571D02*
X123115428Y-110456571D01*
X123115428Y-110228000D01*
X123144000Y-110170857D01*
X123172571Y-110142285D01*
X123229714Y-110113714D01*
X123315428Y-110113714D01*
X123372571Y-110142285D01*
X123401142Y-110170857D01*
X123429714Y-110228000D01*
X123429714Y-110456571D01*
X123715428Y-109542285D02*
X123715428Y-109885142D01*
X123715428Y-109713714D02*
X123115428Y-109713714D01*
X123201142Y-109770857D01*
X123258285Y-109828000D01*
X123286857Y-109885142D01*
X123115428Y-108999428D02*
X123115428Y-109285142D01*
X123401142Y-109313714D01*
X123372571Y-109285142D01*
X123344000Y-109228000D01*
X123344000Y-109085142D01*
X123372571Y-109028000D01*
X123401142Y-108999428D01*
X123458285Y-108970857D01*
X123601142Y-108970857D01*
X123658285Y-108999428D01*
X123686857Y-109028000D01*
X123715428Y-109085142D01*
X123715428Y-109228000D01*
X123686857Y-109285142D01*
X123658285Y-109313714D01*
X133113428Y-105160714D02*
X132827714Y-105360714D01*
X133113428Y-105503571D02*
X132513428Y-105503571D01*
X132513428Y-105275000D01*
X132542000Y-105217857D01*
X132570571Y-105189285D01*
X132627714Y-105160714D01*
X132713428Y-105160714D01*
X132770571Y-105189285D01*
X132799142Y-105217857D01*
X132827714Y-105275000D01*
X132827714Y-105503571D01*
X133113428Y-104589285D02*
X133113428Y-104932142D01*
X133113428Y-104760714D02*
X132513428Y-104760714D01*
X132599142Y-104817857D01*
X132656285Y-104875000D01*
X132684857Y-104932142D01*
X132513428Y-104075000D02*
X132513428Y-104189285D01*
X132542000Y-104246428D01*
X132570571Y-104275000D01*
X132656285Y-104332142D01*
X132770571Y-104360714D01*
X132999142Y-104360714D01*
X133056285Y-104332142D01*
X133084857Y-104303571D01*
X133113428Y-104246428D01*
X133113428Y-104132142D01*
X133084857Y-104075000D01*
X133056285Y-104046428D01*
X132999142Y-104017857D01*
X132856285Y-104017857D01*
X132799142Y-104046428D01*
X132770571Y-104075000D01*
X132742000Y-104132142D01*
X132742000Y-104246428D01*
X132770571Y-104303571D01*
X132799142Y-104332142D01*
X132856285Y-104360714D01*
X164453857Y-107814000D02*
X164482428Y-107728285D01*
X164482428Y-107585428D01*
X164453857Y-107528285D01*
X164425285Y-107499714D01*
X164368142Y-107471142D01*
X164311000Y-107471142D01*
X164253857Y-107499714D01*
X164225285Y-107528285D01*
X164196714Y-107585428D01*
X164168142Y-107699714D01*
X164139571Y-107756857D01*
X164111000Y-107785428D01*
X164053857Y-107814000D01*
X163996714Y-107814000D01*
X163939571Y-107785428D01*
X163911000Y-107756857D01*
X163882428Y-107699714D01*
X163882428Y-107556857D01*
X163911000Y-107471142D01*
X163882428Y-107271142D02*
X164482428Y-107128285D01*
X164053857Y-107014000D01*
X164482428Y-106899714D01*
X163882428Y-106756857D01*
X164482428Y-106214000D02*
X164482428Y-106556857D01*
X164482428Y-106385428D02*
X163882428Y-106385428D01*
X163968142Y-106442571D01*
X164025285Y-106499714D01*
X164053857Y-106556857D01*
X138432628Y-110163542D02*
X138918342Y-110163542D01*
X138975485Y-110134971D01*
X139004057Y-110106400D01*
X139032628Y-110049257D01*
X139032628Y-109934971D01*
X139004057Y-109877828D01*
X138975485Y-109849257D01*
X138918342Y-109820685D01*
X138432628Y-109820685D01*
X139032628Y-109220685D02*
X139032628Y-109563542D01*
X139032628Y-109392114D02*
X138432628Y-109392114D01*
X138518342Y-109449257D01*
X138575485Y-109506400D01*
X138604057Y-109563542D01*
X126926428Y-102391142D02*
X127412142Y-102391142D01*
X127469285Y-102362571D01*
X127497857Y-102334000D01*
X127526428Y-102276857D01*
X127526428Y-102162571D01*
X127497857Y-102105428D01*
X127469285Y-102076857D01*
X127412142Y-102048285D01*
X126926428Y-102048285D01*
X126926428Y-101819714D02*
X126926428Y-101448285D01*
X127155000Y-101648285D01*
X127155000Y-101562571D01*
X127183571Y-101505428D01*
X127212142Y-101476857D01*
X127269285Y-101448285D01*
X127412142Y-101448285D01*
X127469285Y-101476857D01*
X127497857Y-101505428D01*
X127526428Y-101562571D01*
X127526428Y-101734000D01*
X127497857Y-101791142D01*
X127469285Y-101819714D01*
X136923428Y-101446000D02*
X136637714Y-101646000D01*
X136923428Y-101788857D02*
X136323428Y-101788857D01*
X136323428Y-101560285D01*
X136352000Y-101503142D01*
X136380571Y-101474571D01*
X136437714Y-101446000D01*
X136523428Y-101446000D01*
X136580571Y-101474571D01*
X136609142Y-101503142D01*
X136637714Y-101560285D01*
X136637714Y-101788857D01*
X136923428Y-100874571D02*
X136923428Y-101217428D01*
X136923428Y-101046000D02*
X136323428Y-101046000D01*
X136409142Y-101103142D01*
X136466285Y-101160285D01*
X136494857Y-101217428D01*
X157973685Y-98880600D02*
X158002257Y-98909171D01*
X158030828Y-98994885D01*
X158030828Y-99052028D01*
X158002257Y-99137742D01*
X157945114Y-99194885D01*
X157887971Y-99223457D01*
X157773685Y-99252028D01*
X157687971Y-99252028D01*
X157573685Y-99223457D01*
X157516542Y-99194885D01*
X157459400Y-99137742D01*
X157430828Y-99052028D01*
X157430828Y-98994885D01*
X157459400Y-98909171D01*
X157487971Y-98880600D01*
X157487971Y-98652028D02*
X157459400Y-98623457D01*
X157430828Y-98566314D01*
X157430828Y-98423457D01*
X157459400Y-98366314D01*
X157487971Y-98337742D01*
X157545114Y-98309171D01*
X157602257Y-98309171D01*
X157687971Y-98337742D01*
X158030828Y-98680600D01*
X158030828Y-98309171D01*
X149109085Y-98880600D02*
X149137657Y-98909171D01*
X149166228Y-98994885D01*
X149166228Y-99052028D01*
X149137657Y-99137742D01*
X149080514Y-99194885D01*
X149023371Y-99223457D01*
X148909085Y-99252028D01*
X148823371Y-99252028D01*
X148709085Y-99223457D01*
X148651942Y-99194885D01*
X148594800Y-99137742D01*
X148566228Y-99052028D01*
X148566228Y-98994885D01*
X148594800Y-98909171D01*
X148623371Y-98880600D01*
X148823371Y-98537742D02*
X148794800Y-98594885D01*
X148766228Y-98623457D01*
X148709085Y-98652028D01*
X148680514Y-98652028D01*
X148623371Y-98623457D01*
X148594800Y-98594885D01*
X148566228Y-98537742D01*
X148566228Y-98423457D01*
X148594800Y-98366314D01*
X148623371Y-98337742D01*
X148680514Y-98309171D01*
X148709085Y-98309171D01*
X148766228Y-98337742D01*
X148794800Y-98366314D01*
X148823371Y-98423457D01*
X148823371Y-98537742D01*
X148851942Y-98594885D01*
X148880514Y-98623457D01*
X148937657Y-98652028D01*
X149051942Y-98652028D01*
X149109085Y-98623457D01*
X149137657Y-98594885D01*
X149166228Y-98537742D01*
X149166228Y-98423457D01*
X149137657Y-98366314D01*
X149109085Y-98337742D01*
X149051942Y-98309171D01*
X148937657Y-98309171D01*
X148880514Y-98337742D01*
X148851942Y-98366314D01*
X148823371Y-98423457D01*
X149250457Y-119711828D02*
X149250457Y-120197542D01*
X149279028Y-120254685D01*
X149307600Y-120283257D01*
X149364742Y-120311828D01*
X149479028Y-120311828D01*
X149536171Y-120283257D01*
X149564742Y-120254685D01*
X149593314Y-120197542D01*
X149593314Y-119711828D01*
X149850457Y-119768971D02*
X149879028Y-119740400D01*
X149936171Y-119711828D01*
X150079028Y-119711828D01*
X150136171Y-119740400D01*
X150164742Y-119768971D01*
X150193314Y-119826114D01*
X150193314Y-119883257D01*
X150164742Y-119968971D01*
X149821885Y-120311828D01*
X150193314Y-120311828D01*
X145559428Y-117295600D02*
X145273714Y-117495600D01*
X145559428Y-117638457D02*
X144959428Y-117638457D01*
X144959428Y-117409885D01*
X144988000Y-117352742D01*
X145016571Y-117324171D01*
X145073714Y-117295600D01*
X145159428Y-117295600D01*
X145216571Y-117324171D01*
X145245142Y-117352742D01*
X145273714Y-117409885D01*
X145273714Y-117638457D01*
X145159428Y-116781314D02*
X145559428Y-116781314D01*
X144930857Y-116924171D02*
X145359428Y-117067028D01*
X145359428Y-116695600D01*
X151655428Y-113333200D02*
X151369714Y-113533200D01*
X151655428Y-113676057D02*
X151055428Y-113676057D01*
X151055428Y-113447485D01*
X151084000Y-113390342D01*
X151112571Y-113361771D01*
X151169714Y-113333200D01*
X151255428Y-113333200D01*
X151312571Y-113361771D01*
X151341142Y-113390342D01*
X151369714Y-113447485D01*
X151369714Y-113676057D01*
X151055428Y-112790342D02*
X151055428Y-113076057D01*
X151341142Y-113104628D01*
X151312571Y-113076057D01*
X151284000Y-113018914D01*
X151284000Y-112876057D01*
X151312571Y-112818914D01*
X151341142Y-112790342D01*
X151398285Y-112761771D01*
X151541142Y-112761771D01*
X151598285Y-112790342D01*
X151626857Y-112818914D01*
X151655428Y-112876057D01*
X151655428Y-113018914D01*
X151626857Y-113076057D01*
X151598285Y-113104628D01*
X150690228Y-113358600D02*
X150404514Y-113558600D01*
X150690228Y-113701457D02*
X150090228Y-113701457D01*
X150090228Y-113472885D01*
X150118800Y-113415742D01*
X150147371Y-113387171D01*
X150204514Y-113358600D01*
X150290228Y-113358600D01*
X150347371Y-113387171D01*
X150375942Y-113415742D01*
X150404514Y-113472885D01*
X150404514Y-113701457D01*
X150090228Y-112844314D02*
X150090228Y-112958600D01*
X150118800Y-113015742D01*
X150147371Y-113044314D01*
X150233085Y-113101457D01*
X150347371Y-113130028D01*
X150575942Y-113130028D01*
X150633085Y-113101457D01*
X150661657Y-113072885D01*
X150690228Y-113015742D01*
X150690228Y-112901457D01*
X150661657Y-112844314D01*
X150633085Y-112815742D01*
X150575942Y-112787171D01*
X150433085Y-112787171D01*
X150375942Y-112815742D01*
X150347371Y-112844314D01*
X150318800Y-112901457D01*
X150318800Y-113015742D01*
X150347371Y-113072885D01*
X150375942Y-113101457D01*
X150433085Y-113130028D01*
X140015885Y-101547600D02*
X140044457Y-101576171D01*
X140073028Y-101661885D01*
X140073028Y-101719028D01*
X140044457Y-101804742D01*
X139987314Y-101861885D01*
X139930171Y-101890457D01*
X139815885Y-101919028D01*
X139730171Y-101919028D01*
X139615885Y-101890457D01*
X139558742Y-101861885D01*
X139501600Y-101804742D01*
X139473028Y-101719028D01*
X139473028Y-101661885D01*
X139501600Y-101576171D01*
X139530171Y-101547600D01*
X139473028Y-101347600D02*
X139473028Y-100976171D01*
X139701600Y-101176171D01*
X139701600Y-101090457D01*
X139730171Y-101033314D01*
X139758742Y-101004742D01*
X139815885Y-100976171D01*
X139958742Y-100976171D01*
X140015885Y-101004742D01*
X140044457Y-101033314D01*
X140073028Y-101090457D01*
X140073028Y-101261885D01*
X140044457Y-101319028D01*
X140015885Y-101347600D01*
X160506285Y-100764000D02*
X160534857Y-100792571D01*
X160563428Y-100878285D01*
X160563428Y-100935428D01*
X160534857Y-101021142D01*
X160477714Y-101078285D01*
X160420571Y-101106857D01*
X160306285Y-101135428D01*
X160220571Y-101135428D01*
X160106285Y-101106857D01*
X160049142Y-101078285D01*
X159992000Y-101021142D01*
X159963428Y-100935428D01*
X159963428Y-100878285D01*
X159992000Y-100792571D01*
X160020571Y-100764000D01*
X159963428Y-100249714D02*
X159963428Y-100364000D01*
X159992000Y-100421142D01*
X160020571Y-100449714D01*
X160106285Y-100506857D01*
X160220571Y-100535428D01*
X160449142Y-100535428D01*
X160506285Y-100506857D01*
X160534857Y-100478285D01*
X160563428Y-100421142D01*
X160563428Y-100306857D01*
X160534857Y-100249714D01*
X160506285Y-100221142D01*
X160449142Y-100192571D01*
X160306285Y-100192571D01*
X160249142Y-100221142D01*
X160220571Y-100249714D01*
X160192000Y-100306857D01*
X160192000Y-100421142D01*
X160220571Y-100478285D01*
X160249142Y-100506857D01*
X160306285Y-100535428D01*
X143089285Y-101522200D02*
X143117857Y-101550771D01*
X143146428Y-101636485D01*
X143146428Y-101693628D01*
X143117857Y-101779342D01*
X143060714Y-101836485D01*
X143003571Y-101865057D01*
X142889285Y-101893628D01*
X142803571Y-101893628D01*
X142689285Y-101865057D01*
X142632142Y-101836485D01*
X142575000Y-101779342D01*
X142546428Y-101693628D01*
X142546428Y-101636485D01*
X142575000Y-101550771D01*
X142603571Y-101522200D01*
X143146428Y-101236485D02*
X143146428Y-101122200D01*
X143117857Y-101065057D01*
X143089285Y-101036485D01*
X143003571Y-100979342D01*
X142889285Y-100950771D01*
X142660714Y-100950771D01*
X142603571Y-100979342D01*
X142575000Y-101007914D01*
X142546428Y-101065057D01*
X142546428Y-101179342D01*
X142575000Y-101236485D01*
X142603571Y-101265057D01*
X142660714Y-101293628D01*
X142803571Y-101293628D01*
X142860714Y-101265057D01*
X142889285Y-101236485D01*
X142917857Y-101179342D01*
X142917857Y-101065057D01*
X142889285Y-101007914D01*
X142860714Y-100979342D01*
X142803571Y-100950771D01*
X123683685Y-105465514D02*
X123712257Y-105494085D01*
X123740828Y-105579800D01*
X123740828Y-105636942D01*
X123712257Y-105722657D01*
X123655114Y-105779800D01*
X123597971Y-105808371D01*
X123483685Y-105836942D01*
X123397971Y-105836942D01*
X123283685Y-105808371D01*
X123226542Y-105779800D01*
X123169400Y-105722657D01*
X123140828Y-105636942D01*
X123140828Y-105579800D01*
X123169400Y-105494085D01*
X123197971Y-105465514D01*
X123740828Y-104894085D02*
X123740828Y-105236942D01*
X123740828Y-105065514D02*
X123140828Y-105065514D01*
X123226542Y-105122657D01*
X123283685Y-105179800D01*
X123312257Y-105236942D01*
X123140828Y-104522657D02*
X123140828Y-104465514D01*
X123169400Y-104408371D01*
X123197971Y-104379800D01*
X123255114Y-104351228D01*
X123369400Y-104322657D01*
X123512257Y-104322657D01*
X123626542Y-104351228D01*
X123683685Y-104379800D01*
X123712257Y-104408371D01*
X123740828Y-104465514D01*
X123740828Y-104522657D01*
X123712257Y-104579800D01*
X123683685Y-104608371D01*
X123626542Y-104636942D01*
X123512257Y-104665514D01*
X123369400Y-104665514D01*
X123255114Y-104636942D01*
X123197971Y-104608371D01*
X123169400Y-104579800D01*
X123140828Y-104522657D01*
X123683685Y-100055314D02*
X123712257Y-100083885D01*
X123740828Y-100169600D01*
X123740828Y-100226742D01*
X123712257Y-100312457D01*
X123655114Y-100369600D01*
X123597971Y-100398171D01*
X123483685Y-100426742D01*
X123397971Y-100426742D01*
X123283685Y-100398171D01*
X123226542Y-100369600D01*
X123169400Y-100312457D01*
X123140828Y-100226742D01*
X123140828Y-100169600D01*
X123169400Y-100083885D01*
X123197971Y-100055314D01*
X123740828Y-99483885D02*
X123740828Y-99826742D01*
X123740828Y-99655314D02*
X123140828Y-99655314D01*
X123226542Y-99712457D01*
X123283685Y-99769600D01*
X123312257Y-99826742D01*
X123197971Y-99255314D02*
X123169400Y-99226742D01*
X123140828Y-99169600D01*
X123140828Y-99026742D01*
X123169400Y-98969600D01*
X123197971Y-98941028D01*
X123255114Y-98912457D01*
X123312257Y-98912457D01*
X123397971Y-98941028D01*
X123740828Y-99283885D01*
X123740828Y-98912457D01*
X121683428Y-105033714D02*
X121397714Y-105233714D01*
X121683428Y-105376571D02*
X121083428Y-105376571D01*
X121083428Y-105148000D01*
X121112000Y-105090857D01*
X121140571Y-105062285D01*
X121197714Y-105033714D01*
X121283428Y-105033714D01*
X121340571Y-105062285D01*
X121369142Y-105090857D01*
X121397714Y-105148000D01*
X121397714Y-105376571D01*
X121683428Y-104462285D02*
X121683428Y-104805142D01*
X121683428Y-104633714D02*
X121083428Y-104633714D01*
X121169142Y-104690857D01*
X121226285Y-104748000D01*
X121254857Y-104805142D01*
X121683428Y-103890857D02*
X121683428Y-104233714D01*
X121683428Y-104062285D02*
X121083428Y-104062285D01*
X121169142Y-104119428D01*
X121226285Y-104176571D01*
X121254857Y-104233714D01*
X154195428Y-117835314D02*
X153909714Y-118035314D01*
X154195428Y-118178171D02*
X153595428Y-118178171D01*
X153595428Y-117949600D01*
X153624000Y-117892457D01*
X153652571Y-117863885D01*
X153709714Y-117835314D01*
X153795428Y-117835314D01*
X153852571Y-117863885D01*
X153881142Y-117892457D01*
X153909714Y-117949600D01*
X153909714Y-118178171D01*
X154195428Y-117263885D02*
X154195428Y-117606742D01*
X154195428Y-117435314D02*
X153595428Y-117435314D01*
X153681142Y-117492457D01*
X153738285Y-117549600D01*
X153766857Y-117606742D01*
X153652571Y-117035314D02*
X153624000Y-117006742D01*
X153595428Y-116949600D01*
X153595428Y-116806742D01*
X153624000Y-116749600D01*
X153652571Y-116721028D01*
X153709714Y-116692457D01*
X153766857Y-116692457D01*
X153852571Y-116721028D01*
X154195428Y-117063885D01*
X154195428Y-116692457D01*
%LPC*%
D14*
X176276000Y-94488000D03*
X172942000Y-118840000D03*
X126968000Y-118872000D03*
G36*
G01*
X152977000Y-114731887D02*
X152977000Y-115646113D01*
G75*
G02*
X152708113Y-115915000I-268887J0D01*
G01*
X151743887Y-115915000D01*
G75*
G02*
X151475000Y-115646113I0J268887D01*
G01*
X151475000Y-114731887D01*
G75*
G02*
X151743887Y-114463000I268887J0D01*
G01*
X152708113Y-114463000D01*
G75*
G02*
X152977000Y-114731887I0J-268887D01*
G01*
G37*
G36*
G01*
X150277000Y-114731887D02*
X150277000Y-115646113D01*
G75*
G02*
X150008113Y-115915000I-268887J0D01*
G01*
X149043887Y-115915000D01*
G75*
G02*
X148775000Y-115646113I0J268887D01*
G01*
X148775000Y-114731887D01*
G75*
G02*
X149043887Y-114463000I268887J0D01*
G01*
X150008113Y-114463000D01*
G75*
G02*
X150277000Y-114731887I0J-268887D01*
G01*
G37*
G36*
G01*
X150433000Y-110660500D02*
X150433000Y-111081500D01*
G75*
G02*
X150272500Y-111242000I-160500J0D01*
G01*
X149951500Y-111242000D01*
G75*
G02*
X149791000Y-111081500I0J160500D01*
G01*
X149791000Y-110660500D01*
G75*
G02*
X149951500Y-110500000I160500J0D01*
G01*
X150272500Y-110500000D01*
G75*
G02*
X150433000Y-110660500I0J-160500D01*
G01*
G37*
G36*
G01*
X151453000Y-110660500D02*
X151453000Y-111081500D01*
G75*
G02*
X151292500Y-111242000I-160500J0D01*
G01*
X150971500Y-111242000D01*
G75*
G02*
X150811000Y-111081500I0J160500D01*
G01*
X150811000Y-110660500D01*
G75*
G02*
X150971500Y-110500000I160500J0D01*
G01*
X151292500Y-110500000D01*
G75*
G02*
X151453000Y-110660500I0J-160500D01*
G01*
G37*
G36*
G01*
X131245000Y-119433001D02*
X131245000Y-118232999D01*
G75*
G02*
X131295999Y-118182000I50999J0D01*
G01*
X132696001Y-118182000D01*
G75*
G02*
X132747000Y-118232999I0J-50999D01*
G01*
X132747000Y-119433001D01*
G75*
G02*
X132696001Y-119484000I-50999J0D01*
G01*
X131295999Y-119484000D01*
G75*
G02*
X131245000Y-119433001I0J50999D01*
G01*
G37*
G36*
G01*
X133445000Y-119433001D02*
X133445000Y-118232999D01*
G75*
G02*
X133495999Y-118182000I50999J0D01*
G01*
X134896001Y-118182000D01*
G75*
G02*
X134947000Y-118232999I0J-50999D01*
G01*
X134947000Y-119433001D01*
G75*
G02*
X134896001Y-119484000I-50999J0D01*
G01*
X133495999Y-119484000D01*
G75*
G02*
X133445000Y-119433001I0J50999D01*
G01*
G37*
G36*
G01*
X133445000Y-117733001D02*
X133445000Y-116532999D01*
G75*
G02*
X133495999Y-116482000I50999J0D01*
G01*
X134896001Y-116482000D01*
G75*
G02*
X134947000Y-116532999I0J-50999D01*
G01*
X134947000Y-117733001D01*
G75*
G02*
X134896001Y-117784000I-50999J0D01*
G01*
X133495999Y-117784000D01*
G75*
G02*
X133445000Y-117733001I0J50999D01*
G01*
G37*
G36*
G01*
X131245000Y-117733001D02*
X131245000Y-116532999D01*
G75*
G02*
X131295999Y-116482000I50999J0D01*
G01*
X132696001Y-116482000D01*
G75*
G02*
X132747000Y-116532999I0J-50999D01*
G01*
X132747000Y-117733001D01*
G75*
G02*
X132696001Y-117784000I-50999J0D01*
G01*
X131295999Y-117784000D01*
G75*
G02*
X131245000Y-117733001I0J50999D01*
G01*
G37*
D15*
X151612600Y-106502200D03*
G36*
G01*
X148121600Y-107402200D02*
X148121600Y-105602200D01*
G75*
G02*
X148172600Y-105551200I51000J0D01*
G01*
X149972600Y-105551200D01*
G75*
G02*
X150023600Y-105602200I0J-51000D01*
G01*
X150023600Y-107402200D01*
G75*
G02*
X149972600Y-107453200I-51000J0D01*
G01*
X148172600Y-107453200D01*
G75*
G02*
X148121600Y-107402200I0J51000D01*
G01*
G37*
D16*
X121032000Y-94568000D03*
X179032000Y-94568000D03*
X179032000Y-117568000D03*
X121032000Y-117568000D03*
G36*
G01*
X146453500Y-112608000D02*
X145902500Y-112608000D01*
G75*
G02*
X145652000Y-112357500I0J250500D01*
G01*
X145652000Y-111856500D01*
G75*
G02*
X145902500Y-111606000I250500J0D01*
G01*
X146453500Y-111606000D01*
G75*
G02*
X146704000Y-111856500I0J-250500D01*
G01*
X146704000Y-112357500D01*
G75*
G02*
X146453500Y-112608000I-250500J0D01*
G01*
G37*
G36*
G01*
X146453500Y-111058000D02*
X145902500Y-111058000D01*
G75*
G02*
X145652000Y-110807500I0J250500D01*
G01*
X145652000Y-110306500D01*
G75*
G02*
X145902500Y-110056000I250500J0D01*
G01*
X146453500Y-110056000D01*
G75*
G02*
X146704000Y-110306500I0J-250500D01*
G01*
X146704000Y-110807500D01*
G75*
G02*
X146453500Y-111058000I-250500J0D01*
G01*
G37*
G36*
G01*
X131849000Y-110765500D02*
X131849000Y-110374500D01*
G75*
G02*
X132014500Y-110209000I165500J0D01*
G01*
X132345500Y-110209000D01*
G75*
G02*
X132511000Y-110374500I0J-165500D01*
G01*
X132511000Y-110765500D01*
G75*
G02*
X132345500Y-110931000I-165500J0D01*
G01*
X132014500Y-110931000D01*
G75*
G02*
X131849000Y-110765500I0J165500D01*
G01*
G37*
G36*
G01*
X130889000Y-110765500D02*
X130889000Y-110374500D01*
G75*
G02*
X131054500Y-110209000I165500J0D01*
G01*
X131385500Y-110209000D01*
G75*
G02*
X131551000Y-110374500I0J-165500D01*
G01*
X131551000Y-110765500D01*
G75*
G02*
X131385500Y-110931000I-165500J0D01*
G01*
X131054500Y-110931000D01*
G75*
G02*
X130889000Y-110765500I0J165500D01*
G01*
G37*
G36*
G01*
X130889000Y-112543500D02*
X130889000Y-112152500D01*
G75*
G02*
X131054500Y-111987000I165500J0D01*
G01*
X131385500Y-111987000D01*
G75*
G02*
X131551000Y-112152500I0J-165500D01*
G01*
X131551000Y-112543500D01*
G75*
G02*
X131385500Y-112709000I-165500J0D01*
G01*
X131054500Y-112709000D01*
G75*
G02*
X130889000Y-112543500I0J165500D01*
G01*
G37*
G36*
G01*
X131849000Y-112543500D02*
X131849000Y-112152500D01*
G75*
G02*
X132014500Y-111987000I165500J0D01*
G01*
X132345500Y-111987000D01*
G75*
G02*
X132511000Y-112152500I0J-165500D01*
G01*
X132511000Y-112543500D01*
G75*
G02*
X132345500Y-112709000I-165500J0D01*
G01*
X132014500Y-112709000D01*
G75*
G02*
X131849000Y-112543500I0J165500D01*
G01*
G37*
G36*
G01*
X150920828Y-103019000D02*
X149563172Y-103019000D01*
G75*
G02*
X149291000Y-102746828I0J272172D01*
G01*
X149291000Y-102039172D01*
G75*
G02*
X149563172Y-101767000I272172J0D01*
G01*
X150920828Y-101767000D01*
G75*
G02*
X151193000Y-102039172I0J-272172D01*
G01*
X151193000Y-102746828D01*
G75*
G02*
X150920828Y-103019000I-272172J0D01*
G01*
G37*
G36*
G01*
X150920828Y-100069000D02*
X149563172Y-100069000D01*
G75*
G02*
X149291000Y-99796828I0J272172D01*
G01*
X149291000Y-99089172D01*
G75*
G02*
X149563172Y-98817000I272172J0D01*
G01*
X150920828Y-98817000D01*
G75*
G02*
X151193000Y-99089172I0J-272172D01*
G01*
X151193000Y-99796828D01*
G75*
G02*
X150920828Y-100069000I-272172J0D01*
G01*
G37*
G36*
G01*
X158757000Y-112066250D02*
X158757000Y-112629750D01*
G75*
G02*
X158512750Y-112874000I-244250J0D01*
G01*
X158024250Y-112874000D01*
G75*
G02*
X157780000Y-112629750I0J244250D01*
G01*
X157780000Y-112066250D01*
G75*
G02*
X158024250Y-111822000I244250J0D01*
G01*
X158512750Y-111822000D01*
G75*
G02*
X158757000Y-112066250I0J-244250D01*
G01*
G37*
G36*
G01*
X157182000Y-112066250D02*
X157182000Y-112629750D01*
G75*
G02*
X156937750Y-112874000I-244250J0D01*
G01*
X156449250Y-112874000D01*
G75*
G02*
X156205000Y-112629750I0J244250D01*
G01*
X156205000Y-112066250D01*
G75*
G02*
X156449250Y-111822000I244250J0D01*
G01*
X156937750Y-111822000D01*
G75*
G02*
X157182000Y-112066250I0J-244250D01*
G01*
G37*
G36*
G01*
X157182000Y-114098250D02*
X157182000Y-114661750D01*
G75*
G02*
X156937750Y-114906000I-244250J0D01*
G01*
X156449250Y-114906000D01*
G75*
G02*
X156205000Y-114661750I0J244250D01*
G01*
X156205000Y-114098250D01*
G75*
G02*
X156449250Y-113854000I244250J0D01*
G01*
X156937750Y-113854000D01*
G75*
G02*
X157182000Y-114098250I0J-244250D01*
G01*
G37*
G36*
G01*
X158757000Y-114098250D02*
X158757000Y-114661750D01*
G75*
G02*
X158512750Y-114906000I-244250J0D01*
G01*
X158024250Y-114906000D01*
G75*
G02*
X157780000Y-114661750I0J244250D01*
G01*
X157780000Y-114098250D01*
G75*
G02*
X158024250Y-113854000I244250J0D01*
G01*
X158512750Y-113854000D01*
G75*
G02*
X158757000Y-114098250I0J-244250D01*
G01*
G37*
G36*
G01*
X158757000Y-117298650D02*
X158757000Y-117862150D01*
G75*
G02*
X158512750Y-118106400I-244250J0D01*
G01*
X158024250Y-118106400D01*
G75*
G02*
X157780000Y-117862150I0J244250D01*
G01*
X157780000Y-117298650D01*
G75*
G02*
X158024250Y-117054400I244250J0D01*
G01*
X158512750Y-117054400D01*
G75*
G02*
X158757000Y-117298650I0J-244250D01*
G01*
G37*
G36*
G01*
X157182000Y-117298650D02*
X157182000Y-117862150D01*
G75*
G02*
X156937750Y-118106400I-244250J0D01*
G01*
X156449250Y-118106400D01*
G75*
G02*
X156205000Y-117862150I0J244250D01*
G01*
X156205000Y-117298650D01*
G75*
G02*
X156449250Y-117054400I244250J0D01*
G01*
X156937750Y-117054400D01*
G75*
G02*
X157182000Y-117298650I0J-244250D01*
G01*
G37*
G36*
G01*
X124780000Y-111851000D02*
X124780000Y-110051000D01*
G75*
G02*
X124831000Y-110000000I51000J0D01*
G01*
X126631000Y-110000000D01*
G75*
G02*
X126682000Y-110051000I0J-51000D01*
G01*
X126682000Y-111851000D01*
G75*
G02*
X126631000Y-111902000I-51000J0D01*
G01*
X124831000Y-111902000D01*
G75*
G02*
X124780000Y-111851000I0J51000D01*
G01*
G37*
D15*
X128271000Y-110951000D03*
X174245000Y-110951000D03*
G36*
G01*
X170754000Y-111851000D02*
X170754000Y-110051000D01*
G75*
G02*
X170805000Y-110000000I51000J0D01*
G01*
X172605000Y-110000000D01*
G75*
G02*
X172656000Y-110051000I0J-51000D01*
G01*
X172656000Y-111851000D01*
G75*
G02*
X172605000Y-111902000I-51000J0D01*
G01*
X170805000Y-111902000D01*
G75*
G02*
X170754000Y-111851000I0J51000D01*
G01*
G37*
G36*
G01*
X125008000Y-94937000D02*
X126708000Y-94937000D01*
G75*
G02*
X126759000Y-94988000I0J-51000D01*
G01*
X126759000Y-96688000D01*
G75*
G02*
X126708000Y-96739000I-51000J0D01*
G01*
X125008000Y-96739000D01*
G75*
G02*
X124957000Y-96688000I0J51000D01*
G01*
X124957000Y-94988000D01*
G75*
G02*
X125008000Y-94937000I51000J0D01*
G01*
G37*
D17*
X125858000Y-93298000D03*
X128398000Y-95838000D03*
X128398000Y-93298000D03*
X130938000Y-95838000D03*
X130938000Y-93298000D03*
X133478000Y-95838000D03*
X133478000Y-93298000D03*
X136018000Y-95838000D03*
X136018000Y-93298000D03*
X138558000Y-95838000D03*
X138558000Y-93298000D03*
X141098000Y-95838000D03*
X141098000Y-93298000D03*
X143638000Y-95838000D03*
X143638000Y-93298000D03*
X146178000Y-95838000D03*
X146178000Y-93298000D03*
X148718000Y-95838000D03*
X148718000Y-93298000D03*
X151258000Y-95838000D03*
X151258000Y-93298000D03*
X153798000Y-95838000D03*
X153798000Y-93298000D03*
X156338000Y-95838000D03*
X156338000Y-93298000D03*
X158878000Y-95838000D03*
X158878000Y-93298000D03*
X161418000Y-95838000D03*
X161418000Y-93298000D03*
X163958000Y-95838000D03*
X163958000Y-93298000D03*
X166498000Y-95838000D03*
X166498000Y-93298000D03*
X169038000Y-95838000D03*
X169038000Y-93298000D03*
X171578000Y-95838000D03*
X171578000Y-93298000D03*
X174118000Y-95838000D03*
X174118000Y-93298000D03*
G36*
G01*
X173444000Y-103089000D02*
X171744000Y-103089000D01*
G75*
G02*
X171693000Y-103038000I0J51000D01*
G01*
X171693000Y-101338000D01*
G75*
G02*
X171744000Y-101287000I51000J0D01*
G01*
X173444000Y-101287000D01*
G75*
G02*
X173495000Y-101338000I0J-51000D01*
G01*
X173495000Y-103038000D01*
G75*
G02*
X173444000Y-103089000I-51000J0D01*
G01*
G37*
X172594000Y-99648000D03*
X175134000Y-102188000D03*
X175134000Y-99648000D03*
X177674000Y-102188000D03*
X177674000Y-99648000D03*
G36*
G01*
X118606000Y-108520600D02*
X118606000Y-106820600D01*
G75*
G02*
X118657000Y-106769600I51000J0D01*
G01*
X120357000Y-106769600D01*
G75*
G02*
X120408000Y-106820600I0J-51000D01*
G01*
X120408000Y-108520600D01*
G75*
G02*
X120357000Y-108571600I-51000J0D01*
G01*
X118657000Y-108571600D01*
G75*
G02*
X118606000Y-108520600I0J51000D01*
G01*
G37*
X119507000Y-110210600D03*
X119507000Y-112750600D03*
G36*
G01*
X120409000Y-101084000D02*
X120409000Y-102784000D01*
G75*
G02*
X120358000Y-102835000I-51000J0D01*
G01*
X118658000Y-102835000D01*
G75*
G02*
X118607000Y-102784000I0J51000D01*
G01*
X118607000Y-101084000D01*
G75*
G02*
X118658000Y-101033000I51000J0D01*
G01*
X120358000Y-101033000D01*
G75*
G02*
X120409000Y-101084000I0J-51000D01*
G01*
G37*
X119508000Y-99394000D03*
G36*
G01*
X167914000Y-100165000D02*
X167114000Y-100165000D01*
G75*
G02*
X167063000Y-100114000I0J51000D01*
G01*
X167063000Y-99214000D01*
G75*
G02*
X167114000Y-99163000I51000J0D01*
G01*
X167914000Y-99163000D01*
G75*
G02*
X167965000Y-99214000I0J-51000D01*
G01*
X167965000Y-100114000D01*
G75*
G02*
X167914000Y-100165000I-51000J0D01*
G01*
G37*
G36*
G01*
X168864000Y-102165000D02*
X168064000Y-102165000D01*
G75*
G02*
X168013000Y-102114000I0J51000D01*
G01*
X168013000Y-101214000D01*
G75*
G02*
X168064000Y-101163000I51000J0D01*
G01*
X168864000Y-101163000D01*
G75*
G02*
X168915000Y-101214000I0J-51000D01*
G01*
X168915000Y-102114000D01*
G75*
G02*
X168864000Y-102165000I-51000J0D01*
G01*
G37*
G36*
G01*
X166964000Y-102165000D02*
X166164000Y-102165000D01*
G75*
G02*
X166113000Y-102114000I0J51000D01*
G01*
X166113000Y-101214000D01*
G75*
G02*
X166164000Y-101163000I51000J0D01*
G01*
X166964000Y-101163000D01*
G75*
G02*
X167015000Y-101214000I0J-51000D01*
G01*
X167015000Y-102114000D01*
G75*
G02*
X166964000Y-102165000I-51000J0D01*
G01*
G37*
G36*
G01*
X125373000Y-107480000D02*
X125373000Y-106680000D01*
G75*
G02*
X125424000Y-106629000I51000J0D01*
G01*
X126324000Y-106629000D01*
G75*
G02*
X126375000Y-106680000I0J-51000D01*
G01*
X126375000Y-107480000D01*
G75*
G02*
X126324000Y-107531000I-51000J0D01*
G01*
X125424000Y-107531000D01*
G75*
G02*
X125373000Y-107480000I0J51000D01*
G01*
G37*
G36*
G01*
X125373000Y-109380000D02*
X125373000Y-108580000D01*
G75*
G02*
X125424000Y-108529000I51000J0D01*
G01*
X126324000Y-108529000D01*
G75*
G02*
X126375000Y-108580000I0J-51000D01*
G01*
X126375000Y-109380000D01*
G75*
G02*
X126324000Y-109431000I-51000J0D01*
G01*
X125424000Y-109431000D01*
G75*
G02*
X125373000Y-109380000I0J51000D01*
G01*
G37*
G36*
G01*
X127373000Y-108430000D02*
X127373000Y-107630000D01*
G75*
G02*
X127424000Y-107579000I51000J0D01*
G01*
X128324000Y-107579000D01*
G75*
G02*
X128375000Y-107630000I0J-51000D01*
G01*
X128375000Y-108430000D01*
G75*
G02*
X128324000Y-108481000I-51000J0D01*
G01*
X127424000Y-108481000D01*
G75*
G02*
X127373000Y-108430000I0J51000D01*
G01*
G37*
G36*
G01*
X129183000Y-107480000D02*
X129183000Y-106680000D01*
G75*
G02*
X129234000Y-106629000I51000J0D01*
G01*
X130134000Y-106629000D01*
G75*
G02*
X130185000Y-106680000I0J-51000D01*
G01*
X130185000Y-107480000D01*
G75*
G02*
X130134000Y-107531000I-51000J0D01*
G01*
X129234000Y-107531000D01*
G75*
G02*
X129183000Y-107480000I0J51000D01*
G01*
G37*
G36*
G01*
X129183000Y-109380000D02*
X129183000Y-108580000D01*
G75*
G02*
X129234000Y-108529000I51000J0D01*
G01*
X130134000Y-108529000D01*
G75*
G02*
X130185000Y-108580000I0J-51000D01*
G01*
X130185000Y-109380000D01*
G75*
G02*
X130134000Y-109431000I-51000J0D01*
G01*
X129234000Y-109431000D01*
G75*
G02*
X129183000Y-109380000I0J51000D01*
G01*
G37*
G36*
G01*
X131183000Y-108430000D02*
X131183000Y-107630000D01*
G75*
G02*
X131234000Y-107579000I51000J0D01*
G01*
X132134000Y-107579000D01*
G75*
G02*
X132185000Y-107630000I0J-51000D01*
G01*
X132185000Y-108430000D01*
G75*
G02*
X132134000Y-108481000I-51000J0D01*
G01*
X131234000Y-108481000D01*
G75*
G02*
X131183000Y-108430000I0J51000D01*
G01*
G37*
G36*
G01*
X138712200Y-116719475D02*
X138712200Y-117671725D01*
G75*
G02*
X138437325Y-117946600I-274875J0D01*
G01*
X137860075Y-117946600D01*
G75*
G02*
X137585200Y-117671725I0J274875D01*
G01*
X137585200Y-116719475D01*
G75*
G02*
X137860075Y-116444600I274875J0D01*
G01*
X138437325Y-116444600D01*
G75*
G02*
X138712200Y-116719475I0J-274875D01*
G01*
G37*
G36*
G01*
X136887200Y-116719475D02*
X136887200Y-117671725D01*
G75*
G02*
X136612325Y-117946600I-274875J0D01*
G01*
X136035075Y-117946600D01*
G75*
G02*
X135760200Y-117671725I0J274875D01*
G01*
X135760200Y-116719475D01*
G75*
G02*
X136035075Y-116444600I274875J0D01*
G01*
X136612325Y-116444600D01*
G75*
G02*
X136887200Y-116719475I0J-274875D01*
G01*
G37*
G36*
G01*
X136844000Y-119249500D02*
X136844000Y-119670500D01*
G75*
G02*
X136683500Y-119831000I-160500J0D01*
G01*
X136362500Y-119831000D01*
G75*
G02*
X136202000Y-119670500I0J160500D01*
G01*
X136202000Y-119249500D01*
G75*
G02*
X136362500Y-119089000I160500J0D01*
G01*
X136683500Y-119089000D01*
G75*
G02*
X136844000Y-119249500I0J-160500D01*
G01*
G37*
G36*
G01*
X137864000Y-119249500D02*
X137864000Y-119670500D01*
G75*
G02*
X137703500Y-119831000I-160500J0D01*
G01*
X137382500Y-119831000D01*
G75*
G02*
X137222000Y-119670500I0J160500D01*
G01*
X137222000Y-119249500D01*
G75*
G02*
X137382500Y-119089000I160500J0D01*
G01*
X137703500Y-119089000D01*
G75*
G02*
X137864000Y-119249500I0J-160500D01*
G01*
G37*
G36*
G01*
X143060000Y-119670500D02*
X143060000Y-119249500D01*
G75*
G02*
X143220500Y-119089000I160500J0D01*
G01*
X143541500Y-119089000D01*
G75*
G02*
X143702000Y-119249500I0J-160500D01*
G01*
X143702000Y-119670500D01*
G75*
G02*
X143541500Y-119831000I-160500J0D01*
G01*
X143220500Y-119831000D01*
G75*
G02*
X143060000Y-119670500I0J160500D01*
G01*
G37*
G36*
G01*
X144080000Y-119670500D02*
X144080000Y-119249500D01*
G75*
G02*
X144240500Y-119089000I160500J0D01*
G01*
X144561500Y-119089000D01*
G75*
G02*
X144722000Y-119249500I0J-160500D01*
G01*
X144722000Y-119670500D01*
G75*
G02*
X144561500Y-119831000I-160500J0D01*
G01*
X144240500Y-119831000D01*
G75*
G02*
X144080000Y-119670500I0J160500D01*
G01*
G37*
G36*
G01*
X124268000Y-97695700D02*
X124268000Y-97274700D01*
G75*
G02*
X124428500Y-97114200I160500J0D01*
G01*
X124749500Y-97114200D01*
G75*
G02*
X124910000Y-97274700I0J-160500D01*
G01*
X124910000Y-97695700D01*
G75*
G02*
X124749500Y-97856200I-160500J0D01*
G01*
X124428500Y-97856200D01*
G75*
G02*
X124268000Y-97695700I0J160500D01*
G01*
G37*
G36*
G01*
X123248000Y-97695700D02*
X123248000Y-97274700D01*
G75*
G02*
X123408500Y-97114200I160500J0D01*
G01*
X123729500Y-97114200D01*
G75*
G02*
X123890000Y-97274700I0J-160500D01*
G01*
X123890000Y-97695700D01*
G75*
G02*
X123729500Y-97856200I-160500J0D01*
G01*
X123408500Y-97856200D01*
G75*
G02*
X123248000Y-97695700I0J160500D01*
G01*
G37*
G36*
G01*
X122766500Y-109619000D02*
X122345500Y-109619000D01*
G75*
G02*
X122185000Y-109458500I0J160500D01*
G01*
X122185000Y-109137500D01*
G75*
G02*
X122345500Y-108977000I160500J0D01*
G01*
X122766500Y-108977000D01*
G75*
G02*
X122927000Y-109137500I0J-160500D01*
G01*
X122927000Y-109458500D01*
G75*
G02*
X122766500Y-109619000I-160500J0D01*
G01*
G37*
G36*
G01*
X122766500Y-110639000D02*
X122345500Y-110639000D01*
G75*
G02*
X122185000Y-110478500I0J160500D01*
G01*
X122185000Y-110157500D01*
G75*
G02*
X122345500Y-109997000I160500J0D01*
G01*
X122766500Y-109997000D01*
G75*
G02*
X122927000Y-110157500I0J-160500D01*
G01*
X122927000Y-110478500D01*
G75*
G02*
X122766500Y-110639000I-160500J0D01*
G01*
G37*
G36*
G01*
X133434500Y-102257000D02*
X133013500Y-102257000D01*
G75*
G02*
X132853000Y-102096500I0J160500D01*
G01*
X132853000Y-101775500D01*
G75*
G02*
X133013500Y-101615000I160500J0D01*
G01*
X133434500Y-101615000D01*
G75*
G02*
X133595000Y-101775500I0J-160500D01*
G01*
X133595000Y-102096500D01*
G75*
G02*
X133434500Y-102257000I-160500J0D01*
G01*
G37*
G36*
G01*
X133434500Y-101237000D02*
X133013500Y-101237000D01*
G75*
G02*
X132853000Y-101076500I0J160500D01*
G01*
X132853000Y-100755500D01*
G75*
G02*
X133013500Y-100595000I160500J0D01*
G01*
X133434500Y-100595000D01*
G75*
G02*
X133595000Y-100755500I0J-160500D01*
G01*
X133595000Y-101076500D01*
G75*
G02*
X133434500Y-101237000I-160500J0D01*
G01*
G37*
G36*
G01*
X123869500Y-106437000D02*
X124290500Y-106437000D01*
G75*
G02*
X124451000Y-106597500I0J-160500D01*
G01*
X124451000Y-106918500D01*
G75*
G02*
X124290500Y-107079000I-160500J0D01*
G01*
X123869500Y-107079000D01*
G75*
G02*
X123709000Y-106918500I0J160500D01*
G01*
X123709000Y-106597500D01*
G75*
G02*
X123869500Y-106437000I160500J0D01*
G01*
G37*
G36*
G01*
X123869500Y-107457000D02*
X124290500Y-107457000D01*
G75*
G02*
X124451000Y-107617500I0J-160500D01*
G01*
X124451000Y-107938500D01*
G75*
G02*
X124290500Y-108099000I-160500J0D01*
G01*
X123869500Y-108099000D01*
G75*
G02*
X123709000Y-107938500I0J160500D01*
G01*
X123709000Y-107617500D01*
G75*
G02*
X123869500Y-107457000I160500J0D01*
G01*
G37*
G36*
G01*
X132164500Y-104539000D02*
X131743500Y-104539000D01*
G75*
G02*
X131583000Y-104378500I0J160500D01*
G01*
X131583000Y-104057500D01*
G75*
G02*
X131743500Y-103897000I160500J0D01*
G01*
X132164500Y-103897000D01*
G75*
G02*
X132325000Y-104057500I0J-160500D01*
G01*
X132325000Y-104378500D01*
G75*
G02*
X132164500Y-104539000I-160500J0D01*
G01*
G37*
G36*
G01*
X132164500Y-105559000D02*
X131743500Y-105559000D01*
G75*
G02*
X131583000Y-105398500I0J160500D01*
G01*
X131583000Y-105077500D01*
G75*
G02*
X131743500Y-104917000I160500J0D01*
G01*
X132164500Y-104917000D01*
G75*
G02*
X132325000Y-105077500I0J-160500D01*
G01*
X132325000Y-105398500D01*
G75*
G02*
X132164500Y-105559000I-160500J0D01*
G01*
G37*
G36*
G01*
X168263000Y-108414000D02*
X168263000Y-109414000D01*
G75*
G02*
X168212000Y-109465000I-51000J0D01*
G01*
X166512000Y-109465000D01*
G75*
G02*
X166461000Y-109414000I0J51000D01*
G01*
X166461000Y-108414000D01*
G75*
G02*
X166512000Y-108363000I51000J0D01*
G01*
X168212000Y-108363000D01*
G75*
G02*
X168263000Y-108414000I0J-51000D01*
G01*
G37*
G36*
G01*
X161963000Y-108414000D02*
X161963000Y-109414000D01*
G75*
G02*
X161912000Y-109465000I-51000J0D01*
G01*
X160212000Y-109465000D01*
G75*
G02*
X160161000Y-109414000I0J51000D01*
G01*
X160161000Y-108414000D01*
G75*
G02*
X160212000Y-108363000I51000J0D01*
G01*
X161912000Y-108363000D01*
G75*
G02*
X161963000Y-108414000I0J-51000D01*
G01*
G37*
G36*
G01*
X168263000Y-104614000D02*
X168263000Y-105614000D01*
G75*
G02*
X168212000Y-105665000I-51000J0D01*
G01*
X166512000Y-105665000D01*
G75*
G02*
X166461000Y-105614000I0J51000D01*
G01*
X166461000Y-104614000D01*
G75*
G02*
X166512000Y-104563000I51000J0D01*
G01*
X168212000Y-104563000D01*
G75*
G02*
X168263000Y-104614000I0J-51000D01*
G01*
G37*
G36*
G01*
X161963000Y-104614000D02*
X161963000Y-105614000D01*
G75*
G02*
X161912000Y-105665000I-51000J0D01*
G01*
X160212000Y-105665000D01*
G75*
G02*
X160161000Y-105614000I0J51000D01*
G01*
X160161000Y-104614000D01*
G75*
G02*
X160212000Y-104563000I51000J0D01*
G01*
X161912000Y-104563000D01*
G75*
G02*
X161963000Y-104614000I0J-51000D01*
G01*
G37*
G36*
G01*
X133711000Y-107283000D02*
X133711000Y-106733000D01*
G75*
G02*
X133762000Y-106682000I51000J0D01*
G01*
X135362000Y-106682000D01*
G75*
G02*
X135413000Y-106733000I0J-51000D01*
G01*
X135413000Y-107283000D01*
G75*
G02*
X135362000Y-107334000I-51000J0D01*
G01*
X133762000Y-107334000D01*
G75*
G02*
X133711000Y-107283000I0J51000D01*
G01*
G37*
G36*
G01*
X133711000Y-108083000D02*
X133711000Y-107533000D01*
G75*
G02*
X133762000Y-107482000I51000J0D01*
G01*
X135362000Y-107482000D01*
G75*
G02*
X135413000Y-107533000I0J-51000D01*
G01*
X135413000Y-108083000D01*
G75*
G02*
X135362000Y-108134000I-51000J0D01*
G01*
X133762000Y-108134000D01*
G75*
G02*
X133711000Y-108083000I0J51000D01*
G01*
G37*
G36*
G01*
X133711000Y-108883000D02*
X133711000Y-108333000D01*
G75*
G02*
X133762000Y-108282000I51000J0D01*
G01*
X135362000Y-108282000D01*
G75*
G02*
X135413000Y-108333000I0J-51000D01*
G01*
X135413000Y-108883000D01*
G75*
G02*
X135362000Y-108934000I-51000J0D01*
G01*
X133762000Y-108934000D01*
G75*
G02*
X133711000Y-108883000I0J51000D01*
G01*
G37*
G36*
G01*
X133711000Y-109683000D02*
X133711000Y-109133000D01*
G75*
G02*
X133762000Y-109082000I51000J0D01*
G01*
X135362000Y-109082000D01*
G75*
G02*
X135413000Y-109133000I0J-51000D01*
G01*
X135413000Y-109683000D01*
G75*
G02*
X135362000Y-109734000I-51000J0D01*
G01*
X133762000Y-109734000D01*
G75*
G02*
X133711000Y-109683000I0J51000D01*
G01*
G37*
G36*
G01*
X133711000Y-110483000D02*
X133711000Y-109933000D01*
G75*
G02*
X133762000Y-109882000I51000J0D01*
G01*
X135362000Y-109882000D01*
G75*
G02*
X135413000Y-109933000I0J-51000D01*
G01*
X135413000Y-110483000D01*
G75*
G02*
X135362000Y-110534000I-51000J0D01*
G01*
X133762000Y-110534000D01*
G75*
G02*
X133711000Y-110483000I0J51000D01*
G01*
G37*
G36*
G01*
X133711000Y-111283000D02*
X133711000Y-110733000D01*
G75*
G02*
X133762000Y-110682000I51000J0D01*
G01*
X135362000Y-110682000D01*
G75*
G02*
X135413000Y-110733000I0J-51000D01*
G01*
X135413000Y-111283000D01*
G75*
G02*
X135362000Y-111334000I-51000J0D01*
G01*
X133762000Y-111334000D01*
G75*
G02*
X133711000Y-111283000I0J51000D01*
G01*
G37*
G36*
G01*
X133711000Y-112083000D02*
X133711000Y-111533000D01*
G75*
G02*
X133762000Y-111482000I51000J0D01*
G01*
X135362000Y-111482000D01*
G75*
G02*
X135413000Y-111533000I0J-51000D01*
G01*
X135413000Y-112083000D01*
G75*
G02*
X135362000Y-112134000I-51000J0D01*
G01*
X133762000Y-112134000D01*
G75*
G02*
X133711000Y-112083000I0J51000D01*
G01*
G37*
G36*
G01*
X133711000Y-112883000D02*
X133711000Y-112333000D01*
G75*
G02*
X133762000Y-112282000I51000J0D01*
G01*
X135362000Y-112282000D01*
G75*
G02*
X135413000Y-112333000I0J-51000D01*
G01*
X135413000Y-112883000D01*
G75*
G02*
X135362000Y-112934000I-51000J0D01*
G01*
X133762000Y-112934000D01*
G75*
G02*
X133711000Y-112883000I0J51000D01*
G01*
G37*
G36*
G01*
X136287000Y-114909000D02*
X135737000Y-114909000D01*
G75*
G02*
X135686000Y-114858000I0J51000D01*
G01*
X135686000Y-113258000D01*
G75*
G02*
X135737000Y-113207000I51000J0D01*
G01*
X136287000Y-113207000D01*
G75*
G02*
X136338000Y-113258000I0J-51000D01*
G01*
X136338000Y-114858000D01*
G75*
G02*
X136287000Y-114909000I-51000J0D01*
G01*
G37*
G36*
G01*
X137087000Y-114909000D02*
X136537000Y-114909000D01*
G75*
G02*
X136486000Y-114858000I0J51000D01*
G01*
X136486000Y-113258000D01*
G75*
G02*
X136537000Y-113207000I51000J0D01*
G01*
X137087000Y-113207000D01*
G75*
G02*
X137138000Y-113258000I0J-51000D01*
G01*
X137138000Y-114858000D01*
G75*
G02*
X137087000Y-114909000I-51000J0D01*
G01*
G37*
G36*
G01*
X137887000Y-114909000D02*
X137337000Y-114909000D01*
G75*
G02*
X137286000Y-114858000I0J51000D01*
G01*
X137286000Y-113258000D01*
G75*
G02*
X137337000Y-113207000I51000J0D01*
G01*
X137887000Y-113207000D01*
G75*
G02*
X137938000Y-113258000I0J-51000D01*
G01*
X137938000Y-114858000D01*
G75*
G02*
X137887000Y-114909000I-51000J0D01*
G01*
G37*
G36*
G01*
X138687000Y-114909000D02*
X138137000Y-114909000D01*
G75*
G02*
X138086000Y-114858000I0J51000D01*
G01*
X138086000Y-113258000D01*
G75*
G02*
X138137000Y-113207000I51000J0D01*
G01*
X138687000Y-113207000D01*
G75*
G02*
X138738000Y-113258000I0J-51000D01*
G01*
X138738000Y-114858000D01*
G75*
G02*
X138687000Y-114909000I-51000J0D01*
G01*
G37*
G36*
G01*
X139487000Y-114909000D02*
X138937000Y-114909000D01*
G75*
G02*
X138886000Y-114858000I0J51000D01*
G01*
X138886000Y-113258000D01*
G75*
G02*
X138937000Y-113207000I51000J0D01*
G01*
X139487000Y-113207000D01*
G75*
G02*
X139538000Y-113258000I0J-51000D01*
G01*
X139538000Y-114858000D01*
G75*
G02*
X139487000Y-114909000I-51000J0D01*
G01*
G37*
G36*
G01*
X140287000Y-114909000D02*
X139737000Y-114909000D01*
G75*
G02*
X139686000Y-114858000I0J51000D01*
G01*
X139686000Y-113258000D01*
G75*
G02*
X139737000Y-113207000I51000J0D01*
G01*
X140287000Y-113207000D01*
G75*
G02*
X140338000Y-113258000I0J-51000D01*
G01*
X140338000Y-114858000D01*
G75*
G02*
X140287000Y-114909000I-51000J0D01*
G01*
G37*
G36*
G01*
X141087000Y-114909000D02*
X140537000Y-114909000D01*
G75*
G02*
X140486000Y-114858000I0J51000D01*
G01*
X140486000Y-113258000D01*
G75*
G02*
X140537000Y-113207000I51000J0D01*
G01*
X141087000Y-113207000D01*
G75*
G02*
X141138000Y-113258000I0J-51000D01*
G01*
X141138000Y-114858000D01*
G75*
G02*
X141087000Y-114909000I-51000J0D01*
G01*
G37*
G36*
G01*
X141887000Y-114909000D02*
X141337000Y-114909000D01*
G75*
G02*
X141286000Y-114858000I0J51000D01*
G01*
X141286000Y-113258000D01*
G75*
G02*
X141337000Y-113207000I51000J0D01*
G01*
X141887000Y-113207000D01*
G75*
G02*
X141938000Y-113258000I0J-51000D01*
G01*
X141938000Y-114858000D01*
G75*
G02*
X141887000Y-114909000I-51000J0D01*
G01*
G37*
G36*
G01*
X142211000Y-112883000D02*
X142211000Y-112333000D01*
G75*
G02*
X142262000Y-112282000I51000J0D01*
G01*
X143862000Y-112282000D01*
G75*
G02*
X143913000Y-112333000I0J-51000D01*
G01*
X143913000Y-112883000D01*
G75*
G02*
X143862000Y-112934000I-51000J0D01*
G01*
X142262000Y-112934000D01*
G75*
G02*
X142211000Y-112883000I0J51000D01*
G01*
G37*
G36*
G01*
X142211000Y-112083000D02*
X142211000Y-111533000D01*
G75*
G02*
X142262000Y-111482000I51000J0D01*
G01*
X143862000Y-111482000D01*
G75*
G02*
X143913000Y-111533000I0J-51000D01*
G01*
X143913000Y-112083000D01*
G75*
G02*
X143862000Y-112134000I-51000J0D01*
G01*
X142262000Y-112134000D01*
G75*
G02*
X142211000Y-112083000I0J51000D01*
G01*
G37*
G36*
G01*
X142211000Y-111283000D02*
X142211000Y-110733000D01*
G75*
G02*
X142262000Y-110682000I51000J0D01*
G01*
X143862000Y-110682000D01*
G75*
G02*
X143913000Y-110733000I0J-51000D01*
G01*
X143913000Y-111283000D01*
G75*
G02*
X143862000Y-111334000I-51000J0D01*
G01*
X142262000Y-111334000D01*
G75*
G02*
X142211000Y-111283000I0J51000D01*
G01*
G37*
G36*
G01*
X142211000Y-110483000D02*
X142211000Y-109933000D01*
G75*
G02*
X142262000Y-109882000I51000J0D01*
G01*
X143862000Y-109882000D01*
G75*
G02*
X143913000Y-109933000I0J-51000D01*
G01*
X143913000Y-110483000D01*
G75*
G02*
X143862000Y-110534000I-51000J0D01*
G01*
X142262000Y-110534000D01*
G75*
G02*
X142211000Y-110483000I0J51000D01*
G01*
G37*
G36*
G01*
X142211000Y-109683000D02*
X142211000Y-109133000D01*
G75*
G02*
X142262000Y-109082000I51000J0D01*
G01*
X143862000Y-109082000D01*
G75*
G02*
X143913000Y-109133000I0J-51000D01*
G01*
X143913000Y-109683000D01*
G75*
G02*
X143862000Y-109734000I-51000J0D01*
G01*
X142262000Y-109734000D01*
G75*
G02*
X142211000Y-109683000I0J51000D01*
G01*
G37*
G36*
G01*
X142211000Y-108883000D02*
X142211000Y-108333000D01*
G75*
G02*
X142262000Y-108282000I51000J0D01*
G01*
X143862000Y-108282000D01*
G75*
G02*
X143913000Y-108333000I0J-51000D01*
G01*
X143913000Y-108883000D01*
G75*
G02*
X143862000Y-108934000I-51000J0D01*
G01*
X142262000Y-108934000D01*
G75*
G02*
X142211000Y-108883000I0J51000D01*
G01*
G37*
G36*
G01*
X142211000Y-108083000D02*
X142211000Y-107533000D01*
G75*
G02*
X142262000Y-107482000I51000J0D01*
G01*
X143862000Y-107482000D01*
G75*
G02*
X143913000Y-107533000I0J-51000D01*
G01*
X143913000Y-108083000D01*
G75*
G02*
X143862000Y-108134000I-51000J0D01*
G01*
X142262000Y-108134000D01*
G75*
G02*
X142211000Y-108083000I0J51000D01*
G01*
G37*
G36*
G01*
X142211000Y-107283000D02*
X142211000Y-106733000D01*
G75*
G02*
X142262000Y-106682000I51000J0D01*
G01*
X143862000Y-106682000D01*
G75*
G02*
X143913000Y-106733000I0J-51000D01*
G01*
X143913000Y-107283000D01*
G75*
G02*
X143862000Y-107334000I-51000J0D01*
G01*
X142262000Y-107334000D01*
G75*
G02*
X142211000Y-107283000I0J51000D01*
G01*
G37*
G36*
G01*
X141887000Y-106409000D02*
X141337000Y-106409000D01*
G75*
G02*
X141286000Y-106358000I0J51000D01*
G01*
X141286000Y-104758000D01*
G75*
G02*
X141337000Y-104707000I51000J0D01*
G01*
X141887000Y-104707000D01*
G75*
G02*
X141938000Y-104758000I0J-51000D01*
G01*
X141938000Y-106358000D01*
G75*
G02*
X141887000Y-106409000I-51000J0D01*
G01*
G37*
G36*
G01*
X141087000Y-106409000D02*
X140537000Y-106409000D01*
G75*
G02*
X140486000Y-106358000I0J51000D01*
G01*
X140486000Y-104758000D01*
G75*
G02*
X140537000Y-104707000I51000J0D01*
G01*
X141087000Y-104707000D01*
G75*
G02*
X141138000Y-104758000I0J-51000D01*
G01*
X141138000Y-106358000D01*
G75*
G02*
X141087000Y-106409000I-51000J0D01*
G01*
G37*
G36*
G01*
X140287000Y-106409000D02*
X139737000Y-106409000D01*
G75*
G02*
X139686000Y-106358000I0J51000D01*
G01*
X139686000Y-104758000D01*
G75*
G02*
X139737000Y-104707000I51000J0D01*
G01*
X140287000Y-104707000D01*
G75*
G02*
X140338000Y-104758000I0J-51000D01*
G01*
X140338000Y-106358000D01*
G75*
G02*
X140287000Y-106409000I-51000J0D01*
G01*
G37*
G36*
G01*
X139487000Y-106409000D02*
X138937000Y-106409000D01*
G75*
G02*
X138886000Y-106358000I0J51000D01*
G01*
X138886000Y-104758000D01*
G75*
G02*
X138937000Y-104707000I51000J0D01*
G01*
X139487000Y-104707000D01*
G75*
G02*
X139538000Y-104758000I0J-51000D01*
G01*
X139538000Y-106358000D01*
G75*
G02*
X139487000Y-106409000I-51000J0D01*
G01*
G37*
G36*
G01*
X138687000Y-106409000D02*
X138137000Y-106409000D01*
G75*
G02*
X138086000Y-106358000I0J51000D01*
G01*
X138086000Y-104758000D01*
G75*
G02*
X138137000Y-104707000I51000J0D01*
G01*
X138687000Y-104707000D01*
G75*
G02*
X138738000Y-104758000I0J-51000D01*
G01*
X138738000Y-106358000D01*
G75*
G02*
X138687000Y-106409000I-51000J0D01*
G01*
G37*
G36*
G01*
X137887000Y-106409000D02*
X137337000Y-106409000D01*
G75*
G02*
X137286000Y-106358000I0J51000D01*
G01*
X137286000Y-104758000D01*
G75*
G02*
X137337000Y-104707000I51000J0D01*
G01*
X137887000Y-104707000D01*
G75*
G02*
X137938000Y-104758000I0J-51000D01*
G01*
X137938000Y-106358000D01*
G75*
G02*
X137887000Y-106409000I-51000J0D01*
G01*
G37*
G36*
G01*
X137087000Y-106409000D02*
X136537000Y-106409000D01*
G75*
G02*
X136486000Y-106358000I0J51000D01*
G01*
X136486000Y-104758000D01*
G75*
G02*
X136537000Y-104707000I51000J0D01*
G01*
X137087000Y-104707000D01*
G75*
G02*
X137138000Y-104758000I0J-51000D01*
G01*
X137138000Y-106358000D01*
G75*
G02*
X137087000Y-106409000I-51000J0D01*
G01*
G37*
G36*
G01*
X136287000Y-106409000D02*
X135737000Y-106409000D01*
G75*
G02*
X135686000Y-106358000I0J51000D01*
G01*
X135686000Y-104758000D01*
G75*
G02*
X135737000Y-104707000I51000J0D01*
G01*
X136287000Y-104707000D01*
G75*
G02*
X136338000Y-104758000I0J-51000D01*
G01*
X136338000Y-106358000D01*
G75*
G02*
X136287000Y-106409000I-51000J0D01*
G01*
G37*
G36*
G01*
X130181500Y-98283000D02*
X130432500Y-98283000D01*
G75*
G02*
X130558000Y-98408500I0J-125500D01*
G01*
X130558000Y-99734500D01*
G75*
G02*
X130432500Y-99860000I-125500J0D01*
G01*
X130181500Y-99860000D01*
G75*
G02*
X130056000Y-99734500I0J125500D01*
G01*
X130056000Y-98408500D01*
G75*
G02*
X130181500Y-98283000I125500J0D01*
G01*
G37*
G36*
G01*
X129531500Y-98283000D02*
X129782500Y-98283000D01*
G75*
G02*
X129908000Y-98408500I0J-125500D01*
G01*
X129908000Y-99734500D01*
G75*
G02*
X129782500Y-99860000I-125500J0D01*
G01*
X129531500Y-99860000D01*
G75*
G02*
X129406000Y-99734500I0J125500D01*
G01*
X129406000Y-98408500D01*
G75*
G02*
X129531500Y-98283000I125500J0D01*
G01*
G37*
G36*
G01*
X128881500Y-98283000D02*
X129132500Y-98283000D01*
G75*
G02*
X129258000Y-98408500I0J-125500D01*
G01*
X129258000Y-99734500D01*
G75*
G02*
X129132500Y-99860000I-125500J0D01*
G01*
X128881500Y-99860000D01*
G75*
G02*
X128756000Y-99734500I0J125500D01*
G01*
X128756000Y-98408500D01*
G75*
G02*
X128881500Y-98283000I125500J0D01*
G01*
G37*
G36*
G01*
X128231500Y-98283000D02*
X128482500Y-98283000D01*
G75*
G02*
X128608000Y-98408500I0J-125500D01*
G01*
X128608000Y-99734500D01*
G75*
G02*
X128482500Y-99860000I-125500J0D01*
G01*
X128231500Y-99860000D01*
G75*
G02*
X128106000Y-99734500I0J125500D01*
G01*
X128106000Y-98408500D01*
G75*
G02*
X128231500Y-98283000I125500J0D01*
G01*
G37*
G36*
G01*
X127581500Y-98283000D02*
X127832500Y-98283000D01*
G75*
G02*
X127958000Y-98408500I0J-125500D01*
G01*
X127958000Y-99734500D01*
G75*
G02*
X127832500Y-99860000I-125500J0D01*
G01*
X127581500Y-99860000D01*
G75*
G02*
X127456000Y-99734500I0J125500D01*
G01*
X127456000Y-98408500D01*
G75*
G02*
X127581500Y-98283000I125500J0D01*
G01*
G37*
G36*
G01*
X126931500Y-98283000D02*
X127182500Y-98283000D01*
G75*
G02*
X127308000Y-98408500I0J-125500D01*
G01*
X127308000Y-99734500D01*
G75*
G02*
X127182500Y-99860000I-125500J0D01*
G01*
X126931500Y-99860000D01*
G75*
G02*
X126806000Y-99734500I0J125500D01*
G01*
X126806000Y-98408500D01*
G75*
G02*
X126931500Y-98283000I125500J0D01*
G01*
G37*
G36*
G01*
X126281500Y-98283000D02*
X126532500Y-98283000D01*
G75*
G02*
X126658000Y-98408500I0J-125500D01*
G01*
X126658000Y-99734500D01*
G75*
G02*
X126532500Y-99860000I-125500J0D01*
G01*
X126281500Y-99860000D01*
G75*
G02*
X126156000Y-99734500I0J125500D01*
G01*
X126156000Y-98408500D01*
G75*
G02*
X126281500Y-98283000I125500J0D01*
G01*
G37*
G36*
G01*
X125631500Y-98283000D02*
X125882500Y-98283000D01*
G75*
G02*
X126008000Y-98408500I0J-125500D01*
G01*
X126008000Y-99734500D01*
G75*
G02*
X125882500Y-99860000I-125500J0D01*
G01*
X125631500Y-99860000D01*
G75*
G02*
X125506000Y-99734500I0J125500D01*
G01*
X125506000Y-98408500D01*
G75*
G02*
X125631500Y-98283000I125500J0D01*
G01*
G37*
G36*
G01*
X124981500Y-98283000D02*
X125232500Y-98283000D01*
G75*
G02*
X125358000Y-98408500I0J-125500D01*
G01*
X125358000Y-99734500D01*
G75*
G02*
X125232500Y-99860000I-125500J0D01*
G01*
X124981500Y-99860000D01*
G75*
G02*
X124856000Y-99734500I0J125500D01*
G01*
X124856000Y-98408500D01*
G75*
G02*
X124981500Y-98283000I125500J0D01*
G01*
G37*
G36*
G01*
X124331500Y-98283000D02*
X124582500Y-98283000D01*
G75*
G02*
X124708000Y-98408500I0J-125500D01*
G01*
X124708000Y-99734500D01*
G75*
G02*
X124582500Y-99860000I-125500J0D01*
G01*
X124331500Y-99860000D01*
G75*
G02*
X124206000Y-99734500I0J125500D01*
G01*
X124206000Y-98408500D01*
G75*
G02*
X124331500Y-98283000I125500J0D01*
G01*
G37*
G36*
G01*
X124331500Y-104008000D02*
X124582500Y-104008000D01*
G75*
G02*
X124708000Y-104133500I0J-125500D01*
G01*
X124708000Y-105459500D01*
G75*
G02*
X124582500Y-105585000I-125500J0D01*
G01*
X124331500Y-105585000D01*
G75*
G02*
X124206000Y-105459500I0J125500D01*
G01*
X124206000Y-104133500D01*
G75*
G02*
X124331500Y-104008000I125500J0D01*
G01*
G37*
G36*
G01*
X124981500Y-104008000D02*
X125232500Y-104008000D01*
G75*
G02*
X125358000Y-104133500I0J-125500D01*
G01*
X125358000Y-105459500D01*
G75*
G02*
X125232500Y-105585000I-125500J0D01*
G01*
X124981500Y-105585000D01*
G75*
G02*
X124856000Y-105459500I0J125500D01*
G01*
X124856000Y-104133500D01*
G75*
G02*
X124981500Y-104008000I125500J0D01*
G01*
G37*
G36*
G01*
X125631500Y-104008000D02*
X125882500Y-104008000D01*
G75*
G02*
X126008000Y-104133500I0J-125500D01*
G01*
X126008000Y-105459500D01*
G75*
G02*
X125882500Y-105585000I-125500J0D01*
G01*
X125631500Y-105585000D01*
G75*
G02*
X125506000Y-105459500I0J125500D01*
G01*
X125506000Y-104133500D01*
G75*
G02*
X125631500Y-104008000I125500J0D01*
G01*
G37*
G36*
G01*
X126281500Y-104008000D02*
X126532500Y-104008000D01*
G75*
G02*
X126658000Y-104133500I0J-125500D01*
G01*
X126658000Y-105459500D01*
G75*
G02*
X126532500Y-105585000I-125500J0D01*
G01*
X126281500Y-105585000D01*
G75*
G02*
X126156000Y-105459500I0J125500D01*
G01*
X126156000Y-104133500D01*
G75*
G02*
X126281500Y-104008000I125500J0D01*
G01*
G37*
G36*
G01*
X126931500Y-104008000D02*
X127182500Y-104008000D01*
G75*
G02*
X127308000Y-104133500I0J-125500D01*
G01*
X127308000Y-105459500D01*
G75*
G02*
X127182500Y-105585000I-125500J0D01*
G01*
X126931500Y-105585000D01*
G75*
G02*
X126806000Y-105459500I0J125500D01*
G01*
X126806000Y-104133500D01*
G75*
G02*
X126931500Y-104008000I125500J0D01*
G01*
G37*
G36*
G01*
X127581500Y-104008000D02*
X127832500Y-104008000D01*
G75*
G02*
X127958000Y-104133500I0J-125500D01*
G01*
X127958000Y-105459500D01*
G75*
G02*
X127832500Y-105585000I-125500J0D01*
G01*
X127581500Y-105585000D01*
G75*
G02*
X127456000Y-105459500I0J125500D01*
G01*
X127456000Y-104133500D01*
G75*
G02*
X127581500Y-104008000I125500J0D01*
G01*
G37*
G36*
G01*
X128231500Y-104008000D02*
X128482500Y-104008000D01*
G75*
G02*
X128608000Y-104133500I0J-125500D01*
G01*
X128608000Y-105459500D01*
G75*
G02*
X128482500Y-105585000I-125500J0D01*
G01*
X128231500Y-105585000D01*
G75*
G02*
X128106000Y-105459500I0J125500D01*
G01*
X128106000Y-104133500D01*
G75*
G02*
X128231500Y-104008000I125500J0D01*
G01*
G37*
G36*
G01*
X128881500Y-104008000D02*
X129132500Y-104008000D01*
G75*
G02*
X129258000Y-104133500I0J-125500D01*
G01*
X129258000Y-105459500D01*
G75*
G02*
X129132500Y-105585000I-125500J0D01*
G01*
X128881500Y-105585000D01*
G75*
G02*
X128756000Y-105459500I0J125500D01*
G01*
X128756000Y-104133500D01*
G75*
G02*
X128881500Y-104008000I125500J0D01*
G01*
G37*
G36*
G01*
X129531500Y-104008000D02*
X129782500Y-104008000D01*
G75*
G02*
X129908000Y-104133500I0J-125500D01*
G01*
X129908000Y-105459500D01*
G75*
G02*
X129782500Y-105585000I-125500J0D01*
G01*
X129531500Y-105585000D01*
G75*
G02*
X129406000Y-105459500I0J125500D01*
G01*
X129406000Y-104133500D01*
G75*
G02*
X129531500Y-104008000I125500J0D01*
G01*
G37*
G36*
G01*
X130181500Y-104008000D02*
X130432500Y-104008000D01*
G75*
G02*
X130558000Y-104133500I0J-125500D01*
G01*
X130558000Y-105459500D01*
G75*
G02*
X130432500Y-105585000I-125500J0D01*
G01*
X130181500Y-105585000D01*
G75*
G02*
X130056000Y-105459500I0J125500D01*
G01*
X130056000Y-104133500D01*
G75*
G02*
X130181500Y-104008000I125500J0D01*
G01*
G37*
G36*
G01*
X181877000Y-111498000D02*
X181877000Y-113198000D01*
G75*
G02*
X181826000Y-113249000I-51000J0D01*
G01*
X180126000Y-113249000D01*
G75*
G02*
X180075000Y-113198000I0J51000D01*
G01*
X180075000Y-111498000D01*
G75*
G02*
X180126000Y-111447000I51000J0D01*
G01*
X181826000Y-111447000D01*
G75*
G02*
X181877000Y-111498000I0J-51000D01*
G01*
G37*
X180976000Y-109808000D03*
X180976000Y-107268000D03*
X180976000Y-104728000D03*
X180976000Y-102188000D03*
X180976000Y-99648000D03*
G36*
G01*
X135974500Y-102257000D02*
X135553500Y-102257000D01*
G75*
G02*
X135393000Y-102096500I0J160500D01*
G01*
X135393000Y-101775500D01*
G75*
G02*
X135553500Y-101615000I160500J0D01*
G01*
X135974500Y-101615000D01*
G75*
G02*
X136135000Y-101775500I0J-160500D01*
G01*
X136135000Y-102096500D01*
G75*
G02*
X135974500Y-102257000I-160500J0D01*
G01*
G37*
G36*
G01*
X135974500Y-101237000D02*
X135553500Y-101237000D01*
G75*
G02*
X135393000Y-101076500I0J160500D01*
G01*
X135393000Y-100755500D01*
G75*
G02*
X135553500Y-100595000I160500J0D01*
G01*
X135974500Y-100595000D01*
G75*
G02*
X136135000Y-100755500I0J-160500D01*
G01*
X136135000Y-101076500D01*
G75*
G02*
X135974500Y-101237000I-160500J0D01*
G01*
G37*
G36*
G01*
X155398063Y-100135000D02*
X154227937Y-100135000D01*
G75*
G02*
X153962000Y-99869063I0J265937D01*
G01*
X153962000Y-97698937D01*
G75*
G02*
X154227937Y-97433000I265937J0D01*
G01*
X155398063Y-97433000D01*
G75*
G02*
X155664000Y-97698937I0J-265937D01*
G01*
X155664000Y-99869063D01*
G75*
G02*
X155398063Y-100135000I-265937J0D01*
G01*
G37*
G36*
G01*
X155398063Y-103735000D02*
X154227937Y-103735000D01*
G75*
G02*
X153962000Y-103469063I0J265937D01*
G01*
X153962000Y-101298937D01*
G75*
G02*
X154227937Y-101033000I265937J0D01*
G01*
X155398063Y-101033000D01*
G75*
G02*
X155664000Y-101298937I0J-265937D01*
G01*
X155664000Y-103469063D01*
G75*
G02*
X155398063Y-103735000I-265937J0D01*
G01*
G37*
G36*
G01*
X146508063Y-103713000D02*
X145337937Y-103713000D01*
G75*
G02*
X145072000Y-103447063I0J265937D01*
G01*
X145072000Y-101276937D01*
G75*
G02*
X145337937Y-101011000I265937J0D01*
G01*
X146508063Y-101011000D01*
G75*
G02*
X146774000Y-101276937I0J-265937D01*
G01*
X146774000Y-103447063D01*
G75*
G02*
X146508063Y-103713000I-265937J0D01*
G01*
G37*
G36*
G01*
X146508063Y-100113000D02*
X145337937Y-100113000D01*
G75*
G02*
X145072000Y-99847063I0J265937D01*
G01*
X145072000Y-97676937D01*
G75*
G02*
X145337937Y-97411000I265937J0D01*
G01*
X146508063Y-97411000D01*
G75*
G02*
X146774000Y-97676937I0J-265937D01*
G01*
X146774000Y-99847063D01*
G75*
G02*
X146508063Y-100113000I-265937J0D01*
G01*
G37*
G36*
G01*
X146242000Y-118544524D02*
X146242000Y-117167476D01*
G75*
G02*
X146504476Y-116905000I262476J0D01*
G01*
X147881524Y-116905000D01*
G75*
G02*
X148144000Y-117167476I0J-262476D01*
G01*
X148144000Y-118544524D01*
G75*
G02*
X147881524Y-118807000I-262476J0D01*
G01*
X146504476Y-118807000D01*
G75*
G02*
X146242000Y-118544524I0J262476D01*
G01*
G37*
D15*
X149733000Y-117856000D03*
X152273000Y-117856000D03*
G36*
G01*
X157423000Y-106549500D02*
X157423000Y-106970500D01*
G75*
G02*
X157262500Y-107131000I-160500J0D01*
G01*
X156941500Y-107131000D01*
G75*
G02*
X156781000Y-106970500I0J160500D01*
G01*
X156781000Y-106549500D01*
G75*
G02*
X156941500Y-106389000I160500J0D01*
G01*
X157262500Y-106389000D01*
G75*
G02*
X157423000Y-106549500I0J-160500D01*
G01*
G37*
G36*
G01*
X156403000Y-106549500D02*
X156403000Y-106970500D01*
G75*
G02*
X156242500Y-107131000I-160500J0D01*
G01*
X155921500Y-107131000D01*
G75*
G02*
X155761000Y-106970500I0J160500D01*
G01*
X155761000Y-106549500D01*
G75*
G02*
X155921500Y-106389000I160500J0D01*
G01*
X156242500Y-106389000D01*
G75*
G02*
X156403000Y-106549500I0J-160500D01*
G01*
G37*
G36*
G01*
X144696600Y-117010500D02*
X144696600Y-117431500D01*
G75*
G02*
X144536100Y-117592000I-160500J0D01*
G01*
X144215100Y-117592000D01*
G75*
G02*
X144054600Y-117431500I0J160500D01*
G01*
X144054600Y-117010500D01*
G75*
G02*
X144215100Y-116850000I160500J0D01*
G01*
X144536100Y-116850000D01*
G75*
G02*
X144696600Y-117010500I0J-160500D01*
G01*
G37*
G36*
G01*
X143676600Y-117010500D02*
X143676600Y-117431500D01*
G75*
G02*
X143516100Y-117592000I-160500J0D01*
G01*
X143195100Y-117592000D01*
G75*
G02*
X143034600Y-117431500I0J160500D01*
G01*
X143034600Y-117010500D01*
G75*
G02*
X143195100Y-116850000I160500J0D01*
G01*
X143516100Y-116850000D01*
G75*
G02*
X143676600Y-117010500I0J-160500D01*
G01*
G37*
G36*
G01*
X152720000Y-113026500D02*
X152720000Y-113447500D01*
G75*
G02*
X152559500Y-113608000I-160500J0D01*
G01*
X152238500Y-113608000D01*
G75*
G02*
X152078000Y-113447500I0J160500D01*
G01*
X152078000Y-113026500D01*
G75*
G02*
X152238500Y-112866000I160500J0D01*
G01*
X152559500Y-112866000D01*
G75*
G02*
X152720000Y-113026500I0J-160500D01*
G01*
G37*
G36*
G01*
X153740000Y-113026500D02*
X153740000Y-113447500D01*
G75*
G02*
X153579500Y-113608000I-160500J0D01*
G01*
X153258500Y-113608000D01*
G75*
G02*
X153098000Y-113447500I0J160500D01*
G01*
X153098000Y-113026500D01*
G75*
G02*
X153258500Y-112866000I160500J0D01*
G01*
X153579500Y-112866000D01*
G75*
G02*
X153740000Y-113026500I0J-160500D01*
G01*
G37*
G36*
G01*
X149676000Y-113026500D02*
X149676000Y-113447500D01*
G75*
G02*
X149515500Y-113608000I-160500J0D01*
G01*
X149194500Y-113608000D01*
G75*
G02*
X149034000Y-113447500I0J160500D01*
G01*
X149034000Y-113026500D01*
G75*
G02*
X149194500Y-112866000I160500J0D01*
G01*
X149515500Y-112866000D01*
G75*
G02*
X149676000Y-113026500I0J-160500D01*
G01*
G37*
G36*
G01*
X148656000Y-113026500D02*
X148656000Y-113447500D01*
G75*
G02*
X148495500Y-113608000I-160500J0D01*
G01*
X148174500Y-113608000D01*
G75*
G02*
X148014000Y-113447500I0J160500D01*
G01*
X148014000Y-113026500D01*
G75*
G02*
X148174500Y-112866000I160500J0D01*
G01*
X148495500Y-112866000D01*
G75*
G02*
X148656000Y-113026500I0J-160500D01*
G01*
G37*
G36*
G01*
X138616500Y-100615000D02*
X139007500Y-100615000D01*
G75*
G02*
X139173000Y-100780500I0J-165500D01*
G01*
X139173000Y-101111500D01*
G75*
G02*
X139007500Y-101277000I-165500J0D01*
G01*
X138616500Y-101277000D01*
G75*
G02*
X138451000Y-101111500I0J165500D01*
G01*
X138451000Y-100780500D01*
G75*
G02*
X138616500Y-100615000I165500J0D01*
G01*
G37*
G36*
G01*
X138616500Y-101575000D02*
X139007500Y-101575000D01*
G75*
G02*
X139173000Y-101740500I0J-165500D01*
G01*
X139173000Y-102071500D01*
G75*
G02*
X139007500Y-102237000I-165500J0D01*
G01*
X138616500Y-102237000D01*
G75*
G02*
X138451000Y-102071500I0J165500D01*
G01*
X138451000Y-101740500D01*
G75*
G02*
X138616500Y-101575000I165500J0D01*
G01*
G37*
G36*
G01*
X158936500Y-99853000D02*
X159327500Y-99853000D01*
G75*
G02*
X159493000Y-100018500I0J-165500D01*
G01*
X159493000Y-100349500D01*
G75*
G02*
X159327500Y-100515000I-165500J0D01*
G01*
X158936500Y-100515000D01*
G75*
G02*
X158771000Y-100349500I0J165500D01*
G01*
X158771000Y-100018500D01*
G75*
G02*
X158936500Y-99853000I165500J0D01*
G01*
G37*
G36*
G01*
X158936500Y-100813000D02*
X159327500Y-100813000D01*
G75*
G02*
X159493000Y-100978500I0J-165500D01*
G01*
X159493000Y-101309500D01*
G75*
G02*
X159327500Y-101475000I-165500J0D01*
G01*
X158936500Y-101475000D01*
G75*
G02*
X158771000Y-101309500I0J165500D01*
G01*
X158771000Y-100978500D01*
G75*
G02*
X158936500Y-100813000I165500J0D01*
G01*
G37*
G36*
G01*
X141664500Y-101575000D02*
X142055500Y-101575000D01*
G75*
G02*
X142221000Y-101740500I0J-165500D01*
G01*
X142221000Y-102071500D01*
G75*
G02*
X142055500Y-102237000I-165500J0D01*
G01*
X141664500Y-102237000D01*
G75*
G02*
X141499000Y-102071500I0J165500D01*
G01*
X141499000Y-101740500D01*
G75*
G02*
X141664500Y-101575000I165500J0D01*
G01*
G37*
G36*
G01*
X141664500Y-100615000D02*
X142055500Y-100615000D01*
G75*
G02*
X142221000Y-100780500I0J-165500D01*
G01*
X142221000Y-101111500D01*
G75*
G02*
X142055500Y-101277000I-165500J0D01*
G01*
X141664500Y-101277000D01*
G75*
G02*
X141499000Y-101111500I0J165500D01*
G01*
X141499000Y-100780500D01*
G75*
G02*
X141664500Y-100615000I165500J0D01*
G01*
G37*
G36*
G01*
X122360500Y-104294200D02*
X122751500Y-104294200D01*
G75*
G02*
X122917000Y-104459700I0J-165500D01*
G01*
X122917000Y-104790700D01*
G75*
G02*
X122751500Y-104956200I-165500J0D01*
G01*
X122360500Y-104956200D01*
G75*
G02*
X122195000Y-104790700I0J165500D01*
G01*
X122195000Y-104459700D01*
G75*
G02*
X122360500Y-104294200I165500J0D01*
G01*
G37*
G36*
G01*
X122360500Y-105254200D02*
X122751500Y-105254200D01*
G75*
G02*
X122917000Y-105419700I0J-165500D01*
G01*
X122917000Y-105750700D01*
G75*
G02*
X122751500Y-105916200I-165500J0D01*
G01*
X122360500Y-105916200D01*
G75*
G02*
X122195000Y-105750700I0J165500D01*
G01*
X122195000Y-105419700D01*
G75*
G02*
X122360500Y-105254200I165500J0D01*
G01*
G37*
G36*
G01*
X122360500Y-99797000D02*
X122751500Y-99797000D01*
G75*
G02*
X122917000Y-99962500I0J-165500D01*
G01*
X122917000Y-100293500D01*
G75*
G02*
X122751500Y-100459000I-165500J0D01*
G01*
X122360500Y-100459000D01*
G75*
G02*
X122195000Y-100293500I0J165500D01*
G01*
X122195000Y-99962500D01*
G75*
G02*
X122360500Y-99797000I165500J0D01*
G01*
G37*
G36*
G01*
X122360500Y-98837000D02*
X122751500Y-98837000D01*
G75*
G02*
X122917000Y-99002500I0J-165500D01*
G01*
X122917000Y-99333500D01*
G75*
G02*
X122751500Y-99499000I-165500J0D01*
G01*
X122360500Y-99499000D01*
G75*
G02*
X122195000Y-99333500I0J165500D01*
G01*
X122195000Y-99002500D01*
G75*
G02*
X122360500Y-98837000I165500J0D01*
G01*
G37*
G36*
G01*
X163506800Y-117400250D02*
X163506800Y-117963750D01*
G75*
G02*
X163262550Y-118208000I-244250J0D01*
G01*
X162774050Y-118208000D01*
G75*
G02*
X162529800Y-117963750I0J244250D01*
G01*
X162529800Y-117400250D01*
G75*
G02*
X162774050Y-117156000I244250J0D01*
G01*
X163262550Y-117156000D01*
G75*
G02*
X163506800Y-117400250I0J-244250D01*
G01*
G37*
G36*
G01*
X161931800Y-117400250D02*
X161931800Y-117963750D01*
G75*
G02*
X161687550Y-118208000I-244250J0D01*
G01*
X161199050Y-118208000D01*
G75*
G02*
X160954800Y-117963750I0J244250D01*
G01*
X160954800Y-117400250D01*
G75*
G02*
X161199050Y-117156000I244250J0D01*
G01*
X161687550Y-117156000D01*
G75*
G02*
X161931800Y-117400250I0J-244250D01*
G01*
G37*
G36*
G01*
X166633100Y-117400250D02*
X166633100Y-117963750D01*
G75*
G02*
X166388850Y-118208000I-244250J0D01*
G01*
X165900350Y-118208000D01*
G75*
G02*
X165656100Y-117963750I0J244250D01*
G01*
X165656100Y-117400250D01*
G75*
G02*
X165900350Y-117156000I244250J0D01*
G01*
X166388850Y-117156000D01*
G75*
G02*
X166633100Y-117400250I0J-244250D01*
G01*
G37*
G36*
G01*
X168208100Y-117400250D02*
X168208100Y-117963750D01*
G75*
G02*
X167963850Y-118208000I-244250J0D01*
G01*
X167475350Y-118208000D01*
G75*
G02*
X167231100Y-117963750I0J244250D01*
G01*
X167231100Y-117400250D01*
G75*
G02*
X167475350Y-117156000I244250J0D01*
G01*
X167963850Y-117156000D01*
G75*
G02*
X168208100Y-117400250I0J-244250D01*
G01*
G37*
G36*
G01*
X120784000Y-104427500D02*
X120784000Y-105028500D01*
G75*
G02*
X120558500Y-105254000I-225500J0D01*
G01*
X120107500Y-105254000D01*
G75*
G02*
X119882000Y-105028500I0J225500D01*
G01*
X119882000Y-104427500D01*
G75*
G02*
X120107500Y-104202000I225500J0D01*
G01*
X120558500Y-104202000D01*
G75*
G02*
X120784000Y-104427500I0J-225500D01*
G01*
G37*
G36*
G01*
X119134000Y-104427500D02*
X119134000Y-105028500D01*
G75*
G02*
X118908500Y-105254000I-225500J0D01*
G01*
X118457500Y-105254000D01*
G75*
G02*
X118232000Y-105028500I0J225500D01*
G01*
X118232000Y-104427500D01*
G75*
G02*
X118457500Y-104202000I225500J0D01*
G01*
X118908500Y-104202000D01*
G75*
G02*
X119134000Y-104427500I0J-225500D01*
G01*
G37*
G36*
G01*
X154704100Y-116720200D02*
X155125100Y-116720200D01*
G75*
G02*
X155285600Y-116880700I0J-160500D01*
G01*
X155285600Y-117201700D01*
G75*
G02*
X155125100Y-117362200I-160500J0D01*
G01*
X154704100Y-117362200D01*
G75*
G02*
X154543600Y-117201700I0J160500D01*
G01*
X154543600Y-116880700D01*
G75*
G02*
X154704100Y-116720200I160500J0D01*
G01*
G37*
G36*
G01*
X154704100Y-117740200D02*
X155125100Y-117740200D01*
G75*
G02*
X155285600Y-117900700I0J-160500D01*
G01*
X155285600Y-118221700D01*
G75*
G02*
X155125100Y-118382200I-160500J0D01*
G01*
X154704100Y-118382200D01*
G75*
G02*
X154543600Y-118221700I0J160500D01*
G01*
X154543600Y-117900700D01*
G75*
G02*
X154704100Y-117740200I160500J0D01*
G01*
G37*
M02*
