G04 #@! TF.GenerationSoftware,KiCad,Pcbnew,(5.1.10-1-10_14)*
G04 #@! TF.CreationDate,2021-10-18T21:07:58+02:00*
G04 #@! TF.ProjectId,roodialino,726f6f64-6961-46c6-996e-6f2e6b696361,1.0*
G04 #@! TF.SameCoordinates,Original*
G04 #@! TF.FileFunction,Soldermask,Top*
G04 #@! TF.FilePolarity,Negative*
%FSLAX46Y46*%
G04 Gerber Fmt 4.6, Leading zero omitted, Abs format (unit mm)*
G04 Created by KiCad (PCBNEW (5.1.10-1-10_14)) date 2021-10-18 21:07:58*
%MOMM*%
%LPD*%
G01*
G04 APERTURE LIST*
%ADD10C,1.902000*%
%ADD11C,2.802000*%
%ADD12O,1.802000X1.802000*%
%ADD13C,0.100000*%
G04 APERTURE END LIST*
D10*
X149099000Y-107014000D03*
G36*
G01*
X152590000Y-106114000D02*
X152590000Y-107914000D01*
G75*
G02*
X152539000Y-107965000I-51000J0D01*
G01*
X150739000Y-107965000D01*
G75*
G02*
X150688000Y-107914000I0J51000D01*
G01*
X150688000Y-106114000D01*
G75*
G02*
X150739000Y-106063000I51000J0D01*
G01*
X152539000Y-106063000D01*
G75*
G02*
X152590000Y-106114000I0J-51000D01*
G01*
G37*
D11*
X121032000Y-94568000D03*
X179032000Y-94568000D03*
X179032000Y-117568000D03*
X121032000Y-117568000D03*
G36*
G01*
X146453500Y-112608000D02*
X145902500Y-112608000D01*
G75*
G02*
X145652000Y-112357500I0J250500D01*
G01*
X145652000Y-111856500D01*
G75*
G02*
X145902500Y-111606000I250500J0D01*
G01*
X146453500Y-111606000D01*
G75*
G02*
X146704000Y-111856500I0J-250500D01*
G01*
X146704000Y-112357500D01*
G75*
G02*
X146453500Y-112608000I-250500J0D01*
G01*
G37*
G36*
G01*
X146453500Y-111058000D02*
X145902500Y-111058000D01*
G75*
G02*
X145652000Y-110807500I0J250500D01*
G01*
X145652000Y-110306500D01*
G75*
G02*
X145902500Y-110056000I250500J0D01*
G01*
X146453500Y-110056000D01*
G75*
G02*
X146704000Y-110306500I0J-250500D01*
G01*
X146704000Y-110807500D01*
G75*
G02*
X146453500Y-111058000I-250500J0D01*
G01*
G37*
G36*
G01*
X155942828Y-103019000D02*
X153685172Y-103019000D01*
G75*
G02*
X153413000Y-102746828I0J272172D01*
G01*
X153413000Y-102039172D01*
G75*
G02*
X153685172Y-101767000I272172J0D01*
G01*
X155942828Y-101767000D01*
G75*
G02*
X156215000Y-102039172I0J-272172D01*
G01*
X156215000Y-102746828D01*
G75*
G02*
X155942828Y-103019000I-272172J0D01*
G01*
G37*
G36*
G01*
X155942828Y-100069000D02*
X153685172Y-100069000D01*
G75*
G02*
X153413000Y-99796828I0J272172D01*
G01*
X153413000Y-99089172D01*
G75*
G02*
X153685172Y-98817000I272172J0D01*
G01*
X155942828Y-98817000D01*
G75*
G02*
X156215000Y-99089172I0J-272172D01*
G01*
X156215000Y-99796828D01*
G75*
G02*
X155942828Y-100069000I-272172J0D01*
G01*
G37*
G36*
G01*
X138536500Y-100150000D02*
X139087500Y-100150000D01*
G75*
G02*
X139338000Y-100400500I0J-250500D01*
G01*
X139338000Y-100901500D01*
G75*
G02*
X139087500Y-101152000I-250500J0D01*
G01*
X138536500Y-101152000D01*
G75*
G02*
X138286000Y-100901500I0J250500D01*
G01*
X138286000Y-100400500D01*
G75*
G02*
X138536500Y-100150000I250500J0D01*
G01*
G37*
G36*
G01*
X138536500Y-101700000D02*
X139087500Y-101700000D01*
G75*
G02*
X139338000Y-101950500I0J-250500D01*
G01*
X139338000Y-102451500D01*
G75*
G02*
X139087500Y-102702000I-250500J0D01*
G01*
X138536500Y-102702000D01*
G75*
G02*
X138286000Y-102451500I0J250500D01*
G01*
X138286000Y-101950500D01*
G75*
G02*
X138536500Y-101700000I250500J0D01*
G01*
G37*
G36*
G01*
X131849000Y-110765500D02*
X131849000Y-110374500D01*
G75*
G02*
X132014500Y-110209000I165500J0D01*
G01*
X132345500Y-110209000D01*
G75*
G02*
X132511000Y-110374500I0J-165500D01*
G01*
X132511000Y-110765500D01*
G75*
G02*
X132345500Y-110931000I-165500J0D01*
G01*
X132014500Y-110931000D01*
G75*
G02*
X131849000Y-110765500I0J165500D01*
G01*
G37*
G36*
G01*
X130889000Y-110765500D02*
X130889000Y-110374500D01*
G75*
G02*
X131054500Y-110209000I165500J0D01*
G01*
X131385500Y-110209000D01*
G75*
G02*
X131551000Y-110374500I0J-165500D01*
G01*
X131551000Y-110765500D01*
G75*
G02*
X131385500Y-110931000I-165500J0D01*
G01*
X131054500Y-110931000D01*
G75*
G02*
X130889000Y-110765500I0J165500D01*
G01*
G37*
G36*
G01*
X130889000Y-112543500D02*
X130889000Y-112152500D01*
G75*
G02*
X131054500Y-111987000I165500J0D01*
G01*
X131385500Y-111987000D01*
G75*
G02*
X131551000Y-112152500I0J-165500D01*
G01*
X131551000Y-112543500D01*
G75*
G02*
X131385500Y-112709000I-165500J0D01*
G01*
X131054500Y-112709000D01*
G75*
G02*
X130889000Y-112543500I0J165500D01*
G01*
G37*
G36*
G01*
X131849000Y-112543500D02*
X131849000Y-112152500D01*
G75*
G02*
X132014500Y-111987000I165500J0D01*
G01*
X132345500Y-111987000D01*
G75*
G02*
X132511000Y-112152500I0J-165500D01*
G01*
X132511000Y-112543500D01*
G75*
G02*
X132345500Y-112709000I-165500J0D01*
G01*
X132014500Y-112709000D01*
G75*
G02*
X131849000Y-112543500I0J165500D01*
G01*
G37*
G36*
G01*
X158856500Y-100938000D02*
X159407500Y-100938000D01*
G75*
G02*
X159658000Y-101188500I0J-250500D01*
G01*
X159658000Y-101689500D01*
G75*
G02*
X159407500Y-101940000I-250500J0D01*
G01*
X158856500Y-101940000D01*
G75*
G02*
X158606000Y-101689500I0J250500D01*
G01*
X158606000Y-101188500D01*
G75*
G02*
X158856500Y-100938000I250500J0D01*
G01*
G37*
G36*
G01*
X158856500Y-99388000D02*
X159407500Y-99388000D01*
G75*
G02*
X159658000Y-99638500I0J-250500D01*
G01*
X159658000Y-100139500D01*
G75*
G02*
X159407500Y-100390000I-250500J0D01*
G01*
X158856500Y-100390000D01*
G75*
G02*
X158606000Y-100139500I0J250500D01*
G01*
X158606000Y-99638500D01*
G75*
G02*
X158856500Y-99388000I250500J0D01*
G01*
G37*
G36*
G01*
X147052828Y-100069000D02*
X144795172Y-100069000D01*
G75*
G02*
X144523000Y-99796828I0J272172D01*
G01*
X144523000Y-99089172D01*
G75*
G02*
X144795172Y-98817000I272172J0D01*
G01*
X147052828Y-98817000D01*
G75*
G02*
X147325000Y-99089172I0J-272172D01*
G01*
X147325000Y-99796828D01*
G75*
G02*
X147052828Y-100069000I-272172J0D01*
G01*
G37*
G36*
G01*
X147052828Y-103019000D02*
X144795172Y-103019000D01*
G75*
G02*
X144523000Y-102746828I0J272172D01*
G01*
X144523000Y-102039172D01*
G75*
G02*
X144795172Y-101767000I272172J0D01*
G01*
X147052828Y-101767000D01*
G75*
G02*
X147325000Y-102039172I0J-272172D01*
G01*
X147325000Y-102746828D01*
G75*
G02*
X147052828Y-103019000I-272172J0D01*
G01*
G37*
G36*
G01*
X141584500Y-101700000D02*
X142135500Y-101700000D01*
G75*
G02*
X142386000Y-101950500I0J-250500D01*
G01*
X142386000Y-102451500D01*
G75*
G02*
X142135500Y-102702000I-250500J0D01*
G01*
X141584500Y-102702000D01*
G75*
G02*
X141334000Y-102451500I0J250500D01*
G01*
X141334000Y-101950500D01*
G75*
G02*
X141584500Y-101700000I250500J0D01*
G01*
G37*
G36*
G01*
X141584500Y-100150000D02*
X142135500Y-100150000D01*
G75*
G02*
X142386000Y-100400500I0J-250500D01*
G01*
X142386000Y-100901500D01*
G75*
G02*
X142135500Y-101152000I-250500J0D01*
G01*
X141584500Y-101152000D01*
G75*
G02*
X141334000Y-100901500I0J250500D01*
G01*
X141334000Y-100400500D01*
G75*
G02*
X141584500Y-100150000I250500J0D01*
G01*
G37*
G36*
G01*
X122280500Y-102944000D02*
X122831500Y-102944000D01*
G75*
G02*
X123082000Y-103194500I0J-250500D01*
G01*
X123082000Y-103695500D01*
G75*
G02*
X122831500Y-103946000I-250500J0D01*
G01*
X122280500Y-103946000D01*
G75*
G02*
X122030000Y-103695500I0J250500D01*
G01*
X122030000Y-103194500D01*
G75*
G02*
X122280500Y-102944000I250500J0D01*
G01*
G37*
G36*
G01*
X122280500Y-104494000D02*
X122831500Y-104494000D01*
G75*
G02*
X123082000Y-104744500I0J-250500D01*
G01*
X123082000Y-105245500D01*
G75*
G02*
X122831500Y-105496000I-250500J0D01*
G01*
X122280500Y-105496000D01*
G75*
G02*
X122030000Y-105245500I0J250500D01*
G01*
X122030000Y-104744500D01*
G75*
G02*
X122280500Y-104494000I250500J0D01*
G01*
G37*
G36*
G01*
X161412000Y-100177500D02*
X161412000Y-99626500D01*
G75*
G02*
X161662500Y-99376000I250500J0D01*
G01*
X162163500Y-99376000D01*
G75*
G02*
X162414000Y-99626500I0J-250500D01*
G01*
X162414000Y-100177500D01*
G75*
G02*
X162163500Y-100428000I-250500J0D01*
G01*
X161662500Y-100428000D01*
G75*
G02*
X161412000Y-100177500I0J250500D01*
G01*
G37*
G36*
G01*
X162962000Y-100177500D02*
X162962000Y-99626500D01*
G75*
G02*
X163212500Y-99376000I250500J0D01*
G01*
X163713500Y-99376000D01*
G75*
G02*
X163964000Y-99626500I0J-250500D01*
G01*
X163964000Y-100177500D01*
G75*
G02*
X163713500Y-100428000I-250500J0D01*
G01*
X163212500Y-100428000D01*
G75*
G02*
X162962000Y-100177500I0J250500D01*
G01*
G37*
G36*
G01*
X122280500Y-99922000D02*
X122831500Y-99922000D01*
G75*
G02*
X123082000Y-100172500I0J-250500D01*
G01*
X123082000Y-100673500D01*
G75*
G02*
X122831500Y-100924000I-250500J0D01*
G01*
X122280500Y-100924000D01*
G75*
G02*
X122030000Y-100673500I0J250500D01*
G01*
X122030000Y-100172500D01*
G75*
G02*
X122280500Y-99922000I250500J0D01*
G01*
G37*
G36*
G01*
X122280500Y-98372000D02*
X122831500Y-98372000D01*
G75*
G02*
X123082000Y-98622500I0J-250500D01*
G01*
X123082000Y-99123500D01*
G75*
G02*
X122831500Y-99374000I-250500J0D01*
G01*
X122280500Y-99374000D01*
G75*
G02*
X122030000Y-99123500I0J250500D01*
G01*
X122030000Y-98622500D01*
G75*
G02*
X122280500Y-98372000I250500J0D01*
G01*
G37*
G36*
G01*
X150920828Y-103019000D02*
X149563172Y-103019000D01*
G75*
G02*
X149291000Y-102746828I0J272172D01*
G01*
X149291000Y-102039172D01*
G75*
G02*
X149563172Y-101767000I272172J0D01*
G01*
X150920828Y-101767000D01*
G75*
G02*
X151193000Y-102039172I0J-272172D01*
G01*
X151193000Y-102746828D01*
G75*
G02*
X150920828Y-103019000I-272172J0D01*
G01*
G37*
G36*
G01*
X150920828Y-100069000D02*
X149563172Y-100069000D01*
G75*
G02*
X149291000Y-99796828I0J272172D01*
G01*
X149291000Y-99089172D01*
G75*
G02*
X149563172Y-98817000I272172J0D01*
G01*
X150920828Y-98817000D01*
G75*
G02*
X151193000Y-99089172I0J-272172D01*
G01*
X151193000Y-99796828D01*
G75*
G02*
X150920828Y-100069000I-272172J0D01*
G01*
G37*
G36*
G01*
X158757000Y-112066250D02*
X158757000Y-112629750D01*
G75*
G02*
X158512750Y-112874000I-244250J0D01*
G01*
X158024250Y-112874000D01*
G75*
G02*
X157780000Y-112629750I0J244250D01*
G01*
X157780000Y-112066250D01*
G75*
G02*
X158024250Y-111822000I244250J0D01*
G01*
X158512750Y-111822000D01*
G75*
G02*
X158757000Y-112066250I0J-244250D01*
G01*
G37*
G36*
G01*
X157182000Y-112066250D02*
X157182000Y-112629750D01*
G75*
G02*
X156937750Y-112874000I-244250J0D01*
G01*
X156449250Y-112874000D01*
G75*
G02*
X156205000Y-112629750I0J244250D01*
G01*
X156205000Y-112066250D01*
G75*
G02*
X156449250Y-111822000I244250J0D01*
G01*
X156937750Y-111822000D01*
G75*
G02*
X157182000Y-112066250I0J-244250D01*
G01*
G37*
G36*
G01*
X157182000Y-114098250D02*
X157182000Y-114661750D01*
G75*
G02*
X156937750Y-114906000I-244250J0D01*
G01*
X156449250Y-114906000D01*
G75*
G02*
X156205000Y-114661750I0J244250D01*
G01*
X156205000Y-114098250D01*
G75*
G02*
X156449250Y-113854000I244250J0D01*
G01*
X156937750Y-113854000D01*
G75*
G02*
X157182000Y-114098250I0J-244250D01*
G01*
G37*
G36*
G01*
X158757000Y-114098250D02*
X158757000Y-114661750D01*
G75*
G02*
X158512750Y-114906000I-244250J0D01*
G01*
X158024250Y-114906000D01*
G75*
G02*
X157780000Y-114661750I0J244250D01*
G01*
X157780000Y-114098250D01*
G75*
G02*
X158024250Y-113854000I244250J0D01*
G01*
X158512750Y-113854000D01*
G75*
G02*
X158757000Y-114098250I0J-244250D01*
G01*
G37*
G36*
G01*
X158757000Y-117298650D02*
X158757000Y-117862150D01*
G75*
G02*
X158512750Y-118106400I-244250J0D01*
G01*
X158024250Y-118106400D01*
G75*
G02*
X157780000Y-117862150I0J244250D01*
G01*
X157780000Y-117298650D01*
G75*
G02*
X158024250Y-117054400I244250J0D01*
G01*
X158512750Y-117054400D01*
G75*
G02*
X158757000Y-117298650I0J-244250D01*
G01*
G37*
G36*
G01*
X157182000Y-117298650D02*
X157182000Y-117862150D01*
G75*
G02*
X156937750Y-118106400I-244250J0D01*
G01*
X156449250Y-118106400D01*
G75*
G02*
X156205000Y-117862150I0J244250D01*
G01*
X156205000Y-117298650D01*
G75*
G02*
X156449250Y-117054400I244250J0D01*
G01*
X156937750Y-117054400D01*
G75*
G02*
X157182000Y-117298650I0J-244250D01*
G01*
G37*
G36*
G01*
X161831800Y-117200250D02*
X161831800Y-118163750D01*
G75*
G02*
X161562550Y-118433000I-269250J0D01*
G01*
X161024050Y-118433000D01*
G75*
G02*
X160754800Y-118163750I0J269250D01*
G01*
X160754800Y-117200250D01*
G75*
G02*
X161024050Y-116931000I269250J0D01*
G01*
X161562550Y-116931000D01*
G75*
G02*
X161831800Y-117200250I0J-269250D01*
G01*
G37*
G36*
G01*
X163706800Y-117200250D02*
X163706800Y-118163750D01*
G75*
G02*
X163437550Y-118433000I-269250J0D01*
G01*
X162899050Y-118433000D01*
G75*
G02*
X162629800Y-118163750I0J269250D01*
G01*
X162629800Y-117200250D01*
G75*
G02*
X162899050Y-116931000I269250J0D01*
G01*
X163437550Y-116931000D01*
G75*
G02*
X163706800Y-117200250I0J-269250D01*
G01*
G37*
G36*
G01*
X168408100Y-117200250D02*
X168408100Y-118163750D01*
G75*
G02*
X168138850Y-118433000I-269250J0D01*
G01*
X167600350Y-118433000D01*
G75*
G02*
X167331100Y-118163750I0J269250D01*
G01*
X167331100Y-117200250D01*
G75*
G02*
X167600350Y-116931000I269250J0D01*
G01*
X168138850Y-116931000D01*
G75*
G02*
X168408100Y-117200250I0J-269250D01*
G01*
G37*
G36*
G01*
X166533100Y-117200250D02*
X166533100Y-118163750D01*
G75*
G02*
X166263850Y-118433000I-269250J0D01*
G01*
X165725350Y-118433000D01*
G75*
G02*
X165456100Y-118163750I0J269250D01*
G01*
X165456100Y-117200250D01*
G75*
G02*
X165725350Y-116931000I269250J0D01*
G01*
X166263850Y-116931000D01*
G75*
G02*
X166533100Y-117200250I0J-269250D01*
G01*
G37*
G36*
G01*
X124780000Y-111851000D02*
X124780000Y-110051000D01*
G75*
G02*
X124831000Y-110000000I51000J0D01*
G01*
X126631000Y-110000000D01*
G75*
G02*
X126682000Y-110051000I0J-51000D01*
G01*
X126682000Y-111851000D01*
G75*
G02*
X126631000Y-111902000I-51000J0D01*
G01*
X124831000Y-111902000D01*
G75*
G02*
X124780000Y-111851000I0J51000D01*
G01*
G37*
D10*
X128271000Y-110951000D03*
X174245000Y-110951000D03*
G36*
G01*
X170754000Y-111851000D02*
X170754000Y-110051000D01*
G75*
G02*
X170805000Y-110000000I51000J0D01*
G01*
X172605000Y-110000000D01*
G75*
G02*
X172656000Y-110051000I0J-51000D01*
G01*
X172656000Y-111851000D01*
G75*
G02*
X172605000Y-111902000I-51000J0D01*
G01*
X170805000Y-111902000D01*
G75*
G02*
X170754000Y-111851000I0J51000D01*
G01*
G37*
G36*
G01*
X125008000Y-94937000D02*
X126708000Y-94937000D01*
G75*
G02*
X126759000Y-94988000I0J-51000D01*
G01*
X126759000Y-96688000D01*
G75*
G02*
X126708000Y-96739000I-51000J0D01*
G01*
X125008000Y-96739000D01*
G75*
G02*
X124957000Y-96688000I0J51000D01*
G01*
X124957000Y-94988000D01*
G75*
G02*
X125008000Y-94937000I51000J0D01*
G01*
G37*
D12*
X125858000Y-93298000D03*
X128398000Y-95838000D03*
X128398000Y-93298000D03*
X130938000Y-95838000D03*
X130938000Y-93298000D03*
X133478000Y-95838000D03*
X133478000Y-93298000D03*
X136018000Y-95838000D03*
X136018000Y-93298000D03*
X138558000Y-95838000D03*
X138558000Y-93298000D03*
X141098000Y-95838000D03*
X141098000Y-93298000D03*
X143638000Y-95838000D03*
X143638000Y-93298000D03*
X146178000Y-95838000D03*
X146178000Y-93298000D03*
X148718000Y-95838000D03*
X148718000Y-93298000D03*
X151258000Y-95838000D03*
X151258000Y-93298000D03*
X153798000Y-95838000D03*
X153798000Y-93298000D03*
X156338000Y-95838000D03*
X156338000Y-93298000D03*
X158878000Y-95838000D03*
X158878000Y-93298000D03*
X161418000Y-95838000D03*
X161418000Y-93298000D03*
X163958000Y-95838000D03*
X163958000Y-93298000D03*
X166498000Y-95838000D03*
X166498000Y-93298000D03*
X169038000Y-95838000D03*
X169038000Y-93298000D03*
X171578000Y-95838000D03*
X171578000Y-93298000D03*
X174118000Y-95838000D03*
X174118000Y-93298000D03*
G36*
G01*
X173444000Y-103089000D02*
X171744000Y-103089000D01*
G75*
G02*
X171693000Y-103038000I0J51000D01*
G01*
X171693000Y-101338000D01*
G75*
G02*
X171744000Y-101287000I51000J0D01*
G01*
X173444000Y-101287000D01*
G75*
G02*
X173495000Y-101338000I0J-51000D01*
G01*
X173495000Y-103038000D01*
G75*
G02*
X173444000Y-103089000I-51000J0D01*
G01*
G37*
X172594000Y-99648000D03*
X175134000Y-102188000D03*
X175134000Y-99648000D03*
X177674000Y-102188000D03*
X177674000Y-99648000D03*
G36*
G01*
X120409000Y-111752000D02*
X120409000Y-113452000D01*
G75*
G02*
X120358000Y-113503000I-51000J0D01*
G01*
X118658000Y-113503000D01*
G75*
G02*
X118607000Y-113452000I0J51000D01*
G01*
X118607000Y-111752000D01*
G75*
G02*
X118658000Y-111701000I51000J0D01*
G01*
X120358000Y-111701000D01*
G75*
G02*
X120409000Y-111752000I0J-51000D01*
G01*
G37*
X119508000Y-110062000D03*
X119508000Y-107522000D03*
G36*
G01*
X120409000Y-101084000D02*
X120409000Y-102784000D01*
G75*
G02*
X120358000Y-102835000I-51000J0D01*
G01*
X118658000Y-102835000D01*
G75*
G02*
X118607000Y-102784000I0J51000D01*
G01*
X118607000Y-101084000D01*
G75*
G02*
X118658000Y-101033000I51000J0D01*
G01*
X120358000Y-101033000D01*
G75*
G02*
X120409000Y-101084000I0J-51000D01*
G01*
G37*
X119508000Y-99394000D03*
G36*
G01*
X167914000Y-100165000D02*
X167114000Y-100165000D01*
G75*
G02*
X167063000Y-100114000I0J51000D01*
G01*
X167063000Y-99214000D01*
G75*
G02*
X167114000Y-99163000I51000J0D01*
G01*
X167914000Y-99163000D01*
G75*
G02*
X167965000Y-99214000I0J-51000D01*
G01*
X167965000Y-100114000D01*
G75*
G02*
X167914000Y-100165000I-51000J0D01*
G01*
G37*
G36*
G01*
X168864000Y-102165000D02*
X168064000Y-102165000D01*
G75*
G02*
X168013000Y-102114000I0J51000D01*
G01*
X168013000Y-101214000D01*
G75*
G02*
X168064000Y-101163000I51000J0D01*
G01*
X168864000Y-101163000D01*
G75*
G02*
X168915000Y-101214000I0J-51000D01*
G01*
X168915000Y-102114000D01*
G75*
G02*
X168864000Y-102165000I-51000J0D01*
G01*
G37*
G36*
G01*
X166964000Y-102165000D02*
X166164000Y-102165000D01*
G75*
G02*
X166113000Y-102114000I0J51000D01*
G01*
X166113000Y-101214000D01*
G75*
G02*
X166164000Y-101163000I51000J0D01*
G01*
X166964000Y-101163000D01*
G75*
G02*
X167015000Y-101214000I0J-51000D01*
G01*
X167015000Y-102114000D01*
G75*
G02*
X166964000Y-102165000I-51000J0D01*
G01*
G37*
G36*
G01*
X125373000Y-107480000D02*
X125373000Y-106680000D01*
G75*
G02*
X125424000Y-106629000I51000J0D01*
G01*
X126324000Y-106629000D01*
G75*
G02*
X126375000Y-106680000I0J-51000D01*
G01*
X126375000Y-107480000D01*
G75*
G02*
X126324000Y-107531000I-51000J0D01*
G01*
X125424000Y-107531000D01*
G75*
G02*
X125373000Y-107480000I0J51000D01*
G01*
G37*
G36*
G01*
X125373000Y-109380000D02*
X125373000Y-108580000D01*
G75*
G02*
X125424000Y-108529000I51000J0D01*
G01*
X126324000Y-108529000D01*
G75*
G02*
X126375000Y-108580000I0J-51000D01*
G01*
X126375000Y-109380000D01*
G75*
G02*
X126324000Y-109431000I-51000J0D01*
G01*
X125424000Y-109431000D01*
G75*
G02*
X125373000Y-109380000I0J51000D01*
G01*
G37*
G36*
G01*
X127373000Y-108430000D02*
X127373000Y-107630000D01*
G75*
G02*
X127424000Y-107579000I51000J0D01*
G01*
X128324000Y-107579000D01*
G75*
G02*
X128375000Y-107630000I0J-51000D01*
G01*
X128375000Y-108430000D01*
G75*
G02*
X128324000Y-108481000I-51000J0D01*
G01*
X127424000Y-108481000D01*
G75*
G02*
X127373000Y-108430000I0J51000D01*
G01*
G37*
G36*
G01*
X129183000Y-107480000D02*
X129183000Y-106680000D01*
G75*
G02*
X129234000Y-106629000I51000J0D01*
G01*
X130134000Y-106629000D01*
G75*
G02*
X130185000Y-106680000I0J-51000D01*
G01*
X130185000Y-107480000D01*
G75*
G02*
X130134000Y-107531000I-51000J0D01*
G01*
X129234000Y-107531000D01*
G75*
G02*
X129183000Y-107480000I0J51000D01*
G01*
G37*
G36*
G01*
X129183000Y-109380000D02*
X129183000Y-108580000D01*
G75*
G02*
X129234000Y-108529000I51000J0D01*
G01*
X130134000Y-108529000D01*
G75*
G02*
X130185000Y-108580000I0J-51000D01*
G01*
X130185000Y-109380000D01*
G75*
G02*
X130134000Y-109431000I-51000J0D01*
G01*
X129234000Y-109431000D01*
G75*
G02*
X129183000Y-109380000I0J51000D01*
G01*
G37*
G36*
G01*
X131183000Y-108430000D02*
X131183000Y-107630000D01*
G75*
G02*
X131234000Y-107579000I51000J0D01*
G01*
X132134000Y-107579000D01*
G75*
G02*
X132185000Y-107630000I0J-51000D01*
G01*
X132185000Y-108430000D01*
G75*
G02*
X132134000Y-108481000I-51000J0D01*
G01*
X131234000Y-108481000D01*
G75*
G02*
X131183000Y-108430000I0J51000D01*
G01*
G37*
G36*
G01*
X151972000Y-111109876D02*
X151972000Y-112062124D01*
G75*
G02*
X151697124Y-112337000I-274876J0D01*
G01*
X151119876Y-112337000D01*
G75*
G02*
X150845000Y-112062124I0J274876D01*
G01*
X150845000Y-111109876D01*
G75*
G02*
X151119876Y-110835000I274876J0D01*
G01*
X151697124Y-110835000D01*
G75*
G02*
X151972000Y-111109876I0J-274876D01*
G01*
G37*
G36*
G01*
X150147000Y-111109876D02*
X150147000Y-112062124D01*
G75*
G02*
X149872124Y-112337000I-274876J0D01*
G01*
X149294876Y-112337000D01*
G75*
G02*
X149020000Y-112062124I0J274876D01*
G01*
X149020000Y-111109876D01*
G75*
G02*
X149294876Y-110835000I274876J0D01*
G01*
X149872124Y-110835000D01*
G75*
G02*
X150147000Y-111109876I0J-274876D01*
G01*
G37*
G36*
G01*
X142527000Y-116697876D02*
X142527000Y-117650124D01*
G75*
G02*
X142252124Y-117925000I-274876J0D01*
G01*
X141674876Y-117925000D01*
G75*
G02*
X141400000Y-117650124I0J274876D01*
G01*
X141400000Y-116697876D01*
G75*
G02*
X141674876Y-116423000I274876J0D01*
G01*
X142252124Y-116423000D01*
G75*
G02*
X142527000Y-116697876I0J-274876D01*
G01*
G37*
G36*
G01*
X144352000Y-116697876D02*
X144352000Y-117650124D01*
G75*
G02*
X144077124Y-117925000I-274876J0D01*
G01*
X143499876Y-117925000D01*
G75*
G02*
X143225000Y-117650124I0J274876D01*
G01*
X143225000Y-116697876D01*
G75*
G02*
X143499876Y-116423000I274876J0D01*
G01*
X144077124Y-116423000D01*
G75*
G02*
X144352000Y-116697876I0J-274876D01*
G01*
G37*
G36*
G01*
X154004000Y-113395876D02*
X154004000Y-114348124D01*
G75*
G02*
X153729124Y-114623000I-274876J0D01*
G01*
X153151876Y-114623000D01*
G75*
G02*
X152877000Y-114348124I0J274876D01*
G01*
X152877000Y-113395876D01*
G75*
G02*
X153151876Y-113121000I274876J0D01*
G01*
X153729124Y-113121000D01*
G75*
G02*
X154004000Y-113395876I0J-274876D01*
G01*
G37*
G36*
G01*
X152179000Y-113395876D02*
X152179000Y-114348124D01*
G75*
G02*
X151904124Y-114623000I-274876J0D01*
G01*
X151326876Y-114623000D01*
G75*
G02*
X151052000Y-114348124I0J274876D01*
G01*
X151052000Y-113395876D01*
G75*
G02*
X151326876Y-113121000I274876J0D01*
G01*
X151904124Y-113121000D01*
G75*
G02*
X152179000Y-113395876I0J-274876D01*
G01*
G37*
G36*
G01*
X139272000Y-116697876D02*
X139272000Y-117650124D01*
G75*
G02*
X138997124Y-117925000I-274876J0D01*
G01*
X138419876Y-117925000D01*
G75*
G02*
X138145000Y-117650124I0J274876D01*
G01*
X138145000Y-116697876D01*
G75*
G02*
X138419876Y-116423000I274876J0D01*
G01*
X138997124Y-116423000D01*
G75*
G02*
X139272000Y-116697876I0J-274876D01*
G01*
G37*
G36*
G01*
X137447000Y-116697876D02*
X137447000Y-117650124D01*
G75*
G02*
X137172124Y-117925000I-274876J0D01*
G01*
X136594876Y-117925000D01*
G75*
G02*
X136320000Y-117650124I0J274876D01*
G01*
X136320000Y-116697876D01*
G75*
G02*
X136594876Y-116423000I274876J0D01*
G01*
X137172124Y-116423000D01*
G75*
G02*
X137447000Y-116697876I0J-274876D01*
G01*
G37*
G36*
G01*
X137607000Y-119249500D02*
X137607000Y-119670500D01*
G75*
G02*
X137446500Y-119831000I-160500J0D01*
G01*
X137125500Y-119831000D01*
G75*
G02*
X136965000Y-119670500I0J160500D01*
G01*
X136965000Y-119249500D01*
G75*
G02*
X137125500Y-119089000I160500J0D01*
G01*
X137446500Y-119089000D01*
G75*
G02*
X137607000Y-119249500I0J-160500D01*
G01*
G37*
G36*
G01*
X138627000Y-119249500D02*
X138627000Y-119670500D01*
G75*
G02*
X138466500Y-119831000I-160500J0D01*
G01*
X138145500Y-119831000D01*
G75*
G02*
X137985000Y-119670500I0J160500D01*
G01*
X137985000Y-119249500D01*
G75*
G02*
X138145500Y-119089000I160500J0D01*
G01*
X138466500Y-119089000D01*
G75*
G02*
X138627000Y-119249500I0J-160500D01*
G01*
G37*
G36*
G01*
X148115000Y-113395876D02*
X148115000Y-114348124D01*
G75*
G02*
X147840124Y-114623000I-274876J0D01*
G01*
X147262876Y-114623000D01*
G75*
G02*
X146988000Y-114348124I0J274876D01*
G01*
X146988000Y-113395876D01*
G75*
G02*
X147262876Y-113121000I274876J0D01*
G01*
X147840124Y-113121000D01*
G75*
G02*
X148115000Y-113395876I0J-274876D01*
G01*
G37*
G36*
G01*
X149940000Y-113395876D02*
X149940000Y-114348124D01*
G75*
G02*
X149665124Y-114623000I-274876J0D01*
G01*
X149087876Y-114623000D01*
G75*
G02*
X148813000Y-114348124I0J274876D01*
G01*
X148813000Y-113395876D01*
G75*
G02*
X149087876Y-113121000I274876J0D01*
G01*
X149665124Y-113121000D01*
G75*
G02*
X149940000Y-113395876I0J-274876D01*
G01*
G37*
G36*
G01*
X142045000Y-119670500D02*
X142045000Y-119249500D01*
G75*
G02*
X142205500Y-119089000I160500J0D01*
G01*
X142526500Y-119089000D01*
G75*
G02*
X142687000Y-119249500I0J-160500D01*
G01*
X142687000Y-119670500D01*
G75*
G02*
X142526500Y-119831000I-160500J0D01*
G01*
X142205500Y-119831000D01*
G75*
G02*
X142045000Y-119670500I0J160500D01*
G01*
G37*
G36*
G01*
X143065000Y-119670500D02*
X143065000Y-119249500D01*
G75*
G02*
X143225500Y-119089000I160500J0D01*
G01*
X143546500Y-119089000D01*
G75*
G02*
X143707000Y-119249500I0J-160500D01*
G01*
X143707000Y-119670500D01*
G75*
G02*
X143546500Y-119831000I-160500J0D01*
G01*
X143225500Y-119831000D01*
G75*
G02*
X143065000Y-119670500I0J160500D01*
G01*
G37*
G36*
G01*
X122345500Y-107457000D02*
X122766500Y-107457000D01*
G75*
G02*
X122927000Y-107617500I0J-160500D01*
G01*
X122927000Y-107938500D01*
G75*
G02*
X122766500Y-108099000I-160500J0D01*
G01*
X122345500Y-108099000D01*
G75*
G02*
X122185000Y-107938500I0J160500D01*
G01*
X122185000Y-107617500D01*
G75*
G02*
X122345500Y-107457000I160500J0D01*
G01*
G37*
G36*
G01*
X122345500Y-106437000D02*
X122766500Y-106437000D01*
G75*
G02*
X122927000Y-106597500I0J-160500D01*
G01*
X122927000Y-106918500D01*
G75*
G02*
X122766500Y-107079000I-160500J0D01*
G01*
X122345500Y-107079000D01*
G75*
G02*
X122185000Y-106918500I0J160500D01*
G01*
X122185000Y-106597500D01*
G75*
G02*
X122345500Y-106437000I160500J0D01*
G01*
G37*
G36*
G01*
X120984000Y-104251876D02*
X120984000Y-105204124D01*
G75*
G02*
X120709124Y-105479000I-274876J0D01*
G01*
X120131876Y-105479000D01*
G75*
G02*
X119857000Y-105204124I0J274876D01*
G01*
X119857000Y-104251876D01*
G75*
G02*
X120131876Y-103977000I274876J0D01*
G01*
X120709124Y-103977000D01*
G75*
G02*
X120984000Y-104251876I0J-274876D01*
G01*
G37*
G36*
G01*
X119159000Y-104251876D02*
X119159000Y-105204124D01*
G75*
G02*
X118884124Y-105479000I-274876J0D01*
G01*
X118306876Y-105479000D01*
G75*
G02*
X118032000Y-105204124I0J274876D01*
G01*
X118032000Y-104251876D01*
G75*
G02*
X118306876Y-103977000I274876J0D01*
G01*
X118884124Y-103977000D01*
G75*
G02*
X119159000Y-104251876I0J-274876D01*
G01*
G37*
G36*
G01*
X161857000Y-102144500D02*
X161857000Y-101723500D01*
G75*
G02*
X162017500Y-101563000I160500J0D01*
G01*
X162338500Y-101563000D01*
G75*
G02*
X162499000Y-101723500I0J-160500D01*
G01*
X162499000Y-102144500D01*
G75*
G02*
X162338500Y-102305000I-160500J0D01*
G01*
X162017500Y-102305000D01*
G75*
G02*
X161857000Y-102144500I0J160500D01*
G01*
G37*
G36*
G01*
X162877000Y-102144500D02*
X162877000Y-101723500D01*
G75*
G02*
X163037500Y-101563000I160500J0D01*
G01*
X163358500Y-101563000D01*
G75*
G02*
X163519000Y-101723500I0J-160500D01*
G01*
X163519000Y-102144500D01*
G75*
G02*
X163358500Y-102305000I-160500J0D01*
G01*
X163037500Y-102305000D01*
G75*
G02*
X162877000Y-102144500I0J160500D01*
G01*
G37*
G36*
G01*
X122766500Y-109619000D02*
X122345500Y-109619000D01*
G75*
G02*
X122185000Y-109458500I0J160500D01*
G01*
X122185000Y-109137500D01*
G75*
G02*
X122345500Y-108977000I160500J0D01*
G01*
X122766500Y-108977000D01*
G75*
G02*
X122927000Y-109137500I0J-160500D01*
G01*
X122927000Y-109458500D01*
G75*
G02*
X122766500Y-109619000I-160500J0D01*
G01*
G37*
G36*
G01*
X122766500Y-110639000D02*
X122345500Y-110639000D01*
G75*
G02*
X122185000Y-110478500I0J160500D01*
G01*
X122185000Y-110157500D01*
G75*
G02*
X122345500Y-109997000I160500J0D01*
G01*
X122766500Y-109997000D01*
G75*
G02*
X122927000Y-110157500I0J-160500D01*
G01*
X122927000Y-110478500D01*
G75*
G02*
X122766500Y-110639000I-160500J0D01*
G01*
G37*
G36*
G01*
X133434500Y-102257000D02*
X133013500Y-102257000D01*
G75*
G02*
X132853000Y-102096500I0J160500D01*
G01*
X132853000Y-101775500D01*
G75*
G02*
X133013500Y-101615000I160500J0D01*
G01*
X133434500Y-101615000D01*
G75*
G02*
X133595000Y-101775500I0J-160500D01*
G01*
X133595000Y-102096500D01*
G75*
G02*
X133434500Y-102257000I-160500J0D01*
G01*
G37*
G36*
G01*
X133434500Y-101237000D02*
X133013500Y-101237000D01*
G75*
G02*
X132853000Y-101076500I0J160500D01*
G01*
X132853000Y-100755500D01*
G75*
G02*
X133013500Y-100595000I160500J0D01*
G01*
X133434500Y-100595000D01*
G75*
G02*
X133595000Y-100755500I0J-160500D01*
G01*
X133595000Y-101076500D01*
G75*
G02*
X133434500Y-101237000I-160500J0D01*
G01*
G37*
G36*
G01*
X123869500Y-106437000D02*
X124290500Y-106437000D01*
G75*
G02*
X124451000Y-106597500I0J-160500D01*
G01*
X124451000Y-106918500D01*
G75*
G02*
X124290500Y-107079000I-160500J0D01*
G01*
X123869500Y-107079000D01*
G75*
G02*
X123709000Y-106918500I0J160500D01*
G01*
X123709000Y-106597500D01*
G75*
G02*
X123869500Y-106437000I160500J0D01*
G01*
G37*
G36*
G01*
X123869500Y-107457000D02*
X124290500Y-107457000D01*
G75*
G02*
X124451000Y-107617500I0J-160500D01*
G01*
X124451000Y-107938500D01*
G75*
G02*
X124290500Y-108099000I-160500J0D01*
G01*
X123869500Y-108099000D01*
G75*
G02*
X123709000Y-107938500I0J160500D01*
G01*
X123709000Y-107617500D01*
G75*
G02*
X123869500Y-107457000I160500J0D01*
G01*
G37*
G36*
G01*
X132164500Y-104539000D02*
X131743500Y-104539000D01*
G75*
G02*
X131583000Y-104378500I0J160500D01*
G01*
X131583000Y-104057500D01*
G75*
G02*
X131743500Y-103897000I160500J0D01*
G01*
X132164500Y-103897000D01*
G75*
G02*
X132325000Y-104057500I0J-160500D01*
G01*
X132325000Y-104378500D01*
G75*
G02*
X132164500Y-104539000I-160500J0D01*
G01*
G37*
G36*
G01*
X132164500Y-105559000D02*
X131743500Y-105559000D01*
G75*
G02*
X131583000Y-105398500I0J160500D01*
G01*
X131583000Y-105077500D01*
G75*
G02*
X131743500Y-104917000I160500J0D01*
G01*
X132164500Y-104917000D01*
G75*
G02*
X132325000Y-105077500I0J-160500D01*
G01*
X132325000Y-105398500D01*
G75*
G02*
X132164500Y-105559000I-160500J0D01*
G01*
G37*
G36*
G01*
X168263000Y-108414000D02*
X168263000Y-109414000D01*
G75*
G02*
X168212000Y-109465000I-51000J0D01*
G01*
X166512000Y-109465000D01*
G75*
G02*
X166461000Y-109414000I0J51000D01*
G01*
X166461000Y-108414000D01*
G75*
G02*
X166512000Y-108363000I51000J0D01*
G01*
X168212000Y-108363000D01*
G75*
G02*
X168263000Y-108414000I0J-51000D01*
G01*
G37*
G36*
G01*
X161963000Y-108414000D02*
X161963000Y-109414000D01*
G75*
G02*
X161912000Y-109465000I-51000J0D01*
G01*
X160212000Y-109465000D01*
G75*
G02*
X160161000Y-109414000I0J51000D01*
G01*
X160161000Y-108414000D01*
G75*
G02*
X160212000Y-108363000I51000J0D01*
G01*
X161912000Y-108363000D01*
G75*
G02*
X161963000Y-108414000I0J-51000D01*
G01*
G37*
G36*
G01*
X168263000Y-104614000D02*
X168263000Y-105614000D01*
G75*
G02*
X168212000Y-105665000I-51000J0D01*
G01*
X166512000Y-105665000D01*
G75*
G02*
X166461000Y-105614000I0J51000D01*
G01*
X166461000Y-104614000D01*
G75*
G02*
X166512000Y-104563000I51000J0D01*
G01*
X168212000Y-104563000D01*
G75*
G02*
X168263000Y-104614000I0J-51000D01*
G01*
G37*
G36*
G01*
X161963000Y-104614000D02*
X161963000Y-105614000D01*
G75*
G02*
X161912000Y-105665000I-51000J0D01*
G01*
X160212000Y-105665000D01*
G75*
G02*
X160161000Y-105614000I0J51000D01*
G01*
X160161000Y-104614000D01*
G75*
G02*
X160212000Y-104563000I51000J0D01*
G01*
X161912000Y-104563000D01*
G75*
G02*
X161963000Y-104614000I0J-51000D01*
G01*
G37*
G36*
G01*
X133711000Y-107283000D02*
X133711000Y-106733000D01*
G75*
G02*
X133762000Y-106682000I51000J0D01*
G01*
X135362000Y-106682000D01*
G75*
G02*
X135413000Y-106733000I0J-51000D01*
G01*
X135413000Y-107283000D01*
G75*
G02*
X135362000Y-107334000I-51000J0D01*
G01*
X133762000Y-107334000D01*
G75*
G02*
X133711000Y-107283000I0J51000D01*
G01*
G37*
G36*
G01*
X133711000Y-108083000D02*
X133711000Y-107533000D01*
G75*
G02*
X133762000Y-107482000I51000J0D01*
G01*
X135362000Y-107482000D01*
G75*
G02*
X135413000Y-107533000I0J-51000D01*
G01*
X135413000Y-108083000D01*
G75*
G02*
X135362000Y-108134000I-51000J0D01*
G01*
X133762000Y-108134000D01*
G75*
G02*
X133711000Y-108083000I0J51000D01*
G01*
G37*
G36*
G01*
X133711000Y-108883000D02*
X133711000Y-108333000D01*
G75*
G02*
X133762000Y-108282000I51000J0D01*
G01*
X135362000Y-108282000D01*
G75*
G02*
X135413000Y-108333000I0J-51000D01*
G01*
X135413000Y-108883000D01*
G75*
G02*
X135362000Y-108934000I-51000J0D01*
G01*
X133762000Y-108934000D01*
G75*
G02*
X133711000Y-108883000I0J51000D01*
G01*
G37*
G36*
G01*
X133711000Y-109683000D02*
X133711000Y-109133000D01*
G75*
G02*
X133762000Y-109082000I51000J0D01*
G01*
X135362000Y-109082000D01*
G75*
G02*
X135413000Y-109133000I0J-51000D01*
G01*
X135413000Y-109683000D01*
G75*
G02*
X135362000Y-109734000I-51000J0D01*
G01*
X133762000Y-109734000D01*
G75*
G02*
X133711000Y-109683000I0J51000D01*
G01*
G37*
G36*
G01*
X133711000Y-110483000D02*
X133711000Y-109933000D01*
G75*
G02*
X133762000Y-109882000I51000J0D01*
G01*
X135362000Y-109882000D01*
G75*
G02*
X135413000Y-109933000I0J-51000D01*
G01*
X135413000Y-110483000D01*
G75*
G02*
X135362000Y-110534000I-51000J0D01*
G01*
X133762000Y-110534000D01*
G75*
G02*
X133711000Y-110483000I0J51000D01*
G01*
G37*
G36*
G01*
X133711000Y-111283000D02*
X133711000Y-110733000D01*
G75*
G02*
X133762000Y-110682000I51000J0D01*
G01*
X135362000Y-110682000D01*
G75*
G02*
X135413000Y-110733000I0J-51000D01*
G01*
X135413000Y-111283000D01*
G75*
G02*
X135362000Y-111334000I-51000J0D01*
G01*
X133762000Y-111334000D01*
G75*
G02*
X133711000Y-111283000I0J51000D01*
G01*
G37*
G36*
G01*
X133711000Y-112083000D02*
X133711000Y-111533000D01*
G75*
G02*
X133762000Y-111482000I51000J0D01*
G01*
X135362000Y-111482000D01*
G75*
G02*
X135413000Y-111533000I0J-51000D01*
G01*
X135413000Y-112083000D01*
G75*
G02*
X135362000Y-112134000I-51000J0D01*
G01*
X133762000Y-112134000D01*
G75*
G02*
X133711000Y-112083000I0J51000D01*
G01*
G37*
G36*
G01*
X133711000Y-112883000D02*
X133711000Y-112333000D01*
G75*
G02*
X133762000Y-112282000I51000J0D01*
G01*
X135362000Y-112282000D01*
G75*
G02*
X135413000Y-112333000I0J-51000D01*
G01*
X135413000Y-112883000D01*
G75*
G02*
X135362000Y-112934000I-51000J0D01*
G01*
X133762000Y-112934000D01*
G75*
G02*
X133711000Y-112883000I0J51000D01*
G01*
G37*
G36*
G01*
X136287000Y-114909000D02*
X135737000Y-114909000D01*
G75*
G02*
X135686000Y-114858000I0J51000D01*
G01*
X135686000Y-113258000D01*
G75*
G02*
X135737000Y-113207000I51000J0D01*
G01*
X136287000Y-113207000D01*
G75*
G02*
X136338000Y-113258000I0J-51000D01*
G01*
X136338000Y-114858000D01*
G75*
G02*
X136287000Y-114909000I-51000J0D01*
G01*
G37*
G36*
G01*
X137087000Y-114909000D02*
X136537000Y-114909000D01*
G75*
G02*
X136486000Y-114858000I0J51000D01*
G01*
X136486000Y-113258000D01*
G75*
G02*
X136537000Y-113207000I51000J0D01*
G01*
X137087000Y-113207000D01*
G75*
G02*
X137138000Y-113258000I0J-51000D01*
G01*
X137138000Y-114858000D01*
G75*
G02*
X137087000Y-114909000I-51000J0D01*
G01*
G37*
G36*
G01*
X137887000Y-114909000D02*
X137337000Y-114909000D01*
G75*
G02*
X137286000Y-114858000I0J51000D01*
G01*
X137286000Y-113258000D01*
G75*
G02*
X137337000Y-113207000I51000J0D01*
G01*
X137887000Y-113207000D01*
G75*
G02*
X137938000Y-113258000I0J-51000D01*
G01*
X137938000Y-114858000D01*
G75*
G02*
X137887000Y-114909000I-51000J0D01*
G01*
G37*
G36*
G01*
X138687000Y-114909000D02*
X138137000Y-114909000D01*
G75*
G02*
X138086000Y-114858000I0J51000D01*
G01*
X138086000Y-113258000D01*
G75*
G02*
X138137000Y-113207000I51000J0D01*
G01*
X138687000Y-113207000D01*
G75*
G02*
X138738000Y-113258000I0J-51000D01*
G01*
X138738000Y-114858000D01*
G75*
G02*
X138687000Y-114909000I-51000J0D01*
G01*
G37*
G36*
G01*
X139487000Y-114909000D02*
X138937000Y-114909000D01*
G75*
G02*
X138886000Y-114858000I0J51000D01*
G01*
X138886000Y-113258000D01*
G75*
G02*
X138937000Y-113207000I51000J0D01*
G01*
X139487000Y-113207000D01*
G75*
G02*
X139538000Y-113258000I0J-51000D01*
G01*
X139538000Y-114858000D01*
G75*
G02*
X139487000Y-114909000I-51000J0D01*
G01*
G37*
G36*
G01*
X140287000Y-114909000D02*
X139737000Y-114909000D01*
G75*
G02*
X139686000Y-114858000I0J51000D01*
G01*
X139686000Y-113258000D01*
G75*
G02*
X139737000Y-113207000I51000J0D01*
G01*
X140287000Y-113207000D01*
G75*
G02*
X140338000Y-113258000I0J-51000D01*
G01*
X140338000Y-114858000D01*
G75*
G02*
X140287000Y-114909000I-51000J0D01*
G01*
G37*
G36*
G01*
X141087000Y-114909000D02*
X140537000Y-114909000D01*
G75*
G02*
X140486000Y-114858000I0J51000D01*
G01*
X140486000Y-113258000D01*
G75*
G02*
X140537000Y-113207000I51000J0D01*
G01*
X141087000Y-113207000D01*
G75*
G02*
X141138000Y-113258000I0J-51000D01*
G01*
X141138000Y-114858000D01*
G75*
G02*
X141087000Y-114909000I-51000J0D01*
G01*
G37*
G36*
G01*
X141887000Y-114909000D02*
X141337000Y-114909000D01*
G75*
G02*
X141286000Y-114858000I0J51000D01*
G01*
X141286000Y-113258000D01*
G75*
G02*
X141337000Y-113207000I51000J0D01*
G01*
X141887000Y-113207000D01*
G75*
G02*
X141938000Y-113258000I0J-51000D01*
G01*
X141938000Y-114858000D01*
G75*
G02*
X141887000Y-114909000I-51000J0D01*
G01*
G37*
G36*
G01*
X142211000Y-112883000D02*
X142211000Y-112333000D01*
G75*
G02*
X142262000Y-112282000I51000J0D01*
G01*
X143862000Y-112282000D01*
G75*
G02*
X143913000Y-112333000I0J-51000D01*
G01*
X143913000Y-112883000D01*
G75*
G02*
X143862000Y-112934000I-51000J0D01*
G01*
X142262000Y-112934000D01*
G75*
G02*
X142211000Y-112883000I0J51000D01*
G01*
G37*
G36*
G01*
X142211000Y-112083000D02*
X142211000Y-111533000D01*
G75*
G02*
X142262000Y-111482000I51000J0D01*
G01*
X143862000Y-111482000D01*
G75*
G02*
X143913000Y-111533000I0J-51000D01*
G01*
X143913000Y-112083000D01*
G75*
G02*
X143862000Y-112134000I-51000J0D01*
G01*
X142262000Y-112134000D01*
G75*
G02*
X142211000Y-112083000I0J51000D01*
G01*
G37*
G36*
G01*
X142211000Y-111283000D02*
X142211000Y-110733000D01*
G75*
G02*
X142262000Y-110682000I51000J0D01*
G01*
X143862000Y-110682000D01*
G75*
G02*
X143913000Y-110733000I0J-51000D01*
G01*
X143913000Y-111283000D01*
G75*
G02*
X143862000Y-111334000I-51000J0D01*
G01*
X142262000Y-111334000D01*
G75*
G02*
X142211000Y-111283000I0J51000D01*
G01*
G37*
G36*
G01*
X142211000Y-110483000D02*
X142211000Y-109933000D01*
G75*
G02*
X142262000Y-109882000I51000J0D01*
G01*
X143862000Y-109882000D01*
G75*
G02*
X143913000Y-109933000I0J-51000D01*
G01*
X143913000Y-110483000D01*
G75*
G02*
X143862000Y-110534000I-51000J0D01*
G01*
X142262000Y-110534000D01*
G75*
G02*
X142211000Y-110483000I0J51000D01*
G01*
G37*
G36*
G01*
X142211000Y-109683000D02*
X142211000Y-109133000D01*
G75*
G02*
X142262000Y-109082000I51000J0D01*
G01*
X143862000Y-109082000D01*
G75*
G02*
X143913000Y-109133000I0J-51000D01*
G01*
X143913000Y-109683000D01*
G75*
G02*
X143862000Y-109734000I-51000J0D01*
G01*
X142262000Y-109734000D01*
G75*
G02*
X142211000Y-109683000I0J51000D01*
G01*
G37*
G36*
G01*
X142211000Y-108883000D02*
X142211000Y-108333000D01*
G75*
G02*
X142262000Y-108282000I51000J0D01*
G01*
X143862000Y-108282000D01*
G75*
G02*
X143913000Y-108333000I0J-51000D01*
G01*
X143913000Y-108883000D01*
G75*
G02*
X143862000Y-108934000I-51000J0D01*
G01*
X142262000Y-108934000D01*
G75*
G02*
X142211000Y-108883000I0J51000D01*
G01*
G37*
G36*
G01*
X142211000Y-108083000D02*
X142211000Y-107533000D01*
G75*
G02*
X142262000Y-107482000I51000J0D01*
G01*
X143862000Y-107482000D01*
G75*
G02*
X143913000Y-107533000I0J-51000D01*
G01*
X143913000Y-108083000D01*
G75*
G02*
X143862000Y-108134000I-51000J0D01*
G01*
X142262000Y-108134000D01*
G75*
G02*
X142211000Y-108083000I0J51000D01*
G01*
G37*
G36*
G01*
X142211000Y-107283000D02*
X142211000Y-106733000D01*
G75*
G02*
X142262000Y-106682000I51000J0D01*
G01*
X143862000Y-106682000D01*
G75*
G02*
X143913000Y-106733000I0J-51000D01*
G01*
X143913000Y-107283000D01*
G75*
G02*
X143862000Y-107334000I-51000J0D01*
G01*
X142262000Y-107334000D01*
G75*
G02*
X142211000Y-107283000I0J51000D01*
G01*
G37*
G36*
G01*
X141887000Y-106409000D02*
X141337000Y-106409000D01*
G75*
G02*
X141286000Y-106358000I0J51000D01*
G01*
X141286000Y-104758000D01*
G75*
G02*
X141337000Y-104707000I51000J0D01*
G01*
X141887000Y-104707000D01*
G75*
G02*
X141938000Y-104758000I0J-51000D01*
G01*
X141938000Y-106358000D01*
G75*
G02*
X141887000Y-106409000I-51000J0D01*
G01*
G37*
G36*
G01*
X141087000Y-106409000D02*
X140537000Y-106409000D01*
G75*
G02*
X140486000Y-106358000I0J51000D01*
G01*
X140486000Y-104758000D01*
G75*
G02*
X140537000Y-104707000I51000J0D01*
G01*
X141087000Y-104707000D01*
G75*
G02*
X141138000Y-104758000I0J-51000D01*
G01*
X141138000Y-106358000D01*
G75*
G02*
X141087000Y-106409000I-51000J0D01*
G01*
G37*
G36*
G01*
X140287000Y-106409000D02*
X139737000Y-106409000D01*
G75*
G02*
X139686000Y-106358000I0J51000D01*
G01*
X139686000Y-104758000D01*
G75*
G02*
X139737000Y-104707000I51000J0D01*
G01*
X140287000Y-104707000D01*
G75*
G02*
X140338000Y-104758000I0J-51000D01*
G01*
X140338000Y-106358000D01*
G75*
G02*
X140287000Y-106409000I-51000J0D01*
G01*
G37*
G36*
G01*
X139487000Y-106409000D02*
X138937000Y-106409000D01*
G75*
G02*
X138886000Y-106358000I0J51000D01*
G01*
X138886000Y-104758000D01*
G75*
G02*
X138937000Y-104707000I51000J0D01*
G01*
X139487000Y-104707000D01*
G75*
G02*
X139538000Y-104758000I0J-51000D01*
G01*
X139538000Y-106358000D01*
G75*
G02*
X139487000Y-106409000I-51000J0D01*
G01*
G37*
G36*
G01*
X138687000Y-106409000D02*
X138137000Y-106409000D01*
G75*
G02*
X138086000Y-106358000I0J51000D01*
G01*
X138086000Y-104758000D01*
G75*
G02*
X138137000Y-104707000I51000J0D01*
G01*
X138687000Y-104707000D01*
G75*
G02*
X138738000Y-104758000I0J-51000D01*
G01*
X138738000Y-106358000D01*
G75*
G02*
X138687000Y-106409000I-51000J0D01*
G01*
G37*
G36*
G01*
X137887000Y-106409000D02*
X137337000Y-106409000D01*
G75*
G02*
X137286000Y-106358000I0J51000D01*
G01*
X137286000Y-104758000D01*
G75*
G02*
X137337000Y-104707000I51000J0D01*
G01*
X137887000Y-104707000D01*
G75*
G02*
X137938000Y-104758000I0J-51000D01*
G01*
X137938000Y-106358000D01*
G75*
G02*
X137887000Y-106409000I-51000J0D01*
G01*
G37*
G36*
G01*
X137087000Y-106409000D02*
X136537000Y-106409000D01*
G75*
G02*
X136486000Y-106358000I0J51000D01*
G01*
X136486000Y-104758000D01*
G75*
G02*
X136537000Y-104707000I51000J0D01*
G01*
X137087000Y-104707000D01*
G75*
G02*
X137138000Y-104758000I0J-51000D01*
G01*
X137138000Y-106358000D01*
G75*
G02*
X137087000Y-106409000I-51000J0D01*
G01*
G37*
G36*
G01*
X136287000Y-106409000D02*
X135737000Y-106409000D01*
G75*
G02*
X135686000Y-106358000I0J51000D01*
G01*
X135686000Y-104758000D01*
G75*
G02*
X135737000Y-104707000I51000J0D01*
G01*
X136287000Y-104707000D01*
G75*
G02*
X136338000Y-104758000I0J-51000D01*
G01*
X136338000Y-106358000D01*
G75*
G02*
X136287000Y-106409000I-51000J0D01*
G01*
G37*
G36*
G01*
X147005000Y-117479622D02*
X147005000Y-116106378D01*
G75*
G02*
X147269378Y-115842000I264378J0D01*
G01*
X148642622Y-115842000D01*
G75*
G02*
X148907000Y-116106378I0J-264378D01*
G01*
X148907000Y-117479622D01*
G75*
G02*
X148642622Y-117744000I-264378J0D01*
G01*
X147269378Y-117744000D01*
G75*
G02*
X147005000Y-117479622I0J264378D01*
G01*
G37*
D10*
X150496000Y-116793000D03*
X153036000Y-116793000D03*
G36*
G01*
X130181500Y-98283000D02*
X130432500Y-98283000D01*
G75*
G02*
X130558000Y-98408500I0J-125500D01*
G01*
X130558000Y-99734500D01*
G75*
G02*
X130432500Y-99860000I-125500J0D01*
G01*
X130181500Y-99860000D01*
G75*
G02*
X130056000Y-99734500I0J125500D01*
G01*
X130056000Y-98408500D01*
G75*
G02*
X130181500Y-98283000I125500J0D01*
G01*
G37*
G36*
G01*
X129531500Y-98283000D02*
X129782500Y-98283000D01*
G75*
G02*
X129908000Y-98408500I0J-125500D01*
G01*
X129908000Y-99734500D01*
G75*
G02*
X129782500Y-99860000I-125500J0D01*
G01*
X129531500Y-99860000D01*
G75*
G02*
X129406000Y-99734500I0J125500D01*
G01*
X129406000Y-98408500D01*
G75*
G02*
X129531500Y-98283000I125500J0D01*
G01*
G37*
G36*
G01*
X128881500Y-98283000D02*
X129132500Y-98283000D01*
G75*
G02*
X129258000Y-98408500I0J-125500D01*
G01*
X129258000Y-99734500D01*
G75*
G02*
X129132500Y-99860000I-125500J0D01*
G01*
X128881500Y-99860000D01*
G75*
G02*
X128756000Y-99734500I0J125500D01*
G01*
X128756000Y-98408500D01*
G75*
G02*
X128881500Y-98283000I125500J0D01*
G01*
G37*
G36*
G01*
X128231500Y-98283000D02*
X128482500Y-98283000D01*
G75*
G02*
X128608000Y-98408500I0J-125500D01*
G01*
X128608000Y-99734500D01*
G75*
G02*
X128482500Y-99860000I-125500J0D01*
G01*
X128231500Y-99860000D01*
G75*
G02*
X128106000Y-99734500I0J125500D01*
G01*
X128106000Y-98408500D01*
G75*
G02*
X128231500Y-98283000I125500J0D01*
G01*
G37*
G36*
G01*
X127581500Y-98283000D02*
X127832500Y-98283000D01*
G75*
G02*
X127958000Y-98408500I0J-125500D01*
G01*
X127958000Y-99734500D01*
G75*
G02*
X127832500Y-99860000I-125500J0D01*
G01*
X127581500Y-99860000D01*
G75*
G02*
X127456000Y-99734500I0J125500D01*
G01*
X127456000Y-98408500D01*
G75*
G02*
X127581500Y-98283000I125500J0D01*
G01*
G37*
G36*
G01*
X126931500Y-98283000D02*
X127182500Y-98283000D01*
G75*
G02*
X127308000Y-98408500I0J-125500D01*
G01*
X127308000Y-99734500D01*
G75*
G02*
X127182500Y-99860000I-125500J0D01*
G01*
X126931500Y-99860000D01*
G75*
G02*
X126806000Y-99734500I0J125500D01*
G01*
X126806000Y-98408500D01*
G75*
G02*
X126931500Y-98283000I125500J0D01*
G01*
G37*
G36*
G01*
X126281500Y-98283000D02*
X126532500Y-98283000D01*
G75*
G02*
X126658000Y-98408500I0J-125500D01*
G01*
X126658000Y-99734500D01*
G75*
G02*
X126532500Y-99860000I-125500J0D01*
G01*
X126281500Y-99860000D01*
G75*
G02*
X126156000Y-99734500I0J125500D01*
G01*
X126156000Y-98408500D01*
G75*
G02*
X126281500Y-98283000I125500J0D01*
G01*
G37*
G36*
G01*
X125631500Y-98283000D02*
X125882500Y-98283000D01*
G75*
G02*
X126008000Y-98408500I0J-125500D01*
G01*
X126008000Y-99734500D01*
G75*
G02*
X125882500Y-99860000I-125500J0D01*
G01*
X125631500Y-99860000D01*
G75*
G02*
X125506000Y-99734500I0J125500D01*
G01*
X125506000Y-98408500D01*
G75*
G02*
X125631500Y-98283000I125500J0D01*
G01*
G37*
G36*
G01*
X124981500Y-98283000D02*
X125232500Y-98283000D01*
G75*
G02*
X125358000Y-98408500I0J-125500D01*
G01*
X125358000Y-99734500D01*
G75*
G02*
X125232500Y-99860000I-125500J0D01*
G01*
X124981500Y-99860000D01*
G75*
G02*
X124856000Y-99734500I0J125500D01*
G01*
X124856000Y-98408500D01*
G75*
G02*
X124981500Y-98283000I125500J0D01*
G01*
G37*
G36*
G01*
X124331500Y-98283000D02*
X124582500Y-98283000D01*
G75*
G02*
X124708000Y-98408500I0J-125500D01*
G01*
X124708000Y-99734500D01*
G75*
G02*
X124582500Y-99860000I-125500J0D01*
G01*
X124331500Y-99860000D01*
G75*
G02*
X124206000Y-99734500I0J125500D01*
G01*
X124206000Y-98408500D01*
G75*
G02*
X124331500Y-98283000I125500J0D01*
G01*
G37*
G36*
G01*
X124331500Y-104008000D02*
X124582500Y-104008000D01*
G75*
G02*
X124708000Y-104133500I0J-125500D01*
G01*
X124708000Y-105459500D01*
G75*
G02*
X124582500Y-105585000I-125500J0D01*
G01*
X124331500Y-105585000D01*
G75*
G02*
X124206000Y-105459500I0J125500D01*
G01*
X124206000Y-104133500D01*
G75*
G02*
X124331500Y-104008000I125500J0D01*
G01*
G37*
G36*
G01*
X124981500Y-104008000D02*
X125232500Y-104008000D01*
G75*
G02*
X125358000Y-104133500I0J-125500D01*
G01*
X125358000Y-105459500D01*
G75*
G02*
X125232500Y-105585000I-125500J0D01*
G01*
X124981500Y-105585000D01*
G75*
G02*
X124856000Y-105459500I0J125500D01*
G01*
X124856000Y-104133500D01*
G75*
G02*
X124981500Y-104008000I125500J0D01*
G01*
G37*
G36*
G01*
X125631500Y-104008000D02*
X125882500Y-104008000D01*
G75*
G02*
X126008000Y-104133500I0J-125500D01*
G01*
X126008000Y-105459500D01*
G75*
G02*
X125882500Y-105585000I-125500J0D01*
G01*
X125631500Y-105585000D01*
G75*
G02*
X125506000Y-105459500I0J125500D01*
G01*
X125506000Y-104133500D01*
G75*
G02*
X125631500Y-104008000I125500J0D01*
G01*
G37*
G36*
G01*
X126281500Y-104008000D02*
X126532500Y-104008000D01*
G75*
G02*
X126658000Y-104133500I0J-125500D01*
G01*
X126658000Y-105459500D01*
G75*
G02*
X126532500Y-105585000I-125500J0D01*
G01*
X126281500Y-105585000D01*
G75*
G02*
X126156000Y-105459500I0J125500D01*
G01*
X126156000Y-104133500D01*
G75*
G02*
X126281500Y-104008000I125500J0D01*
G01*
G37*
G36*
G01*
X126931500Y-104008000D02*
X127182500Y-104008000D01*
G75*
G02*
X127308000Y-104133500I0J-125500D01*
G01*
X127308000Y-105459500D01*
G75*
G02*
X127182500Y-105585000I-125500J0D01*
G01*
X126931500Y-105585000D01*
G75*
G02*
X126806000Y-105459500I0J125500D01*
G01*
X126806000Y-104133500D01*
G75*
G02*
X126931500Y-104008000I125500J0D01*
G01*
G37*
G36*
G01*
X127581500Y-104008000D02*
X127832500Y-104008000D01*
G75*
G02*
X127958000Y-104133500I0J-125500D01*
G01*
X127958000Y-105459500D01*
G75*
G02*
X127832500Y-105585000I-125500J0D01*
G01*
X127581500Y-105585000D01*
G75*
G02*
X127456000Y-105459500I0J125500D01*
G01*
X127456000Y-104133500D01*
G75*
G02*
X127581500Y-104008000I125500J0D01*
G01*
G37*
G36*
G01*
X128231500Y-104008000D02*
X128482500Y-104008000D01*
G75*
G02*
X128608000Y-104133500I0J-125500D01*
G01*
X128608000Y-105459500D01*
G75*
G02*
X128482500Y-105585000I-125500J0D01*
G01*
X128231500Y-105585000D01*
G75*
G02*
X128106000Y-105459500I0J125500D01*
G01*
X128106000Y-104133500D01*
G75*
G02*
X128231500Y-104008000I125500J0D01*
G01*
G37*
G36*
G01*
X128881500Y-104008000D02*
X129132500Y-104008000D01*
G75*
G02*
X129258000Y-104133500I0J-125500D01*
G01*
X129258000Y-105459500D01*
G75*
G02*
X129132500Y-105585000I-125500J0D01*
G01*
X128881500Y-105585000D01*
G75*
G02*
X128756000Y-105459500I0J125500D01*
G01*
X128756000Y-104133500D01*
G75*
G02*
X128881500Y-104008000I125500J0D01*
G01*
G37*
G36*
G01*
X129531500Y-104008000D02*
X129782500Y-104008000D01*
G75*
G02*
X129908000Y-104133500I0J-125500D01*
G01*
X129908000Y-105459500D01*
G75*
G02*
X129782500Y-105585000I-125500J0D01*
G01*
X129531500Y-105585000D01*
G75*
G02*
X129406000Y-105459500I0J125500D01*
G01*
X129406000Y-104133500D01*
G75*
G02*
X129531500Y-104008000I125500J0D01*
G01*
G37*
G36*
G01*
X130181500Y-104008000D02*
X130432500Y-104008000D01*
G75*
G02*
X130558000Y-104133500I0J-125500D01*
G01*
X130558000Y-105459500D01*
G75*
G02*
X130432500Y-105585000I-125500J0D01*
G01*
X130181500Y-105585000D01*
G75*
G02*
X130056000Y-105459500I0J125500D01*
G01*
X130056000Y-104133500D01*
G75*
G02*
X130181500Y-104008000I125500J0D01*
G01*
G37*
G36*
G01*
X134821000Y-116485999D02*
X134821000Y-117686001D01*
G75*
G02*
X134770001Y-117737000I-50999J0D01*
G01*
X133369999Y-117737000D01*
G75*
G02*
X133319000Y-117686001I0J50999D01*
G01*
X133319000Y-116485999D01*
G75*
G02*
X133369999Y-116435000I50999J0D01*
G01*
X134770001Y-116435000D01*
G75*
G02*
X134821000Y-116485999I0J-50999D01*
G01*
G37*
G36*
G01*
X132621000Y-116485999D02*
X132621000Y-117686001D01*
G75*
G02*
X132570001Y-117737000I-50999J0D01*
G01*
X131169999Y-117737000D01*
G75*
G02*
X131119000Y-117686001I0J50999D01*
G01*
X131119000Y-116485999D01*
G75*
G02*
X131169999Y-116435000I50999J0D01*
G01*
X132570001Y-116435000D01*
G75*
G02*
X132621000Y-116485999I0J-50999D01*
G01*
G37*
G36*
G01*
X132621000Y-118185999D02*
X132621000Y-119386001D01*
G75*
G02*
X132570001Y-119437000I-50999J0D01*
G01*
X131169999Y-119437000D01*
G75*
G02*
X131119000Y-119386001I0J50999D01*
G01*
X131119000Y-118185999D01*
G75*
G02*
X131169999Y-118135000I50999J0D01*
G01*
X132570001Y-118135000D01*
G75*
G02*
X132621000Y-118185999I0J-50999D01*
G01*
G37*
G36*
G01*
X134821000Y-118185999D02*
X134821000Y-119386001D01*
G75*
G02*
X134770001Y-119437000I-50999J0D01*
G01*
X133369999Y-119437000D01*
G75*
G02*
X133319000Y-119386001I0J50999D01*
G01*
X133319000Y-118185999D01*
G75*
G02*
X133369999Y-118135000I50999J0D01*
G01*
X134770001Y-118135000D01*
G75*
G02*
X134821000Y-118185999I0J-50999D01*
G01*
G37*
G36*
G01*
X181877000Y-111498000D02*
X181877000Y-113198000D01*
G75*
G02*
X181826000Y-113249000I-51000J0D01*
G01*
X180126000Y-113249000D01*
G75*
G02*
X180075000Y-113198000I0J51000D01*
G01*
X180075000Y-111498000D01*
G75*
G02*
X180126000Y-111447000I51000J0D01*
G01*
X181826000Y-111447000D01*
G75*
G02*
X181877000Y-111498000I0J-51000D01*
G01*
G37*
D12*
X180976000Y-109808000D03*
X180976000Y-107268000D03*
X180976000Y-104728000D03*
X180976000Y-102188000D03*
X180976000Y-99648000D03*
G36*
G01*
X135974500Y-102257000D02*
X135553500Y-102257000D01*
G75*
G02*
X135393000Y-102096500I0J160500D01*
G01*
X135393000Y-101775500D01*
G75*
G02*
X135553500Y-101615000I160500J0D01*
G01*
X135974500Y-101615000D01*
G75*
G02*
X136135000Y-101775500I0J-160500D01*
G01*
X136135000Y-102096500D01*
G75*
G02*
X135974500Y-102257000I-160500J0D01*
G01*
G37*
G36*
G01*
X135974500Y-101237000D02*
X135553500Y-101237000D01*
G75*
G02*
X135393000Y-101076500I0J160500D01*
G01*
X135393000Y-100755500D01*
G75*
G02*
X135553500Y-100595000I160500J0D01*
G01*
X135974500Y-100595000D01*
G75*
G02*
X136135000Y-100755500I0J-160500D01*
G01*
X136135000Y-101076500D01*
G75*
G02*
X135974500Y-101237000I-160500J0D01*
G01*
G37*
G36*
G01*
X158068000Y-106283876D02*
X158068000Y-107236124D01*
G75*
G02*
X157793124Y-107511000I-274876J0D01*
G01*
X157215876Y-107511000D01*
G75*
G02*
X156941000Y-107236124I0J274876D01*
G01*
X156941000Y-106283876D01*
G75*
G02*
X157215876Y-106009000I274876J0D01*
G01*
X157793124Y-106009000D01*
G75*
G02*
X158068000Y-106283876I0J-274876D01*
G01*
G37*
G36*
G01*
X156243000Y-106283876D02*
X156243000Y-107236124D01*
G75*
G02*
X155968124Y-107511000I-274876J0D01*
G01*
X155390876Y-107511000D01*
G75*
G02*
X155116000Y-107236124I0J274876D01*
G01*
X155116000Y-106283876D01*
G75*
G02*
X155390876Y-106009000I274876J0D01*
G01*
X155968124Y-106009000D01*
G75*
G02*
X156243000Y-106283876I0J-274876D01*
G01*
G37*
D13*
G36*
X148908165Y-117477996D02*
G01*
X148909000Y-117479622D01*
X148909000Y-117563731D01*
X148908990Y-117563927D01*
X148905051Y-117603919D01*
X148904975Y-117604304D01*
X148895099Y-117636861D01*
X148894949Y-117637223D01*
X148878916Y-117667219D01*
X148878698Y-117667545D01*
X148857118Y-117693841D01*
X148856841Y-117694118D01*
X148830545Y-117715698D01*
X148830219Y-117715916D01*
X148800223Y-117731949D01*
X148799861Y-117732099D01*
X148767304Y-117741975D01*
X148766919Y-117742051D01*
X148726927Y-117745990D01*
X148726731Y-117746000D01*
X148642622Y-117746000D01*
X148640890Y-117745000D01*
X148640890Y-117743000D01*
X148642426Y-117742010D01*
X148693805Y-117736950D01*
X148743026Y-117722018D01*
X148788387Y-117697773D01*
X148828144Y-117665144D01*
X148860773Y-117625387D01*
X148885018Y-117580026D01*
X148899950Y-117530805D01*
X148905010Y-117479426D01*
X148906175Y-117477800D01*
X148908165Y-117477996D01*
G37*
G36*
X147006990Y-117479426D02*
G01*
X147012050Y-117530805D01*
X147026982Y-117580026D01*
X147051227Y-117625387D01*
X147083856Y-117665144D01*
X147123613Y-117697773D01*
X147168974Y-117722018D01*
X147218195Y-117736950D01*
X147269574Y-117742010D01*
X147271200Y-117743175D01*
X147271004Y-117745165D01*
X147269378Y-117746000D01*
X147185269Y-117746000D01*
X147185073Y-117745990D01*
X147145081Y-117742051D01*
X147144696Y-117741975D01*
X147112139Y-117732099D01*
X147111777Y-117731949D01*
X147081781Y-117715916D01*
X147081455Y-117715698D01*
X147055159Y-117694118D01*
X147054882Y-117693841D01*
X147033302Y-117667545D01*
X147033084Y-117667219D01*
X147017051Y-117637223D01*
X147016901Y-117636861D01*
X147007025Y-117604304D01*
X147006949Y-117603919D01*
X147003010Y-117563927D01*
X147003000Y-117563731D01*
X147003000Y-117479622D01*
X147004000Y-117477890D01*
X147006000Y-117477890D01*
X147006990Y-117479426D01*
G37*
G36*
X147271110Y-115841000D02*
G01*
X147271110Y-115843000D01*
X147269574Y-115843990D01*
X147218195Y-115849050D01*
X147168974Y-115863982D01*
X147123613Y-115888227D01*
X147083856Y-115920856D01*
X147051227Y-115960613D01*
X147026982Y-116005974D01*
X147012050Y-116055195D01*
X147006990Y-116106574D01*
X147005825Y-116108200D01*
X147003835Y-116108004D01*
X147003000Y-116106378D01*
X147003000Y-116022269D01*
X147003010Y-116022073D01*
X147006949Y-115982081D01*
X147007025Y-115981696D01*
X147016901Y-115949139D01*
X147017051Y-115948777D01*
X147033084Y-115918781D01*
X147033302Y-115918455D01*
X147054882Y-115892159D01*
X147055159Y-115891882D01*
X147081455Y-115870302D01*
X147081781Y-115870084D01*
X147111777Y-115854051D01*
X147112139Y-115853901D01*
X147144696Y-115844025D01*
X147145081Y-115843949D01*
X147185073Y-115840010D01*
X147185269Y-115840000D01*
X147269378Y-115840000D01*
X147271110Y-115841000D01*
G37*
G36*
X148726927Y-115840010D02*
G01*
X148766919Y-115843949D01*
X148767304Y-115844025D01*
X148799861Y-115853901D01*
X148800223Y-115854051D01*
X148830219Y-115870084D01*
X148830545Y-115870302D01*
X148856841Y-115891882D01*
X148857118Y-115892159D01*
X148878698Y-115918455D01*
X148878916Y-115918781D01*
X148894949Y-115948777D01*
X148895099Y-115949139D01*
X148904975Y-115981696D01*
X148905051Y-115982081D01*
X148908990Y-116022073D01*
X148909000Y-116022269D01*
X148909000Y-116106378D01*
X148908000Y-116108110D01*
X148906000Y-116108110D01*
X148905010Y-116106574D01*
X148899950Y-116055195D01*
X148885018Y-116005974D01*
X148860773Y-115960613D01*
X148828144Y-115920856D01*
X148788387Y-115888227D01*
X148743026Y-115863982D01*
X148693805Y-115849050D01*
X148642426Y-115843990D01*
X148640800Y-115842825D01*
X148640996Y-115840835D01*
X148642622Y-115840000D01*
X148726731Y-115840000D01*
X148726927Y-115840010D01*
G37*
G36*
X141287732Y-113206000D02*
G01*
X141288000Y-113207000D01*
X141288000Y-114909000D01*
X141287000Y-114910732D01*
X141286000Y-114911000D01*
X141138000Y-114911000D01*
X141136268Y-114910000D01*
X141136000Y-114909000D01*
X141136000Y-113207000D01*
X141137000Y-113205268D01*
X141138000Y-113205000D01*
X141286000Y-113205000D01*
X141287732Y-113206000D01*
G37*
G36*
X140487732Y-113206000D02*
G01*
X140488000Y-113207000D01*
X140488000Y-114909000D01*
X140487000Y-114910732D01*
X140486000Y-114911000D01*
X140338000Y-114911000D01*
X140336268Y-114910000D01*
X140336000Y-114909000D01*
X140336000Y-113207000D01*
X140337000Y-113205268D01*
X140338000Y-113205000D01*
X140486000Y-113205000D01*
X140487732Y-113206000D01*
G37*
G36*
X139687732Y-113206000D02*
G01*
X139688000Y-113207000D01*
X139688000Y-114909000D01*
X139687000Y-114910732D01*
X139686000Y-114911000D01*
X139538000Y-114911000D01*
X139536268Y-114910000D01*
X139536000Y-114909000D01*
X139536000Y-113207000D01*
X139537000Y-113205268D01*
X139538000Y-113205000D01*
X139686000Y-113205000D01*
X139687732Y-113206000D01*
G37*
G36*
X138887732Y-113206000D02*
G01*
X138888000Y-113207000D01*
X138888000Y-114909000D01*
X138887000Y-114910732D01*
X138886000Y-114911000D01*
X138738000Y-114911000D01*
X138736268Y-114910000D01*
X138736000Y-114909000D01*
X138736000Y-113207000D01*
X138737000Y-113205268D01*
X138738000Y-113205000D01*
X138886000Y-113205000D01*
X138887732Y-113206000D01*
G37*
G36*
X138087732Y-113206000D02*
G01*
X138088000Y-113207000D01*
X138088000Y-114909000D01*
X138087000Y-114910732D01*
X138086000Y-114911000D01*
X137938000Y-114911000D01*
X137936268Y-114910000D01*
X137936000Y-114909000D01*
X137936000Y-113207000D01*
X137937000Y-113205268D01*
X137938000Y-113205000D01*
X138086000Y-113205000D01*
X138087732Y-113206000D01*
G37*
G36*
X137287732Y-113206000D02*
G01*
X137288000Y-113207000D01*
X137288000Y-114909000D01*
X137287000Y-114910732D01*
X137286000Y-114911000D01*
X137138000Y-114911000D01*
X137136268Y-114910000D01*
X137136000Y-114909000D01*
X137136000Y-113207000D01*
X137137000Y-113205268D01*
X137138000Y-113205000D01*
X137286000Y-113205000D01*
X137287732Y-113206000D01*
G37*
G36*
X136487732Y-113206000D02*
G01*
X136488000Y-113207000D01*
X136488000Y-114909000D01*
X136487000Y-114910732D01*
X136486000Y-114911000D01*
X136338000Y-114911000D01*
X136336268Y-114910000D01*
X136336000Y-114909000D01*
X136336000Y-113207000D01*
X136337000Y-113205268D01*
X136338000Y-113205000D01*
X136486000Y-113205000D01*
X136487732Y-113206000D01*
G37*
G36*
X143914732Y-112133000D02*
G01*
X143915000Y-112134000D01*
X143915000Y-112282000D01*
X143914000Y-112283732D01*
X143913000Y-112284000D01*
X142211000Y-112284000D01*
X142209268Y-112283000D01*
X142209000Y-112282000D01*
X142209000Y-112134000D01*
X142210000Y-112132268D01*
X142211000Y-112132000D01*
X143913000Y-112132000D01*
X143914732Y-112133000D01*
G37*
G36*
X135414732Y-112133000D02*
G01*
X135415000Y-112134000D01*
X135415000Y-112282000D01*
X135414000Y-112283732D01*
X135413000Y-112284000D01*
X133711000Y-112284000D01*
X133709268Y-112283000D01*
X133709000Y-112282000D01*
X133709000Y-112134000D01*
X133710000Y-112132268D01*
X133711000Y-112132000D01*
X135413000Y-112132000D01*
X135414732Y-112133000D01*
G37*
G36*
X135414732Y-111333000D02*
G01*
X135415000Y-111334000D01*
X135415000Y-111482000D01*
X135414000Y-111483732D01*
X135413000Y-111484000D01*
X133711000Y-111484000D01*
X133709268Y-111483000D01*
X133709000Y-111482000D01*
X133709000Y-111334000D01*
X133710000Y-111332268D01*
X133711000Y-111332000D01*
X135413000Y-111332000D01*
X135414732Y-111333000D01*
G37*
G36*
X143914732Y-111333000D02*
G01*
X143915000Y-111334000D01*
X143915000Y-111482000D01*
X143914000Y-111483732D01*
X143913000Y-111484000D01*
X142211000Y-111484000D01*
X142209268Y-111483000D01*
X142209000Y-111482000D01*
X142209000Y-111334000D01*
X142210000Y-111332268D01*
X142211000Y-111332000D01*
X143913000Y-111332000D01*
X143914732Y-111333000D01*
G37*
G36*
X135414732Y-110533000D02*
G01*
X135415000Y-110534000D01*
X135415000Y-110682000D01*
X135414000Y-110683732D01*
X135413000Y-110684000D01*
X133711000Y-110684000D01*
X133709268Y-110683000D01*
X133709000Y-110682000D01*
X133709000Y-110534000D01*
X133710000Y-110532268D01*
X133711000Y-110532000D01*
X135413000Y-110532000D01*
X135414732Y-110533000D01*
G37*
G36*
X143914732Y-110533000D02*
G01*
X143915000Y-110534000D01*
X143915000Y-110682000D01*
X143914000Y-110683732D01*
X143913000Y-110684000D01*
X142211000Y-110684000D01*
X142209268Y-110683000D01*
X142209000Y-110682000D01*
X142209000Y-110534000D01*
X142210000Y-110532268D01*
X142211000Y-110532000D01*
X143913000Y-110532000D01*
X143914732Y-110533000D01*
G37*
G36*
X135414732Y-109733000D02*
G01*
X135415000Y-109734000D01*
X135415000Y-109882000D01*
X135414000Y-109883732D01*
X135413000Y-109884000D01*
X133711000Y-109884000D01*
X133709268Y-109883000D01*
X133709000Y-109882000D01*
X133709000Y-109734000D01*
X133710000Y-109732268D01*
X133711000Y-109732000D01*
X135413000Y-109732000D01*
X135414732Y-109733000D01*
G37*
G36*
X143914732Y-109733000D02*
G01*
X143915000Y-109734000D01*
X143915000Y-109882000D01*
X143914000Y-109883732D01*
X143913000Y-109884000D01*
X142211000Y-109884000D01*
X142209268Y-109883000D01*
X142209000Y-109882000D01*
X142209000Y-109734000D01*
X142210000Y-109732268D01*
X142211000Y-109732000D01*
X143913000Y-109732000D01*
X143914732Y-109733000D01*
G37*
G36*
X143914732Y-108933000D02*
G01*
X143915000Y-108934000D01*
X143915000Y-109082000D01*
X143914000Y-109083732D01*
X143913000Y-109084000D01*
X142211000Y-109084000D01*
X142209268Y-109083000D01*
X142209000Y-109082000D01*
X142209000Y-108934000D01*
X142210000Y-108932268D01*
X142211000Y-108932000D01*
X143913000Y-108932000D01*
X143914732Y-108933000D01*
G37*
G36*
X135414732Y-108933000D02*
G01*
X135415000Y-108934000D01*
X135415000Y-109082000D01*
X135414000Y-109083732D01*
X135413000Y-109084000D01*
X133711000Y-109084000D01*
X133709268Y-109083000D01*
X133709000Y-109082000D01*
X133709000Y-108934000D01*
X133710000Y-108932268D01*
X133711000Y-108932000D01*
X135413000Y-108932000D01*
X135414732Y-108933000D01*
G37*
G36*
X143914732Y-108133000D02*
G01*
X143915000Y-108134000D01*
X143915000Y-108282000D01*
X143914000Y-108283732D01*
X143913000Y-108284000D01*
X142211000Y-108284000D01*
X142209268Y-108283000D01*
X142209000Y-108282000D01*
X142209000Y-108134000D01*
X142210000Y-108132268D01*
X142211000Y-108132000D01*
X143913000Y-108132000D01*
X143914732Y-108133000D01*
G37*
G36*
X135414732Y-108133000D02*
G01*
X135415000Y-108134000D01*
X135415000Y-108282000D01*
X135414000Y-108283732D01*
X135413000Y-108284000D01*
X133711000Y-108284000D01*
X133709268Y-108283000D01*
X133709000Y-108282000D01*
X133709000Y-108134000D01*
X133710000Y-108132268D01*
X133711000Y-108132000D01*
X135413000Y-108132000D01*
X135414732Y-108133000D01*
G37*
G36*
X135414732Y-107333000D02*
G01*
X135415000Y-107334000D01*
X135415000Y-107482000D01*
X135414000Y-107483732D01*
X135413000Y-107484000D01*
X133711000Y-107484000D01*
X133709268Y-107483000D01*
X133709000Y-107482000D01*
X133709000Y-107334000D01*
X133710000Y-107332268D01*
X133711000Y-107332000D01*
X135413000Y-107332000D01*
X135414732Y-107333000D01*
G37*
G36*
X143914732Y-107333000D02*
G01*
X143915000Y-107334000D01*
X143915000Y-107482000D01*
X143914000Y-107483732D01*
X143913000Y-107484000D01*
X142211000Y-107484000D01*
X142209268Y-107483000D01*
X142209000Y-107482000D01*
X142209000Y-107334000D01*
X142210000Y-107332268D01*
X142211000Y-107332000D01*
X143913000Y-107332000D01*
X143914732Y-107333000D01*
G37*
G36*
X139687732Y-104706000D02*
G01*
X139688000Y-104707000D01*
X139688000Y-106409000D01*
X139687000Y-106410732D01*
X139686000Y-106411000D01*
X139538000Y-106411000D01*
X139536268Y-106410000D01*
X139536000Y-106409000D01*
X139536000Y-104707000D01*
X139537000Y-104705268D01*
X139538000Y-104705000D01*
X139686000Y-104705000D01*
X139687732Y-104706000D01*
G37*
G36*
X140487732Y-104706000D02*
G01*
X140488000Y-104707000D01*
X140488000Y-106409000D01*
X140487000Y-106410732D01*
X140486000Y-106411000D01*
X140338000Y-106411000D01*
X140336268Y-106410000D01*
X140336000Y-106409000D01*
X140336000Y-104707000D01*
X140337000Y-104705268D01*
X140338000Y-104705000D01*
X140486000Y-104705000D01*
X140487732Y-104706000D01*
G37*
G36*
X138887732Y-104706000D02*
G01*
X138888000Y-104707000D01*
X138888000Y-106409000D01*
X138887000Y-106410732D01*
X138886000Y-106411000D01*
X138738000Y-106411000D01*
X138736268Y-106410000D01*
X138736000Y-106409000D01*
X138736000Y-104707000D01*
X138737000Y-104705268D01*
X138738000Y-104705000D01*
X138886000Y-104705000D01*
X138887732Y-104706000D01*
G37*
G36*
X138087732Y-104706000D02*
G01*
X138088000Y-104707000D01*
X138088000Y-106409000D01*
X138087000Y-106410732D01*
X138086000Y-106411000D01*
X137938000Y-106411000D01*
X137936268Y-106410000D01*
X137936000Y-106409000D01*
X137936000Y-104707000D01*
X137937000Y-104705268D01*
X137938000Y-104705000D01*
X138086000Y-104705000D01*
X138087732Y-104706000D01*
G37*
G36*
X137287732Y-104706000D02*
G01*
X137288000Y-104707000D01*
X137288000Y-106409000D01*
X137287000Y-106410732D01*
X137286000Y-106411000D01*
X137138000Y-106411000D01*
X137136268Y-106410000D01*
X137136000Y-106409000D01*
X137136000Y-104707000D01*
X137137000Y-104705268D01*
X137138000Y-104705000D01*
X137286000Y-104705000D01*
X137287732Y-104706000D01*
G37*
G36*
X141287732Y-104706000D02*
G01*
X141288000Y-104707000D01*
X141288000Y-106409000D01*
X141287000Y-106410732D01*
X141286000Y-106411000D01*
X141138000Y-106411000D01*
X141136268Y-106410000D01*
X141136000Y-106409000D01*
X141136000Y-104707000D01*
X141137000Y-104705268D01*
X141138000Y-104705000D01*
X141286000Y-104705000D01*
X141287732Y-104706000D01*
G37*
G36*
X136487732Y-104706000D02*
G01*
X136488000Y-104707000D01*
X136488000Y-106409000D01*
X136487000Y-106410732D01*
X136486000Y-106411000D01*
X136338000Y-106411000D01*
X136336268Y-106410000D01*
X136336000Y-106409000D01*
X136336000Y-104707000D01*
X136337000Y-104705268D01*
X136338000Y-104705000D01*
X136486000Y-104705000D01*
X136487732Y-104706000D01*
G37*
G36*
X129189058Y-104006010D02*
G01*
X129207366Y-104007813D01*
X129207751Y-104007889D01*
X129219456Y-104011440D01*
X129219818Y-104011590D01*
X129230608Y-104017357D01*
X129230934Y-104017575D01*
X129244957Y-104029084D01*
X129245102Y-104029216D01*
X129253978Y-104038091D01*
X129274025Y-104051486D01*
X129296299Y-104060711D01*
X129319950Y-104065415D01*
X129344056Y-104065415D01*
X129367706Y-104060710D01*
X129389979Y-104051483D01*
X129410027Y-104038088D01*
X129418903Y-104029212D01*
X129419048Y-104029080D01*
X129433066Y-104017575D01*
X129433392Y-104017357D01*
X129444182Y-104011590D01*
X129444544Y-104011440D01*
X129456249Y-104007889D01*
X129456634Y-104007813D01*
X129474942Y-104006010D01*
X129475138Y-104006000D01*
X129531500Y-104006000D01*
X129533232Y-104007000D01*
X129533232Y-104009000D01*
X129531696Y-104009990D01*
X129507411Y-104012381D01*
X129484242Y-104019410D01*
X129462892Y-104030822D01*
X129444179Y-104046179D01*
X129428822Y-104064892D01*
X129417410Y-104086242D01*
X129410381Y-104109411D01*
X129408000Y-104133594D01*
X129408000Y-105459406D01*
X129410381Y-105483589D01*
X129417410Y-105506758D01*
X129428822Y-105528108D01*
X129444179Y-105546821D01*
X129462892Y-105562178D01*
X129484242Y-105573590D01*
X129507411Y-105580619D01*
X129531696Y-105583010D01*
X129533322Y-105584175D01*
X129533126Y-105586165D01*
X129531500Y-105587000D01*
X129475138Y-105587000D01*
X129474942Y-105586990D01*
X129456634Y-105585187D01*
X129456249Y-105585111D01*
X129444544Y-105581560D01*
X129444182Y-105581410D01*
X129433392Y-105575643D01*
X129433066Y-105575425D01*
X129419043Y-105563916D01*
X129418898Y-105563784D01*
X129410022Y-105554909D01*
X129389975Y-105541514D01*
X129367701Y-105532289D01*
X129344050Y-105527585D01*
X129319944Y-105527585D01*
X129296294Y-105532290D01*
X129274021Y-105541517D01*
X129253973Y-105554912D01*
X129245097Y-105563788D01*
X129244952Y-105563920D01*
X129230934Y-105575425D01*
X129230608Y-105575643D01*
X129219818Y-105581410D01*
X129219456Y-105581560D01*
X129207751Y-105585111D01*
X129207366Y-105585187D01*
X129189058Y-105586990D01*
X129188862Y-105587000D01*
X129132500Y-105587000D01*
X129130768Y-105586000D01*
X129130768Y-105584000D01*
X129132304Y-105583010D01*
X129156589Y-105580619D01*
X129179758Y-105573590D01*
X129201108Y-105562178D01*
X129219821Y-105546821D01*
X129235178Y-105528108D01*
X129246590Y-105506758D01*
X129253619Y-105483589D01*
X129256000Y-105459406D01*
X129256000Y-104133594D01*
X129253619Y-104109411D01*
X129246590Y-104086242D01*
X129235178Y-104064892D01*
X129219821Y-104046179D01*
X129201108Y-104030822D01*
X129179758Y-104019410D01*
X129156589Y-104012381D01*
X129132304Y-104009990D01*
X129130678Y-104008825D01*
X129130874Y-104006835D01*
X129132500Y-104006000D01*
X129188862Y-104006000D01*
X129189058Y-104006010D01*
G37*
G36*
X127889058Y-104006010D02*
G01*
X127907366Y-104007813D01*
X127907751Y-104007889D01*
X127919456Y-104011440D01*
X127919818Y-104011590D01*
X127930608Y-104017357D01*
X127930934Y-104017575D01*
X127944957Y-104029084D01*
X127945102Y-104029216D01*
X127953978Y-104038091D01*
X127974025Y-104051486D01*
X127996299Y-104060711D01*
X128019950Y-104065415D01*
X128044056Y-104065415D01*
X128067706Y-104060710D01*
X128089979Y-104051483D01*
X128110027Y-104038088D01*
X128118903Y-104029212D01*
X128119048Y-104029080D01*
X128133066Y-104017575D01*
X128133392Y-104017357D01*
X128144182Y-104011590D01*
X128144544Y-104011440D01*
X128156249Y-104007889D01*
X128156634Y-104007813D01*
X128174942Y-104006010D01*
X128175138Y-104006000D01*
X128231500Y-104006000D01*
X128233232Y-104007000D01*
X128233232Y-104009000D01*
X128231696Y-104009990D01*
X128207411Y-104012381D01*
X128184242Y-104019410D01*
X128162892Y-104030822D01*
X128144179Y-104046179D01*
X128128822Y-104064892D01*
X128117410Y-104086242D01*
X128110381Y-104109411D01*
X128108000Y-104133594D01*
X128108000Y-105459406D01*
X128110381Y-105483589D01*
X128117410Y-105506758D01*
X128128822Y-105528108D01*
X128144179Y-105546821D01*
X128162892Y-105562178D01*
X128184242Y-105573590D01*
X128207411Y-105580619D01*
X128231696Y-105583010D01*
X128233322Y-105584175D01*
X128233126Y-105586165D01*
X128231500Y-105587000D01*
X128175138Y-105587000D01*
X128174942Y-105586990D01*
X128156634Y-105585187D01*
X128156249Y-105585111D01*
X128144544Y-105581560D01*
X128144182Y-105581410D01*
X128133392Y-105575643D01*
X128133066Y-105575425D01*
X128119043Y-105563916D01*
X128118898Y-105563784D01*
X128110022Y-105554909D01*
X128089975Y-105541514D01*
X128067701Y-105532289D01*
X128044050Y-105527585D01*
X128019944Y-105527585D01*
X127996294Y-105532290D01*
X127974021Y-105541517D01*
X127953973Y-105554912D01*
X127945097Y-105563788D01*
X127944952Y-105563920D01*
X127930934Y-105575425D01*
X127930608Y-105575643D01*
X127919818Y-105581410D01*
X127919456Y-105581560D01*
X127907751Y-105585111D01*
X127907366Y-105585187D01*
X127889058Y-105586990D01*
X127888862Y-105587000D01*
X127832500Y-105587000D01*
X127830768Y-105586000D01*
X127830768Y-105584000D01*
X127832304Y-105583010D01*
X127856589Y-105580619D01*
X127879758Y-105573590D01*
X127901108Y-105562178D01*
X127919821Y-105546821D01*
X127935178Y-105528108D01*
X127946590Y-105506758D01*
X127953619Y-105483589D01*
X127956000Y-105459406D01*
X127956000Y-104133594D01*
X127953619Y-104109411D01*
X127946590Y-104086242D01*
X127935178Y-104064892D01*
X127919821Y-104046179D01*
X127901108Y-104030822D01*
X127879758Y-104019410D01*
X127856589Y-104012381D01*
X127832304Y-104009990D01*
X127830678Y-104008825D01*
X127830874Y-104006835D01*
X127832500Y-104006000D01*
X127888862Y-104006000D01*
X127889058Y-104006010D01*
G37*
G36*
X126589058Y-104006010D02*
G01*
X126607366Y-104007813D01*
X126607751Y-104007889D01*
X126619456Y-104011440D01*
X126619818Y-104011590D01*
X126630608Y-104017357D01*
X126630934Y-104017575D01*
X126644957Y-104029084D01*
X126645102Y-104029216D01*
X126653978Y-104038091D01*
X126674025Y-104051486D01*
X126696299Y-104060711D01*
X126719950Y-104065415D01*
X126744056Y-104065415D01*
X126767706Y-104060710D01*
X126789979Y-104051483D01*
X126810027Y-104038088D01*
X126818903Y-104029212D01*
X126819048Y-104029080D01*
X126833066Y-104017575D01*
X126833392Y-104017357D01*
X126844182Y-104011590D01*
X126844544Y-104011440D01*
X126856249Y-104007889D01*
X126856634Y-104007813D01*
X126874942Y-104006010D01*
X126875138Y-104006000D01*
X126931500Y-104006000D01*
X126933232Y-104007000D01*
X126933232Y-104009000D01*
X126931696Y-104009990D01*
X126907411Y-104012381D01*
X126884242Y-104019410D01*
X126862892Y-104030822D01*
X126844179Y-104046179D01*
X126828822Y-104064892D01*
X126817410Y-104086242D01*
X126810381Y-104109411D01*
X126808000Y-104133594D01*
X126808000Y-105459406D01*
X126810381Y-105483589D01*
X126817410Y-105506758D01*
X126828822Y-105528108D01*
X126844179Y-105546821D01*
X126862892Y-105562178D01*
X126884242Y-105573590D01*
X126907411Y-105580619D01*
X126931696Y-105583010D01*
X126933322Y-105584175D01*
X126933126Y-105586165D01*
X126931500Y-105587000D01*
X126875138Y-105587000D01*
X126874942Y-105586990D01*
X126856634Y-105585187D01*
X126856249Y-105585111D01*
X126844544Y-105581560D01*
X126844182Y-105581410D01*
X126833392Y-105575643D01*
X126833066Y-105575425D01*
X126819043Y-105563916D01*
X126818898Y-105563784D01*
X126810022Y-105554909D01*
X126789975Y-105541514D01*
X126767701Y-105532289D01*
X126744050Y-105527585D01*
X126719944Y-105527585D01*
X126696294Y-105532290D01*
X126674021Y-105541517D01*
X126653973Y-105554912D01*
X126645097Y-105563788D01*
X126644952Y-105563920D01*
X126630934Y-105575425D01*
X126630608Y-105575643D01*
X126619818Y-105581410D01*
X126619456Y-105581560D01*
X126607751Y-105585111D01*
X126607366Y-105585187D01*
X126589058Y-105586990D01*
X126588862Y-105587000D01*
X126532500Y-105587000D01*
X126530768Y-105586000D01*
X126530768Y-105584000D01*
X126532304Y-105583010D01*
X126556589Y-105580619D01*
X126579758Y-105573590D01*
X126601108Y-105562178D01*
X126619821Y-105546821D01*
X126635178Y-105528108D01*
X126646590Y-105506758D01*
X126653619Y-105483589D01*
X126656000Y-105459406D01*
X126656000Y-104133594D01*
X126653619Y-104109411D01*
X126646590Y-104086242D01*
X126635178Y-104064892D01*
X126619821Y-104046179D01*
X126601108Y-104030822D01*
X126579758Y-104019410D01*
X126556589Y-104012381D01*
X126532304Y-104009990D01*
X126530678Y-104008825D01*
X126530874Y-104006835D01*
X126532500Y-104006000D01*
X126588862Y-104006000D01*
X126589058Y-104006010D01*
G37*
G36*
X127239058Y-104006010D02*
G01*
X127257366Y-104007813D01*
X127257751Y-104007889D01*
X127269456Y-104011440D01*
X127269818Y-104011590D01*
X127280608Y-104017357D01*
X127280934Y-104017575D01*
X127294957Y-104029084D01*
X127295102Y-104029216D01*
X127303978Y-104038091D01*
X127324025Y-104051486D01*
X127346299Y-104060711D01*
X127369950Y-104065415D01*
X127394056Y-104065415D01*
X127417706Y-104060710D01*
X127439979Y-104051483D01*
X127460027Y-104038088D01*
X127468903Y-104029212D01*
X127469048Y-104029080D01*
X127483066Y-104017575D01*
X127483392Y-104017357D01*
X127494182Y-104011590D01*
X127494544Y-104011440D01*
X127506249Y-104007889D01*
X127506634Y-104007813D01*
X127524942Y-104006010D01*
X127525138Y-104006000D01*
X127581500Y-104006000D01*
X127583232Y-104007000D01*
X127583232Y-104009000D01*
X127581696Y-104009990D01*
X127557411Y-104012381D01*
X127534242Y-104019410D01*
X127512892Y-104030822D01*
X127494179Y-104046179D01*
X127478822Y-104064892D01*
X127467410Y-104086242D01*
X127460381Y-104109411D01*
X127458000Y-104133594D01*
X127458000Y-105459406D01*
X127460381Y-105483589D01*
X127467410Y-105506758D01*
X127478822Y-105528108D01*
X127494179Y-105546821D01*
X127512892Y-105562178D01*
X127534242Y-105573590D01*
X127557411Y-105580619D01*
X127581696Y-105583010D01*
X127583322Y-105584175D01*
X127583126Y-105586165D01*
X127581500Y-105587000D01*
X127525138Y-105587000D01*
X127524942Y-105586990D01*
X127506634Y-105585187D01*
X127506249Y-105585111D01*
X127494544Y-105581560D01*
X127494182Y-105581410D01*
X127483392Y-105575643D01*
X127483066Y-105575425D01*
X127469043Y-105563916D01*
X127468898Y-105563784D01*
X127460022Y-105554909D01*
X127439975Y-105541514D01*
X127417701Y-105532289D01*
X127394050Y-105527585D01*
X127369944Y-105527585D01*
X127346294Y-105532290D01*
X127324021Y-105541517D01*
X127303973Y-105554912D01*
X127295097Y-105563788D01*
X127294952Y-105563920D01*
X127280934Y-105575425D01*
X127280608Y-105575643D01*
X127269818Y-105581410D01*
X127269456Y-105581560D01*
X127257751Y-105585111D01*
X127257366Y-105585187D01*
X127239058Y-105586990D01*
X127238862Y-105587000D01*
X127182500Y-105587000D01*
X127180768Y-105586000D01*
X127180768Y-105584000D01*
X127182304Y-105583010D01*
X127206589Y-105580619D01*
X127229758Y-105573590D01*
X127251108Y-105562178D01*
X127269821Y-105546821D01*
X127285178Y-105528108D01*
X127296590Y-105506758D01*
X127303619Y-105483589D01*
X127306000Y-105459406D01*
X127306000Y-104133594D01*
X127303619Y-104109411D01*
X127296590Y-104086242D01*
X127285178Y-104064892D01*
X127269821Y-104046179D01*
X127251108Y-104030822D01*
X127229758Y-104019410D01*
X127206589Y-104012381D01*
X127182304Y-104009990D01*
X127180678Y-104008825D01*
X127180874Y-104006835D01*
X127182500Y-104006000D01*
X127238862Y-104006000D01*
X127239058Y-104006010D01*
G37*
G36*
X125939058Y-104006010D02*
G01*
X125957366Y-104007813D01*
X125957751Y-104007889D01*
X125969456Y-104011440D01*
X125969818Y-104011590D01*
X125980608Y-104017357D01*
X125980934Y-104017575D01*
X125994957Y-104029084D01*
X125995102Y-104029216D01*
X126003978Y-104038091D01*
X126024025Y-104051486D01*
X126046299Y-104060711D01*
X126069950Y-104065415D01*
X126094056Y-104065415D01*
X126117706Y-104060710D01*
X126139979Y-104051483D01*
X126160027Y-104038088D01*
X126168903Y-104029212D01*
X126169048Y-104029080D01*
X126183066Y-104017575D01*
X126183392Y-104017357D01*
X126194182Y-104011590D01*
X126194544Y-104011440D01*
X126206249Y-104007889D01*
X126206634Y-104007813D01*
X126224942Y-104006010D01*
X126225138Y-104006000D01*
X126281500Y-104006000D01*
X126283232Y-104007000D01*
X126283232Y-104009000D01*
X126281696Y-104009990D01*
X126257411Y-104012381D01*
X126234242Y-104019410D01*
X126212892Y-104030822D01*
X126194179Y-104046179D01*
X126178822Y-104064892D01*
X126167410Y-104086242D01*
X126160381Y-104109411D01*
X126158000Y-104133594D01*
X126158000Y-105459406D01*
X126160381Y-105483589D01*
X126167410Y-105506758D01*
X126178822Y-105528108D01*
X126194179Y-105546821D01*
X126212892Y-105562178D01*
X126234242Y-105573590D01*
X126257411Y-105580619D01*
X126281696Y-105583010D01*
X126283322Y-105584175D01*
X126283126Y-105586165D01*
X126281500Y-105587000D01*
X126225138Y-105587000D01*
X126224942Y-105586990D01*
X126206634Y-105585187D01*
X126206249Y-105585111D01*
X126194544Y-105581560D01*
X126194182Y-105581410D01*
X126183392Y-105575643D01*
X126183066Y-105575425D01*
X126169043Y-105563916D01*
X126168898Y-105563784D01*
X126160022Y-105554909D01*
X126139975Y-105541514D01*
X126117701Y-105532289D01*
X126094050Y-105527585D01*
X126069944Y-105527585D01*
X126046294Y-105532290D01*
X126024021Y-105541517D01*
X126003973Y-105554912D01*
X125995097Y-105563788D01*
X125994952Y-105563920D01*
X125980934Y-105575425D01*
X125980608Y-105575643D01*
X125969818Y-105581410D01*
X125969456Y-105581560D01*
X125957751Y-105585111D01*
X125957366Y-105585187D01*
X125939058Y-105586990D01*
X125938862Y-105587000D01*
X125882500Y-105587000D01*
X125880768Y-105586000D01*
X125880768Y-105584000D01*
X125882304Y-105583010D01*
X125906589Y-105580619D01*
X125929758Y-105573590D01*
X125951108Y-105562178D01*
X125969821Y-105546821D01*
X125985178Y-105528108D01*
X125996590Y-105506758D01*
X126003619Y-105483589D01*
X126006000Y-105459406D01*
X126006000Y-104133594D01*
X126003619Y-104109411D01*
X125996590Y-104086242D01*
X125985178Y-104064892D01*
X125969821Y-104046179D01*
X125951108Y-104030822D01*
X125929758Y-104019410D01*
X125906589Y-104012381D01*
X125882304Y-104009990D01*
X125880678Y-104008825D01*
X125880874Y-104006835D01*
X125882500Y-104006000D01*
X125938862Y-104006000D01*
X125939058Y-104006010D01*
G37*
G36*
X129839058Y-104006010D02*
G01*
X129857366Y-104007813D01*
X129857751Y-104007889D01*
X129869456Y-104011440D01*
X129869818Y-104011590D01*
X129880608Y-104017357D01*
X129880934Y-104017575D01*
X129894957Y-104029084D01*
X129895102Y-104029216D01*
X129903978Y-104038091D01*
X129924025Y-104051486D01*
X129946299Y-104060711D01*
X129969950Y-104065415D01*
X129994056Y-104065415D01*
X130017706Y-104060710D01*
X130039979Y-104051483D01*
X130060027Y-104038088D01*
X130068903Y-104029212D01*
X130069048Y-104029080D01*
X130083066Y-104017575D01*
X130083392Y-104017357D01*
X130094182Y-104011590D01*
X130094544Y-104011440D01*
X130106249Y-104007889D01*
X130106634Y-104007813D01*
X130124942Y-104006010D01*
X130125138Y-104006000D01*
X130181500Y-104006000D01*
X130183232Y-104007000D01*
X130183232Y-104009000D01*
X130181696Y-104009990D01*
X130157411Y-104012381D01*
X130134242Y-104019410D01*
X130112892Y-104030822D01*
X130094179Y-104046179D01*
X130078822Y-104064892D01*
X130067410Y-104086242D01*
X130060381Y-104109411D01*
X130058000Y-104133594D01*
X130058000Y-105459406D01*
X130060381Y-105483589D01*
X130067410Y-105506758D01*
X130078822Y-105528108D01*
X130094179Y-105546821D01*
X130112892Y-105562178D01*
X130134242Y-105573590D01*
X130157411Y-105580619D01*
X130181696Y-105583010D01*
X130183322Y-105584175D01*
X130183126Y-105586165D01*
X130181500Y-105587000D01*
X130125138Y-105587000D01*
X130124942Y-105586990D01*
X130106634Y-105585187D01*
X130106249Y-105585111D01*
X130094544Y-105581560D01*
X130094182Y-105581410D01*
X130083392Y-105575643D01*
X130083066Y-105575425D01*
X130069043Y-105563916D01*
X130068898Y-105563784D01*
X130060022Y-105554909D01*
X130039975Y-105541514D01*
X130017701Y-105532289D01*
X129994050Y-105527585D01*
X129969944Y-105527585D01*
X129946294Y-105532290D01*
X129924021Y-105541517D01*
X129903973Y-105554912D01*
X129895097Y-105563788D01*
X129894952Y-105563920D01*
X129880934Y-105575425D01*
X129880608Y-105575643D01*
X129869818Y-105581410D01*
X129869456Y-105581560D01*
X129857751Y-105585111D01*
X129857366Y-105585187D01*
X129839058Y-105586990D01*
X129838862Y-105587000D01*
X129782500Y-105587000D01*
X129780768Y-105586000D01*
X129780768Y-105584000D01*
X129782304Y-105583010D01*
X129806589Y-105580619D01*
X129829758Y-105573590D01*
X129851108Y-105562178D01*
X129869821Y-105546821D01*
X129885178Y-105528108D01*
X129896590Y-105506758D01*
X129903619Y-105483589D01*
X129906000Y-105459406D01*
X129906000Y-104133594D01*
X129903619Y-104109411D01*
X129896590Y-104086242D01*
X129885178Y-104064892D01*
X129869821Y-104046179D01*
X129851108Y-104030822D01*
X129829758Y-104019410D01*
X129806589Y-104012381D01*
X129782304Y-104009990D01*
X129780678Y-104008825D01*
X129780874Y-104006835D01*
X129782500Y-104006000D01*
X129838862Y-104006000D01*
X129839058Y-104006010D01*
G37*
G36*
X128539058Y-104006010D02*
G01*
X128557366Y-104007813D01*
X128557751Y-104007889D01*
X128569456Y-104011440D01*
X128569818Y-104011590D01*
X128580608Y-104017357D01*
X128580934Y-104017575D01*
X128594957Y-104029084D01*
X128595102Y-104029216D01*
X128603978Y-104038091D01*
X128624025Y-104051486D01*
X128646299Y-104060711D01*
X128669950Y-104065415D01*
X128694056Y-104065415D01*
X128717706Y-104060710D01*
X128739979Y-104051483D01*
X128760027Y-104038088D01*
X128768903Y-104029212D01*
X128769048Y-104029080D01*
X128783066Y-104017575D01*
X128783392Y-104017357D01*
X128794182Y-104011590D01*
X128794544Y-104011440D01*
X128806249Y-104007889D01*
X128806634Y-104007813D01*
X128824942Y-104006010D01*
X128825138Y-104006000D01*
X128881500Y-104006000D01*
X128883232Y-104007000D01*
X128883232Y-104009000D01*
X128881696Y-104009990D01*
X128857411Y-104012381D01*
X128834242Y-104019410D01*
X128812892Y-104030822D01*
X128794179Y-104046179D01*
X128778822Y-104064892D01*
X128767410Y-104086242D01*
X128760381Y-104109411D01*
X128758000Y-104133594D01*
X128758000Y-105459406D01*
X128760381Y-105483589D01*
X128767410Y-105506758D01*
X128778822Y-105528108D01*
X128794179Y-105546821D01*
X128812892Y-105562178D01*
X128834242Y-105573590D01*
X128857411Y-105580619D01*
X128881696Y-105583010D01*
X128883322Y-105584175D01*
X128883126Y-105586165D01*
X128881500Y-105587000D01*
X128825138Y-105587000D01*
X128824942Y-105586990D01*
X128806634Y-105585187D01*
X128806249Y-105585111D01*
X128794544Y-105581560D01*
X128794182Y-105581410D01*
X128783392Y-105575643D01*
X128783066Y-105575425D01*
X128769043Y-105563916D01*
X128768898Y-105563784D01*
X128760022Y-105554909D01*
X128739975Y-105541514D01*
X128717701Y-105532289D01*
X128694050Y-105527585D01*
X128669944Y-105527585D01*
X128646294Y-105532290D01*
X128624021Y-105541517D01*
X128603973Y-105554912D01*
X128595097Y-105563788D01*
X128594952Y-105563920D01*
X128580934Y-105575425D01*
X128580608Y-105575643D01*
X128569818Y-105581410D01*
X128569456Y-105581560D01*
X128557751Y-105585111D01*
X128557366Y-105585187D01*
X128539058Y-105586990D01*
X128538862Y-105587000D01*
X128482500Y-105587000D01*
X128480768Y-105586000D01*
X128480768Y-105584000D01*
X128482304Y-105583010D01*
X128506589Y-105580619D01*
X128529758Y-105573590D01*
X128551108Y-105562178D01*
X128569821Y-105546821D01*
X128585178Y-105528108D01*
X128596590Y-105506758D01*
X128603619Y-105483589D01*
X128606000Y-105459406D01*
X128606000Y-104133594D01*
X128603619Y-104109411D01*
X128596590Y-104086242D01*
X128585178Y-104064892D01*
X128569821Y-104046179D01*
X128551108Y-104030822D01*
X128529758Y-104019410D01*
X128506589Y-104012381D01*
X128482304Y-104009990D01*
X128480678Y-104008825D01*
X128480874Y-104006835D01*
X128482500Y-104006000D01*
X128538862Y-104006000D01*
X128539058Y-104006010D01*
G37*
G36*
X124639058Y-104006010D02*
G01*
X124657366Y-104007813D01*
X124657751Y-104007889D01*
X124669456Y-104011440D01*
X124669818Y-104011590D01*
X124680608Y-104017357D01*
X124680934Y-104017575D01*
X124694957Y-104029084D01*
X124695102Y-104029216D01*
X124703978Y-104038091D01*
X124724025Y-104051486D01*
X124746299Y-104060711D01*
X124769950Y-104065415D01*
X124794056Y-104065415D01*
X124817706Y-104060710D01*
X124839979Y-104051483D01*
X124860027Y-104038088D01*
X124868903Y-104029212D01*
X124869048Y-104029080D01*
X124883066Y-104017575D01*
X124883392Y-104017357D01*
X124894182Y-104011590D01*
X124894544Y-104011440D01*
X124906249Y-104007889D01*
X124906634Y-104007813D01*
X124924942Y-104006010D01*
X124925138Y-104006000D01*
X124981500Y-104006000D01*
X124983232Y-104007000D01*
X124983232Y-104009000D01*
X124981696Y-104009990D01*
X124957411Y-104012381D01*
X124934242Y-104019410D01*
X124912892Y-104030822D01*
X124894179Y-104046179D01*
X124878822Y-104064892D01*
X124867410Y-104086242D01*
X124860381Y-104109411D01*
X124858000Y-104133594D01*
X124858000Y-105459406D01*
X124860381Y-105483589D01*
X124867410Y-105506758D01*
X124878822Y-105528108D01*
X124894179Y-105546821D01*
X124912892Y-105562178D01*
X124934242Y-105573590D01*
X124957411Y-105580619D01*
X124981696Y-105583010D01*
X124983322Y-105584175D01*
X124983126Y-105586165D01*
X124981500Y-105587000D01*
X124925138Y-105587000D01*
X124924942Y-105586990D01*
X124906634Y-105585187D01*
X124906249Y-105585111D01*
X124894544Y-105581560D01*
X124894182Y-105581410D01*
X124883392Y-105575643D01*
X124883066Y-105575425D01*
X124869043Y-105563916D01*
X124868898Y-105563784D01*
X124860022Y-105554909D01*
X124839975Y-105541514D01*
X124817701Y-105532289D01*
X124794050Y-105527585D01*
X124769944Y-105527585D01*
X124746294Y-105532290D01*
X124724021Y-105541517D01*
X124703973Y-105554912D01*
X124695097Y-105563788D01*
X124694952Y-105563920D01*
X124680934Y-105575425D01*
X124680608Y-105575643D01*
X124669818Y-105581410D01*
X124669456Y-105581560D01*
X124657751Y-105585111D01*
X124657366Y-105585187D01*
X124639058Y-105586990D01*
X124638862Y-105587000D01*
X124582500Y-105587000D01*
X124580768Y-105586000D01*
X124580768Y-105584000D01*
X124582304Y-105583010D01*
X124606589Y-105580619D01*
X124629758Y-105573590D01*
X124651108Y-105562178D01*
X124669821Y-105546821D01*
X124685178Y-105528108D01*
X124696590Y-105506758D01*
X124703619Y-105483589D01*
X124706000Y-105459406D01*
X124706000Y-104133594D01*
X124703619Y-104109411D01*
X124696590Y-104086242D01*
X124685178Y-104064892D01*
X124669821Y-104046179D01*
X124651108Y-104030822D01*
X124629758Y-104019410D01*
X124606589Y-104012381D01*
X124582304Y-104009990D01*
X124580678Y-104008825D01*
X124580874Y-104006835D01*
X124582500Y-104006000D01*
X124638862Y-104006000D01*
X124639058Y-104006010D01*
G37*
G36*
X125289058Y-104006010D02*
G01*
X125307366Y-104007813D01*
X125307751Y-104007889D01*
X125319456Y-104011440D01*
X125319818Y-104011590D01*
X125330608Y-104017357D01*
X125330934Y-104017575D01*
X125344957Y-104029084D01*
X125345102Y-104029216D01*
X125353978Y-104038091D01*
X125374025Y-104051486D01*
X125396299Y-104060711D01*
X125419950Y-104065415D01*
X125444056Y-104065415D01*
X125467706Y-104060710D01*
X125489979Y-104051483D01*
X125510027Y-104038088D01*
X125518903Y-104029212D01*
X125519048Y-104029080D01*
X125533066Y-104017575D01*
X125533392Y-104017357D01*
X125544182Y-104011590D01*
X125544544Y-104011440D01*
X125556249Y-104007889D01*
X125556634Y-104007813D01*
X125574942Y-104006010D01*
X125575138Y-104006000D01*
X125631500Y-104006000D01*
X125633232Y-104007000D01*
X125633232Y-104009000D01*
X125631696Y-104009990D01*
X125607411Y-104012381D01*
X125584242Y-104019410D01*
X125562892Y-104030822D01*
X125544179Y-104046179D01*
X125528822Y-104064892D01*
X125517410Y-104086242D01*
X125510381Y-104109411D01*
X125508000Y-104133594D01*
X125508000Y-105459406D01*
X125510381Y-105483589D01*
X125517410Y-105506758D01*
X125528822Y-105528108D01*
X125544179Y-105546821D01*
X125562892Y-105562178D01*
X125584242Y-105573590D01*
X125607411Y-105580619D01*
X125631696Y-105583010D01*
X125633322Y-105584175D01*
X125633126Y-105586165D01*
X125631500Y-105587000D01*
X125575138Y-105587000D01*
X125574942Y-105586990D01*
X125556634Y-105585187D01*
X125556249Y-105585111D01*
X125544544Y-105581560D01*
X125544182Y-105581410D01*
X125533392Y-105575643D01*
X125533066Y-105575425D01*
X125519043Y-105563916D01*
X125518898Y-105563784D01*
X125510022Y-105554909D01*
X125489975Y-105541514D01*
X125467701Y-105532289D01*
X125444050Y-105527585D01*
X125419944Y-105527585D01*
X125396294Y-105532290D01*
X125374021Y-105541517D01*
X125353973Y-105554912D01*
X125345097Y-105563788D01*
X125344952Y-105563920D01*
X125330934Y-105575425D01*
X125330608Y-105575643D01*
X125319818Y-105581410D01*
X125319456Y-105581560D01*
X125307751Y-105585111D01*
X125307366Y-105585187D01*
X125289058Y-105586990D01*
X125288862Y-105587000D01*
X125232500Y-105587000D01*
X125230768Y-105586000D01*
X125230768Y-105584000D01*
X125232304Y-105583010D01*
X125256589Y-105580619D01*
X125279758Y-105573590D01*
X125301108Y-105562178D01*
X125319821Y-105546821D01*
X125335178Y-105528108D01*
X125346590Y-105506758D01*
X125353619Y-105483589D01*
X125356000Y-105459406D01*
X125356000Y-104133594D01*
X125353619Y-104109411D01*
X125346590Y-104086242D01*
X125335178Y-104064892D01*
X125319821Y-104046179D01*
X125301108Y-104030822D01*
X125279758Y-104019410D01*
X125256589Y-104012381D01*
X125232304Y-104009990D01*
X125230678Y-104008825D01*
X125230874Y-104006835D01*
X125232500Y-104006000D01*
X125288862Y-104006000D01*
X125289058Y-104006010D01*
G37*
G36*
X125939058Y-98281010D02*
G01*
X125957366Y-98282813D01*
X125957751Y-98282889D01*
X125969456Y-98286440D01*
X125969818Y-98286590D01*
X125980608Y-98292357D01*
X125980934Y-98292575D01*
X125994957Y-98304084D01*
X125995102Y-98304216D01*
X126003978Y-98313091D01*
X126024025Y-98326486D01*
X126046299Y-98335711D01*
X126069950Y-98340415D01*
X126094056Y-98340415D01*
X126117706Y-98335710D01*
X126139979Y-98326483D01*
X126160027Y-98313088D01*
X126168903Y-98304212D01*
X126169048Y-98304080D01*
X126183066Y-98292575D01*
X126183392Y-98292357D01*
X126194182Y-98286590D01*
X126194544Y-98286440D01*
X126206249Y-98282889D01*
X126206634Y-98282813D01*
X126224942Y-98281010D01*
X126225138Y-98281000D01*
X126281500Y-98281000D01*
X126283232Y-98282000D01*
X126283232Y-98284000D01*
X126281696Y-98284990D01*
X126257411Y-98287381D01*
X126234242Y-98294410D01*
X126212892Y-98305822D01*
X126194179Y-98321179D01*
X126178822Y-98339892D01*
X126167410Y-98361242D01*
X126160381Y-98384411D01*
X126158000Y-98408594D01*
X126158000Y-99734406D01*
X126160381Y-99758589D01*
X126167410Y-99781758D01*
X126178822Y-99803108D01*
X126194179Y-99821821D01*
X126212892Y-99837178D01*
X126234242Y-99848590D01*
X126257411Y-99855619D01*
X126281696Y-99858010D01*
X126283322Y-99859175D01*
X126283126Y-99861165D01*
X126281500Y-99862000D01*
X126225138Y-99862000D01*
X126224942Y-99861990D01*
X126206634Y-99860187D01*
X126206249Y-99860111D01*
X126194544Y-99856560D01*
X126194182Y-99856410D01*
X126183392Y-99850643D01*
X126183066Y-99850425D01*
X126169043Y-99838916D01*
X126168898Y-99838784D01*
X126160022Y-99829909D01*
X126139975Y-99816514D01*
X126117701Y-99807289D01*
X126094050Y-99802585D01*
X126069944Y-99802585D01*
X126046294Y-99807290D01*
X126024021Y-99816517D01*
X126003973Y-99829912D01*
X125995097Y-99838788D01*
X125994952Y-99838920D01*
X125980934Y-99850425D01*
X125980608Y-99850643D01*
X125969818Y-99856410D01*
X125969456Y-99856560D01*
X125957751Y-99860111D01*
X125957366Y-99860187D01*
X125939058Y-99861990D01*
X125938862Y-99862000D01*
X125882500Y-99862000D01*
X125880768Y-99861000D01*
X125880768Y-99859000D01*
X125882304Y-99858010D01*
X125906589Y-99855619D01*
X125929758Y-99848590D01*
X125951108Y-99837178D01*
X125969821Y-99821821D01*
X125985178Y-99803108D01*
X125996590Y-99781758D01*
X126003619Y-99758589D01*
X126006000Y-99734406D01*
X126006000Y-98408594D01*
X126003619Y-98384411D01*
X125996590Y-98361242D01*
X125985178Y-98339892D01*
X125969821Y-98321179D01*
X125951108Y-98305822D01*
X125929758Y-98294410D01*
X125906589Y-98287381D01*
X125882304Y-98284990D01*
X125880678Y-98283825D01*
X125880874Y-98281835D01*
X125882500Y-98281000D01*
X125938862Y-98281000D01*
X125939058Y-98281010D01*
G37*
G36*
X124639058Y-98281010D02*
G01*
X124657366Y-98282813D01*
X124657751Y-98282889D01*
X124669456Y-98286440D01*
X124669818Y-98286590D01*
X124680608Y-98292357D01*
X124680934Y-98292575D01*
X124694957Y-98304084D01*
X124695102Y-98304216D01*
X124703978Y-98313091D01*
X124724025Y-98326486D01*
X124746299Y-98335711D01*
X124769950Y-98340415D01*
X124794056Y-98340415D01*
X124817706Y-98335710D01*
X124839979Y-98326483D01*
X124860027Y-98313088D01*
X124868903Y-98304212D01*
X124869048Y-98304080D01*
X124883066Y-98292575D01*
X124883392Y-98292357D01*
X124894182Y-98286590D01*
X124894544Y-98286440D01*
X124906249Y-98282889D01*
X124906634Y-98282813D01*
X124924942Y-98281010D01*
X124925138Y-98281000D01*
X124981500Y-98281000D01*
X124983232Y-98282000D01*
X124983232Y-98284000D01*
X124981696Y-98284990D01*
X124957411Y-98287381D01*
X124934242Y-98294410D01*
X124912892Y-98305822D01*
X124894179Y-98321179D01*
X124878822Y-98339892D01*
X124867410Y-98361242D01*
X124860381Y-98384411D01*
X124858000Y-98408594D01*
X124858000Y-99734406D01*
X124860381Y-99758589D01*
X124867410Y-99781758D01*
X124878822Y-99803108D01*
X124894179Y-99821821D01*
X124912892Y-99837178D01*
X124934242Y-99848590D01*
X124957411Y-99855619D01*
X124981696Y-99858010D01*
X124983322Y-99859175D01*
X124983126Y-99861165D01*
X124981500Y-99862000D01*
X124925138Y-99862000D01*
X124924942Y-99861990D01*
X124906634Y-99860187D01*
X124906249Y-99860111D01*
X124894544Y-99856560D01*
X124894182Y-99856410D01*
X124883392Y-99850643D01*
X124883066Y-99850425D01*
X124869043Y-99838916D01*
X124868898Y-99838784D01*
X124860022Y-99829909D01*
X124839975Y-99816514D01*
X124817701Y-99807289D01*
X124794050Y-99802585D01*
X124769944Y-99802585D01*
X124746294Y-99807290D01*
X124724021Y-99816517D01*
X124703973Y-99829912D01*
X124695097Y-99838788D01*
X124694952Y-99838920D01*
X124680934Y-99850425D01*
X124680608Y-99850643D01*
X124669818Y-99856410D01*
X124669456Y-99856560D01*
X124657751Y-99860111D01*
X124657366Y-99860187D01*
X124639058Y-99861990D01*
X124638862Y-99862000D01*
X124582500Y-99862000D01*
X124580768Y-99861000D01*
X124580768Y-99859000D01*
X124582304Y-99858010D01*
X124606589Y-99855619D01*
X124629758Y-99848590D01*
X124651108Y-99837178D01*
X124669821Y-99821821D01*
X124685178Y-99803108D01*
X124696590Y-99781758D01*
X124703619Y-99758589D01*
X124706000Y-99734406D01*
X124706000Y-98408594D01*
X124703619Y-98384411D01*
X124696590Y-98361242D01*
X124685178Y-98339892D01*
X124669821Y-98321179D01*
X124651108Y-98305822D01*
X124629758Y-98294410D01*
X124606589Y-98287381D01*
X124582304Y-98284990D01*
X124580678Y-98283825D01*
X124580874Y-98281835D01*
X124582500Y-98281000D01*
X124638862Y-98281000D01*
X124639058Y-98281010D01*
G37*
G36*
X126589058Y-98281010D02*
G01*
X126607366Y-98282813D01*
X126607751Y-98282889D01*
X126619456Y-98286440D01*
X126619818Y-98286590D01*
X126630608Y-98292357D01*
X126630934Y-98292575D01*
X126644957Y-98304084D01*
X126645102Y-98304216D01*
X126653978Y-98313091D01*
X126674025Y-98326486D01*
X126696299Y-98335711D01*
X126719950Y-98340415D01*
X126744056Y-98340415D01*
X126767706Y-98335710D01*
X126789979Y-98326483D01*
X126810027Y-98313088D01*
X126818903Y-98304212D01*
X126819048Y-98304080D01*
X126833066Y-98292575D01*
X126833392Y-98292357D01*
X126844182Y-98286590D01*
X126844544Y-98286440D01*
X126856249Y-98282889D01*
X126856634Y-98282813D01*
X126874942Y-98281010D01*
X126875138Y-98281000D01*
X126931500Y-98281000D01*
X126933232Y-98282000D01*
X126933232Y-98284000D01*
X126931696Y-98284990D01*
X126907411Y-98287381D01*
X126884242Y-98294410D01*
X126862892Y-98305822D01*
X126844179Y-98321179D01*
X126828822Y-98339892D01*
X126817410Y-98361242D01*
X126810381Y-98384411D01*
X126808000Y-98408594D01*
X126808000Y-99734406D01*
X126810381Y-99758589D01*
X126817410Y-99781758D01*
X126828822Y-99803108D01*
X126844179Y-99821821D01*
X126862892Y-99837178D01*
X126884242Y-99848590D01*
X126907411Y-99855619D01*
X126931696Y-99858010D01*
X126933322Y-99859175D01*
X126933126Y-99861165D01*
X126931500Y-99862000D01*
X126875138Y-99862000D01*
X126874942Y-99861990D01*
X126856634Y-99860187D01*
X126856249Y-99860111D01*
X126844544Y-99856560D01*
X126844182Y-99856410D01*
X126833392Y-99850643D01*
X126833066Y-99850425D01*
X126819043Y-99838916D01*
X126818898Y-99838784D01*
X126810022Y-99829909D01*
X126789975Y-99816514D01*
X126767701Y-99807289D01*
X126744050Y-99802585D01*
X126719944Y-99802585D01*
X126696294Y-99807290D01*
X126674021Y-99816517D01*
X126653973Y-99829912D01*
X126645097Y-99838788D01*
X126644952Y-99838920D01*
X126630934Y-99850425D01*
X126630608Y-99850643D01*
X126619818Y-99856410D01*
X126619456Y-99856560D01*
X126607751Y-99860111D01*
X126607366Y-99860187D01*
X126589058Y-99861990D01*
X126588862Y-99862000D01*
X126532500Y-99862000D01*
X126530768Y-99861000D01*
X126530768Y-99859000D01*
X126532304Y-99858010D01*
X126556589Y-99855619D01*
X126579758Y-99848590D01*
X126601108Y-99837178D01*
X126619821Y-99821821D01*
X126635178Y-99803108D01*
X126646590Y-99781758D01*
X126653619Y-99758589D01*
X126656000Y-99734406D01*
X126656000Y-98408594D01*
X126653619Y-98384411D01*
X126646590Y-98361242D01*
X126635178Y-98339892D01*
X126619821Y-98321179D01*
X126601108Y-98305822D01*
X126579758Y-98294410D01*
X126556589Y-98287381D01*
X126532304Y-98284990D01*
X126530678Y-98283825D01*
X126530874Y-98281835D01*
X126532500Y-98281000D01*
X126588862Y-98281000D01*
X126589058Y-98281010D01*
G37*
G36*
X127239058Y-98281010D02*
G01*
X127257366Y-98282813D01*
X127257751Y-98282889D01*
X127269456Y-98286440D01*
X127269818Y-98286590D01*
X127280608Y-98292357D01*
X127280934Y-98292575D01*
X127294957Y-98304084D01*
X127295102Y-98304216D01*
X127303978Y-98313091D01*
X127324025Y-98326486D01*
X127346299Y-98335711D01*
X127369950Y-98340415D01*
X127394056Y-98340415D01*
X127417706Y-98335710D01*
X127439979Y-98326483D01*
X127460027Y-98313088D01*
X127468903Y-98304212D01*
X127469048Y-98304080D01*
X127483066Y-98292575D01*
X127483392Y-98292357D01*
X127494182Y-98286590D01*
X127494544Y-98286440D01*
X127506249Y-98282889D01*
X127506634Y-98282813D01*
X127524942Y-98281010D01*
X127525138Y-98281000D01*
X127581500Y-98281000D01*
X127583232Y-98282000D01*
X127583232Y-98284000D01*
X127581696Y-98284990D01*
X127557411Y-98287381D01*
X127534242Y-98294410D01*
X127512892Y-98305822D01*
X127494179Y-98321179D01*
X127478822Y-98339892D01*
X127467410Y-98361242D01*
X127460381Y-98384411D01*
X127458000Y-98408594D01*
X127458000Y-99734406D01*
X127460381Y-99758589D01*
X127467410Y-99781758D01*
X127478822Y-99803108D01*
X127494179Y-99821821D01*
X127512892Y-99837178D01*
X127534242Y-99848590D01*
X127557411Y-99855619D01*
X127581696Y-99858010D01*
X127583322Y-99859175D01*
X127583126Y-99861165D01*
X127581500Y-99862000D01*
X127525138Y-99862000D01*
X127524942Y-99861990D01*
X127506634Y-99860187D01*
X127506249Y-99860111D01*
X127494544Y-99856560D01*
X127494182Y-99856410D01*
X127483392Y-99850643D01*
X127483066Y-99850425D01*
X127469043Y-99838916D01*
X127468898Y-99838784D01*
X127460022Y-99829909D01*
X127439975Y-99816514D01*
X127417701Y-99807289D01*
X127394050Y-99802585D01*
X127369944Y-99802585D01*
X127346294Y-99807290D01*
X127324021Y-99816517D01*
X127303973Y-99829912D01*
X127295097Y-99838788D01*
X127294952Y-99838920D01*
X127280934Y-99850425D01*
X127280608Y-99850643D01*
X127269818Y-99856410D01*
X127269456Y-99856560D01*
X127257751Y-99860111D01*
X127257366Y-99860187D01*
X127239058Y-99861990D01*
X127238862Y-99862000D01*
X127182500Y-99862000D01*
X127180768Y-99861000D01*
X127180768Y-99859000D01*
X127182304Y-99858010D01*
X127206589Y-99855619D01*
X127229758Y-99848590D01*
X127251108Y-99837178D01*
X127269821Y-99821821D01*
X127285178Y-99803108D01*
X127296590Y-99781758D01*
X127303619Y-99758589D01*
X127306000Y-99734406D01*
X127306000Y-98408594D01*
X127303619Y-98384411D01*
X127296590Y-98361242D01*
X127285178Y-98339892D01*
X127269821Y-98321179D01*
X127251108Y-98305822D01*
X127229758Y-98294410D01*
X127206589Y-98287381D01*
X127182304Y-98284990D01*
X127180678Y-98283825D01*
X127180874Y-98281835D01*
X127182500Y-98281000D01*
X127238862Y-98281000D01*
X127239058Y-98281010D01*
G37*
G36*
X125289058Y-98281010D02*
G01*
X125307366Y-98282813D01*
X125307751Y-98282889D01*
X125319456Y-98286440D01*
X125319818Y-98286590D01*
X125330608Y-98292357D01*
X125330934Y-98292575D01*
X125344957Y-98304084D01*
X125345102Y-98304216D01*
X125353978Y-98313091D01*
X125374025Y-98326486D01*
X125396299Y-98335711D01*
X125419950Y-98340415D01*
X125444056Y-98340415D01*
X125467706Y-98335710D01*
X125489979Y-98326483D01*
X125510027Y-98313088D01*
X125518903Y-98304212D01*
X125519048Y-98304080D01*
X125533066Y-98292575D01*
X125533392Y-98292357D01*
X125544182Y-98286590D01*
X125544544Y-98286440D01*
X125556249Y-98282889D01*
X125556634Y-98282813D01*
X125574942Y-98281010D01*
X125575138Y-98281000D01*
X125631500Y-98281000D01*
X125633232Y-98282000D01*
X125633232Y-98284000D01*
X125631696Y-98284990D01*
X125607411Y-98287381D01*
X125584242Y-98294410D01*
X125562892Y-98305822D01*
X125544179Y-98321179D01*
X125528822Y-98339892D01*
X125517410Y-98361242D01*
X125510381Y-98384411D01*
X125508000Y-98408594D01*
X125508000Y-99734406D01*
X125510381Y-99758589D01*
X125517410Y-99781758D01*
X125528822Y-99803108D01*
X125544179Y-99821821D01*
X125562892Y-99837178D01*
X125584242Y-99848590D01*
X125607411Y-99855619D01*
X125631696Y-99858010D01*
X125633322Y-99859175D01*
X125633126Y-99861165D01*
X125631500Y-99862000D01*
X125575138Y-99862000D01*
X125574942Y-99861990D01*
X125556634Y-99860187D01*
X125556249Y-99860111D01*
X125544544Y-99856560D01*
X125544182Y-99856410D01*
X125533392Y-99850643D01*
X125533066Y-99850425D01*
X125519043Y-99838916D01*
X125518898Y-99838784D01*
X125510022Y-99829909D01*
X125489975Y-99816514D01*
X125467701Y-99807289D01*
X125444050Y-99802585D01*
X125419944Y-99802585D01*
X125396294Y-99807290D01*
X125374021Y-99816517D01*
X125353973Y-99829912D01*
X125345097Y-99838788D01*
X125344952Y-99838920D01*
X125330934Y-99850425D01*
X125330608Y-99850643D01*
X125319818Y-99856410D01*
X125319456Y-99856560D01*
X125307751Y-99860111D01*
X125307366Y-99860187D01*
X125289058Y-99861990D01*
X125288862Y-99862000D01*
X125232500Y-99862000D01*
X125230768Y-99861000D01*
X125230768Y-99859000D01*
X125232304Y-99858010D01*
X125256589Y-99855619D01*
X125279758Y-99848590D01*
X125301108Y-99837178D01*
X125319821Y-99821821D01*
X125335178Y-99803108D01*
X125346590Y-99781758D01*
X125353619Y-99758589D01*
X125356000Y-99734406D01*
X125356000Y-98408594D01*
X125353619Y-98384411D01*
X125346590Y-98361242D01*
X125335178Y-98339892D01*
X125319821Y-98321179D01*
X125301108Y-98305822D01*
X125279758Y-98294410D01*
X125256589Y-98287381D01*
X125232304Y-98284990D01*
X125230678Y-98283825D01*
X125230874Y-98281835D01*
X125232500Y-98281000D01*
X125288862Y-98281000D01*
X125289058Y-98281010D01*
G37*
G36*
X128539058Y-98281010D02*
G01*
X128557366Y-98282813D01*
X128557751Y-98282889D01*
X128569456Y-98286440D01*
X128569818Y-98286590D01*
X128580608Y-98292357D01*
X128580934Y-98292575D01*
X128594957Y-98304084D01*
X128595102Y-98304216D01*
X128603978Y-98313091D01*
X128624025Y-98326486D01*
X128646299Y-98335711D01*
X128669950Y-98340415D01*
X128694056Y-98340415D01*
X128717706Y-98335710D01*
X128739979Y-98326483D01*
X128760027Y-98313088D01*
X128768903Y-98304212D01*
X128769048Y-98304080D01*
X128783066Y-98292575D01*
X128783392Y-98292357D01*
X128794182Y-98286590D01*
X128794544Y-98286440D01*
X128806249Y-98282889D01*
X128806634Y-98282813D01*
X128824942Y-98281010D01*
X128825138Y-98281000D01*
X128881500Y-98281000D01*
X128883232Y-98282000D01*
X128883232Y-98284000D01*
X128881696Y-98284990D01*
X128857411Y-98287381D01*
X128834242Y-98294410D01*
X128812892Y-98305822D01*
X128794179Y-98321179D01*
X128778822Y-98339892D01*
X128767410Y-98361242D01*
X128760381Y-98384411D01*
X128758000Y-98408594D01*
X128758000Y-99734406D01*
X128760381Y-99758589D01*
X128767410Y-99781758D01*
X128778822Y-99803108D01*
X128794179Y-99821821D01*
X128812892Y-99837178D01*
X128834242Y-99848590D01*
X128857411Y-99855619D01*
X128881696Y-99858010D01*
X128883322Y-99859175D01*
X128883126Y-99861165D01*
X128881500Y-99862000D01*
X128825138Y-99862000D01*
X128824942Y-99861990D01*
X128806634Y-99860187D01*
X128806249Y-99860111D01*
X128794544Y-99856560D01*
X128794182Y-99856410D01*
X128783392Y-99850643D01*
X128783066Y-99850425D01*
X128769043Y-99838916D01*
X128768898Y-99838784D01*
X128760022Y-99829909D01*
X128739975Y-99816514D01*
X128717701Y-99807289D01*
X128694050Y-99802585D01*
X128669944Y-99802585D01*
X128646294Y-99807290D01*
X128624021Y-99816517D01*
X128603973Y-99829912D01*
X128595097Y-99838788D01*
X128594952Y-99838920D01*
X128580934Y-99850425D01*
X128580608Y-99850643D01*
X128569818Y-99856410D01*
X128569456Y-99856560D01*
X128557751Y-99860111D01*
X128557366Y-99860187D01*
X128539058Y-99861990D01*
X128538862Y-99862000D01*
X128482500Y-99862000D01*
X128480768Y-99861000D01*
X128480768Y-99859000D01*
X128482304Y-99858010D01*
X128506589Y-99855619D01*
X128529758Y-99848590D01*
X128551108Y-99837178D01*
X128569821Y-99821821D01*
X128585178Y-99803108D01*
X128596590Y-99781758D01*
X128603619Y-99758589D01*
X128606000Y-99734406D01*
X128606000Y-98408594D01*
X128603619Y-98384411D01*
X128596590Y-98361242D01*
X128585178Y-98339892D01*
X128569821Y-98321179D01*
X128551108Y-98305822D01*
X128529758Y-98294410D01*
X128506589Y-98287381D01*
X128482304Y-98284990D01*
X128480678Y-98283825D01*
X128480874Y-98281835D01*
X128482500Y-98281000D01*
X128538862Y-98281000D01*
X128539058Y-98281010D01*
G37*
G36*
X129839058Y-98281010D02*
G01*
X129857366Y-98282813D01*
X129857751Y-98282889D01*
X129869456Y-98286440D01*
X129869818Y-98286590D01*
X129880608Y-98292357D01*
X129880934Y-98292575D01*
X129894957Y-98304084D01*
X129895102Y-98304216D01*
X129903978Y-98313091D01*
X129924025Y-98326486D01*
X129946299Y-98335711D01*
X129969950Y-98340415D01*
X129994056Y-98340415D01*
X130017706Y-98335710D01*
X130039979Y-98326483D01*
X130060027Y-98313088D01*
X130068903Y-98304212D01*
X130069048Y-98304080D01*
X130083066Y-98292575D01*
X130083392Y-98292357D01*
X130094182Y-98286590D01*
X130094544Y-98286440D01*
X130106249Y-98282889D01*
X130106634Y-98282813D01*
X130124942Y-98281010D01*
X130125138Y-98281000D01*
X130181500Y-98281000D01*
X130183232Y-98282000D01*
X130183232Y-98284000D01*
X130181696Y-98284990D01*
X130157411Y-98287381D01*
X130134242Y-98294410D01*
X130112892Y-98305822D01*
X130094179Y-98321179D01*
X130078822Y-98339892D01*
X130067410Y-98361242D01*
X130060381Y-98384411D01*
X130058000Y-98408594D01*
X130058000Y-99734406D01*
X130060381Y-99758589D01*
X130067410Y-99781758D01*
X130078822Y-99803108D01*
X130094179Y-99821821D01*
X130112892Y-99837178D01*
X130134242Y-99848590D01*
X130157411Y-99855619D01*
X130181696Y-99858010D01*
X130183322Y-99859175D01*
X130183126Y-99861165D01*
X130181500Y-99862000D01*
X130125138Y-99862000D01*
X130124942Y-99861990D01*
X130106634Y-99860187D01*
X130106249Y-99860111D01*
X130094544Y-99856560D01*
X130094182Y-99856410D01*
X130083392Y-99850643D01*
X130083066Y-99850425D01*
X130069043Y-99838916D01*
X130068898Y-99838784D01*
X130060022Y-99829909D01*
X130039975Y-99816514D01*
X130017701Y-99807289D01*
X129994050Y-99802585D01*
X129969944Y-99802585D01*
X129946294Y-99807290D01*
X129924021Y-99816517D01*
X129903973Y-99829912D01*
X129895097Y-99838788D01*
X129894952Y-99838920D01*
X129880934Y-99850425D01*
X129880608Y-99850643D01*
X129869818Y-99856410D01*
X129869456Y-99856560D01*
X129857751Y-99860111D01*
X129857366Y-99860187D01*
X129839058Y-99861990D01*
X129838862Y-99862000D01*
X129782500Y-99862000D01*
X129780768Y-99861000D01*
X129780768Y-99859000D01*
X129782304Y-99858010D01*
X129806589Y-99855619D01*
X129829758Y-99848590D01*
X129851108Y-99837178D01*
X129869821Y-99821821D01*
X129885178Y-99803108D01*
X129896590Y-99781758D01*
X129903619Y-99758589D01*
X129906000Y-99734406D01*
X129906000Y-98408594D01*
X129903619Y-98384411D01*
X129896590Y-98361242D01*
X129885178Y-98339892D01*
X129869821Y-98321179D01*
X129851108Y-98305822D01*
X129829758Y-98294410D01*
X129806589Y-98287381D01*
X129782304Y-98284990D01*
X129780678Y-98283825D01*
X129780874Y-98281835D01*
X129782500Y-98281000D01*
X129838862Y-98281000D01*
X129839058Y-98281010D01*
G37*
G36*
X127889058Y-98281010D02*
G01*
X127907366Y-98282813D01*
X127907751Y-98282889D01*
X127919456Y-98286440D01*
X127919818Y-98286590D01*
X127930608Y-98292357D01*
X127930934Y-98292575D01*
X127944957Y-98304084D01*
X127945102Y-98304216D01*
X127953978Y-98313091D01*
X127974025Y-98326486D01*
X127996299Y-98335711D01*
X128019950Y-98340415D01*
X128044056Y-98340415D01*
X128067706Y-98335710D01*
X128089979Y-98326483D01*
X128110027Y-98313088D01*
X128118903Y-98304212D01*
X128119048Y-98304080D01*
X128133066Y-98292575D01*
X128133392Y-98292357D01*
X128144182Y-98286590D01*
X128144544Y-98286440D01*
X128156249Y-98282889D01*
X128156634Y-98282813D01*
X128174942Y-98281010D01*
X128175138Y-98281000D01*
X128231500Y-98281000D01*
X128233232Y-98282000D01*
X128233232Y-98284000D01*
X128231696Y-98284990D01*
X128207411Y-98287381D01*
X128184242Y-98294410D01*
X128162892Y-98305822D01*
X128144179Y-98321179D01*
X128128822Y-98339892D01*
X128117410Y-98361242D01*
X128110381Y-98384411D01*
X128108000Y-98408594D01*
X128108000Y-99734406D01*
X128110381Y-99758589D01*
X128117410Y-99781758D01*
X128128822Y-99803108D01*
X128144179Y-99821821D01*
X128162892Y-99837178D01*
X128184242Y-99848590D01*
X128207411Y-99855619D01*
X128231696Y-99858010D01*
X128233322Y-99859175D01*
X128233126Y-99861165D01*
X128231500Y-99862000D01*
X128175138Y-99862000D01*
X128174942Y-99861990D01*
X128156634Y-99860187D01*
X128156249Y-99860111D01*
X128144544Y-99856560D01*
X128144182Y-99856410D01*
X128133392Y-99850643D01*
X128133066Y-99850425D01*
X128119043Y-99838916D01*
X128118898Y-99838784D01*
X128110022Y-99829909D01*
X128089975Y-99816514D01*
X128067701Y-99807289D01*
X128044050Y-99802585D01*
X128019944Y-99802585D01*
X127996294Y-99807290D01*
X127974021Y-99816517D01*
X127953973Y-99829912D01*
X127945097Y-99838788D01*
X127944952Y-99838920D01*
X127930934Y-99850425D01*
X127930608Y-99850643D01*
X127919818Y-99856410D01*
X127919456Y-99856560D01*
X127907751Y-99860111D01*
X127907366Y-99860187D01*
X127889058Y-99861990D01*
X127888862Y-99862000D01*
X127832500Y-99862000D01*
X127830768Y-99861000D01*
X127830768Y-99859000D01*
X127832304Y-99858010D01*
X127856589Y-99855619D01*
X127879758Y-99848590D01*
X127901108Y-99837178D01*
X127919821Y-99821821D01*
X127935178Y-99803108D01*
X127946590Y-99781758D01*
X127953619Y-99758589D01*
X127956000Y-99734406D01*
X127956000Y-98408594D01*
X127953619Y-98384411D01*
X127946590Y-98361242D01*
X127935178Y-98339892D01*
X127919821Y-98321179D01*
X127901108Y-98305822D01*
X127879758Y-98294410D01*
X127856589Y-98287381D01*
X127832304Y-98284990D01*
X127830678Y-98283825D01*
X127830874Y-98281835D01*
X127832500Y-98281000D01*
X127888862Y-98281000D01*
X127889058Y-98281010D01*
G37*
G36*
X129189058Y-98281010D02*
G01*
X129207366Y-98282813D01*
X129207751Y-98282889D01*
X129219456Y-98286440D01*
X129219818Y-98286590D01*
X129230608Y-98292357D01*
X129230934Y-98292575D01*
X129244957Y-98304084D01*
X129245102Y-98304216D01*
X129253978Y-98313091D01*
X129274025Y-98326486D01*
X129296299Y-98335711D01*
X129319950Y-98340415D01*
X129344056Y-98340415D01*
X129367706Y-98335710D01*
X129389979Y-98326483D01*
X129410027Y-98313088D01*
X129418903Y-98304212D01*
X129419048Y-98304080D01*
X129433066Y-98292575D01*
X129433392Y-98292357D01*
X129444182Y-98286590D01*
X129444544Y-98286440D01*
X129456249Y-98282889D01*
X129456634Y-98282813D01*
X129474942Y-98281010D01*
X129475138Y-98281000D01*
X129531500Y-98281000D01*
X129533232Y-98282000D01*
X129533232Y-98284000D01*
X129531696Y-98284990D01*
X129507411Y-98287381D01*
X129484242Y-98294410D01*
X129462892Y-98305822D01*
X129444179Y-98321179D01*
X129428822Y-98339892D01*
X129417410Y-98361242D01*
X129410381Y-98384411D01*
X129408000Y-98408594D01*
X129408000Y-99734406D01*
X129410381Y-99758589D01*
X129417410Y-99781758D01*
X129428822Y-99803108D01*
X129444179Y-99821821D01*
X129462892Y-99837178D01*
X129484242Y-99848590D01*
X129507411Y-99855619D01*
X129531696Y-99858010D01*
X129533322Y-99859175D01*
X129533126Y-99861165D01*
X129531500Y-99862000D01*
X129475138Y-99862000D01*
X129474942Y-99861990D01*
X129456634Y-99860187D01*
X129456249Y-99860111D01*
X129444544Y-99856560D01*
X129444182Y-99856410D01*
X129433392Y-99850643D01*
X129433066Y-99850425D01*
X129419043Y-99838916D01*
X129418898Y-99838784D01*
X129410022Y-99829909D01*
X129389975Y-99816514D01*
X129367701Y-99807289D01*
X129344050Y-99802585D01*
X129319944Y-99802585D01*
X129296294Y-99807290D01*
X129274021Y-99816517D01*
X129253973Y-99829912D01*
X129245097Y-99838788D01*
X129244952Y-99838920D01*
X129230934Y-99850425D01*
X129230608Y-99850643D01*
X129219818Y-99856410D01*
X129219456Y-99856560D01*
X129207751Y-99860111D01*
X129207366Y-99860187D01*
X129189058Y-99861990D01*
X129188862Y-99862000D01*
X129132500Y-99862000D01*
X129130768Y-99861000D01*
X129130768Y-99859000D01*
X129132304Y-99858010D01*
X129156589Y-99855619D01*
X129179758Y-99848590D01*
X129201108Y-99837178D01*
X129219821Y-99821821D01*
X129235178Y-99803108D01*
X129246590Y-99781758D01*
X129253619Y-99758589D01*
X129256000Y-99734406D01*
X129256000Y-98408594D01*
X129253619Y-98384411D01*
X129246590Y-98361242D01*
X129235178Y-98339892D01*
X129219821Y-98321179D01*
X129201108Y-98305822D01*
X129179758Y-98294410D01*
X129156589Y-98287381D01*
X129132304Y-98284990D01*
X129130678Y-98283825D01*
X129130874Y-98281835D01*
X129132500Y-98281000D01*
X129188862Y-98281000D01*
X129189058Y-98281010D01*
G37*
M02*
