M48
INCH,TZ
T1C0.0157
T2C0.0354
T3C0.0394
T4C0.0300
T5C0.1063
%
G90
G05
T1
X47290Y-41740
X48250Y-40843
X48430Y-38760
X48646Y-41585
X48900Y-42831
X49344Y-40499
X49550Y-44281
X49996Y-39515
X50352Y-40733
X50390Y-39515
X50500Y-43035
X50500Y-45117
X50505Y-41732
X50757Y-40736
X50834Y-39513
X51000Y-43331
X51202Y-40715
X51300Y-44681
X51470Y-42117
X51550Y-40900
X51677Y-45131
X51900Y-39031
X51900Y-39750
X51950Y-42129
X52350Y-42231
X52477Y-41298
X52950Y-40134
X53083Y-39763
X53187Y-41767
X53204Y-45081
X53250Y-39194
X53550Y-40881
X53550Y-42131
X53550Y-43731
X53650Y-44331
X53729Y-40436
X53888Y-42666
X54050Y-40209
X54050Y-43250
X54132Y-46659
X54200Y-40931
X54335Y-43796
X54365Y-44367
X54700Y-47050
X54860Y-46380
X55100Y-39750
X55250Y-44200
X55312Y-45455
X55338Y-42318
X55355Y-42927
X55569Y-43970
X55590Y-46440
X55634Y-44370
X55750Y-42300
X55772Y-43632
X56000Y-47048
X56250Y-45190
X56350Y-39900
X56860Y-40600
X56938Y-43264
X56950Y-44131
X56975Y-45655
X57283Y-46199
X57350Y-42231
X57854Y-41768
X58100Y-44231
X58350Y-43831
X58600Y-39750
X59200Y-44431
X59430Y-45970
X60200Y-43981
X60260Y-45850
X60400Y-43285
X60570Y-46140
X60600Y-42260
X60800Y-45231
X61150Y-43950
X61650Y-39850
X61900Y-43681
X61965Y-41235
X62000Y-40531
X62250Y-41880
X62800Y-41350
X62850Y-42231
X62900Y-43981
X63100Y-45731
X63150Y-39750
X63350Y-43313
X63400Y-42181
X63650Y-44281
X65150Y-38731
X65250Y-40531
X65300Y-42281
X65400Y-45731
X66046Y-43505
X66100Y-40532
X66100Y-41831
X66790Y-41267
X66796Y-38832
X66900Y-40450
X67000Y-39200
X67036Y-38520
X67300Y-42131
X67500Y-42881
X68469Y-42131
X68500Y-41281
X70620Y-38812
T2
X49500Y-43681
X50500Y-43681
X57950Y-46400
X58690Y-41930
X58950Y-46400
X59690Y-41930
X59950Y-46400
X67600Y-43681
X68600Y-43681
T3
X47050Y-42390
X47050Y-43390
X47050Y-44390
X47050Y-39131
X47050Y-40131
X49550Y-36731
X49550Y-37731
X50550Y-36731
X50550Y-37731
X51550Y-36731
X51550Y-37731
X52550Y-36731
X52550Y-37731
X53550Y-36731
X53550Y-37731
X54550Y-36731
X54550Y-37731
X55550Y-36731
X55550Y-37731
X56550Y-36731
X56550Y-37731
X57550Y-36731
X57550Y-37731
X58550Y-36731
X58550Y-37731
X59550Y-36731
X59550Y-37731
X60550Y-36731
X60550Y-37731
X61550Y-36731
X61550Y-37731
X62550Y-36731
X62550Y-37731
X63550Y-36731
X63550Y-37731
X64550Y-36731
X64550Y-37731
X65550Y-36731
X65550Y-37731
X66550Y-36731
X66550Y-37731
X67550Y-36731
X67550Y-37731
X67950Y-39231
X67950Y-40231
X68550Y-36731
X68550Y-37731
X68950Y-39231
X68950Y-40231
X69950Y-39231
X69950Y-40231
X71250Y-39231
X71250Y-40231
X71250Y-41231
X71250Y-42231
X71250Y-43231
X71250Y-44231
T4
X49987Y-46800
X68087Y-46787
X69400Y-37200
T5
X47650Y-37231
X47650Y-46287
X70485Y-37231
X70485Y-46287
T0
M30
