M48
; DRILL file {KiCad (5.1.10-1-10_14)} date Monday, October 18, 2021 at 09:08:57 PM
; FORMAT={-:-/ absolute / metric / decimal}
; #@! TF.CreationDate,2021-10-18T21:08:57+02:00
; #@! TF.GenerationSoftware,Kicad,Pcbnew,(5.1.10-1-10_14)
; #@! TF.FileFunction,Plated,1,2,PTH
FMAT,2
METRIC
T1C0.400
T2C0.900
T3C1.000
%
G90
G05
T1
X120.778Y-106.252
X123.572Y-103.458
X123.572Y-105.617
X124.207Y-108.792
X125.858Y-112.475
X126.382Y-100.41
X127.406Y-100.436
X127.895Y-103.463
X128.269Y-109.309
X128.271Y-114.597
X128.283Y-106.0
X128.911Y-100.41
X128.922Y-103.469
X129.541Y-110.062
X130.084Y-103.418
X130.303Y-113.491
X130.734Y-106.977
X130.894Y-104.172
X131.26Y-114.632
X131.827Y-99.14
X131.827Y-101.172
X131.954Y-107.008
X132.97Y-107.268
X133.292Y-104.897
X134.492Y-101.94
X134.831Y-100.999
X135.096Y-106.088
X135.137Y-114.507
X135.256Y-99.553
X136.018Y-103.839
X136.018Y-107.014
X136.018Y-111.078
X136.272Y-112.602
X136.471Y-102.709
X136.877Y-108.371
X137.161Y-109.935
X137.287Y-102.13
X137.669Y-103.966
X138.033Y-112.655
X138.304Y-111.205
X138.939Y-118.924
X139.193Y-103.839
X139.701Y-119.714
X139.844Y-117.428
X139.914Y-111.809
X140.336Y-102.95
X140.494Y-115.456
X140.512Y-104.152
X140.559Y-107.487
X140.602Y-109.034
X140.844Y-117.428
X140.913Y-111.782
X141.309Y-112.701
X141.482Y-119.374
X141.577Y-111.034
X141.606Y-107.014
X142.622Y-104.691
X142.876Y-114.783
X144.474Y-104.806
X144.622Y-109.891
X144.654Y-112.094
X144.691Y-115.904
X145.416Y-117.428
X145.67Y-107.268
X145.924Y-104.347
X146.956Y-106.093
X147.575Y-112.348
X148.082Y-101.172
X148.21Y-111.332
X150.369Y-112.856
X152.909Y-111.713
X153.417Y-107.522
X153.417Y-109.808
X154.433Y-114.888
X155.321Y-111.633
X157.227Y-110.951
X157.391Y-104.665
X157.481Y-102.95
X158.497Y-105.744
X158.878Y-103.839
X159.64Y-107.268
X159.767Y-111.713
X160.275Y-116.158
X160.402Y-100.834
X160.402Y-101.934
X160.91Y-110.014
X161.037Y-107.141
X161.164Y-102.696
X161.672Y-112.475
X162.434Y-104.818
X164.847Y-109.935
X164.895Y-102.27
X165.482Y-98.378
X165.736Y-102.95
X165.863Y-107.395
X166.117Y-116.158
X167.768Y-111.205
X167.895Y-102.95
X167.895Y-106.252
X169.646Y-104.818
X169.662Y-98.634
X170.271Y-97.841
X170.562Y-102.442
X170.943Y-107.014
X171.324Y-98.748
X171.451Y-108.919
X173.61Y-98.595
X173.991Y-104.855
X174.372Y-106.887
X174.753Y-97.653
X176.817Y-98.473
X177.57Y-97.748
X179.374Y-98.583
T2
X125.731Y-110.951
X128.271Y-110.951
X147.956Y-116.793
X149.099Y-107.014
X150.496Y-116.793
X151.639Y-107.014
X153.036Y-116.793
X171.705Y-110.951
X174.245Y-110.951
T3
X119.508Y-99.394
X119.508Y-101.934
X119.508Y-107.522
X119.508Y-110.062
X119.508Y-112.602
X125.858Y-93.298
X125.858Y-95.838
X128.398Y-93.298
X128.398Y-95.838
X130.938Y-93.298
X130.938Y-95.838
X133.478Y-93.298
X133.478Y-95.838
X136.018Y-93.298
X136.018Y-95.838
X138.558Y-93.298
X138.558Y-95.838
X141.098Y-93.298
X141.098Y-95.838
X143.638Y-93.298
X143.638Y-95.838
X146.178Y-93.298
X146.178Y-95.838
X148.718Y-93.298
X148.718Y-95.838
X151.258Y-93.298
X151.258Y-95.838
X153.798Y-93.298
X153.798Y-95.838
X156.338Y-93.298
X156.338Y-95.838
X158.878Y-93.298
X158.878Y-95.838
X161.418Y-93.298
X161.418Y-95.838
X163.958Y-93.298
X163.958Y-95.838
X166.498Y-93.298
X166.498Y-95.838
X169.038Y-93.298
X169.038Y-95.838
X171.578Y-93.298
X171.578Y-95.838
X172.594Y-99.648
X172.594Y-102.188
X174.118Y-93.298
X174.118Y-95.838
X175.134Y-99.648
X175.134Y-102.188
X177.674Y-99.648
X177.674Y-102.188
X180.976Y-99.648
X180.976Y-102.188
X180.976Y-104.728
X180.976Y-107.268
X180.976Y-109.808
X180.976Y-112.348
T0
M30
