%FSLAX45Y45*%
G04 Gerber Fmt 4.5, Leading zero omitted, Abs format (unit mm)*
G04 Created by KiCad (PCBNEW (5.1.10-1-10_14)) date 2021-10-18 21:09:25*
%MOMM*%
%LPD*%
G01*
G04 APERTURE LIST*
%TA.AperFunction,Profile*%
%ADD10C,0.150000*%
%TD*%
%ADD11C,0.200000*%
%ADD12C,0.300000*%
G04 APERTURE END LIST*
D10*
X12103200Y-12106800D02*
X12053200Y-12106800D01*
X17903200Y-12106800D02*
X17953200Y-12106800D01*
X18253200Y-9406800D02*
X18253200Y-11806800D01*
X12053200Y-9106800D02*
X17953200Y-9106800D01*
X11753200Y-11806800D02*
X11753200Y-9406800D01*
X11753200Y-9406800D02*
G75*
G02*
X12053200Y-9106800I300000J0D01*
G01*
X12053200Y-12106800D02*
G75*
G02*
X11753200Y-11806800I0J300000D01*
G01*
X18253200Y-11806800D02*
G75*
G02*
X17953200Y-12106800I-300000J0D01*
G01*
X17953200Y-9106800D02*
G75*
G02*
X18253200Y-9406800I0J-300000D01*
G01*
X12103200Y-12106800D02*
X17903200Y-12106800D01*
D11*
X12057800Y-10605200D02*
X12097800Y-10645200D01*
X12097800Y-10605200D02*
X12057800Y-10645200D01*
X12337200Y-10325800D02*
X12377200Y-10365800D01*
X12377200Y-10325800D02*
X12337200Y-10365800D01*
X12337200Y-10541700D02*
X12377200Y-10581700D01*
X12377200Y-10541700D02*
X12337200Y-10581700D01*
X12400700Y-10859200D02*
X12440700Y-10899200D01*
X12440700Y-10859200D02*
X12400700Y-10899200D01*
X12565800Y-11227500D02*
X12605800Y-11267500D01*
X12605800Y-11227500D02*
X12565800Y-11267500D01*
X12618199Y-10021000D02*
X12658199Y-10061000D01*
X12658199Y-10021000D02*
X12618199Y-10061000D01*
X12720634Y-10023603D02*
X12760634Y-10063603D01*
X12760634Y-10023603D02*
X12720634Y-10063603D01*
X12769466Y-10326266D02*
X12809466Y-10366266D01*
X12809466Y-10326266D02*
X12769466Y-10366266D01*
X12806899Y-10910872D02*
X12846899Y-10950872D01*
X12846899Y-10910872D02*
X12806899Y-10950872D01*
X12807100Y-11439701D02*
X12847100Y-11479701D01*
X12847100Y-11439701D02*
X12807100Y-11479701D01*
X12808261Y-10580029D02*
X12848261Y-10620029D01*
X12848261Y-10580029D02*
X12808261Y-10620029D01*
X12871066Y-10021000D02*
X12911066Y-10061000D01*
X12911066Y-10021000D02*
X12871066Y-10061000D01*
X12872199Y-10326870D02*
X12912199Y-10366870D01*
X12912199Y-10326870D02*
X12872199Y-10366870D01*
X12934100Y-10986200D02*
X12974100Y-11026200D01*
X12974100Y-10986200D02*
X12934100Y-11026200D01*
X12988393Y-10321812D02*
X13028393Y-10361812D01*
X13028393Y-10321812D02*
X12988393Y-10361812D01*
X13010300Y-11329100D02*
X13050300Y-11369100D01*
X13050300Y-11329100D02*
X13010300Y-11369100D01*
X13053400Y-10677701D02*
X13093400Y-10717701D01*
X13093400Y-10677701D02*
X13053400Y-10717701D01*
X13069384Y-10397226D02*
X13109384Y-10437226D01*
X13109384Y-10397226D02*
X13069384Y-10437226D01*
X13105993Y-11443239D02*
X13145993Y-11483239D01*
X13145993Y-11443239D02*
X13105993Y-11483239D01*
X13162700Y-9894000D02*
X13202700Y-9934000D01*
X13202700Y-9894000D02*
X13162700Y-9934000D01*
X13162700Y-10097200D02*
X13202700Y-10137200D01*
X13202700Y-10097200D02*
X13162700Y-10137200D01*
X13175400Y-10680803D02*
X13215400Y-10720803D01*
X13215400Y-10680803D02*
X13175400Y-10720803D01*
X13277000Y-10706800D02*
X13317000Y-10746800D01*
X13317000Y-10706800D02*
X13277000Y-10746800D01*
X13309215Y-10469727D02*
X13349215Y-10509727D01*
X13349215Y-10469727D02*
X13309215Y-10509727D01*
X13429192Y-10173978D02*
X13469192Y-10213978D01*
X13469192Y-10173978D02*
X13429192Y-10213978D01*
X13463069Y-10079890D02*
X13503069Y-10119890D01*
X13503069Y-10079890D02*
X13463069Y-10119890D01*
X13489598Y-10588801D02*
X13529598Y-10628801D01*
X13529598Y-10588801D02*
X13489598Y-10628801D01*
X13493698Y-11430700D02*
X13533698Y-11470700D01*
X13533698Y-11430700D02*
X13493698Y-11470700D01*
X13505600Y-9935302D02*
X13545600Y-9975302D01*
X13545600Y-9935302D02*
X13505600Y-9975302D01*
X13581800Y-10363900D02*
X13621800Y-10403900D01*
X13621800Y-10363900D02*
X13581800Y-10403900D01*
X13581800Y-10681400D02*
X13621800Y-10721400D01*
X13621800Y-10681400D02*
X13581800Y-10721400D01*
X13581800Y-11087800D02*
X13621800Y-11127800D01*
X13621800Y-11087800D02*
X13581800Y-11127800D01*
X13607200Y-11240200D02*
X13647200Y-11280200D01*
X13647200Y-11240200D02*
X13607200Y-11280200D01*
X13627129Y-10250857D02*
X13667129Y-10290857D01*
X13667129Y-10250857D02*
X13627129Y-10290857D01*
X13667654Y-10817122D02*
X13707654Y-10857122D01*
X13707654Y-10817122D02*
X13667654Y-10857122D01*
X13696100Y-10973500D02*
X13736100Y-11013500D01*
X13736100Y-10973500D02*
X13696100Y-11013500D01*
X13708698Y-10193006D02*
X13748698Y-10233006D01*
X13748698Y-10193006D02*
X13708698Y-10233006D01*
X13746900Y-10376600D02*
X13786900Y-10416600D01*
X13786900Y-10376600D02*
X13746900Y-10416600D01*
X13783309Y-11245501D02*
X13823309Y-11285501D01*
X13823309Y-11245501D02*
X13783309Y-11285501D01*
X13810400Y-11100500D02*
X13850400Y-11140500D01*
X13850400Y-11100500D02*
X13810400Y-11140500D01*
X13873900Y-11872401D02*
X13913900Y-11912401D01*
X13913900Y-11872401D02*
X13873900Y-11912401D01*
X13899300Y-10363900D02*
X13939300Y-10403900D01*
X13939300Y-10363900D02*
X13899300Y-10403900D01*
X13950100Y-11951400D02*
X13990100Y-11991400D01*
X13990100Y-11951400D02*
X13950100Y-11991400D01*
X13964399Y-11722800D02*
X14004399Y-11762800D01*
X14004399Y-11722800D02*
X13964399Y-11762800D01*
X13971380Y-11160926D02*
X14011380Y-11200926D01*
X14011380Y-11160926D02*
X13971380Y-11200926D01*
X14013600Y-10275000D02*
X14053600Y-10315000D01*
X14053600Y-10275000D02*
X14013600Y-10315000D01*
X14029365Y-11525644D02*
X14069365Y-11565644D01*
X14069365Y-11525644D02*
X14029365Y-11565644D01*
X14031231Y-10395163D02*
X14071231Y-10435163D01*
X14071231Y-10395163D02*
X14031231Y-10435163D01*
X14035876Y-10728693D02*
X14075876Y-10768693D01*
X14075876Y-10728693D02*
X14035876Y-10768693D01*
X14040180Y-10883384D02*
X14080180Y-10923384D01*
X14080180Y-10883384D02*
X14040180Y-10923384D01*
X14064400Y-11722800D02*
X14104400Y-11762800D01*
X14104400Y-11722800D02*
X14064400Y-11762800D01*
X14071345Y-11158238D02*
X14111345Y-11198238D01*
X14111345Y-11158238D02*
X14071345Y-11198238D01*
X14110932Y-11250070D02*
X14150932Y-11290070D01*
X14150932Y-11250070D02*
X14110932Y-11290070D01*
X14128231Y-11917403D02*
X14168231Y-11957403D01*
X14168231Y-11917403D02*
X14128231Y-11957403D01*
X14137691Y-11083416D02*
X14177691Y-11123416D01*
X14177691Y-11083416D02*
X14137691Y-11123416D01*
X14140600Y-10681400D02*
X14180600Y-10721400D01*
X14180600Y-10681400D02*
X14140600Y-10721400D01*
X14242200Y-10449101D02*
X14282200Y-10489101D01*
X14282200Y-10449101D02*
X14242200Y-10489101D01*
X14267600Y-11458301D02*
X14307600Y-11498301D01*
X14307600Y-11458301D02*
X14267600Y-11498301D01*
X14427399Y-10460625D02*
X14467399Y-10500625D01*
X14467399Y-10460625D02*
X14427399Y-10500625D01*
X14442198Y-10969088D02*
X14482198Y-11009088D01*
X14482198Y-10969088D02*
X14442198Y-11009088D01*
X14445400Y-11189400D02*
X14485400Y-11229400D01*
X14485400Y-11189400D02*
X14445400Y-11229400D01*
X14449099Y-11570400D02*
X14489099Y-11610400D01*
X14489099Y-11570400D02*
X14449099Y-11610400D01*
X14521600Y-11722800D02*
X14561600Y-11762800D01*
X14561600Y-11722800D02*
X14521600Y-11762800D01*
X14547000Y-10706800D02*
X14587000Y-10746800D01*
X14587000Y-10706800D02*
X14547000Y-10746800D01*
X14572400Y-10414700D02*
X14612400Y-10454700D01*
X14612400Y-10414700D02*
X14572400Y-10454700D01*
X14675593Y-10589298D02*
X14715593Y-10629298D01*
X14715593Y-10589298D02*
X14675593Y-10629298D01*
X14737500Y-11214800D02*
X14777500Y-11254800D01*
X14777500Y-11214800D02*
X14737500Y-11254800D01*
X14788200Y-10097200D02*
X14828200Y-10137200D01*
X14828200Y-10097200D02*
X14788200Y-10137200D01*
X14801000Y-11113200D02*
X14841000Y-11153200D01*
X14841000Y-11113200D02*
X14801000Y-11153200D01*
X15016900Y-11265600D02*
X15056900Y-11305600D01*
X15056900Y-11265600D02*
X15016900Y-11305600D01*
X15270900Y-11151300D02*
X15310900Y-11191300D01*
X15310900Y-11151300D02*
X15270900Y-11191300D01*
X15321700Y-10732200D02*
X15361700Y-10772200D01*
X15361700Y-10732200D02*
X15321700Y-10772200D01*
X15321700Y-10960800D02*
X15361700Y-11000800D01*
X15361700Y-10960800D02*
X15321700Y-11000800D01*
X15423300Y-11468800D02*
X15463300Y-11508800D01*
X15463300Y-11468800D02*
X15423300Y-11508800D01*
X15512100Y-11143300D02*
X15552100Y-11183300D01*
X15552100Y-11143300D02*
X15512100Y-11183300D01*
X15702700Y-11075100D02*
X15742700Y-11115100D01*
X15742700Y-11075100D02*
X15702700Y-11115100D01*
X15719099Y-10446513D02*
X15759099Y-10486513D01*
X15759099Y-10446513D02*
X15719099Y-10486513D01*
X15728100Y-10275000D02*
X15768100Y-10315000D01*
X15768100Y-10275000D02*
X15728100Y-10315000D01*
X15829700Y-10554400D02*
X15869700Y-10594400D01*
X15869700Y-10554400D02*
X15829700Y-10594400D01*
X15867800Y-10363900D02*
X15907800Y-10403900D01*
X15907800Y-10363900D02*
X15867800Y-10403900D01*
X15944000Y-10706800D02*
X15984000Y-10746800D01*
X15984000Y-10706800D02*
X15944000Y-10746800D01*
X15956700Y-11151300D02*
X15996700Y-11191300D01*
X15996700Y-11151300D02*
X15956700Y-11191300D01*
X16007500Y-11595800D02*
X16047500Y-11635800D01*
X16047500Y-11595800D02*
X16007500Y-11635800D01*
X16020200Y-10063404D02*
X16060200Y-10103404D01*
X16060200Y-10063404D02*
X16020200Y-10103404D01*
X16020200Y-10173400D02*
X16060200Y-10213400D01*
X16060200Y-10173400D02*
X16020200Y-10213400D01*
X16071000Y-10981400D02*
X16111000Y-11021400D01*
X16111000Y-10981400D02*
X16071000Y-11021400D01*
X16083700Y-10694100D02*
X16123700Y-10734100D01*
X16123700Y-10694100D02*
X16083700Y-10734100D01*
X16096400Y-10249600D02*
X16136400Y-10289600D01*
X16136400Y-10249600D02*
X16096400Y-10289600D01*
X16147200Y-11227500D02*
X16187200Y-11267500D01*
X16187200Y-11227500D02*
X16147200Y-11267500D01*
X16223400Y-10461801D02*
X16263400Y-10501801D01*
X16263400Y-10461801D02*
X16223400Y-10501801D01*
X16464700Y-10973500D02*
X16504700Y-11013500D01*
X16504700Y-10973500D02*
X16464700Y-11013500D01*
X16469518Y-10207023D02*
X16509518Y-10247023D01*
X16509518Y-10207023D02*
X16469518Y-10247023D01*
X16528200Y-9817800D02*
X16568200Y-9857800D01*
X16568200Y-9817800D02*
X16528200Y-9857800D01*
X16553600Y-10275000D02*
X16593600Y-10315000D01*
X16593600Y-10275000D02*
X16553600Y-10315000D01*
X16566300Y-10719500D02*
X16606300Y-10759500D01*
X16606300Y-10719500D02*
X16566300Y-10759500D01*
X16591700Y-11595800D02*
X16631700Y-11635800D01*
X16631700Y-11595800D02*
X16591700Y-11635800D01*
X16756800Y-11100500D02*
X16796800Y-11140500D01*
X16796800Y-11100500D02*
X16756800Y-11140500D01*
X16769500Y-10275001D02*
X16809500Y-10315001D01*
X16809500Y-10275001D02*
X16769500Y-10315001D01*
X16769500Y-10605200D02*
X16809500Y-10645200D01*
X16809500Y-10605200D02*
X16769500Y-10645200D01*
X16944598Y-10461801D02*
X16984598Y-10501801D01*
X16984598Y-10461801D02*
X16944598Y-10501801D01*
X16946181Y-9843388D02*
X16986181Y-9883388D01*
X16986181Y-9843388D02*
X16946181Y-9883388D01*
X17007149Y-9764121D02*
X17047149Y-9804121D01*
X17047149Y-9764121D02*
X17007149Y-9804121D01*
X17036200Y-10224200D02*
X17076200Y-10264200D01*
X17076200Y-10224200D02*
X17036200Y-10264200D01*
X17074300Y-10681400D02*
X17114300Y-10721400D01*
X17114300Y-10681400D02*
X17074300Y-10721400D01*
X17112400Y-9854800D02*
X17152400Y-9894800D01*
X17152400Y-9854800D02*
X17112400Y-9894800D01*
X17125100Y-10871900D02*
X17165100Y-10911900D01*
X17165100Y-10871900D02*
X17125100Y-10911900D01*
X17341000Y-9839501D02*
X17381000Y-9879501D01*
X17381000Y-9839501D02*
X17341000Y-9879501D01*
X17379100Y-10465500D02*
X17419100Y-10505500D01*
X17419100Y-10465500D02*
X17379100Y-10505500D01*
X17417200Y-10668700D02*
X17457200Y-10708700D01*
X17457200Y-10668700D02*
X17417200Y-10708700D01*
X17455300Y-9745299D02*
X17495300Y-9785299D01*
X17495300Y-9745299D02*
X17455300Y-9785299D01*
X17661700Y-9827300D02*
X17701700Y-9867300D01*
X17701700Y-9827300D02*
X17661700Y-9867300D01*
X17736992Y-9754799D02*
X17776992Y-9794799D01*
X17776992Y-9754799D02*
X17736992Y-9794799D01*
X17917366Y-9838334D02*
X17957366Y-9878334D01*
X17957366Y-9838334D02*
X17917366Y-9878334D01*
X12618100Y-11095100D02*
G75*
G03*
X12618100Y-11095100I-45000J0D01*
G01*
X12872100Y-11095100D02*
G75*
G03*
X12872100Y-11095100I-45000J0D01*
G01*
X14840600Y-11679300D02*
G75*
G03*
X14840600Y-11679300I-45000J0D01*
G01*
X14954900Y-10701400D02*
G75*
G03*
X14954900Y-10701400I-45000J0D01*
G01*
X15094600Y-11679300D02*
G75*
G03*
X15094600Y-11679300I-45000J0D01*
G01*
X15208900Y-10701400D02*
G75*
G03*
X15208900Y-10701400I-45000J0D01*
G01*
X15348600Y-11679300D02*
G75*
G03*
X15348600Y-11679300I-45000J0D01*
G01*
X17215500Y-11095100D02*
G75*
G03*
X17215500Y-11095100I-45000J0D01*
G01*
X17469500Y-11095100D02*
G75*
G03*
X17469500Y-11095100I-45000J0D01*
G01*
X11950800Y-9889400D02*
X11950800Y-9989400D01*
X11900800Y-9939400D02*
X12000800Y-9939400D01*
X11950800Y-10143400D02*
X11950800Y-10243400D01*
X11900800Y-10193400D02*
X12000800Y-10193400D01*
X11950800Y-10702200D02*
X11950800Y-10802200D01*
X11900800Y-10752200D02*
X12000800Y-10752200D01*
X11950800Y-10956200D02*
X11950800Y-11056200D01*
X11900800Y-11006200D02*
X12000800Y-11006200D01*
X11950800Y-11210200D02*
X11950800Y-11310200D01*
X11900800Y-11260200D02*
X12000800Y-11260200D01*
X12585800Y-9279800D02*
X12585800Y-9379800D01*
X12535800Y-9329800D02*
X12635800Y-9329800D01*
X12585800Y-9533800D02*
X12585800Y-9633800D01*
X12535800Y-9583800D02*
X12635800Y-9583800D01*
X12839800Y-9279800D02*
X12839800Y-9379800D01*
X12789800Y-9329800D02*
X12889800Y-9329800D01*
X12839800Y-9533800D02*
X12839800Y-9633800D01*
X12789800Y-9583800D02*
X12889800Y-9583800D01*
X13093800Y-9279800D02*
X13093800Y-9379800D01*
X13043800Y-9329800D02*
X13143800Y-9329800D01*
X13093800Y-9533800D02*
X13093800Y-9633800D01*
X13043800Y-9583800D02*
X13143800Y-9583800D01*
X13347800Y-9279800D02*
X13347800Y-9379800D01*
X13297800Y-9329800D02*
X13397800Y-9329800D01*
X13347800Y-9533800D02*
X13347800Y-9633800D01*
X13297800Y-9583800D02*
X13397800Y-9583800D01*
X13601800Y-9279800D02*
X13601800Y-9379800D01*
X13551800Y-9329800D02*
X13651800Y-9329800D01*
X13601800Y-9533800D02*
X13601800Y-9633800D01*
X13551800Y-9583800D02*
X13651800Y-9583800D01*
X13855800Y-9279800D02*
X13855800Y-9379800D01*
X13805800Y-9329800D02*
X13905800Y-9329800D01*
X13855800Y-9533800D02*
X13855800Y-9633800D01*
X13805800Y-9583800D02*
X13905800Y-9583800D01*
X14109800Y-9279800D02*
X14109800Y-9379800D01*
X14059800Y-9329800D02*
X14159800Y-9329800D01*
X14109800Y-9533800D02*
X14109800Y-9633800D01*
X14059800Y-9583800D02*
X14159800Y-9583800D01*
X14363800Y-9279800D02*
X14363800Y-9379800D01*
X14313800Y-9329800D02*
X14413800Y-9329800D01*
X14363800Y-9533800D02*
X14363800Y-9633800D01*
X14313800Y-9583800D02*
X14413800Y-9583800D01*
X14617800Y-9279800D02*
X14617800Y-9379800D01*
X14567800Y-9329800D02*
X14667800Y-9329800D01*
X14617800Y-9533800D02*
X14617800Y-9633800D01*
X14567800Y-9583800D02*
X14667800Y-9583800D01*
X14871800Y-9279800D02*
X14871800Y-9379800D01*
X14821800Y-9329800D02*
X14921800Y-9329800D01*
X14871800Y-9533800D02*
X14871800Y-9633800D01*
X14821800Y-9583800D02*
X14921800Y-9583800D01*
X15125800Y-9279800D02*
X15125800Y-9379800D01*
X15075800Y-9329800D02*
X15175800Y-9329800D01*
X15125800Y-9533800D02*
X15125800Y-9633800D01*
X15075800Y-9583800D02*
X15175800Y-9583800D01*
X15379800Y-9279800D02*
X15379800Y-9379800D01*
X15329800Y-9329800D02*
X15429800Y-9329800D01*
X15379800Y-9533800D02*
X15379800Y-9633800D01*
X15329800Y-9583800D02*
X15429800Y-9583800D01*
X15633800Y-9279800D02*
X15633800Y-9379800D01*
X15583800Y-9329800D02*
X15683800Y-9329800D01*
X15633800Y-9533800D02*
X15633800Y-9633800D01*
X15583800Y-9583800D02*
X15683800Y-9583800D01*
X15887800Y-9279800D02*
X15887800Y-9379800D01*
X15837800Y-9329800D02*
X15937800Y-9329800D01*
X15887800Y-9533800D02*
X15887800Y-9633800D01*
X15837800Y-9583800D02*
X15937800Y-9583800D01*
X16141800Y-9279800D02*
X16141800Y-9379800D01*
X16091800Y-9329800D02*
X16191800Y-9329800D01*
X16141800Y-9533800D02*
X16141800Y-9633800D01*
X16091800Y-9583800D02*
X16191800Y-9583800D01*
X16395800Y-9279800D02*
X16395800Y-9379800D01*
X16345800Y-9329800D02*
X16445800Y-9329800D01*
X16395800Y-9533800D02*
X16395800Y-9633800D01*
X16345800Y-9583800D02*
X16445800Y-9583800D01*
X16649800Y-9279800D02*
X16649800Y-9379800D01*
X16599800Y-9329800D02*
X16699800Y-9329800D01*
X16649800Y-9533800D02*
X16649800Y-9633800D01*
X16599800Y-9583800D02*
X16699800Y-9583800D01*
X16903800Y-9279800D02*
X16903800Y-9379800D01*
X16853800Y-9329800D02*
X16953800Y-9329800D01*
X16903800Y-9533800D02*
X16903800Y-9633800D01*
X16853800Y-9583800D02*
X16953800Y-9583800D01*
X17157800Y-9279800D02*
X17157800Y-9379800D01*
X17107800Y-9329800D02*
X17207800Y-9329800D01*
X17157800Y-9533800D02*
X17157800Y-9633800D01*
X17107800Y-9583800D02*
X17207800Y-9583800D01*
X17259400Y-9914800D02*
X17259400Y-10014800D01*
X17209400Y-9964800D02*
X17309400Y-9964800D01*
X17259400Y-10168800D02*
X17259400Y-10268800D01*
X17209400Y-10218800D02*
X17309400Y-10218800D01*
X17411800Y-9279800D02*
X17411800Y-9379800D01*
X17361800Y-9329800D02*
X17461800Y-9329800D01*
X17411800Y-9533800D02*
X17411800Y-9633800D01*
X17361800Y-9583800D02*
X17461800Y-9583800D01*
X17513400Y-9914800D02*
X17513400Y-10014800D01*
X17463400Y-9964800D02*
X17563400Y-9964800D01*
X17513400Y-10168800D02*
X17513400Y-10268800D01*
X17463400Y-10218800D02*
X17563400Y-10218800D01*
X17767400Y-9914800D02*
X17767400Y-10014800D01*
X17717400Y-9964800D02*
X17817400Y-9964800D01*
X17767400Y-10168800D02*
X17767400Y-10268800D01*
X17717400Y-10218800D02*
X17817400Y-10218800D01*
X18097600Y-9914800D02*
X18097600Y-10014800D01*
X18047600Y-9964800D02*
X18147600Y-9964800D01*
X18097600Y-10168800D02*
X18097600Y-10268800D01*
X18047600Y-10218800D02*
X18147600Y-10218800D01*
X18097600Y-10422800D02*
X18097600Y-10522800D01*
X18047600Y-10472800D02*
X18147600Y-10472800D01*
X18097600Y-10676800D02*
X18097600Y-10776800D01*
X18047600Y-10726800D02*
X18147600Y-10726800D01*
X18097600Y-10930800D02*
X18097600Y-11030800D01*
X18047600Y-10980800D02*
X18147600Y-10980800D01*
X18097600Y-11184800D02*
X18097600Y-11284800D01*
X18047600Y-11234800D02*
X18147600Y-11234800D01*
D12*
X12032128Y-12580014D02*
X12032128Y-12280014D01*
X12103557Y-12280014D01*
X12146414Y-12294300D01*
X12174986Y-12322871D01*
X12189271Y-12351443D01*
X12203557Y-12408586D01*
X12203557Y-12451443D01*
X12189271Y-12508586D01*
X12174986Y-12537157D01*
X12146414Y-12565729D01*
X12103557Y-12580014D01*
X12032128Y-12580014D01*
X12332128Y-12580014D02*
X12332128Y-12380014D01*
X12332128Y-12437157D02*
X12346414Y-12408586D01*
X12360700Y-12394300D01*
X12389271Y-12380014D01*
X12417843Y-12380014D01*
X12517843Y-12580014D02*
X12517843Y-12380014D01*
X12517843Y-12280014D02*
X12503557Y-12294300D01*
X12517843Y-12308586D01*
X12532128Y-12294300D01*
X12517843Y-12280014D01*
X12517843Y-12308586D01*
X12703557Y-12580014D02*
X12674986Y-12565729D01*
X12660700Y-12537157D01*
X12660700Y-12280014D01*
X12860700Y-12580014D02*
X12832128Y-12565729D01*
X12817843Y-12537157D01*
X12817843Y-12280014D01*
X13203557Y-12580014D02*
X13203557Y-12280014D01*
X13303557Y-12494300D01*
X13403557Y-12280014D01*
X13403557Y-12580014D01*
X13674986Y-12580014D02*
X13674986Y-12422871D01*
X13660700Y-12394300D01*
X13632128Y-12380014D01*
X13574986Y-12380014D01*
X13546414Y-12394300D01*
X13674986Y-12565729D02*
X13646414Y-12580014D01*
X13574986Y-12580014D01*
X13546414Y-12565729D01*
X13532128Y-12537157D01*
X13532128Y-12508586D01*
X13546414Y-12480014D01*
X13574986Y-12465729D01*
X13646414Y-12465729D01*
X13674986Y-12451443D01*
X13817843Y-12380014D02*
X13817843Y-12680014D01*
X13817843Y-12394300D02*
X13846414Y-12380014D01*
X13903557Y-12380014D01*
X13932128Y-12394300D01*
X13946414Y-12408586D01*
X13960700Y-12437157D01*
X13960700Y-12522871D01*
X13946414Y-12551443D01*
X13932128Y-12565729D01*
X13903557Y-12580014D01*
X13846414Y-12580014D01*
X13817843Y-12565729D01*
X14089271Y-12551443D02*
X14103557Y-12565729D01*
X14089271Y-12580014D01*
X14074986Y-12565729D01*
X14089271Y-12551443D01*
X14089271Y-12580014D01*
X14089271Y-12394300D02*
X14103557Y-12408586D01*
X14089271Y-12422871D01*
X14074986Y-12408586D01*
X14089271Y-12394300D01*
X14089271Y-12422871D01*
X11705700Y-13054300D02*
X11745700Y-13094300D01*
X11745700Y-13054300D02*
X11705700Y-13094300D01*
X12089271Y-12910014D02*
X12117843Y-12910014D01*
X12146414Y-12924300D01*
X12160700Y-12938586D01*
X12174986Y-12967157D01*
X12189271Y-13024300D01*
X12189271Y-13095729D01*
X12174986Y-13152871D01*
X12160700Y-13181443D01*
X12146414Y-13195729D01*
X12117843Y-13210014D01*
X12089271Y-13210014D01*
X12060700Y-13195729D01*
X12046414Y-13181443D01*
X12032128Y-13152871D01*
X12017843Y-13095729D01*
X12017843Y-13024300D01*
X12032128Y-12967157D01*
X12046414Y-12938586D01*
X12060700Y-12924300D01*
X12089271Y-12910014D01*
X12317843Y-13181443D02*
X12332128Y-13195729D01*
X12317843Y-13210014D01*
X12303557Y-13195729D01*
X12317843Y-13181443D01*
X12317843Y-13210014D01*
X12589271Y-13010014D02*
X12589271Y-13210014D01*
X12517843Y-12895729D02*
X12446414Y-13110014D01*
X12632128Y-13110014D01*
X12803557Y-12910014D02*
X12832128Y-12910014D01*
X12860700Y-12924300D01*
X12874986Y-12938586D01*
X12889271Y-12967157D01*
X12903557Y-13024300D01*
X12903557Y-13095729D01*
X12889271Y-13152871D01*
X12874986Y-13181443D01*
X12860700Y-13195729D01*
X12832128Y-13210014D01*
X12803557Y-13210014D01*
X12774986Y-13195729D01*
X12760700Y-13181443D01*
X12746414Y-13152871D01*
X12732128Y-13095729D01*
X12732128Y-13024300D01*
X12746414Y-12967157D01*
X12760700Y-12938586D01*
X12774986Y-12924300D01*
X12803557Y-12910014D01*
X13089271Y-12910014D02*
X13117843Y-12910014D01*
X13146414Y-12924300D01*
X13160700Y-12938586D01*
X13174986Y-12967157D01*
X13189271Y-13024300D01*
X13189271Y-13095729D01*
X13174986Y-13152871D01*
X13160700Y-13181443D01*
X13146414Y-13195729D01*
X13117843Y-13210014D01*
X13089271Y-13210014D01*
X13060700Y-13195729D01*
X13046414Y-13181443D01*
X13032128Y-13152871D01*
X13017843Y-13095729D01*
X13017843Y-13024300D01*
X13032128Y-12967157D01*
X13046414Y-12938586D01*
X13060700Y-12924300D01*
X13089271Y-12910014D01*
X13317843Y-13210014D02*
X13317843Y-13010014D01*
X13317843Y-13038586D02*
X13332128Y-13024300D01*
X13360700Y-13010014D01*
X13403557Y-13010014D01*
X13432128Y-13024300D01*
X13446414Y-13052871D01*
X13446414Y-13210014D01*
X13446414Y-13052871D02*
X13460700Y-13024300D01*
X13489271Y-13010014D01*
X13532128Y-13010014D01*
X13560700Y-13024300D01*
X13574986Y-13052871D01*
X13574986Y-13210014D01*
X13717843Y-13210014D02*
X13717843Y-13010014D01*
X13717843Y-13038586D02*
X13732128Y-13024300D01*
X13760700Y-13010014D01*
X13803557Y-13010014D01*
X13832128Y-13024300D01*
X13846414Y-13052871D01*
X13846414Y-13210014D01*
X13846414Y-13052871D02*
X13860700Y-13024300D01*
X13889271Y-13010014D01*
X13932128Y-13010014D01*
X13960700Y-13024300D01*
X13974986Y-13052871D01*
X13974986Y-13210014D01*
X14560700Y-12895729D02*
X14303557Y-13281443D01*
X14946414Y-12910014D02*
X14974986Y-12910014D01*
X15003557Y-12924300D01*
X15017843Y-12938586D01*
X15032128Y-12967157D01*
X15046414Y-13024300D01*
X15046414Y-13095729D01*
X15032128Y-13152871D01*
X15017843Y-13181443D01*
X15003557Y-13195729D01*
X14974986Y-13210014D01*
X14946414Y-13210014D01*
X14917843Y-13195729D01*
X14903557Y-13181443D01*
X14889271Y-13152871D01*
X14874986Y-13095729D01*
X14874986Y-13024300D01*
X14889271Y-12967157D01*
X14903557Y-12938586D01*
X14917843Y-12924300D01*
X14946414Y-12910014D01*
X15174986Y-13181443D02*
X15189271Y-13195729D01*
X15174986Y-13210014D01*
X15160700Y-13195729D01*
X15174986Y-13181443D01*
X15174986Y-13210014D01*
X15374986Y-12910014D02*
X15403557Y-12910014D01*
X15432128Y-12924300D01*
X15446414Y-12938586D01*
X15460700Y-12967157D01*
X15474986Y-13024300D01*
X15474986Y-13095729D01*
X15460700Y-13152871D01*
X15446414Y-13181443D01*
X15432128Y-13195729D01*
X15403557Y-13210014D01*
X15374986Y-13210014D01*
X15346414Y-13195729D01*
X15332128Y-13181443D01*
X15317843Y-13152871D01*
X15303557Y-13095729D01*
X15303557Y-13024300D01*
X15317843Y-12967157D01*
X15332128Y-12938586D01*
X15346414Y-12924300D01*
X15374986Y-12910014D01*
X15760700Y-13210014D02*
X15589271Y-13210014D01*
X15674986Y-13210014D02*
X15674986Y-12910014D01*
X15646414Y-12952871D01*
X15617843Y-12981443D01*
X15589271Y-12995729D01*
X16032128Y-12910014D02*
X15889271Y-12910014D01*
X15874986Y-13052871D01*
X15889271Y-13038586D01*
X15917843Y-13024300D01*
X15989271Y-13024300D01*
X16017843Y-13038586D01*
X16032128Y-13052871D01*
X16046414Y-13081443D01*
X16046414Y-13152871D01*
X16032128Y-13181443D01*
X16017843Y-13195729D01*
X15989271Y-13210014D01*
X15917843Y-13210014D01*
X15889271Y-13195729D01*
X15874986Y-13181443D01*
X16146414Y-12910014D02*
X16346414Y-12910014D01*
X16217843Y-13210014D01*
X16446414Y-12910014D02*
X16446414Y-12967157D01*
X16560700Y-12910014D02*
X16560700Y-12967157D01*
X17003557Y-13324300D02*
X16989271Y-13310014D01*
X16960700Y-13267157D01*
X16946414Y-13238586D01*
X16932128Y-13195729D01*
X16917843Y-13124300D01*
X16917843Y-13067157D01*
X16932128Y-12995729D01*
X16946414Y-12952871D01*
X16960700Y-12924300D01*
X16989271Y-12881443D01*
X17003557Y-12867157D01*
X17274986Y-13210014D02*
X17103557Y-13210014D01*
X17189271Y-13210014D02*
X17189271Y-12910014D01*
X17160700Y-12952871D01*
X17132128Y-12981443D01*
X17103557Y-12995729D01*
X17560700Y-13210014D02*
X17389271Y-13210014D01*
X17474986Y-13210014D02*
X17474986Y-12910014D01*
X17446414Y-12952871D01*
X17417843Y-12981443D01*
X17389271Y-12995729D01*
X17660700Y-12910014D02*
X17846414Y-12910014D01*
X17746414Y-13024300D01*
X17789271Y-13024300D01*
X17817843Y-13038586D01*
X17832128Y-13052871D01*
X17846414Y-13081443D01*
X17846414Y-13152871D01*
X17832128Y-13181443D01*
X17817843Y-13195729D01*
X17789271Y-13210014D01*
X17703557Y-13210014D01*
X17674986Y-13195729D01*
X17660700Y-13181443D01*
X18203557Y-13210014D02*
X18203557Y-12910014D01*
X18332128Y-13210014D02*
X18332128Y-13052871D01*
X18317843Y-13024300D01*
X18289271Y-13010014D01*
X18246414Y-13010014D01*
X18217843Y-13024300D01*
X18203557Y-13038586D01*
X18517843Y-13210014D02*
X18489271Y-13195729D01*
X18474986Y-13181443D01*
X18460700Y-13152871D01*
X18460700Y-13067157D01*
X18474986Y-13038586D01*
X18489271Y-13024300D01*
X18517843Y-13010014D01*
X18560700Y-13010014D01*
X18589271Y-13024300D01*
X18603557Y-13038586D01*
X18617843Y-13067157D01*
X18617843Y-13152871D01*
X18603557Y-13181443D01*
X18589271Y-13195729D01*
X18560700Y-13210014D01*
X18517843Y-13210014D01*
X18789271Y-13210014D02*
X18760700Y-13195729D01*
X18746414Y-13167157D01*
X18746414Y-12910014D01*
X19017843Y-13195729D02*
X18989271Y-13210014D01*
X18932128Y-13210014D01*
X18903557Y-13195729D01*
X18889271Y-13167157D01*
X18889271Y-13052871D01*
X18903557Y-13024300D01*
X18932128Y-13010014D01*
X18989271Y-13010014D01*
X19017843Y-13024300D01*
X19032128Y-13052871D01*
X19032128Y-13081443D01*
X18889271Y-13110014D01*
X19146414Y-13195729D02*
X19174986Y-13210014D01*
X19232128Y-13210014D01*
X19260700Y-13195729D01*
X19274986Y-13167157D01*
X19274986Y-13152871D01*
X19260700Y-13124300D01*
X19232128Y-13110014D01*
X19189271Y-13110014D01*
X19160700Y-13095729D01*
X19146414Y-13067157D01*
X19146414Y-13052871D01*
X19160700Y-13024300D01*
X19189271Y-13010014D01*
X19232128Y-13010014D01*
X19260700Y-13024300D01*
X19374986Y-13324300D02*
X19389271Y-13310014D01*
X19417843Y-13267157D01*
X19432128Y-13238586D01*
X19446414Y-13195729D01*
X19460700Y-13124300D01*
X19460700Y-13067157D01*
X19446414Y-12995729D01*
X19432128Y-12952871D01*
X19417843Y-12924300D01*
X19389271Y-12881443D01*
X19374986Y-12867157D01*
X11745700Y-13470300D02*
G75*
G03*
X11745700Y-13470300I-45000J0D01*
G01*
X12089271Y-13306014D02*
X12117843Y-13306014D01*
X12146414Y-13320300D01*
X12160700Y-13334586D01*
X12174986Y-13363157D01*
X12189271Y-13420300D01*
X12189271Y-13491729D01*
X12174986Y-13548871D01*
X12160700Y-13577443D01*
X12146414Y-13591729D01*
X12117843Y-13606014D01*
X12089271Y-13606014D01*
X12060700Y-13591729D01*
X12046414Y-13577443D01*
X12032128Y-13548871D01*
X12017843Y-13491729D01*
X12017843Y-13420300D01*
X12032128Y-13363157D01*
X12046414Y-13334586D01*
X12060700Y-13320300D01*
X12089271Y-13306014D01*
X12317843Y-13577443D02*
X12332128Y-13591729D01*
X12317843Y-13606014D01*
X12303557Y-13591729D01*
X12317843Y-13577443D01*
X12317843Y-13606014D01*
X12474986Y-13606014D02*
X12532128Y-13606014D01*
X12560700Y-13591729D01*
X12574986Y-13577443D01*
X12603557Y-13534586D01*
X12617843Y-13477443D01*
X12617843Y-13363157D01*
X12603557Y-13334586D01*
X12589271Y-13320300D01*
X12560700Y-13306014D01*
X12503557Y-13306014D01*
X12474986Y-13320300D01*
X12460700Y-13334586D01*
X12446414Y-13363157D01*
X12446414Y-13434586D01*
X12460700Y-13463157D01*
X12474986Y-13477443D01*
X12503557Y-13491729D01*
X12560700Y-13491729D01*
X12589271Y-13477443D01*
X12603557Y-13463157D01*
X12617843Y-13434586D01*
X12803557Y-13306014D02*
X12832128Y-13306014D01*
X12860700Y-13320300D01*
X12874986Y-13334586D01*
X12889271Y-13363157D01*
X12903557Y-13420300D01*
X12903557Y-13491729D01*
X12889271Y-13548871D01*
X12874986Y-13577443D01*
X12860700Y-13591729D01*
X12832128Y-13606014D01*
X12803557Y-13606014D01*
X12774986Y-13591729D01*
X12760700Y-13577443D01*
X12746414Y-13548871D01*
X12732128Y-13491729D01*
X12732128Y-13420300D01*
X12746414Y-13363157D01*
X12760700Y-13334586D01*
X12774986Y-13320300D01*
X12803557Y-13306014D01*
X13089271Y-13306014D02*
X13117843Y-13306014D01*
X13146414Y-13320300D01*
X13160700Y-13334586D01*
X13174986Y-13363157D01*
X13189271Y-13420300D01*
X13189271Y-13491729D01*
X13174986Y-13548871D01*
X13160700Y-13577443D01*
X13146414Y-13591729D01*
X13117843Y-13606014D01*
X13089271Y-13606014D01*
X13060700Y-13591729D01*
X13046414Y-13577443D01*
X13032128Y-13548871D01*
X13017843Y-13491729D01*
X13017843Y-13420300D01*
X13032128Y-13363157D01*
X13046414Y-13334586D01*
X13060700Y-13320300D01*
X13089271Y-13306014D01*
X13317843Y-13606014D02*
X13317843Y-13406014D01*
X13317843Y-13434586D02*
X13332128Y-13420300D01*
X13360700Y-13406014D01*
X13403557Y-13406014D01*
X13432128Y-13420300D01*
X13446414Y-13448871D01*
X13446414Y-13606014D01*
X13446414Y-13448871D02*
X13460700Y-13420300D01*
X13489271Y-13406014D01*
X13532128Y-13406014D01*
X13560700Y-13420300D01*
X13574986Y-13448871D01*
X13574986Y-13606014D01*
X13717843Y-13606014D02*
X13717843Y-13406014D01*
X13717843Y-13434586D02*
X13732128Y-13420300D01*
X13760700Y-13406014D01*
X13803557Y-13406014D01*
X13832128Y-13420300D01*
X13846414Y-13448871D01*
X13846414Y-13606014D01*
X13846414Y-13448871D02*
X13860700Y-13420300D01*
X13889271Y-13406014D01*
X13932128Y-13406014D01*
X13960700Y-13420300D01*
X13974986Y-13448871D01*
X13974986Y-13606014D01*
X14560700Y-13291729D02*
X14303557Y-13677443D01*
X14946414Y-13306014D02*
X14974986Y-13306014D01*
X15003557Y-13320300D01*
X15017843Y-13334586D01*
X15032128Y-13363157D01*
X15046414Y-13420300D01*
X15046414Y-13491729D01*
X15032128Y-13548871D01*
X15017843Y-13577443D01*
X15003557Y-13591729D01*
X14974986Y-13606014D01*
X14946414Y-13606014D01*
X14917843Y-13591729D01*
X14903557Y-13577443D01*
X14889271Y-13548871D01*
X14874986Y-13491729D01*
X14874986Y-13420300D01*
X14889271Y-13363157D01*
X14903557Y-13334586D01*
X14917843Y-13320300D01*
X14946414Y-13306014D01*
X15174986Y-13577443D02*
X15189271Y-13591729D01*
X15174986Y-13606014D01*
X15160700Y-13591729D01*
X15174986Y-13577443D01*
X15174986Y-13606014D01*
X15374986Y-13306014D02*
X15403557Y-13306014D01*
X15432128Y-13320300D01*
X15446414Y-13334586D01*
X15460700Y-13363157D01*
X15474986Y-13420300D01*
X15474986Y-13491729D01*
X15460700Y-13548871D01*
X15446414Y-13577443D01*
X15432128Y-13591729D01*
X15403557Y-13606014D01*
X15374986Y-13606014D01*
X15346414Y-13591729D01*
X15332128Y-13577443D01*
X15317843Y-13548871D01*
X15303557Y-13491729D01*
X15303557Y-13420300D01*
X15317843Y-13363157D01*
X15332128Y-13334586D01*
X15346414Y-13320300D01*
X15374986Y-13306014D01*
X15574986Y-13306014D02*
X15760700Y-13306014D01*
X15660700Y-13420300D01*
X15703557Y-13420300D01*
X15732128Y-13434586D01*
X15746414Y-13448871D01*
X15760700Y-13477443D01*
X15760700Y-13548871D01*
X15746414Y-13577443D01*
X15732128Y-13591729D01*
X15703557Y-13606014D01*
X15617843Y-13606014D01*
X15589271Y-13591729D01*
X15574986Y-13577443D01*
X16032128Y-13306014D02*
X15889271Y-13306014D01*
X15874986Y-13448871D01*
X15889271Y-13434586D01*
X15917843Y-13420300D01*
X15989271Y-13420300D01*
X16017843Y-13434586D01*
X16032128Y-13448871D01*
X16046414Y-13477443D01*
X16046414Y-13548871D01*
X16032128Y-13577443D01*
X16017843Y-13591729D01*
X15989271Y-13606014D01*
X15917843Y-13606014D01*
X15889271Y-13591729D01*
X15874986Y-13577443D01*
X16303557Y-13406014D02*
X16303557Y-13606014D01*
X16232128Y-13291729D02*
X16160700Y-13506014D01*
X16346414Y-13506014D01*
X16446414Y-13306014D02*
X16446414Y-13363157D01*
X16560700Y-13306014D02*
X16560700Y-13363157D01*
X17003557Y-13720300D02*
X16989271Y-13706014D01*
X16960700Y-13663157D01*
X16946414Y-13634586D01*
X16932128Y-13591729D01*
X16917843Y-13520300D01*
X16917843Y-13463157D01*
X16932128Y-13391729D01*
X16946414Y-13348871D01*
X16960700Y-13320300D01*
X16989271Y-13277443D01*
X17003557Y-13263157D01*
X17132128Y-13606014D02*
X17189271Y-13606014D01*
X17217843Y-13591729D01*
X17232128Y-13577443D01*
X17260700Y-13534586D01*
X17274986Y-13477443D01*
X17274986Y-13363157D01*
X17260700Y-13334586D01*
X17246414Y-13320300D01*
X17217843Y-13306014D01*
X17160700Y-13306014D01*
X17132128Y-13320300D01*
X17117843Y-13334586D01*
X17103557Y-13363157D01*
X17103557Y-13434586D01*
X17117843Y-13463157D01*
X17132128Y-13477443D01*
X17160700Y-13491729D01*
X17217843Y-13491729D01*
X17246414Y-13477443D01*
X17260700Y-13463157D01*
X17274986Y-13434586D01*
X17632128Y-13606014D02*
X17632128Y-13306014D01*
X17760700Y-13606014D02*
X17760700Y-13448871D01*
X17746414Y-13420300D01*
X17717843Y-13406014D01*
X17674986Y-13406014D01*
X17646414Y-13420300D01*
X17632128Y-13434586D01*
X17946414Y-13606014D02*
X17917843Y-13591729D01*
X17903557Y-13577443D01*
X17889271Y-13548871D01*
X17889271Y-13463157D01*
X17903557Y-13434586D01*
X17917843Y-13420300D01*
X17946414Y-13406014D01*
X17989271Y-13406014D01*
X18017843Y-13420300D01*
X18032128Y-13434586D01*
X18046414Y-13463157D01*
X18046414Y-13548871D01*
X18032128Y-13577443D01*
X18017843Y-13591729D01*
X17989271Y-13606014D01*
X17946414Y-13606014D01*
X18217843Y-13606014D02*
X18189271Y-13591729D01*
X18174986Y-13563157D01*
X18174986Y-13306014D01*
X18446414Y-13591729D02*
X18417843Y-13606014D01*
X18360700Y-13606014D01*
X18332128Y-13591729D01*
X18317843Y-13563157D01*
X18317843Y-13448871D01*
X18332128Y-13420300D01*
X18360700Y-13406014D01*
X18417843Y-13406014D01*
X18446414Y-13420300D01*
X18460700Y-13448871D01*
X18460700Y-13477443D01*
X18317843Y-13506014D01*
X18574986Y-13591729D02*
X18603557Y-13606014D01*
X18660700Y-13606014D01*
X18689271Y-13591729D01*
X18703557Y-13563157D01*
X18703557Y-13548871D01*
X18689271Y-13520300D01*
X18660700Y-13506014D01*
X18617843Y-13506014D01*
X18589271Y-13491729D01*
X18574986Y-13463157D01*
X18574986Y-13448871D01*
X18589271Y-13420300D01*
X18617843Y-13406014D01*
X18660700Y-13406014D01*
X18689271Y-13420300D01*
X18803557Y-13720300D02*
X18817843Y-13706014D01*
X18846414Y-13663157D01*
X18860700Y-13634586D01*
X18874986Y-13591729D01*
X18889271Y-13520300D01*
X18889271Y-13463157D01*
X18874986Y-13391729D01*
X18860700Y-13348871D01*
X18846414Y-13320300D01*
X18817843Y-13277443D01*
X18803557Y-13263157D01*
X11695700Y-13816300D02*
X11695700Y-13916300D01*
X11645700Y-13866300D02*
X11745700Y-13866300D01*
X12189271Y-14002014D02*
X12017843Y-14002014D01*
X12103557Y-14002014D02*
X12103557Y-13702014D01*
X12074986Y-13744871D01*
X12046414Y-13773443D01*
X12017843Y-13787729D01*
X12317843Y-13973443D02*
X12332128Y-13987729D01*
X12317843Y-14002014D01*
X12303557Y-13987729D01*
X12317843Y-13973443D01*
X12317843Y-14002014D01*
X12517843Y-13702014D02*
X12546414Y-13702014D01*
X12574986Y-13716300D01*
X12589271Y-13730586D01*
X12603557Y-13759157D01*
X12617843Y-13816300D01*
X12617843Y-13887729D01*
X12603557Y-13944871D01*
X12589271Y-13973443D01*
X12574986Y-13987729D01*
X12546414Y-14002014D01*
X12517843Y-14002014D01*
X12489271Y-13987729D01*
X12474986Y-13973443D01*
X12460700Y-13944871D01*
X12446414Y-13887729D01*
X12446414Y-13816300D01*
X12460700Y-13759157D01*
X12474986Y-13730586D01*
X12489271Y-13716300D01*
X12517843Y-13702014D01*
X12803557Y-13702014D02*
X12832128Y-13702014D01*
X12860700Y-13716300D01*
X12874986Y-13730586D01*
X12889271Y-13759157D01*
X12903557Y-13816300D01*
X12903557Y-13887729D01*
X12889271Y-13944871D01*
X12874986Y-13973443D01*
X12860700Y-13987729D01*
X12832128Y-14002014D01*
X12803557Y-14002014D01*
X12774986Y-13987729D01*
X12760700Y-13973443D01*
X12746414Y-13944871D01*
X12732128Y-13887729D01*
X12732128Y-13816300D01*
X12746414Y-13759157D01*
X12760700Y-13730586D01*
X12774986Y-13716300D01*
X12803557Y-13702014D01*
X13089271Y-13702014D02*
X13117843Y-13702014D01*
X13146414Y-13716300D01*
X13160700Y-13730586D01*
X13174986Y-13759157D01*
X13189271Y-13816300D01*
X13189271Y-13887729D01*
X13174986Y-13944871D01*
X13160700Y-13973443D01*
X13146414Y-13987729D01*
X13117843Y-14002014D01*
X13089271Y-14002014D01*
X13060700Y-13987729D01*
X13046414Y-13973443D01*
X13032128Y-13944871D01*
X13017843Y-13887729D01*
X13017843Y-13816300D01*
X13032128Y-13759157D01*
X13046414Y-13730586D01*
X13060700Y-13716300D01*
X13089271Y-13702014D01*
X13317843Y-14002014D02*
X13317843Y-13802014D01*
X13317843Y-13830586D02*
X13332128Y-13816300D01*
X13360700Y-13802014D01*
X13403557Y-13802014D01*
X13432128Y-13816300D01*
X13446414Y-13844871D01*
X13446414Y-14002014D01*
X13446414Y-13844871D02*
X13460700Y-13816300D01*
X13489271Y-13802014D01*
X13532128Y-13802014D01*
X13560700Y-13816300D01*
X13574986Y-13844871D01*
X13574986Y-14002014D01*
X13717843Y-14002014D02*
X13717843Y-13802014D01*
X13717843Y-13830586D02*
X13732128Y-13816300D01*
X13760700Y-13802014D01*
X13803557Y-13802014D01*
X13832128Y-13816300D01*
X13846414Y-13844871D01*
X13846414Y-14002014D01*
X13846414Y-13844871D02*
X13860700Y-13816300D01*
X13889271Y-13802014D01*
X13932128Y-13802014D01*
X13960700Y-13816300D01*
X13974986Y-13844871D01*
X13974986Y-14002014D01*
X14560700Y-13687729D02*
X14303557Y-14073443D01*
X14946414Y-13702014D02*
X14974986Y-13702014D01*
X15003557Y-13716300D01*
X15017843Y-13730586D01*
X15032128Y-13759157D01*
X15046414Y-13816300D01*
X15046414Y-13887729D01*
X15032128Y-13944871D01*
X15017843Y-13973443D01*
X15003557Y-13987729D01*
X14974986Y-14002014D01*
X14946414Y-14002014D01*
X14917843Y-13987729D01*
X14903557Y-13973443D01*
X14889271Y-13944871D01*
X14874986Y-13887729D01*
X14874986Y-13816300D01*
X14889271Y-13759157D01*
X14903557Y-13730586D01*
X14917843Y-13716300D01*
X14946414Y-13702014D01*
X15174986Y-13973443D02*
X15189271Y-13987729D01*
X15174986Y-14002014D01*
X15160700Y-13987729D01*
X15174986Y-13973443D01*
X15174986Y-14002014D01*
X15374986Y-13702014D02*
X15403557Y-13702014D01*
X15432128Y-13716300D01*
X15446414Y-13730586D01*
X15460700Y-13759157D01*
X15474986Y-13816300D01*
X15474986Y-13887729D01*
X15460700Y-13944871D01*
X15446414Y-13973443D01*
X15432128Y-13987729D01*
X15403557Y-14002014D01*
X15374986Y-14002014D01*
X15346414Y-13987729D01*
X15332128Y-13973443D01*
X15317843Y-13944871D01*
X15303557Y-13887729D01*
X15303557Y-13816300D01*
X15317843Y-13759157D01*
X15332128Y-13730586D01*
X15346414Y-13716300D01*
X15374986Y-13702014D01*
X15574986Y-13702014D02*
X15760700Y-13702014D01*
X15660700Y-13816300D01*
X15703557Y-13816300D01*
X15732128Y-13830586D01*
X15746414Y-13844871D01*
X15760700Y-13873443D01*
X15760700Y-13944871D01*
X15746414Y-13973443D01*
X15732128Y-13987729D01*
X15703557Y-14002014D01*
X15617843Y-14002014D01*
X15589271Y-13987729D01*
X15574986Y-13973443D01*
X15903557Y-14002014D02*
X15960700Y-14002014D01*
X15989271Y-13987729D01*
X16003557Y-13973443D01*
X16032128Y-13930586D01*
X16046414Y-13873443D01*
X16046414Y-13759157D01*
X16032128Y-13730586D01*
X16017843Y-13716300D01*
X15989271Y-13702014D01*
X15932128Y-13702014D01*
X15903557Y-13716300D01*
X15889271Y-13730586D01*
X15874986Y-13759157D01*
X15874986Y-13830586D01*
X15889271Y-13859157D01*
X15903557Y-13873443D01*
X15932128Y-13887729D01*
X15989271Y-13887729D01*
X16017843Y-13873443D01*
X16032128Y-13859157D01*
X16046414Y-13830586D01*
X16303557Y-13802014D02*
X16303557Y-14002014D01*
X16232128Y-13687729D02*
X16160700Y-13902014D01*
X16346414Y-13902014D01*
X16446414Y-13702014D02*
X16446414Y-13759157D01*
X16560700Y-13702014D02*
X16560700Y-13759157D01*
X17003557Y-14116300D02*
X16989271Y-14102014D01*
X16960700Y-14059157D01*
X16946414Y-14030586D01*
X16932128Y-13987729D01*
X16917843Y-13916300D01*
X16917843Y-13859157D01*
X16932128Y-13787729D01*
X16946414Y-13744871D01*
X16960700Y-13716300D01*
X16989271Y-13673443D01*
X17003557Y-13659157D01*
X17260700Y-13702014D02*
X17117843Y-13702014D01*
X17103557Y-13844871D01*
X17117843Y-13830586D01*
X17146414Y-13816300D01*
X17217843Y-13816300D01*
X17246414Y-13830586D01*
X17260700Y-13844871D01*
X17274986Y-13873443D01*
X17274986Y-13944871D01*
X17260700Y-13973443D01*
X17246414Y-13987729D01*
X17217843Y-14002014D01*
X17146414Y-14002014D01*
X17117843Y-13987729D01*
X17103557Y-13973443D01*
X17374986Y-13702014D02*
X17574986Y-13702014D01*
X17446414Y-14002014D01*
X17917843Y-14002014D02*
X17917843Y-13702014D01*
X18046414Y-14002014D02*
X18046414Y-13844871D01*
X18032128Y-13816300D01*
X18003557Y-13802014D01*
X17960700Y-13802014D01*
X17932128Y-13816300D01*
X17917843Y-13830586D01*
X18232128Y-14002014D02*
X18203557Y-13987729D01*
X18189271Y-13973443D01*
X18174986Y-13944871D01*
X18174986Y-13859157D01*
X18189271Y-13830586D01*
X18203557Y-13816300D01*
X18232128Y-13802014D01*
X18274986Y-13802014D01*
X18303557Y-13816300D01*
X18317843Y-13830586D01*
X18332128Y-13859157D01*
X18332128Y-13944871D01*
X18317843Y-13973443D01*
X18303557Y-13987729D01*
X18274986Y-14002014D01*
X18232128Y-14002014D01*
X18503557Y-14002014D02*
X18474986Y-13987729D01*
X18460700Y-13959157D01*
X18460700Y-13702014D01*
X18732128Y-13987729D02*
X18703557Y-14002014D01*
X18646414Y-14002014D01*
X18617843Y-13987729D01*
X18603557Y-13959157D01*
X18603557Y-13844871D01*
X18617843Y-13816300D01*
X18646414Y-13802014D01*
X18703557Y-13802014D01*
X18732128Y-13816300D01*
X18746414Y-13844871D01*
X18746414Y-13873443D01*
X18603557Y-13902014D01*
X18860700Y-13987729D02*
X18889271Y-14002014D01*
X18946414Y-14002014D01*
X18974986Y-13987729D01*
X18989271Y-13959157D01*
X18989271Y-13944871D01*
X18974986Y-13916300D01*
X18946414Y-13902014D01*
X18903557Y-13902014D01*
X18874986Y-13887729D01*
X18860700Y-13859157D01*
X18860700Y-13844871D01*
X18874986Y-13816300D01*
X18903557Y-13802014D01*
X18946414Y-13802014D01*
X18974986Y-13816300D01*
X19089271Y-14116300D02*
X19103557Y-14102014D01*
X19132128Y-14059157D01*
X19146414Y-14030586D01*
X19160700Y-13987729D01*
X19174986Y-13916300D01*
X19174986Y-13859157D01*
X19160700Y-13787729D01*
X19146414Y-13744871D01*
X19132128Y-13716300D01*
X19103557Y-13673443D01*
X19089271Y-13659157D01*
M02*
