%FSLAX45Y45*%
G04 Gerber Fmt 4.5, Leading zero omitted, Abs format (unit mm)*
G04 Created by KiCad (PCBNEW (5.1.10-1-10_14)) date 2021-10-18 21:09:25*
%MOMM*%
%LPD*%
G01*
G04 APERTURE LIST*
%TA.AperFunction,Profile*%
%ADD10C,0.150000*%
%TD*%
%ADD11C,0.200000*%
%ADD12C,0.300000*%
G04 APERTURE END LIST*
D10*
X12103200Y-12106800D02*
X12053200Y-12106800D01*
X17903200Y-12106800D02*
X17953200Y-12106800D01*
X18253200Y-9406800D02*
X18253200Y-11806800D01*
X12053200Y-9106800D02*
X17953200Y-9106800D01*
X11753200Y-11806800D02*
X11753200Y-9406800D01*
X11753200Y-9406800D02*
G75*
G02*
X12053200Y-9106800I300000J0D01*
G01*
X12053200Y-12106800D02*
G75*
G02*
X11753200Y-11806800I0J300000D01*
G01*
X18253200Y-11806800D02*
G75*
G02*
X17953200Y-12106800I-300000J0D01*
G01*
X17953200Y-9106800D02*
G75*
G02*
X18253200Y-9406800I0J-300000D01*
G01*
X12103200Y-12106800D02*
X17903200Y-12106800D01*
D11*
X11968200Y-9321800D02*
X12238200Y-9591800D01*
X12238200Y-9321800D02*
X11968200Y-9591800D01*
X11968200Y-11621800D02*
X12238200Y-11891800D01*
X12238200Y-11621800D02*
X11968200Y-11891800D01*
X17768200Y-9321800D02*
X18038200Y-9591800D01*
X18038200Y-9321800D02*
X17768200Y-9591800D01*
X17768200Y-11621800D02*
X18038200Y-11891800D01*
X18038200Y-11621800D02*
X17768200Y-11891800D01*
D12*
X12032128Y-12580014D02*
X12032128Y-12280014D01*
X12103557Y-12280014D01*
X12146414Y-12294300D01*
X12174986Y-12322871D01*
X12189271Y-12351443D01*
X12203557Y-12408586D01*
X12203557Y-12451443D01*
X12189271Y-12508586D01*
X12174986Y-12537157D01*
X12146414Y-12565729D01*
X12103557Y-12580014D01*
X12032128Y-12580014D01*
X12332128Y-12580014D02*
X12332128Y-12380014D01*
X12332128Y-12437157D02*
X12346414Y-12408586D01*
X12360700Y-12394300D01*
X12389271Y-12380014D01*
X12417843Y-12380014D01*
X12517843Y-12580014D02*
X12517843Y-12380014D01*
X12517843Y-12280014D02*
X12503557Y-12294300D01*
X12517843Y-12308586D01*
X12532128Y-12294300D01*
X12517843Y-12280014D01*
X12517843Y-12308586D01*
X12703557Y-12580014D02*
X12674986Y-12565729D01*
X12660700Y-12537157D01*
X12660700Y-12280014D01*
X12860700Y-12580014D02*
X12832128Y-12565729D01*
X12817843Y-12537157D01*
X12817843Y-12280014D01*
X13203557Y-12580014D02*
X13203557Y-12280014D01*
X13303557Y-12494300D01*
X13403557Y-12280014D01*
X13403557Y-12580014D01*
X13674986Y-12580014D02*
X13674986Y-12422871D01*
X13660700Y-12394300D01*
X13632128Y-12380014D01*
X13574986Y-12380014D01*
X13546414Y-12394300D01*
X13674986Y-12565729D02*
X13646414Y-12580014D01*
X13574986Y-12580014D01*
X13546414Y-12565729D01*
X13532128Y-12537157D01*
X13532128Y-12508586D01*
X13546414Y-12480014D01*
X13574986Y-12465729D01*
X13646414Y-12465729D01*
X13674986Y-12451443D01*
X13817843Y-12380014D02*
X13817843Y-12680014D01*
X13817843Y-12394300D02*
X13846414Y-12380014D01*
X13903557Y-12380014D01*
X13932128Y-12394300D01*
X13946414Y-12408586D01*
X13960700Y-12437157D01*
X13960700Y-12522871D01*
X13946414Y-12551443D01*
X13932128Y-12565729D01*
X13903557Y-12580014D01*
X13846414Y-12580014D01*
X13817843Y-12565729D01*
X14089271Y-12551443D02*
X14103557Y-12565729D01*
X14089271Y-12580014D01*
X14074986Y-12565729D01*
X14089271Y-12551443D01*
X14089271Y-12580014D01*
X14089271Y-12394300D02*
X14103557Y-12408586D01*
X14089271Y-12422871D01*
X14074986Y-12408586D01*
X14089271Y-12394300D01*
X14089271Y-12422871D01*
X11475700Y-12939300D02*
X11745700Y-13209300D01*
X11745700Y-12939300D02*
X11475700Y-13209300D01*
X12017843Y-12938586D02*
X12032128Y-12924300D01*
X12060700Y-12910014D01*
X12132128Y-12910014D01*
X12160700Y-12924300D01*
X12174986Y-12938586D01*
X12189271Y-12967157D01*
X12189271Y-12995729D01*
X12174986Y-13038586D01*
X12003557Y-13210014D01*
X12189271Y-13210014D01*
X12317843Y-13181443D02*
X12332128Y-13195729D01*
X12317843Y-13210014D01*
X12303557Y-13195729D01*
X12317843Y-13181443D01*
X12317843Y-13210014D01*
X12432128Y-12910014D02*
X12632128Y-12910014D01*
X12503557Y-13210014D01*
X12803557Y-12910014D02*
X12832128Y-12910014D01*
X12860700Y-12924300D01*
X12874986Y-12938586D01*
X12889271Y-12967157D01*
X12903557Y-13024300D01*
X12903557Y-13095729D01*
X12889271Y-13152871D01*
X12874986Y-13181443D01*
X12860700Y-13195729D01*
X12832128Y-13210014D01*
X12803557Y-13210014D01*
X12774986Y-13195729D01*
X12760700Y-13181443D01*
X12746414Y-13152871D01*
X12732128Y-13095729D01*
X12732128Y-13024300D01*
X12746414Y-12967157D01*
X12760700Y-12938586D01*
X12774986Y-12924300D01*
X12803557Y-12910014D01*
X13089271Y-12910014D02*
X13117843Y-12910014D01*
X13146414Y-12924300D01*
X13160700Y-12938586D01*
X13174986Y-12967157D01*
X13189271Y-13024300D01*
X13189271Y-13095729D01*
X13174986Y-13152871D01*
X13160700Y-13181443D01*
X13146414Y-13195729D01*
X13117843Y-13210014D01*
X13089271Y-13210014D01*
X13060700Y-13195729D01*
X13046414Y-13181443D01*
X13032128Y-13152871D01*
X13017843Y-13095729D01*
X13017843Y-13024300D01*
X13032128Y-12967157D01*
X13046414Y-12938586D01*
X13060700Y-12924300D01*
X13089271Y-12910014D01*
X13317843Y-13210014D02*
X13317843Y-13010014D01*
X13317843Y-13038586D02*
X13332128Y-13024300D01*
X13360700Y-13010014D01*
X13403557Y-13010014D01*
X13432128Y-13024300D01*
X13446414Y-13052871D01*
X13446414Y-13210014D01*
X13446414Y-13052871D02*
X13460700Y-13024300D01*
X13489271Y-13010014D01*
X13532128Y-13010014D01*
X13560700Y-13024300D01*
X13574986Y-13052871D01*
X13574986Y-13210014D01*
X13717843Y-13210014D02*
X13717843Y-13010014D01*
X13717843Y-13038586D02*
X13732128Y-13024300D01*
X13760700Y-13010014D01*
X13803557Y-13010014D01*
X13832128Y-13024300D01*
X13846414Y-13052871D01*
X13846414Y-13210014D01*
X13846414Y-13052871D02*
X13860700Y-13024300D01*
X13889271Y-13010014D01*
X13932128Y-13010014D01*
X13960700Y-13024300D01*
X13974986Y-13052871D01*
X13974986Y-13210014D01*
X14560700Y-12895729D02*
X14303557Y-13281443D01*
X14946414Y-12910014D02*
X14974986Y-12910014D01*
X15003557Y-12924300D01*
X15017843Y-12938586D01*
X15032128Y-12967157D01*
X15046414Y-13024300D01*
X15046414Y-13095729D01*
X15032128Y-13152871D01*
X15017843Y-13181443D01*
X15003557Y-13195729D01*
X14974986Y-13210014D01*
X14946414Y-13210014D01*
X14917843Y-13195729D01*
X14903557Y-13181443D01*
X14889271Y-13152871D01*
X14874986Y-13095729D01*
X14874986Y-13024300D01*
X14889271Y-12967157D01*
X14903557Y-12938586D01*
X14917843Y-12924300D01*
X14946414Y-12910014D01*
X15174986Y-13181443D02*
X15189271Y-13195729D01*
X15174986Y-13210014D01*
X15160700Y-13195729D01*
X15174986Y-13181443D01*
X15174986Y-13210014D01*
X15474986Y-13210014D02*
X15303557Y-13210014D01*
X15389271Y-13210014D02*
X15389271Y-12910014D01*
X15360700Y-12952871D01*
X15332128Y-12981443D01*
X15303557Y-12995729D01*
X15660700Y-12910014D02*
X15689271Y-12910014D01*
X15717843Y-12924300D01*
X15732128Y-12938586D01*
X15746414Y-12967157D01*
X15760700Y-13024300D01*
X15760700Y-13095729D01*
X15746414Y-13152871D01*
X15732128Y-13181443D01*
X15717843Y-13195729D01*
X15689271Y-13210014D01*
X15660700Y-13210014D01*
X15632128Y-13195729D01*
X15617843Y-13181443D01*
X15603557Y-13152871D01*
X15589271Y-13095729D01*
X15589271Y-13024300D01*
X15603557Y-12967157D01*
X15617843Y-12938586D01*
X15632128Y-12924300D01*
X15660700Y-12910014D01*
X16017843Y-12910014D02*
X15960700Y-12910014D01*
X15932128Y-12924300D01*
X15917843Y-12938586D01*
X15889271Y-12981443D01*
X15874986Y-13038586D01*
X15874986Y-13152871D01*
X15889271Y-13181443D01*
X15903557Y-13195729D01*
X15932128Y-13210014D01*
X15989271Y-13210014D01*
X16017843Y-13195729D01*
X16032128Y-13181443D01*
X16046414Y-13152871D01*
X16046414Y-13081443D01*
X16032128Y-13052871D01*
X16017843Y-13038586D01*
X15989271Y-13024300D01*
X15932128Y-13024300D01*
X15903557Y-13038586D01*
X15889271Y-13052871D01*
X15874986Y-13081443D01*
X16146414Y-12910014D02*
X16332128Y-12910014D01*
X16232128Y-13024300D01*
X16274986Y-13024300D01*
X16303557Y-13038586D01*
X16317843Y-13052871D01*
X16332128Y-13081443D01*
X16332128Y-13152871D01*
X16317843Y-13181443D01*
X16303557Y-13195729D01*
X16274986Y-13210014D01*
X16189271Y-13210014D01*
X16160700Y-13195729D01*
X16146414Y-13181443D01*
X16446414Y-12910014D02*
X16446414Y-12967157D01*
X16560700Y-12910014D02*
X16560700Y-12967157D01*
X17003557Y-13324300D02*
X16989271Y-13310014D01*
X16960700Y-13267157D01*
X16946414Y-13238586D01*
X16932128Y-13195729D01*
X16917843Y-13124300D01*
X16917843Y-13067157D01*
X16932128Y-12995729D01*
X16946414Y-12952871D01*
X16960700Y-12924300D01*
X16989271Y-12881443D01*
X17003557Y-12867157D01*
X17246414Y-13010014D02*
X17246414Y-13210014D01*
X17174986Y-12895729D02*
X17103557Y-13110014D01*
X17289271Y-13110014D01*
X17632128Y-13210014D02*
X17632128Y-12910014D01*
X17760700Y-13210014D02*
X17760700Y-13052871D01*
X17746414Y-13024300D01*
X17717843Y-13010014D01*
X17674986Y-13010014D01*
X17646414Y-13024300D01*
X17632128Y-13038586D01*
X17946414Y-13210014D02*
X17917843Y-13195729D01*
X17903557Y-13181443D01*
X17889271Y-13152871D01*
X17889271Y-13067157D01*
X17903557Y-13038586D01*
X17917843Y-13024300D01*
X17946414Y-13010014D01*
X17989271Y-13010014D01*
X18017843Y-13024300D01*
X18032128Y-13038586D01*
X18046414Y-13067157D01*
X18046414Y-13152871D01*
X18032128Y-13181443D01*
X18017843Y-13195729D01*
X17989271Y-13210014D01*
X17946414Y-13210014D01*
X18217843Y-13210014D02*
X18189271Y-13195729D01*
X18174986Y-13167157D01*
X18174986Y-12910014D01*
X18446414Y-13195729D02*
X18417843Y-13210014D01*
X18360700Y-13210014D01*
X18332128Y-13195729D01*
X18317843Y-13167157D01*
X18317843Y-13052871D01*
X18332128Y-13024300D01*
X18360700Y-13010014D01*
X18417843Y-13010014D01*
X18446414Y-13024300D01*
X18460700Y-13052871D01*
X18460700Y-13081443D01*
X18317843Y-13110014D01*
X18574986Y-13195729D02*
X18603557Y-13210014D01*
X18660700Y-13210014D01*
X18689271Y-13195729D01*
X18703557Y-13167157D01*
X18703557Y-13152871D01*
X18689271Y-13124300D01*
X18660700Y-13110014D01*
X18617843Y-13110014D01*
X18589271Y-13095729D01*
X18574986Y-13067157D01*
X18574986Y-13052871D01*
X18589271Y-13024300D01*
X18617843Y-13010014D01*
X18660700Y-13010014D01*
X18689271Y-13024300D01*
X18803557Y-13324300D02*
X18817843Y-13310014D01*
X18846414Y-13267157D01*
X18860700Y-13238586D01*
X18874986Y-13195729D01*
X18889271Y-13124300D01*
X18889271Y-13067157D01*
X18874986Y-12995729D01*
X18860700Y-12952871D01*
X18846414Y-12924300D01*
X18817843Y-12881443D01*
X18803557Y-12867157D01*
X19346414Y-13324300D02*
X19332128Y-13310014D01*
X19303557Y-13267157D01*
X19289271Y-13238586D01*
X19274986Y-13195729D01*
X19260700Y-13124300D01*
X19260700Y-13067157D01*
X19274986Y-12995729D01*
X19289271Y-12952871D01*
X19303557Y-12924300D01*
X19332128Y-12881443D01*
X19346414Y-12867157D01*
X19460700Y-13010014D02*
X19460700Y-13210014D01*
X19460700Y-13038586D02*
X19474986Y-13024300D01*
X19503557Y-13010014D01*
X19546414Y-13010014D01*
X19574986Y-13024300D01*
X19589271Y-13052871D01*
X19589271Y-13210014D01*
X19774986Y-13210014D02*
X19746414Y-13195729D01*
X19732128Y-13181443D01*
X19717843Y-13152871D01*
X19717843Y-13067157D01*
X19732128Y-13038586D01*
X19746414Y-13024300D01*
X19774986Y-13010014D01*
X19817843Y-13010014D01*
X19846414Y-13024300D01*
X19860700Y-13038586D01*
X19874986Y-13067157D01*
X19874986Y-13152871D01*
X19860700Y-13181443D01*
X19846414Y-13195729D01*
X19817843Y-13210014D01*
X19774986Y-13210014D01*
X19960700Y-13010014D02*
X20074986Y-13010014D01*
X20003557Y-12910014D02*
X20003557Y-13167157D01*
X20017843Y-13195729D01*
X20046414Y-13210014D01*
X20074986Y-13210014D01*
X20403557Y-13010014D02*
X20403557Y-13310014D01*
X20403557Y-13024300D02*
X20432128Y-13010014D01*
X20489271Y-13010014D01*
X20517843Y-13024300D01*
X20532128Y-13038586D01*
X20546414Y-13067157D01*
X20546414Y-13152871D01*
X20532128Y-13181443D01*
X20517843Y-13195729D01*
X20489271Y-13210014D01*
X20432128Y-13210014D01*
X20403557Y-13195729D01*
X20717843Y-13210014D02*
X20689271Y-13195729D01*
X20674986Y-13167157D01*
X20674986Y-12910014D01*
X20960700Y-13210014D02*
X20960700Y-13052871D01*
X20946414Y-13024300D01*
X20917843Y-13010014D01*
X20860700Y-13010014D01*
X20832128Y-13024300D01*
X20960700Y-13195729D02*
X20932128Y-13210014D01*
X20860700Y-13210014D01*
X20832128Y-13195729D01*
X20817843Y-13167157D01*
X20817843Y-13138586D01*
X20832128Y-13110014D01*
X20860700Y-13095729D01*
X20932128Y-13095729D01*
X20960700Y-13081443D01*
X21060700Y-13010014D02*
X21174986Y-13010014D01*
X21103557Y-12910014D02*
X21103557Y-13167157D01*
X21117843Y-13195729D01*
X21146414Y-13210014D01*
X21174986Y-13210014D01*
X21389271Y-13195729D02*
X21360700Y-13210014D01*
X21303557Y-13210014D01*
X21274986Y-13195729D01*
X21260700Y-13167157D01*
X21260700Y-13052871D01*
X21274986Y-13024300D01*
X21303557Y-13010014D01*
X21360700Y-13010014D01*
X21389271Y-13024300D01*
X21403557Y-13052871D01*
X21403557Y-13081443D01*
X21260700Y-13110014D01*
X21660700Y-13210014D02*
X21660700Y-12910014D01*
X21660700Y-13195729D02*
X21632128Y-13210014D01*
X21574986Y-13210014D01*
X21546414Y-13195729D01*
X21532128Y-13181443D01*
X21517843Y-13152871D01*
X21517843Y-13067157D01*
X21532128Y-13038586D01*
X21546414Y-13024300D01*
X21574986Y-13010014D01*
X21632128Y-13010014D01*
X21660700Y-13024300D01*
X21774986Y-13324300D02*
X21789271Y-13310014D01*
X21817843Y-13267157D01*
X21832128Y-13238586D01*
X21846414Y-13195729D01*
X21860700Y-13124300D01*
X21860700Y-13067157D01*
X21846414Y-12995729D01*
X21832128Y-12952871D01*
X21817843Y-12924300D01*
X21789271Y-12881443D01*
X21774986Y-12867157D01*
M02*
