G04 #@! TF.GenerationSoftware,KiCad,Pcbnew,(5.1.10-1-10_14)*
G04 #@! TF.CreationDate,2021-10-23T22:51:03+02:00*
G04 #@! TF.ProjectId,roodialino,726f6f64-6961-46c6-996e-6f2e6b696361,1.0*
G04 #@! TF.SameCoordinates,Original*
G04 #@! TF.FileFunction,Legend,Bot*
G04 #@! TF.FilePolarity,Positive*
%FSLAX46Y46*%
G04 Gerber Fmt 4.6, Leading zero omitted, Abs format (unit mm)*
G04 Created by KiCad (PCBNEW (5.1.10-1-10_14)) date 2021-10-23 22:51:03*
%MOMM*%
%LPD*%
G01*
G04 APERTURE LIST*
%ADD10C,0.600000*%
%ADD11C,0.150000*%
%ADD12C,0.300000*%
%ADD13C,0.120000*%
%ADD14C,1.902000*%
%ADD15C,2.802000*%
%ADD16O,1.802000X1.802000*%
%ADD17C,0.100000*%
G04 APERTURE END LIST*
D10*
X169440171Y-112270228D02*
X169440171Y-110470228D01*
X169440171Y-110984514D02*
X169311600Y-110727371D01*
X169183028Y-110598800D01*
X168925885Y-110470228D01*
X168668742Y-110470228D01*
X167383028Y-112270228D02*
X167640171Y-112141657D01*
X167768742Y-112013085D01*
X167897314Y-111755942D01*
X167897314Y-110984514D01*
X167768742Y-110727371D01*
X167640171Y-110598800D01*
X167383028Y-110470228D01*
X166997314Y-110470228D01*
X166740171Y-110598800D01*
X166611600Y-110727371D01*
X166483028Y-110984514D01*
X166483028Y-111755942D01*
X166611600Y-112013085D01*
X166740171Y-112141657D01*
X166997314Y-112270228D01*
X167383028Y-112270228D01*
X164940171Y-112270228D02*
X165197314Y-112141657D01*
X165325885Y-112013085D01*
X165454457Y-111755942D01*
X165454457Y-110984514D01*
X165325885Y-110727371D01*
X165197314Y-110598800D01*
X164940171Y-110470228D01*
X164554457Y-110470228D01*
X164297314Y-110598800D01*
X164168742Y-110727371D01*
X164040171Y-110984514D01*
X164040171Y-111755942D01*
X164168742Y-112013085D01*
X164297314Y-112141657D01*
X164554457Y-112270228D01*
X164940171Y-112270228D01*
X161340171Y-112013085D02*
X161468742Y-112141657D01*
X161854457Y-112270228D01*
X162111600Y-112270228D01*
X162497314Y-112141657D01*
X162754457Y-111884514D01*
X162883028Y-111627371D01*
X163011600Y-111113085D01*
X163011600Y-110727371D01*
X162883028Y-110213085D01*
X162754457Y-109955942D01*
X162497314Y-109698800D01*
X162111600Y-109570228D01*
X161854457Y-109570228D01*
X161468742Y-109698800D01*
X161340171Y-109827371D01*
X159797314Y-112270228D02*
X160054457Y-112141657D01*
X160183028Y-112013085D01*
X160311600Y-111755942D01*
X160311600Y-110984514D01*
X160183028Y-110727371D01*
X160054457Y-110598800D01*
X159797314Y-110470228D01*
X159411600Y-110470228D01*
X159154457Y-110598800D01*
X159025885Y-110727371D01*
X158897314Y-110984514D01*
X158897314Y-111755942D01*
X159025885Y-112013085D01*
X159154457Y-112141657D01*
X159411600Y-112270228D01*
X159797314Y-112270228D01*
X157740171Y-110470228D02*
X157740171Y-112270228D01*
X157740171Y-110727371D02*
X157611600Y-110598800D01*
X157354457Y-110470228D01*
X156968742Y-110470228D01*
X156711600Y-110598800D01*
X156583028Y-110855942D01*
X156583028Y-112270228D01*
X155683028Y-110470228D02*
X154654457Y-110470228D01*
X155297314Y-109570228D02*
X155297314Y-111884514D01*
X155168742Y-112141657D01*
X154911600Y-112270228D01*
X154654457Y-112270228D01*
X153754457Y-112270228D02*
X153754457Y-110470228D01*
X153754457Y-110984514D02*
X153625885Y-110727371D01*
X153497314Y-110598800D01*
X153240171Y-110470228D01*
X152983028Y-110470228D01*
X151697314Y-112270228D02*
X151954457Y-112141657D01*
X152083028Y-112013085D01*
X152211600Y-111755942D01*
X152211600Y-110984514D01*
X152083028Y-110727371D01*
X151954457Y-110598800D01*
X151697314Y-110470228D01*
X151311600Y-110470228D01*
X151054457Y-110598800D01*
X150925885Y-110727371D01*
X150797314Y-110984514D01*
X150797314Y-111755942D01*
X150925885Y-112013085D01*
X151054457Y-112141657D01*
X151311600Y-112270228D01*
X151697314Y-112270228D01*
X149254457Y-112270228D02*
X149511600Y-112141657D01*
X149640171Y-111884514D01*
X149640171Y-109570228D01*
X146168742Y-112270228D02*
X146168742Y-109570228D01*
X143340171Y-112270228D02*
X144240171Y-110984514D01*
X144883028Y-112270228D02*
X144883028Y-109570228D01*
X143854457Y-109570228D01*
X143597314Y-109698800D01*
X143468742Y-109827371D01*
X143340171Y-110084514D01*
X143340171Y-110470228D01*
X143468742Y-110727371D01*
X143597314Y-110855942D01*
X143854457Y-110984514D01*
X144883028Y-110984514D01*
X138583028Y-112270228D02*
X139483028Y-110984514D01*
X140125885Y-112270228D02*
X140125885Y-109570228D01*
X139097314Y-109570228D01*
X138840171Y-109698800D01*
X138711600Y-109827371D01*
X138583028Y-110084514D01*
X138583028Y-110470228D01*
X138711600Y-110727371D01*
X138840171Y-110855942D01*
X139097314Y-110984514D01*
X140125885Y-110984514D01*
X136397314Y-112141657D02*
X136654457Y-112270228D01*
X137168742Y-112270228D01*
X137425885Y-112141657D01*
X137554457Y-111884514D01*
X137554457Y-110855942D01*
X137425885Y-110598800D01*
X137168742Y-110470228D01*
X136654457Y-110470228D01*
X136397314Y-110598800D01*
X136268742Y-110855942D01*
X136268742Y-111113085D01*
X137554457Y-111370228D01*
X134725885Y-112270228D02*
X134983028Y-112141657D01*
X135111600Y-111884514D01*
X135111600Y-109570228D01*
X132540171Y-112270228D02*
X132540171Y-110855942D01*
X132668742Y-110598800D01*
X132925885Y-110470228D01*
X133440171Y-110470228D01*
X133697314Y-110598800D01*
X132540171Y-112141657D02*
X132797314Y-112270228D01*
X133440171Y-112270228D01*
X133697314Y-112141657D01*
X133825885Y-111884514D01*
X133825885Y-111627371D01*
X133697314Y-111370228D01*
X133440171Y-111241657D01*
X132797314Y-111241657D01*
X132540171Y-111113085D01*
X131511600Y-110470228D02*
X130868742Y-112270228D01*
X130225885Y-110470228D02*
X130868742Y-112270228D01*
X131125885Y-112913085D01*
X131254457Y-113041657D01*
X131511600Y-113170228D01*
D11*
X178816000Y-98044000D02*
X178816000Y-99568000D01*
X178816000Y-103632000D02*
X178816000Y-102108000D01*
X162560000Y-103632000D02*
X178816000Y-103632000D01*
X162560000Y-98044000D02*
X162560000Y-103632000D01*
X178816000Y-98044000D02*
X162560000Y-98044000D01*
X126030604Y-109596180D02*
X126030604Y-108596180D01*
X125459176Y-109596180D02*
X125887747Y-109024752D01*
X125459176Y-108596180D02*
X126030604Y-109167609D01*
X149373204Y-105100380D02*
X149373204Y-104100380D01*
X148801776Y-105100380D02*
X149230347Y-104528952D01*
X148801776Y-104100380D02*
X149373204Y-104671809D01*
X171979204Y-109469180D02*
X171979204Y-108469180D01*
X171407776Y-109469180D02*
X171836347Y-108897752D01*
X171407776Y-108469180D02*
X171979204Y-109040609D01*
X121611004Y-102458780D02*
X121611004Y-101458780D01*
X121039576Y-102458780D02*
X121468147Y-101887352D01*
X121039576Y-101458780D02*
X121611004Y-102030209D01*
X123611004Y-112202980D02*
X123277671Y-113202980D01*
X122944338Y-112202980D01*
X122039576Y-113107742D02*
X122087195Y-113155361D01*
X122230052Y-113202980D01*
X122325290Y-113202980D01*
X122468147Y-113155361D01*
X122563385Y-113060123D01*
X122611004Y-112964885D01*
X122658623Y-112774409D01*
X122658623Y-112631552D01*
X122611004Y-112441076D01*
X122563385Y-112345838D01*
X122468147Y-112250600D01*
X122325290Y-112202980D01*
X122230052Y-112202980D01*
X122087195Y-112250600D01*
X122039576Y-112298219D01*
X121039576Y-113107742D02*
X121087195Y-113155361D01*
X121230052Y-113202980D01*
X121325290Y-113202980D01*
X121468147Y-113155361D01*
X121563385Y-113060123D01*
X121611004Y-112964885D01*
X121658623Y-112774409D01*
X121658623Y-112631552D01*
X121611004Y-112441076D01*
X121563385Y-112345838D01*
X121468147Y-112250600D01*
X121325290Y-112202980D01*
X121230052Y-112202980D01*
X121087195Y-112250600D01*
X121039576Y-112298219D01*
X122982414Y-109761400D02*
X123077652Y-109713780D01*
X123220509Y-109713780D01*
X123363366Y-109761400D01*
X123458604Y-109856638D01*
X123506223Y-109951876D01*
X123553842Y-110142352D01*
X123553842Y-110285209D01*
X123506223Y-110475685D01*
X123458604Y-110570923D01*
X123363366Y-110666161D01*
X123220509Y-110713780D01*
X123125271Y-110713780D01*
X122982414Y-110666161D01*
X122934795Y-110618542D01*
X122934795Y-110285209D01*
X123125271Y-110285209D01*
X122506223Y-110713780D02*
X122506223Y-109713780D01*
X121934795Y-110713780D01*
X121934795Y-109713780D01*
X121458604Y-110713780D02*
X121458604Y-109713780D01*
X121220509Y-109713780D01*
X121077652Y-109761400D01*
X120982414Y-109856638D01*
X120934795Y-109951876D01*
X120887176Y-110142352D01*
X120887176Y-110285209D01*
X120934795Y-110475685D01*
X120982414Y-110570923D01*
X121077652Y-110666161D01*
X121220509Y-110713780D01*
X121458604Y-110713780D01*
X123226871Y-107275380D02*
X123036395Y-107275380D01*
X122941157Y-107323000D01*
X122845919Y-107418238D01*
X122798300Y-107608714D01*
X122798300Y-107942047D01*
X122845919Y-108132523D01*
X122941157Y-108227761D01*
X123036395Y-108275380D01*
X123226871Y-108275380D01*
X123322109Y-108227761D01*
X123417347Y-108132523D01*
X123464966Y-107942047D01*
X123464966Y-107608714D01*
X123417347Y-107418238D01*
X123322109Y-107323000D01*
X123226871Y-107275380D01*
X122369728Y-107275380D02*
X122369728Y-108084904D01*
X122322109Y-108180142D01*
X122274490Y-108227761D01*
X122179252Y-108275380D01*
X121988776Y-108275380D01*
X121893538Y-108227761D01*
X121845919Y-108180142D01*
X121798300Y-108084904D01*
X121798300Y-107275380D01*
X121464966Y-107275380D02*
X120893538Y-107275380D01*
X121179252Y-108275380D02*
X121179252Y-107275380D01*
X170733404Y-100465380D02*
X170733404Y-99465380D01*
X169685785Y-100370142D02*
X169733404Y-100417761D01*
X169876261Y-100465380D01*
X169971500Y-100465380D01*
X170114357Y-100417761D01*
X170209595Y-100322523D01*
X170257214Y-100227285D01*
X170304833Y-100036809D01*
X170304833Y-99893952D01*
X170257214Y-99703476D01*
X170209595Y-99608238D01*
X170114357Y-99513000D01*
X169971500Y-99465380D01*
X169876261Y-99465380D01*
X169733404Y-99513000D01*
X169685785Y-99560619D01*
X169304833Y-100417761D02*
X169161976Y-100465380D01*
X168923880Y-100465380D01*
X168828642Y-100417761D01*
X168781023Y-100370142D01*
X168733404Y-100274904D01*
X168733404Y-100179666D01*
X168781023Y-100084428D01*
X168828642Y-100036809D01*
X168923880Y-99989190D01*
X169114357Y-99941571D01*
X169209595Y-99893952D01*
X169257214Y-99846333D01*
X169304833Y-99751095D01*
X169304833Y-99655857D01*
X169257214Y-99560619D01*
X169209595Y-99513000D01*
X169114357Y-99465380D01*
X168876261Y-99465380D01*
X168733404Y-99513000D01*
X168304833Y-100465380D02*
X168304833Y-99465380D01*
X167923880Y-99465380D01*
X167828642Y-99513000D01*
X167781023Y-99560619D01*
X167733404Y-99655857D01*
X167733404Y-99798714D01*
X167781023Y-99893952D01*
X167828642Y-99941571D01*
X167923880Y-99989190D01*
X168304833Y-99989190D01*
X167304833Y-100370142D02*
X167257214Y-100417761D01*
X167304833Y-100465380D01*
X167352452Y-100417761D01*
X167304833Y-100370142D01*
X167304833Y-100465380D01*
X167304833Y-99846333D02*
X167257214Y-99893952D01*
X167304833Y-99941571D01*
X167352452Y-99893952D01*
X167304833Y-99846333D01*
X167304833Y-99941571D01*
X165638166Y-99798714D02*
X165638166Y-100465380D01*
X166066738Y-99798714D02*
X166066738Y-100322523D01*
X166019119Y-100417761D01*
X165923880Y-100465380D01*
X165781023Y-100465380D01*
X165685785Y-100417761D01*
X165638166Y-100370142D01*
X165209595Y-100417761D02*
X165114357Y-100465380D01*
X164923880Y-100465380D01*
X164828642Y-100417761D01*
X164781023Y-100322523D01*
X164781023Y-100274904D01*
X164828642Y-100179666D01*
X164923880Y-100132047D01*
X165066738Y-100132047D01*
X165161976Y-100084428D01*
X165209595Y-99989190D01*
X165209595Y-99941571D01*
X165161976Y-99846333D01*
X165066738Y-99798714D01*
X164923880Y-99798714D01*
X164828642Y-99846333D01*
X163971500Y-100417761D02*
X164066738Y-100465380D01*
X164257214Y-100465380D01*
X164352452Y-100417761D01*
X164400071Y-100322523D01*
X164400071Y-99941571D01*
X164352452Y-99846333D01*
X164257214Y-99798714D01*
X164066738Y-99798714D01*
X163971500Y-99846333D01*
X163923880Y-99941571D01*
X163923880Y-100036809D01*
X164400071Y-100132047D01*
X170590547Y-102115380D02*
X170685785Y-102067761D01*
X170733404Y-102020142D01*
X170781023Y-101924904D01*
X170781023Y-101639190D01*
X170733404Y-101543952D01*
X170685785Y-101496333D01*
X170590547Y-101448714D01*
X170447690Y-101448714D01*
X170352452Y-101496333D01*
X170304833Y-101543952D01*
X170257214Y-101639190D01*
X170257214Y-101924904D01*
X170304833Y-102020142D01*
X170352452Y-102067761D01*
X170447690Y-102115380D01*
X170590547Y-102115380D01*
X169971500Y-101448714D02*
X169590547Y-101448714D01*
X169828642Y-101115380D02*
X169828642Y-101972523D01*
X169781023Y-102067761D01*
X169685785Y-102115380D01*
X169590547Y-102115380D01*
X169257214Y-102115380D02*
X169257214Y-101115380D01*
X168828642Y-102115380D02*
X168828642Y-101591571D01*
X168876261Y-101496333D01*
X168971500Y-101448714D01*
X169114357Y-101448714D01*
X169209595Y-101496333D01*
X169257214Y-101543952D01*
X167971500Y-102067761D02*
X168066738Y-102115380D01*
X168257214Y-102115380D01*
X168352452Y-102067761D01*
X168400071Y-101972523D01*
X168400071Y-101591571D01*
X168352452Y-101496333D01*
X168257214Y-101448714D01*
X168066738Y-101448714D01*
X167971500Y-101496333D01*
X167923880Y-101591571D01*
X167923880Y-101686809D01*
X168400071Y-101782047D01*
X167495309Y-102115380D02*
X167495309Y-101448714D01*
X167495309Y-101639190D02*
X167447690Y-101543952D01*
X167400071Y-101496333D01*
X167304833Y-101448714D01*
X167209595Y-101448714D01*
X166161976Y-102067761D02*
X166066738Y-102115380D01*
X165876261Y-102115380D01*
X165781023Y-102067761D01*
X165733404Y-101972523D01*
X165733404Y-101924904D01*
X165781023Y-101829666D01*
X165876261Y-101782047D01*
X166019119Y-101782047D01*
X166114357Y-101734428D01*
X166161976Y-101639190D01*
X166161976Y-101591571D01*
X166114357Y-101496333D01*
X166019119Y-101448714D01*
X165876261Y-101448714D01*
X165781023Y-101496333D01*
X165304833Y-102115380D02*
X165304833Y-101448714D01*
X165304833Y-101115380D02*
X165352452Y-101163000D01*
X165304833Y-101210619D01*
X165257214Y-101163000D01*
X165304833Y-101115380D01*
X165304833Y-101210619D01*
X164400071Y-102115380D02*
X164400071Y-101115380D01*
X164400071Y-102067761D02*
X164495309Y-102115380D01*
X164685785Y-102115380D01*
X164781023Y-102067761D01*
X164828642Y-102020142D01*
X164876261Y-101924904D01*
X164876261Y-101639190D01*
X164828642Y-101543952D01*
X164781023Y-101496333D01*
X164685785Y-101448714D01*
X164495309Y-101448714D01*
X164400071Y-101496333D01*
X163542928Y-102067761D02*
X163638166Y-102115380D01*
X163828642Y-102115380D01*
X163923880Y-102067761D01*
X163971500Y-101972523D01*
X163971500Y-101591571D01*
X163923880Y-101496333D01*
X163828642Y-101448714D01*
X163638166Y-101448714D01*
X163542928Y-101496333D01*
X163495309Y-101591571D01*
X163495309Y-101686809D01*
X163971500Y-101782047D01*
X153971047Y-97445580D02*
X153971047Y-98159866D01*
X154018666Y-98302723D01*
X154113904Y-98397961D01*
X154256761Y-98445580D01*
X154352000Y-98445580D01*
X153018666Y-98445580D02*
X153494857Y-98445580D01*
X153494857Y-97445580D01*
X152113904Y-98350342D02*
X152161523Y-98397961D01*
X152304380Y-98445580D01*
X152399619Y-98445580D01*
X152542476Y-98397961D01*
X152637714Y-98302723D01*
X152685333Y-98207485D01*
X152732952Y-98017009D01*
X152732952Y-97874152D01*
X152685333Y-97683676D01*
X152637714Y-97588438D01*
X152542476Y-97493200D01*
X152399619Y-97445580D01*
X152304380Y-97445580D01*
X152161523Y-97493200D01*
X152113904Y-97540819D01*
X151399619Y-97445580D02*
X151399619Y-98159866D01*
X151447238Y-98302723D01*
X151542476Y-98397961D01*
X151685333Y-98445580D01*
X151780571Y-98445580D01*
X150447238Y-98445580D02*
X150923428Y-98445580D01*
X150923428Y-97445580D01*
X149542476Y-98350342D02*
X149590095Y-98397961D01*
X149732952Y-98445580D01*
X149828190Y-98445580D01*
X149971047Y-98397961D01*
X150066285Y-98302723D01*
X150113904Y-98207485D01*
X150161523Y-98017009D01*
X150161523Y-97874152D01*
X150113904Y-97683676D01*
X150066285Y-97588438D01*
X149971047Y-97493200D01*
X149828190Y-97445580D01*
X149732952Y-97445580D01*
X149590095Y-97493200D01*
X149542476Y-97540819D01*
X148828190Y-97445580D02*
X148828190Y-98159866D01*
X148875809Y-98302723D01*
X148971047Y-98397961D01*
X149113904Y-98445580D01*
X149209142Y-98445580D01*
X147875809Y-98445580D02*
X148352000Y-98445580D01*
X148352000Y-97445580D01*
X146971047Y-98350342D02*
X147018666Y-98397961D01*
X147161523Y-98445580D01*
X147256761Y-98445580D01*
X147399619Y-98397961D01*
X147494857Y-98302723D01*
X147542476Y-98207485D01*
X147590095Y-98017009D01*
X147590095Y-97874152D01*
X147542476Y-97683676D01*
X147494857Y-97588438D01*
X147399619Y-97493200D01*
X147256761Y-97445580D01*
X147161523Y-97445580D01*
X147018666Y-97493200D01*
X146971047Y-97540819D01*
X146256761Y-97445580D02*
X146256761Y-98159866D01*
X146304380Y-98302723D01*
X146399619Y-98397961D01*
X146542476Y-98445580D01*
X146637714Y-98445580D01*
X145304380Y-98445580D02*
X145780571Y-98445580D01*
X145780571Y-97445580D01*
X144399619Y-98350342D02*
X144447238Y-98397961D01*
X144590095Y-98445580D01*
X144685333Y-98445580D01*
X144828190Y-98397961D01*
X144923428Y-98302723D01*
X144971047Y-98207485D01*
X145018666Y-98017009D01*
X145018666Y-97874152D01*
X144971047Y-97683676D01*
X144923428Y-97588438D01*
X144828190Y-97493200D01*
X144685333Y-97445580D01*
X144590095Y-97445580D01*
X144447238Y-97493200D01*
X144399619Y-97540819D01*
X180268619Y-97633261D02*
X180744809Y-97966595D01*
X180268619Y-98204690D02*
X181268619Y-98204690D01*
X181268619Y-97823738D01*
X181221000Y-97728500D01*
X181173380Y-97680880D01*
X181078142Y-97633261D01*
X180935285Y-97633261D01*
X180840047Y-97680880D01*
X180792428Y-97728500D01*
X180744809Y-97823738D01*
X180744809Y-98204690D01*
X180316238Y-97252309D02*
X180268619Y-97109452D01*
X180268619Y-96871357D01*
X180316238Y-96776119D01*
X180363857Y-96728500D01*
X180459095Y-96680880D01*
X180554333Y-96680880D01*
X180649571Y-96728500D01*
X180697190Y-96776119D01*
X180744809Y-96871357D01*
X180792428Y-97061833D01*
X180840047Y-97157071D01*
X180887666Y-97204690D01*
X180982904Y-97252309D01*
X181078142Y-97252309D01*
X181173380Y-97204690D01*
X181221000Y-97157071D01*
X181268619Y-97061833D01*
X181268619Y-96823738D01*
X181221000Y-96680880D01*
X181268619Y-96395166D02*
X181268619Y-95823738D01*
X180268619Y-96109452D02*
X181268619Y-96109452D01*
X180290007Y-101156557D02*
X179885946Y-100752496D01*
X179380870Y-101661633D02*
X180087977Y-100954526D01*
X179717587Y-100584137D02*
X178539076Y-100819839D01*
X179246183Y-100112733D02*
X179010481Y-101291244D01*
X179040357Y-105354380D02*
X179373690Y-104878190D01*
X179611785Y-105354380D02*
X179611785Y-104354380D01*
X179230833Y-104354380D01*
X179135595Y-104402000D01*
X179087976Y-104449619D01*
X179040357Y-104544857D01*
X179040357Y-104687714D01*
X179087976Y-104782952D01*
X179135595Y-104830571D01*
X179230833Y-104878190D01*
X179611785Y-104878190D01*
X178707023Y-104354380D02*
X178040357Y-105354380D01*
X178040357Y-104354380D02*
X178707023Y-105354380D01*
X179119738Y-106894380D02*
X179595928Y-106894380D01*
X179643547Y-107370571D01*
X179595928Y-107322952D01*
X179500690Y-107275333D01*
X179262595Y-107275333D01*
X179167357Y-107322952D01*
X179119738Y-107370571D01*
X179072119Y-107465809D01*
X179072119Y-107703904D01*
X179119738Y-107799142D01*
X179167357Y-107846761D01*
X179262595Y-107894380D01*
X179500690Y-107894380D01*
X179595928Y-107846761D01*
X179643547Y-107799142D01*
X178786404Y-106894380D02*
X178453071Y-107894380D01*
X178119738Y-106894380D01*
X179167214Y-109355000D02*
X179262452Y-109307380D01*
X179405309Y-109307380D01*
X179548166Y-109355000D01*
X179643404Y-109450238D01*
X179691023Y-109545476D01*
X179738642Y-109735952D01*
X179738642Y-109878809D01*
X179691023Y-110069285D01*
X179643404Y-110164523D01*
X179548166Y-110259761D01*
X179405309Y-110307380D01*
X179310071Y-110307380D01*
X179167214Y-110259761D01*
X179119595Y-110212142D01*
X179119595Y-109878809D01*
X179310071Y-109878809D01*
X178691023Y-110307380D02*
X178691023Y-109307380D01*
X178119595Y-110307380D01*
X178119595Y-109307380D01*
X177643404Y-110307380D02*
X177643404Y-109307380D01*
X177405309Y-109307380D01*
X177262452Y-109355000D01*
X177167214Y-109450238D01*
X177119595Y-109545476D01*
X177071976Y-109735952D01*
X177071976Y-109878809D01*
X177119595Y-110069285D01*
X177167214Y-110164523D01*
X177262452Y-110259761D01*
X177405309Y-110307380D01*
X177643404Y-110307380D01*
X179167214Y-111768000D02*
X179262452Y-111720380D01*
X179405309Y-111720380D01*
X179548166Y-111768000D01*
X179643404Y-111863238D01*
X179691023Y-111958476D01*
X179738642Y-112148952D01*
X179738642Y-112291809D01*
X179691023Y-112482285D01*
X179643404Y-112577523D01*
X179548166Y-112672761D01*
X179405309Y-112720380D01*
X179310071Y-112720380D01*
X179167214Y-112672761D01*
X179119595Y-112625142D01*
X179119595Y-112291809D01*
X179310071Y-112291809D01*
X178691023Y-112720380D02*
X178691023Y-111720380D01*
X178119595Y-112720380D01*
X178119595Y-111720380D01*
X177643404Y-112720380D02*
X177643404Y-111720380D01*
X177405309Y-111720380D01*
X177262452Y-111768000D01*
X177167214Y-111863238D01*
X177119595Y-111958476D01*
X177071976Y-112148952D01*
X177071976Y-112291809D01*
X177119595Y-112482285D01*
X177167214Y-112577523D01*
X177262452Y-112672761D01*
X177405309Y-112720380D01*
X177643404Y-112720380D01*
D12*
X175536152Y-115735009D02*
X175536152Y-114135009D01*
X175536152Y-114744533D02*
X175383771Y-114668342D01*
X175079009Y-114668342D01*
X174926628Y-114744533D01*
X174850438Y-114820723D01*
X174774247Y-114973104D01*
X174774247Y-115430247D01*
X174850438Y-115582628D01*
X174926628Y-115658819D01*
X175079009Y-115735009D01*
X175383771Y-115735009D01*
X175536152Y-115658819D01*
X174240914Y-114668342D02*
X173859961Y-115735009D01*
X173479009Y-114668342D02*
X173859961Y-115735009D01*
X174012342Y-116115961D01*
X174088533Y-116192152D01*
X174240914Y-116268342D01*
X171117104Y-114896914D02*
X171650438Y-114896914D01*
X171650438Y-115735009D02*
X171650438Y-114135009D01*
X170888533Y-114135009D01*
X170279009Y-115735009D02*
X170279009Y-114668342D01*
X170279009Y-114973104D02*
X170202819Y-114820723D01*
X170126628Y-114744533D01*
X169974247Y-114668342D01*
X169821866Y-114668342D01*
X169288533Y-115735009D02*
X169288533Y-114668342D01*
X169288533Y-114135009D02*
X169364723Y-114211200D01*
X169288533Y-114287390D01*
X169212342Y-114211200D01*
X169288533Y-114135009D01*
X169288533Y-114287390D01*
X167917104Y-115658819D02*
X168069485Y-115735009D01*
X168374247Y-115735009D01*
X168526628Y-115658819D01*
X168602819Y-115506438D01*
X168602819Y-114896914D01*
X168526628Y-114744533D01*
X168374247Y-114668342D01*
X168069485Y-114668342D01*
X167917104Y-114744533D01*
X167840914Y-114896914D01*
X167840914Y-115049295D01*
X168602819Y-115201676D01*
X166469485Y-115735009D02*
X166469485Y-114135009D01*
X166469485Y-115658819D02*
X166621866Y-115735009D01*
X166926628Y-115735009D01*
X167079009Y-115658819D01*
X167155200Y-115582628D01*
X167231390Y-115430247D01*
X167231390Y-114973104D01*
X167155200Y-114820723D01*
X167079009Y-114744533D01*
X166926628Y-114668342D01*
X166621866Y-114668342D01*
X166469485Y-114744533D01*
X165098057Y-115658819D02*
X165250438Y-115735009D01*
X165555200Y-115735009D01*
X165707580Y-115658819D01*
X165783771Y-115506438D01*
X165783771Y-114896914D01*
X165707580Y-114744533D01*
X165555200Y-114668342D01*
X165250438Y-114668342D01*
X165098057Y-114744533D01*
X165021866Y-114896914D01*
X165021866Y-115049295D01*
X165783771Y-115201676D01*
X164336152Y-115735009D02*
X164336152Y-114668342D01*
X164336152Y-114820723D02*
X164259961Y-114744533D01*
X164107580Y-114668342D01*
X163879009Y-114668342D01*
X163726628Y-114744533D01*
X163650438Y-114896914D01*
X163650438Y-115735009D01*
X163650438Y-114896914D02*
X163574247Y-114744533D01*
X163421866Y-114668342D01*
X163193295Y-114668342D01*
X163040914Y-114744533D01*
X162964723Y-114896914D01*
X162964723Y-115735009D01*
X161517104Y-115735009D02*
X161517104Y-114896914D01*
X161593295Y-114744533D01*
X161745676Y-114668342D01*
X162050438Y-114668342D01*
X162202819Y-114744533D01*
X161517104Y-115658819D02*
X161669485Y-115735009D01*
X162050438Y-115735009D01*
X162202819Y-115658819D01*
X162279009Y-115506438D01*
X162279009Y-115354057D01*
X162202819Y-115201676D01*
X162050438Y-115125485D01*
X161669485Y-115125485D01*
X161517104Y-115049295D01*
X160755200Y-114668342D02*
X160755200Y-115735009D01*
X160755200Y-114820723D02*
X160679009Y-114744533D01*
X160526628Y-114668342D01*
X160298057Y-114668342D01*
X160145676Y-114744533D01*
X160069485Y-114896914D01*
X160069485Y-115735009D01*
X159307580Y-114668342D02*
X159307580Y-115735009D01*
X159307580Y-114820723D02*
X159231390Y-114744533D01*
X159079009Y-114668342D01*
X158850438Y-114668342D01*
X158698057Y-114744533D01*
X158621866Y-114896914D01*
X158621866Y-115735009D01*
X156793295Y-114135009D02*
X156412342Y-115735009D01*
X156107580Y-114592152D01*
X155802819Y-115735009D01*
X155421866Y-114135009D01*
X154126628Y-115735009D02*
X154126628Y-114896914D01*
X154202819Y-114744533D01*
X154355200Y-114668342D01*
X154659961Y-114668342D01*
X154812342Y-114744533D01*
X154126628Y-115658819D02*
X154279009Y-115735009D01*
X154659961Y-115735009D01*
X154812342Y-115658819D01*
X154888533Y-115506438D01*
X154888533Y-115354057D01*
X154812342Y-115201676D01*
X154659961Y-115125485D01*
X154279009Y-115125485D01*
X154126628Y-115049295D01*
X152679009Y-115658819D02*
X152831390Y-115735009D01*
X153136152Y-115735009D01*
X153288533Y-115658819D01*
X153364723Y-115582628D01*
X153440914Y-115430247D01*
X153440914Y-114973104D01*
X153364723Y-114820723D01*
X153288533Y-114744533D01*
X153136152Y-114668342D01*
X152831390Y-114668342D01*
X152679009Y-114744533D01*
X151993295Y-115735009D02*
X151993295Y-114135009D01*
X151307580Y-115735009D02*
X151307580Y-114896914D01*
X151383771Y-114744533D01*
X151536152Y-114668342D01*
X151764723Y-114668342D01*
X151917104Y-114744533D01*
X151993295Y-114820723D01*
X150621866Y-115658819D02*
X150469485Y-115735009D01*
X150164723Y-115735009D01*
X150012342Y-115658819D01*
X149936152Y-115506438D01*
X149936152Y-115430247D01*
X150012342Y-115277866D01*
X150164723Y-115201676D01*
X150393295Y-115201676D01*
X150545676Y-115125485D01*
X150621866Y-114973104D01*
X150621866Y-114896914D01*
X150545676Y-114744533D01*
X150393295Y-114668342D01*
X150164723Y-114668342D01*
X150012342Y-114744533D01*
X149250438Y-115735009D02*
X149250438Y-114668342D01*
X149250438Y-114820723D02*
X149174247Y-114744533D01*
X149021866Y-114668342D01*
X148793295Y-114668342D01*
X148640914Y-114744533D01*
X148564723Y-114896914D01*
X148564723Y-115735009D01*
X148564723Y-114896914D02*
X148488533Y-114744533D01*
X148336152Y-114668342D01*
X148107580Y-114668342D01*
X147955200Y-114744533D01*
X147879009Y-114896914D01*
X147879009Y-115735009D01*
X146431390Y-114668342D02*
X146431390Y-115735009D01*
X147117104Y-114668342D02*
X147117104Y-115506438D01*
X147040914Y-115658819D01*
X146888533Y-115735009D01*
X146659961Y-115735009D01*
X146507580Y-115658819D01*
X146431390Y-115582628D01*
X145898057Y-114668342D02*
X145288533Y-114668342D01*
X145669485Y-114135009D02*
X145669485Y-115506438D01*
X145593295Y-115658819D01*
X145440914Y-115735009D01*
X145288533Y-115735009D01*
X144755200Y-115735009D02*
X144755200Y-114135009D01*
X144069485Y-115735009D02*
X144069485Y-114896914D01*
X144145676Y-114744533D01*
X144298057Y-114668342D01*
X144526628Y-114668342D01*
X144679009Y-114744533D01*
X144755200Y-114820723D01*
X142164723Y-114287390D02*
X142088533Y-114211200D01*
X141936152Y-114135009D01*
X141555200Y-114135009D01*
X141402819Y-114211200D01*
X141326628Y-114287390D01*
X141250438Y-114439771D01*
X141250438Y-114592152D01*
X141326628Y-114820723D01*
X142240914Y-115735009D01*
X141250438Y-115735009D01*
X140259961Y-114135009D02*
X140107580Y-114135009D01*
X139955200Y-114211200D01*
X139879009Y-114287390D01*
X139802819Y-114439771D01*
X139726628Y-114744533D01*
X139726628Y-115125485D01*
X139802819Y-115430247D01*
X139879009Y-115582628D01*
X139955200Y-115658819D01*
X140107580Y-115735009D01*
X140259961Y-115735009D01*
X140412342Y-115658819D01*
X140488533Y-115582628D01*
X140564723Y-115430247D01*
X140640914Y-115125485D01*
X140640914Y-114744533D01*
X140564723Y-114439771D01*
X140488533Y-114287390D01*
X140412342Y-114211200D01*
X140259961Y-114135009D01*
X139117104Y-114287390D02*
X139040914Y-114211200D01*
X138888533Y-114135009D01*
X138507580Y-114135009D01*
X138355200Y-114211200D01*
X138279009Y-114287390D01*
X138202819Y-114439771D01*
X138202819Y-114592152D01*
X138279009Y-114820723D01*
X139193295Y-115735009D01*
X138202819Y-115735009D01*
X136679009Y-115735009D02*
X137593295Y-115735009D01*
X137136152Y-115735009D02*
X137136152Y-114135009D01*
X137288533Y-114363580D01*
X137440914Y-114515961D01*
X137593295Y-114592152D01*
X134317104Y-114973104D02*
X134317104Y-115277866D01*
X134240914Y-115277866D02*
X134240914Y-114973104D01*
X134164723Y-114896914D02*
X134164723Y-115354057D01*
X134088533Y-115277866D02*
X134088533Y-114973104D01*
X134012342Y-114973104D02*
X134012342Y-115277866D01*
X134317104Y-115201676D02*
X134164723Y-115354057D01*
X134012342Y-115201676D01*
X134317104Y-115049295D02*
X134164723Y-114896914D01*
X134012342Y-115049295D01*
X134317104Y-114973104D02*
X134164723Y-114896914D01*
X134012342Y-114973104D01*
X133936152Y-115125485D01*
X134012342Y-115277866D01*
X134164723Y-115354057D01*
X134317104Y-115277866D01*
X134393295Y-115125485D01*
X134317104Y-114973104D01*
X130659961Y-115735009D02*
X131193295Y-114973104D01*
X131574247Y-115735009D02*
X131574247Y-114135009D01*
X130964723Y-114135009D01*
X130812342Y-114211200D01*
X130736152Y-114287390D01*
X130659961Y-114439771D01*
X130659961Y-114668342D01*
X130736152Y-114820723D01*
X130812342Y-114896914D01*
X130964723Y-114973104D01*
X131574247Y-114973104D01*
X129364723Y-115658819D02*
X129517104Y-115735009D01*
X129821866Y-115735009D01*
X129974247Y-115658819D01*
X130050438Y-115506438D01*
X130050438Y-114896914D01*
X129974247Y-114744533D01*
X129821866Y-114668342D01*
X129517104Y-114668342D01*
X129364723Y-114744533D01*
X129288533Y-114896914D01*
X129288533Y-115049295D01*
X130050438Y-115201676D01*
X128755200Y-114668342D02*
X128374247Y-115735009D01*
X127993295Y-114668342D01*
X127383771Y-115582628D02*
X127307580Y-115658819D01*
X127383771Y-115735009D01*
X127459961Y-115658819D01*
X127383771Y-115582628D01*
X127383771Y-115735009D01*
X125479009Y-115277866D02*
X124717104Y-115277866D01*
X125631390Y-115735009D02*
X125098057Y-114135009D01*
X124564723Y-115735009D01*
D13*
X124528000Y-91968000D02*
X124528000Y-94568000D01*
X124528000Y-91968000D02*
X175448000Y-91968000D01*
X175448000Y-91968000D02*
X175448000Y-97168000D01*
X127128000Y-97168000D02*
X175448000Y-97168000D01*
X127128000Y-94568000D02*
X127128000Y-97168000D01*
X124528000Y-94568000D02*
X127128000Y-94568000D01*
X124528000Y-97168000D02*
X125858000Y-97168000D01*
X124528000Y-95838000D02*
X124528000Y-97168000D01*
X175703000Y-108340400D02*
X177103000Y-108340400D01*
X177803000Y-107640400D02*
X177803000Y-107040400D01*
X177103000Y-106340400D02*
X175703000Y-106340400D01*
X175003000Y-107040400D02*
X175003000Y-107640400D01*
X177103000Y-108340400D02*
G75*
G03*
X177803000Y-107640400I0J700000D01*
G01*
X177803000Y-107040400D02*
G75*
G03*
X177103000Y-106340400I-700000J0D01*
G01*
X175703000Y-106340400D02*
G75*
G03*
X175003000Y-107040400I0J-700000D01*
G01*
X175003000Y-107640400D02*
G75*
G03*
X175703000Y-108340400I700000J0D01*
G01*
%LPC*%
D14*
X151612600Y-106502200D03*
G36*
G01*
X148121600Y-107402200D02*
X148121600Y-105602200D01*
G75*
G02*
X148172600Y-105551200I51000J0D01*
G01*
X149972600Y-105551200D01*
G75*
G02*
X150023600Y-105602200I0J-51000D01*
G01*
X150023600Y-107402200D01*
G75*
G02*
X149972600Y-107453200I-51000J0D01*
G01*
X148172600Y-107453200D01*
G75*
G02*
X148121600Y-107402200I0J51000D01*
G01*
G37*
D15*
X121032000Y-94568000D03*
X179032000Y-94568000D03*
X179032000Y-117568000D03*
X121032000Y-117568000D03*
G36*
G01*
X124780000Y-111851000D02*
X124780000Y-110051000D01*
G75*
G02*
X124831000Y-110000000I51000J0D01*
G01*
X126631000Y-110000000D01*
G75*
G02*
X126682000Y-110051000I0J-51000D01*
G01*
X126682000Y-111851000D01*
G75*
G02*
X126631000Y-111902000I-51000J0D01*
G01*
X124831000Y-111902000D01*
G75*
G02*
X124780000Y-111851000I0J51000D01*
G01*
G37*
D14*
X128271000Y-110951000D03*
X174245000Y-110951000D03*
G36*
G01*
X170754000Y-111851000D02*
X170754000Y-110051000D01*
G75*
G02*
X170805000Y-110000000I51000J0D01*
G01*
X172605000Y-110000000D01*
G75*
G02*
X172656000Y-110051000I0J-51000D01*
G01*
X172656000Y-111851000D01*
G75*
G02*
X172605000Y-111902000I-51000J0D01*
G01*
X170805000Y-111902000D01*
G75*
G02*
X170754000Y-111851000I0J51000D01*
G01*
G37*
G36*
G01*
X125008000Y-94937000D02*
X126708000Y-94937000D01*
G75*
G02*
X126759000Y-94988000I0J-51000D01*
G01*
X126759000Y-96688000D01*
G75*
G02*
X126708000Y-96739000I-51000J0D01*
G01*
X125008000Y-96739000D01*
G75*
G02*
X124957000Y-96688000I0J51000D01*
G01*
X124957000Y-94988000D01*
G75*
G02*
X125008000Y-94937000I51000J0D01*
G01*
G37*
D16*
X125858000Y-93298000D03*
X128398000Y-95838000D03*
X128398000Y-93298000D03*
X130938000Y-95838000D03*
X130938000Y-93298000D03*
X133478000Y-95838000D03*
X133478000Y-93298000D03*
X136018000Y-95838000D03*
X136018000Y-93298000D03*
X138558000Y-95838000D03*
X138558000Y-93298000D03*
X141098000Y-95838000D03*
X141098000Y-93298000D03*
X143638000Y-95838000D03*
X143638000Y-93298000D03*
X146178000Y-95838000D03*
X146178000Y-93298000D03*
X148718000Y-95838000D03*
X148718000Y-93298000D03*
X151258000Y-95838000D03*
X151258000Y-93298000D03*
X153798000Y-95838000D03*
X153798000Y-93298000D03*
X156338000Y-95838000D03*
X156338000Y-93298000D03*
X158878000Y-95838000D03*
X158878000Y-93298000D03*
X161418000Y-95838000D03*
X161418000Y-93298000D03*
X163958000Y-95838000D03*
X163958000Y-93298000D03*
X166498000Y-95838000D03*
X166498000Y-93298000D03*
X169038000Y-95838000D03*
X169038000Y-93298000D03*
X171578000Y-95838000D03*
X171578000Y-93298000D03*
X174118000Y-95838000D03*
X174118000Y-93298000D03*
G36*
G01*
X173444000Y-103089000D02*
X171744000Y-103089000D01*
G75*
G02*
X171693000Y-103038000I0J51000D01*
G01*
X171693000Y-101338000D01*
G75*
G02*
X171744000Y-101287000I51000J0D01*
G01*
X173444000Y-101287000D01*
G75*
G02*
X173495000Y-101338000I0J-51000D01*
G01*
X173495000Y-103038000D01*
G75*
G02*
X173444000Y-103089000I-51000J0D01*
G01*
G37*
X172594000Y-99648000D03*
X175134000Y-102188000D03*
X175134000Y-99648000D03*
X177674000Y-102188000D03*
X177674000Y-99648000D03*
G36*
G01*
X118606000Y-108520600D02*
X118606000Y-106820600D01*
G75*
G02*
X118657000Y-106769600I51000J0D01*
G01*
X120357000Y-106769600D01*
G75*
G02*
X120408000Y-106820600I0J-51000D01*
G01*
X120408000Y-108520600D01*
G75*
G02*
X120357000Y-108571600I-51000J0D01*
G01*
X118657000Y-108571600D01*
G75*
G02*
X118606000Y-108520600I0J51000D01*
G01*
G37*
X119507000Y-110210600D03*
X119507000Y-112750600D03*
G36*
G01*
X120409000Y-101084000D02*
X120409000Y-102784000D01*
G75*
G02*
X120358000Y-102835000I-51000J0D01*
G01*
X118658000Y-102835000D01*
G75*
G02*
X118607000Y-102784000I0J51000D01*
G01*
X118607000Y-101084000D01*
G75*
G02*
X118658000Y-101033000I51000J0D01*
G01*
X120358000Y-101033000D01*
G75*
G02*
X120409000Y-101084000I0J-51000D01*
G01*
G37*
X119508000Y-99394000D03*
G36*
G01*
X181877000Y-111498000D02*
X181877000Y-113198000D01*
G75*
G02*
X181826000Y-113249000I-51000J0D01*
G01*
X180126000Y-113249000D01*
G75*
G02*
X180075000Y-113198000I0J51000D01*
G01*
X180075000Y-111498000D01*
G75*
G02*
X180126000Y-111447000I51000J0D01*
G01*
X181826000Y-111447000D01*
G75*
G02*
X181877000Y-111498000I0J-51000D01*
G01*
G37*
X180976000Y-109808000D03*
X180976000Y-107268000D03*
X180976000Y-104728000D03*
X180976000Y-102188000D03*
X180976000Y-99648000D03*
D17*
G36*
X176262950Y-106540380D02*
G01*
X176272517Y-106543282D01*
X176281334Y-106547995D01*
X176289062Y-106554338D01*
X176295405Y-106562066D01*
X176300118Y-106570883D01*
X176303020Y-106580450D01*
X176304000Y-106590400D01*
X176304000Y-108090400D01*
X176303020Y-108100350D01*
X176300118Y-108109917D01*
X176295405Y-108118734D01*
X176289062Y-108126462D01*
X176281334Y-108132805D01*
X176272517Y-108137518D01*
X176262950Y-108140420D01*
X176253000Y-108141400D01*
X175753000Y-108141400D01*
X175746888Y-108140798D01*
X175728466Y-108140798D01*
X175723467Y-108140552D01*
X175674636Y-108135742D01*
X175669686Y-108135008D01*
X175621561Y-108125436D01*
X175616705Y-108124220D01*
X175569750Y-108109976D01*
X175565039Y-108108290D01*
X175519706Y-108089513D01*
X175515180Y-108087373D01*
X175471907Y-108064242D01*
X175467616Y-108061669D01*
X175426817Y-108034409D01*
X175422796Y-108031427D01*
X175384867Y-108000299D01*
X175381159Y-107996938D01*
X175346462Y-107962241D01*
X175343101Y-107958533D01*
X175311973Y-107920604D01*
X175308991Y-107916583D01*
X175281731Y-107875784D01*
X175279158Y-107871493D01*
X175256027Y-107828220D01*
X175253887Y-107823694D01*
X175235110Y-107778361D01*
X175233424Y-107773650D01*
X175219180Y-107726695D01*
X175217964Y-107721839D01*
X175208392Y-107673714D01*
X175207658Y-107668764D01*
X175202848Y-107619933D01*
X175202602Y-107614934D01*
X175202602Y-107596512D01*
X175202000Y-107590400D01*
X175202000Y-107090400D01*
X175202602Y-107084288D01*
X175202602Y-107065866D01*
X175202848Y-107060867D01*
X175207658Y-107012036D01*
X175208392Y-107007086D01*
X175217964Y-106958961D01*
X175219180Y-106954105D01*
X175233424Y-106907150D01*
X175235110Y-106902439D01*
X175253887Y-106857106D01*
X175256027Y-106852580D01*
X175279158Y-106809307D01*
X175281731Y-106805016D01*
X175308991Y-106764217D01*
X175311973Y-106760196D01*
X175343101Y-106722267D01*
X175346462Y-106718559D01*
X175381159Y-106683862D01*
X175384867Y-106680501D01*
X175422796Y-106649373D01*
X175426817Y-106646391D01*
X175467616Y-106619131D01*
X175471907Y-106616558D01*
X175515180Y-106593427D01*
X175519706Y-106591287D01*
X175565039Y-106572510D01*
X175569750Y-106570824D01*
X175616705Y-106556580D01*
X175621561Y-106555364D01*
X175669686Y-106545792D01*
X175674636Y-106545058D01*
X175723467Y-106540248D01*
X175728466Y-106540002D01*
X175746888Y-106540002D01*
X175753000Y-106539400D01*
X176253000Y-106539400D01*
X176262950Y-106540380D01*
G37*
G36*
X177059112Y-106540002D02*
G01*
X177077534Y-106540002D01*
X177082533Y-106540248D01*
X177131364Y-106545058D01*
X177136314Y-106545792D01*
X177184439Y-106555364D01*
X177189295Y-106556580D01*
X177236250Y-106570824D01*
X177240961Y-106572510D01*
X177286294Y-106591287D01*
X177290820Y-106593427D01*
X177334093Y-106616558D01*
X177338384Y-106619131D01*
X177379183Y-106646391D01*
X177383204Y-106649373D01*
X177421133Y-106680501D01*
X177424841Y-106683862D01*
X177459538Y-106718559D01*
X177462899Y-106722267D01*
X177494027Y-106760196D01*
X177497009Y-106764217D01*
X177524269Y-106805016D01*
X177526842Y-106809307D01*
X177549973Y-106852580D01*
X177552113Y-106857106D01*
X177570890Y-106902439D01*
X177572576Y-106907150D01*
X177586820Y-106954105D01*
X177588036Y-106958961D01*
X177597608Y-107007086D01*
X177598342Y-107012036D01*
X177603152Y-107060867D01*
X177603398Y-107065866D01*
X177603398Y-107084288D01*
X177604000Y-107090400D01*
X177604000Y-107590400D01*
X177603398Y-107596512D01*
X177603398Y-107614934D01*
X177603152Y-107619933D01*
X177598342Y-107668764D01*
X177597608Y-107673714D01*
X177588036Y-107721839D01*
X177586820Y-107726695D01*
X177572576Y-107773650D01*
X177570890Y-107778361D01*
X177552113Y-107823694D01*
X177549973Y-107828220D01*
X177526842Y-107871493D01*
X177524269Y-107875784D01*
X177497009Y-107916583D01*
X177494027Y-107920604D01*
X177462899Y-107958533D01*
X177459538Y-107962241D01*
X177424841Y-107996938D01*
X177421133Y-108000299D01*
X177383204Y-108031427D01*
X177379183Y-108034409D01*
X177338384Y-108061669D01*
X177334093Y-108064242D01*
X177290820Y-108087373D01*
X177286294Y-108089513D01*
X177240961Y-108108290D01*
X177236250Y-108109976D01*
X177189295Y-108124220D01*
X177184439Y-108125436D01*
X177136314Y-108135008D01*
X177131364Y-108135742D01*
X177082533Y-108140552D01*
X177077534Y-108140798D01*
X177059112Y-108140798D01*
X177053000Y-108141400D01*
X176553000Y-108141400D01*
X176543050Y-108140420D01*
X176533483Y-108137518D01*
X176524666Y-108132805D01*
X176516938Y-108126462D01*
X176510595Y-108118734D01*
X176505882Y-108109917D01*
X176502980Y-108100350D01*
X176502000Y-108090400D01*
X176502000Y-106590400D01*
X176502980Y-106580450D01*
X176505882Y-106570883D01*
X176510595Y-106562066D01*
X176516938Y-106554338D01*
X176524666Y-106547995D01*
X176533483Y-106543282D01*
X176543050Y-106540380D01*
X176553000Y-106539400D01*
X177053000Y-106539400D01*
X177059112Y-106540002D01*
G37*
G36*
G01*
X146242000Y-118544524D02*
X146242000Y-117167476D01*
G75*
G02*
X146504476Y-116905000I262476J0D01*
G01*
X147881524Y-116905000D01*
G75*
G02*
X148144000Y-117167476I0J-262476D01*
G01*
X148144000Y-118544524D01*
G75*
G02*
X147881524Y-118807000I-262476J0D01*
G01*
X146504476Y-118807000D01*
G75*
G02*
X146242000Y-118544524I0J262476D01*
G01*
G37*
D14*
X149733000Y-117856000D03*
X152273000Y-117856000D03*
M02*
